<svg width="180" height="55" viewBox="0 0 180 55" fill="none" xmlns="http://www.w3.org/2000/svg">
<rect x="0.5" y="0.5" width="179" height="54" rx="5.5" fill="black"/>
<path d="M13.5348 10.46C13.0891 10.9056 13 11.5295 13 12.2426V41.478C13 42.2802 13.2674 42.9933 13.7131 43.2606L13.8022 43.4389L30.2025 27.1277V26.8603L13.5348 10.46Z" fill="url(#paint0_linear)"/>
<path d="M35.4615 32.6555L30.0244 27.3075V26.8619L35.4615 21.4248L35.6397 21.5139L42.1464 25.1684C43.9291 26.238 43.9291 27.9315 42.1464 29.0011L35.4615 32.6555Z" fill="url(#paint1_linear)"/>
<path d="M35.639 32.4774L30.0237 26.9512L13.5342 43.4407C14.2472 44.1537 15.1386 44.1537 16.2973 43.6189L35.639 32.4774Z" fill="url(#paint2_linear)"/>
<path d="M35.639 21.425L16.2973 10.4618C15.1386 9.7487 14.2472 9.92697 13.5342 10.5509L30.0237 26.9512L35.639 21.425Z" fill="url(#paint3_linear)"/>
<path d="M87.6275 28.9571C84.4211 28.9571 82.0162 31.3619 82.0162 34.5684C82.0162 37.6858 84.5101 40.1797 87.6275 40.1797C90.7449 40.1797 93.2389 37.7749 93.2389 34.5684C93.3279 31.1838 90.834 28.9571 87.6275 28.9571ZM87.6275 37.953C85.9352 37.953 84.4211 36.4389 84.4211 34.5684C84.4211 32.6089 85.9352 31.1838 87.6275 31.1838C89.3198 31.1838 90.834 32.5198 90.834 34.5684C90.834 36.4389 89.3198 37.953 87.6275 37.953ZM75.336 28.9571C72.1296 28.9571 69.7247 31.3619 69.7247 34.5684C69.7247 37.6858 72.2186 40.1797 75.336 40.1797C78.5425 40.1797 80.9474 37.7749 80.9474 34.5684C81.0364 31.1838 78.5425 28.9571 75.336 28.9571ZM75.336 37.953C73.6437 37.953 72.1296 36.4389 72.1296 34.5684C72.1296 32.6089 73.6437 31.1838 75.336 31.1838C77.0283 31.1838 78.5425 32.5198 78.5425 34.5684C78.5425 36.4389 77.1174 37.953 75.336 37.953ZM60.7287 30.6494V33.0542H66.4291C66.251 34.3903 65.7166 35.4591 65.0931 36.0826C64.2915 36.8842 63.0445 37.864 60.7287 37.864C57.166 37.864 54.583 35.1028 54.583 31.5401C54.583 27.9773 57.3441 25.2162 60.7287 25.2162C62.5992 25.2162 64.0243 26.0178 65.0931 26.9976L66.7854 25.2162C65.2713 23.8801 63.4899 22.9004 60.8178 22.9004C56.0972 22.9004 52 26.8194 52 31.6291C52 36.4389 56.0972 40.3579 60.8178 40.3579C63.4008 40.3579 65.3603 39.5563 66.8745 37.864C68.4777 36.2607 68.9231 34.034 68.9231 32.3417C68.9231 31.8073 68.9231 31.2729 68.7449 30.8275L60.7287 30.6494ZM120.583 32.5198C120.049 31.1838 118.713 28.9571 115.773 28.9571C112.834 28.9571 110.518 31.1838 110.518 34.5684C110.518 37.6858 112.834 40.1797 116.04 40.1797C118.534 40.1797 120.138 38.5765 120.672 37.6858L118.802 36.3498C118.089 37.2405 117.377 37.953 116.04 37.953C114.704 37.953 113.903 37.4186 113.279 36.1716L120.85 33.0542L120.583 32.5198ZM113.012 34.3903C113.012 32.3417 114.704 31.0947 115.951 31.0947C116.931 31.0947 117.822 31.6291 118.089 32.2526L113.012 34.3903ZM106.777 39.7344H109.271V23.2567H106.777V39.7344ZM102.769 30.115C102.057 29.4024 101.077 28.7789 99.7409 28.7789C96.9798 28.7789 94.3077 31.2729 94.3077 34.3903C94.3077 37.5077 96.8016 39.9125 99.7409 39.9125C101.077 39.9125 102.146 39.2 102.68 38.5765H102.858V39.3781C102.858 41.4267 101.7 42.6737 99.83 42.6737C98.3158 42.6737 97.336 41.6048 97.0688 40.7142L95.0202 41.6048C95.7328 43.119 97.247 44.9004 100.097 44.9004C103.036 44.9004 105.441 43.119 105.441 39.1109V29.2243H103.036L102.769 30.115ZM99.919 37.953C98.2267 37.953 96.7125 36.4389 96.7125 34.5684C96.7125 32.6089 98.2267 31.1838 99.919 31.1838C101.611 31.1838 102.947 32.698 102.947 34.5684C102.947 36.4389 101.611 37.953 99.919 37.953ZM132.073 23.2567H126.194V39.7344H128.688V33.4996H132.162C134.923 33.4996 137.595 31.5401 137.595 28.3336C137.506 25.2162 134.834 23.2567 132.073 23.2567ZM132.251 31.1838H128.688V25.4834H132.251C134.121 25.4834 135.19 27.0866 135.19 28.2445C135.012 29.7587 133.943 31.1838 132.251 31.1838ZM147.393 28.7789C145.522 28.7789 143.741 29.5806 143.028 31.2729L145.255 32.1635C145.789 31.2729 146.591 31.0057 147.482 31.0057C148.818 31.0057 149.976 31.8073 150.065 33.0542V33.2324C149.709 32.9652 148.64 32.5198 147.571 32.5198C145.255 32.5198 142.761 33.8559 142.761 36.2607C142.761 38.4874 144.721 40.0016 146.858 40.0016C148.551 40.0016 149.352 39.2 150.065 38.3984H150.154V39.7344H152.47V33.4105C152.47 30.5603 150.154 28.7789 147.393 28.7789ZM147.126 37.953C146.324 37.953 145.166 37.5077 145.166 36.4389C145.166 35.1028 146.591 34.6575 147.749 34.6575C148.818 34.6575 149.352 34.9247 149.976 35.1919C149.798 36.8842 148.462 37.953 147.126 37.953ZM161.02 29.2243L158.259 36.3498H158.17L155.231 29.2243H152.648L157.012 39.2891L154.518 44.8113H157.012L163.781 29.2243H161.02ZM138.842 39.7344H141.336V23.2567H138.842V39.7344Z" fill="white"/>
<path d="M57.3298 16.3299C57.0911 16.8072 56.6138 17.2049 56.1365 17.5231C55.5797 17.8413 54.9433 17.9208 54.2274 17.9208H52V11.1592H54.2274C54.9433 11.1592 55.5797 11.3183 56.1365 11.5569C56.6934 11.7956 57.0911 12.1933 57.3298 12.7502C57.5684 13.2275 57.7275 13.8638 57.7275 14.5002C57.7275 15.1366 57.5684 15.773 57.3298 16.3299ZM55.9774 16.2503C56.3752 15.8526 56.6138 15.2162 56.6138 14.5002C56.6138 13.7047 56.3752 13.1479 55.9774 12.7502C55.5797 12.3524 54.9433 12.1138 54.1478 12.1138H53.0341V16.8867H54.1478C54.9433 16.8867 55.5002 16.7276 55.9774 16.2503Z" fill="white"/>
<path d="M59.8754 11.1592V17.9208H58.7617V11.1592H59.8754Z" fill="white"/>
<path d="M65.443 17.0463C65.2839 17.3644 65.0453 17.5235 64.7271 17.7622C64.4089 17.9213 64.0111 18.0008 63.5338 18.0008C63.0566 18.0008 62.6588 17.9213 62.3406 17.7622C61.9429 17.6031 61.7042 17.3644 61.4656 17.0463C61.2269 16.7281 61.1474 16.4099 61.0678 16.0121H62.2611C62.2611 16.3303 62.4202 16.569 62.6588 16.7281C62.8975 16.9667 63.1361 17.0463 63.5338 17.0463C63.852 17.0463 64.0907 16.9667 64.3293 16.8076C64.4884 16.6485 64.568 16.4099 64.568 16.0917C64.568 15.853 64.4884 15.6144 64.3293 15.4553C64.1702 15.2962 64.0111 15.1371 63.852 15.0575C63.6929 14.978 63.3747 14.8984 63.0566 14.7393C62.6588 14.5802 62.2611 14.5007 62.0224 14.3416C61.7838 14.1825 61.5451 14.0234 61.386 13.7847C61.0678 13.6256 60.9883 13.3074 60.9883 12.9097C60.9883 12.512 61.0678 12.1938 61.2269 11.9551C61.386 11.7165 61.6247 11.4778 62.0224 11.3187C62.3406 11.1596 62.7384 11.0801 63.1361 11.0801C63.852 11.0801 64.3293 11.2392 64.8066 11.5574C65.2044 11.8756 65.443 12.3529 65.5226 12.8302H64.3293C64.3293 12.5915 64.1702 12.3529 64.0111 12.1938C63.852 12.0347 63.5339 11.9551 63.2157 11.9551C62.8975 11.9551 62.6588 12.0347 62.4997 12.1938C62.3406 12.3529 62.2611 12.5915 62.2611 12.8302C62.2611 13.0688 62.3406 13.2279 62.4202 13.387C62.4997 13.5461 62.7384 13.6256 62.8975 13.7052C63.0566 13.7847 63.3748 13.8643 63.6929 14.0234C64.0907 14.1825 64.4884 14.262 64.7271 14.4211C64.9657 14.5802 65.2044 14.7393 65.443 15.0575C65.6817 15.3757 65.7612 15.6939 65.7612 16.0917C65.6817 16.4099 65.6021 16.7281 65.443 17.0463Z" fill="white"/>
<path d="M67.8295 15.2957V17.9208H66.7158V11.1592H69.0227C69.8182 11.1592 70.3751 11.3183 70.7728 11.716C71.1706 12.1138 71.3297 12.5911 71.3297 13.2275C71.3297 13.8638 71.091 14.3411 70.6933 14.7389C70.2955 15.1366 69.7387 15.2957 68.9432 15.2957H67.8295ZM70.2955 13.2275C70.2955 12.8297 70.216 12.5911 69.9773 12.3524C69.7387 12.1138 69.4205 12.0342 68.9432 12.0342H67.8295V14.3411H68.9432C69.8182 14.4207 70.2955 14.0229 70.2955 13.2275Z" fill="white"/>
<path d="M77.1376 11.4773C77.6149 11.7955 78.0126 12.1932 78.3308 12.6705C78.649 13.2274 78.7285 13.7842 78.7285 14.4206C78.7285 15.057 78.5694 15.6934 78.3308 16.1707C78.0126 16.7275 77.6149 17.1253 77.1376 17.3639C76.6603 17.6821 76.1034 17.8412 75.467 17.8412C74.8306 17.8412 74.2738 17.6821 73.7965 17.3639C73.3192 17.0457 72.9215 16.648 72.6033 16.1707C72.2851 15.7729 72.126 15.2161 72.126 14.5002C72.126 13.7842 72.2851 13.2274 72.6033 12.7501C72.8419 12.1932 73.2397 11.7955 73.717 11.4773C74.1943 11.1591 74.8306 11 75.3875 11C76.1034 11.0795 76.6603 11.2386 77.1376 11.4773ZM74.2738 12.3523C73.9556 12.5114 73.6374 12.8296 73.4783 13.2274C73.3192 13.6251 73.1601 14.0229 73.1601 14.5002C73.1601 14.9774 73.2397 15.4547 73.4783 15.7729C73.6374 16.1707 73.9556 16.4093 74.2738 16.648C74.592 16.8071 74.9897 16.9662 75.467 16.9662C75.8648 16.9662 76.2625 16.8866 76.5807 16.648C76.8989 16.4093 77.1376 16.1707 77.3762 15.7729C77.6149 15.3752 77.6944 14.9774 77.6944 14.5002C77.6944 14.0229 77.6149 13.5456 77.3762 13.2274C77.2171 12.8296 76.8989 12.591 76.5807 12.3523C76.2625 12.1137 75.8648 12.0341 75.467 12.0341C74.9897 12.1137 74.6715 12.1932 74.2738 12.3523Z" fill="white"/>
<path d="M85.3307 17.9208H84.217L80.9555 12.9093V17.9208H79.8418V11.1592H80.9555L84.217 16.1708V11.1592H85.3307V17.9208Z" fill="white"/>
<path d="M87.7172 11.1592V17.9208H86.6035V11.1592H87.7172Z" fill="white"/>
<path d="M93.5245 14.9775C93.7632 15.2957 93.9223 15.6139 93.9223 16.0117C93.9223 16.5685 93.7632 17.0458 93.3654 17.364C92.9677 17.6822 92.4108 17.8413 91.6949 17.8413H88.9902V11.1592H91.6154C92.2517 11.1592 92.8086 11.3183 93.2063 11.6365C93.6041 11.9547 93.7632 12.3524 93.7632 12.9093C93.7632 13.307 93.6836 13.7047 93.445 13.9434C93.2063 14.182 92.9677 14.4207 92.5699 14.5002C92.9677 14.5002 93.2859 14.6593 93.5245 14.9775ZM90.1039 14.0229H91.4563C91.854 14.0229 92.0926 13.9434 92.3313 13.7843C92.5699 13.6252 92.6495 13.3866 92.6495 13.0684C92.6495 12.7502 92.5699 12.5115 92.3313 12.3524C92.0926 12.1933 91.854 12.1138 91.4563 12.1138H90.1835V14.0229H90.1039ZM92.4904 16.7276C92.729 16.5685 92.8086 16.2503 92.8086 15.9321C92.8086 15.6139 92.729 15.2957 92.4904 15.1366C92.2517 14.9775 91.9336 14.8184 91.5358 14.8184H90.1835V16.9663H91.5358C91.9336 16.9663 92.2517 16.8867 92.4904 16.7276Z" fill="white"/>
<path d="M96.0707 17.0458H98.3776V17.9208H94.957V11.1592H96.0707V17.0458V17.0458Z" fill="white"/>
<path d="M100.286 12.0342V14.1025H102.752V14.9775H100.286V17.0458H103.07V17.9208H99.252V11.1592H103.07V12.0342H100.286Z" fill="white"/>
<path d="M107.446 12.0342V14.1025H109.912V14.9775H107.446V17.0458H110.23V17.9208H106.332V11.1592H110.15V12.0342H107.446Z" fill="white"/>
<path d="M116.754 17.9208H115.64L112.378 12.9093V17.9208H111.265V11.1592H112.378L115.64 16.1708V11.1592H116.754V17.9208Z" fill="white"/>
<rect x="0.5" y="0.5" width="179" height="54" rx="5.5" stroke="#A6A6A6"/>
<defs>
<linearGradient id="paint0_linear" x1="28.6216" y1="12.0417" x2="6.45736" y2="34.2026" gradientUnits="userSpaceOnUse">
<stop stop-color="#00A0FF"/>
<stop offset="0.007" stop-color="#00A1FF"/>
<stop offset="0.26" stop-color="#00BEFF"/>
<stop offset="0.512" stop-color="#00D2FF"/>
<stop offset="0.76" stop-color="#00DFFF"/>
<stop offset="1" stop-color="#00E3FF"/>
</linearGradient>
<linearGradient id="paint1_linear" x1="44.5219" y1="27.0406" x2="12.568" y2="27.0406" gradientUnits="userSpaceOnUse">
<stop stop-color="#FFE000"/>
<stop offset="0.409" stop-color="#FFBD00"/>
<stop offset="0.775" stop-color="#FFA500"/>
<stop offset="1" stop-color="#FF9C00"/>
</linearGradient>
<linearGradient id="paint2_linear" x1="32.589" y1="29.9557" x2="2.53658" y2="60.0065" gradientUnits="userSpaceOnUse">
<stop stop-color="#FF3A44"/>
<stop offset="1" stop-color="#C31162"/>
</linearGradient>
<linearGradient id="paint3_linear" x1="9.42947" y1="0.832671" x2="22.8488" y2="14.252" gradientUnits="userSpaceOnUse">
<stop stop-color="#32A071"/>
<stop offset="0.069" stop-color="#2DA771"/>
<stop offset="0.476" stop-color="#15CF74"/>
<stop offset="0.801" stop-color="#06E775"/>
<stop offset="1" stop-color="#00F076"/>
</linearGradient>
</defs>
</svg>
