<svg width="180" height="55" viewBox="0 0 180 55" fill="none" xmlns="http://www.w3.org/2000/svg">
<rect x="0.5" y="0.5" width="179" height="54" rx="5.5" fill="black"/>
<path d="M59.7355 36.0595H53.005L51.3977 40.7809H48.585L54.9137 23.2012H57.8269L64.2561 40.7809H61.3428L59.7355 36.0595ZM53.7082 33.8495H59.0324L56.4205 26.1144H56.32L53.7082 33.8495Z" fill="white"/>
<path d="M78.9229 34.3518C78.9229 38.37 76.8133 40.8814 73.5987 40.8814C71.891 40.9818 70.3841 40.0777 69.5805 38.6714H69.48V45.0001H66.8682V27.9226H69.3796V30.0322C70.1832 28.6258 71.7905 27.7217 73.4982 27.7217C76.8133 27.8221 78.9229 30.434 78.9229 34.3518ZM76.2105 34.3518C76.2105 31.7399 74.9046 30.0322 72.7951 30.0322C70.7859 30.0322 69.3796 31.7399 69.3796 34.3518C69.3796 36.9636 70.6855 38.6714 72.7951 38.6714C74.9046 38.6714 76.2105 36.9636 76.2105 34.3518Z" fill="white"/>
<path d="M94.0908 34.3518C94.0908 38.37 91.9813 40.8814 88.7667 40.8814C87.0589 40.9818 85.5521 40.0777 84.7484 38.6714H84.648V45.0001H82.0361V27.9226H84.5475V30.0322C85.3512 28.6258 86.9585 27.7217 88.6662 27.7217C91.9813 27.8221 94.0908 30.434 94.0908 34.3518ZM91.3785 34.3518C91.3785 31.7399 90.0726 30.0322 87.963 30.0322C85.9539 30.0322 84.5475 31.7399 84.5475 34.3518C84.5475 36.9636 85.8535 38.6714 87.963 38.6714C90.0726 38.6714 91.3785 36.9636 91.3785 34.3518Z" fill="white"/>
<path d="M103.434 35.8583C103.635 37.5661 105.343 38.7715 107.653 38.7715C109.863 38.7715 111.47 37.6665 111.47 36.0592C111.47 34.6529 110.466 33.8492 108.256 33.3469L105.945 32.8447C102.731 32.041 101.224 30.5342 101.224 28.1232C101.224 25.1096 103.836 23 107.653 23C111.37 23 113.881 25.1096 113.982 28.1232H111.37C111.169 26.4155 109.763 25.3105 107.653 25.3105C105.544 25.3105 104.037 26.4155 104.037 27.9223C104.037 29.1278 104.941 29.9314 107.251 30.4337L109.16 30.936C112.776 31.8401 114.283 33.2465 114.283 35.8583C114.283 39.1734 111.671 41.1825 107.452 41.1825C103.534 41.1825 100.923 39.1734 100.722 35.9588L103.434 35.8583Z" fill="white"/>
<path d="M120.913 24.9092V27.9229H123.324V30.0324H120.913V37.0643C120.913 38.1693 121.415 38.6716 122.52 38.6716C122.822 38.6716 123.123 38.6716 123.424 38.5712V40.6807C122.922 40.7812 122.42 40.7812 121.918 40.7812C119.306 40.7812 118.301 39.7766 118.301 37.2652V29.932H116.393V27.9229H118.301V24.9092H120.913Z" fill="white"/>
<path d="M125.836 34.3509C125.836 30.3327 128.247 27.8213 131.964 27.8213C135.681 27.8213 138.092 30.3327 138.092 34.3509C138.092 38.3691 135.781 40.8805 131.964 40.8805C128.146 40.981 125.836 38.4696 125.836 34.3509ZM135.279 34.3509C135.279 31.5382 133.973 29.9309 131.863 29.9309C129.754 29.9309 128.448 31.5382 128.448 34.3509C128.448 37.1637 129.754 38.771 131.863 38.771C134.073 38.771 135.279 37.1637 135.279 34.3509Z" fill="white"/>
<path d="M141.205 27.9218H143.716V30.1319H143.817C144.118 28.7255 145.424 27.7209 146.931 27.8214C147.232 27.8214 147.534 27.8214 147.835 27.9218V30.4332C147.433 30.3328 147.032 30.2323 146.63 30.2323C145.123 30.1319 143.917 31.3373 143.917 32.7437C143.917 32.8442 143.917 33.0451 143.917 33.1455V40.7802H141.306L141.205 27.9218Z" fill="white"/>
<path d="M160.894 37.0632C160.492 39.3737 158.282 40.981 155.369 40.981C151.652 40.981 149.342 38.4696 149.342 34.4514C149.342 30.4331 151.652 27.8213 155.269 27.8213C158.785 27.8213 161.095 30.2322 161.095 34.15V35.0541H152.054V35.255C151.853 37.0632 153.26 38.6705 155.068 38.8714C155.168 38.8714 155.369 38.8714 155.47 38.8714C156.776 38.9719 157.981 38.2687 158.483 37.0632H160.894ZM151.954 33.1454H158.383C158.483 31.4377 157.177 30.0313 155.47 29.9309C155.369 29.9309 155.269 29.9309 155.269 29.9309C153.46 29.9309 151.954 31.3372 151.954 33.1454Z" fill="white"/>
<path d="M48.9854 12.9008C48.9854 10.8758 50.1104 9.60073 51.8354 9.60073C53.1105 9.52573 54.3105 10.5008 54.4605 11.7758H53.4855C53.3355 11.0258 52.5855 10.5008 51.8354 10.5008C50.7104 10.5008 49.9604 11.4008 49.9604 12.9008C49.9604 14.4009 50.6354 15.3009 51.8354 15.3009C52.5855 15.3759 53.2605 14.8509 53.4855 14.1009H54.4605C54.2355 15.3759 53.1105 16.276 51.8354 16.2009C50.0354 16.2009 48.9854 14.9259 48.9854 12.9008Z" fill="white"/>
<path d="M55.5114 13.6505C55.3614 12.3755 56.3364 11.3254 57.5364 11.1754C58.8115 11.0254 59.8615 12.0005 60.0115 13.2005C60.0115 13.3505 60.0115 13.5005 60.0115 13.6505C60.1615 14.9256 59.1865 15.9756 57.9865 16.1256C56.7114 16.2756 55.6614 15.3006 55.5114 14.1005C55.5114 13.9505 55.5114 13.8005 55.5114 13.6505ZM59.0365 13.6505C59.0365 12.6005 58.5865 12.0005 57.7614 12.0005C56.9364 12.0005 56.4864 12.6005 56.4864 13.6505C56.4864 14.7005 56.9364 15.3006 57.7614 15.3006C58.5865 15.3006 59.0365 14.7005 59.0365 13.6505Z" fill="white"/>
<path d="M61.285 11.3248H62.185V12.0748H62.26C62.485 11.5498 63.085 11.1748 63.685 11.2498C64.5101 11.1748 65.2601 11.8498 65.3351 12.6748C65.3351 12.8248 65.3351 12.8998 65.3351 13.0498V16.1249H64.3601V13.2749C64.3601 12.5248 64.0601 12.1498 63.31 12.1498C62.71 12.1498 62.185 12.5998 62.185 13.1999C62.185 13.2749 62.185 13.2749 62.185 13.3499V16.1249H61.21V11.3248H61.285Z" fill="white"/>
<path d="M68.5606 11.1748C69.6106 11.1748 70.3607 11.6998 70.4357 12.5248H69.5356C69.4606 12.1498 69.0856 11.9248 68.5606 11.9248C68.0356 11.9248 67.6606 12.1498 67.6606 12.5248C67.6606 12.8249 67.8856 12.9749 68.4106 13.1249L69.2356 13.2749C70.1357 13.4999 70.5857 13.8749 70.5857 14.5499C70.5857 15.4499 69.7606 16.05 68.6356 16.05C67.5106 16.05 66.7605 15.5249 66.6855 14.6999H67.6606C67.8106 15.1499 68.2606 15.3749 68.7106 15.2999C69.3106 15.2999 69.6856 14.9999 69.6856 14.6249C69.6856 14.3249 69.4606 14.1749 69.0106 14.0249L68.1856 13.7999C67.2856 13.5749 66.8355 13.1999 66.8355 12.4498C66.6855 11.7748 67.4356 11.1748 68.5606 11.1748Z" fill="white"/>
<path d="M71.7109 10.5L72.836 9H73.886L72.686 10.5H71.7109ZM71.7859 11.3251H72.686V16.1252H71.7859V11.3251Z" fill="white"/>
<path d="M74.1861 16.5754H75.1612C75.2362 16.9504 75.6112 17.1754 76.2862 17.1754C77.0362 17.1754 77.5613 16.8004 77.5613 16.2004V15.3003H77.4862C77.1862 15.8253 76.5862 16.1254 75.9862 16.1254C74.7862 16.1254 74.0361 15.1503 74.0361 13.7253C74.0361 12.3002 74.7862 11.3252 75.9862 11.3252C76.5862 11.3252 77.1862 11.6252 77.4862 12.1502H77.5613V11.4002H78.4613V16.2004C78.4613 17.3254 77.6362 18.0004 76.2862 18.0004C75.0112 17.8504 74.2611 17.3254 74.1861 16.5754ZM77.4862 13.6503C77.4862 12.6752 76.9612 12.0752 76.2112 12.0752C75.3862 12.0752 74.9362 12.6752 74.9362 13.6503C74.9362 14.6253 75.3862 15.2253 76.2112 15.2253C77.0362 15.1503 77.4862 14.5503 77.4862 13.6503Z" fill="white"/>
<path d="M83.9359 16.0503H83.0358V15.3003H82.9608C82.7358 15.9003 82.1358 16.2004 81.5358 16.1254C80.7108 16.2004 79.9607 15.5253 79.8857 14.7003C79.8857 14.6253 79.8857 14.4753 79.8857 14.4003V11.3252H80.8608V14.1753C80.8608 14.9253 81.1608 15.3003 81.8358 15.3003C82.4358 15.3753 82.9608 14.9253 83.0358 14.3253C83.0358 14.2503 83.0358 14.1753 83.0358 14.1003V11.3252H84.0109L83.9359 16.0503Z" fill="white"/>
<path d="M89.4869 14.7749C89.1869 15.675 88.3618 16.275 87.3868 16.125C86.1868 16.125 85.2117 15.2249 85.1367 14.0249C85.1367 13.8749 85.1367 13.7999 85.1367 13.6499C84.9867 12.4498 85.8118 11.3248 87.0118 11.1748C87.0868 11.1748 87.2368 11.1748 87.3118 11.1748C88.6618 11.1748 89.4119 12.0748 89.4119 13.5749V13.8749H86.0368V13.9499C85.9618 14.6249 86.4868 15.2249 87.1618 15.2999C87.2368 15.2999 87.2368 15.2999 87.3118 15.2999C87.7618 15.3749 88.2118 15.1499 88.4368 14.6999L89.4869 14.7749ZM86.1868 13.1999H88.5868C88.6618 12.5999 88.1368 11.9998 87.5368 11.9998H87.4618C86.7118 11.9998 86.1868 12.5248 86.1868 13.1999Z" fill="white"/>
<path d="M90.8369 9.44922H91.8119V16.0494H90.8369V9.44922Z" fill="white"/>
<path d="M93.0866 13.6505C92.9366 12.3755 93.9116 11.3254 95.1116 11.1754C96.3867 11.0254 97.4367 12.0005 97.5867 13.2005C97.5867 13.3505 97.5867 13.5005 97.5867 13.6505C97.7367 14.9256 96.7617 15.9756 95.5617 16.1256C94.3616 16.2756 93.2366 15.3006 93.0866 14.1005C93.0866 13.9505 93.0866 13.8005 93.0866 13.6505ZM96.6117 13.6505C96.6117 12.6005 96.1617 12.0005 95.3366 12.0005C94.5116 12.0005 94.0616 12.6005 94.0616 13.6505C94.0616 14.7005 94.5116 15.3006 95.3366 15.3006C96.1617 15.3006 96.6117 14.7005 96.6117 13.6505Z" fill="white"/>
<path d="M105.462 14.7749C105.162 15.675 104.337 16.275 103.362 16.125C102.162 16.125 101.187 15.2249 101.112 14.0249C101.112 13.8749 101.112 13.7999 101.112 13.6499C100.962 12.4498 101.787 11.3248 102.987 11.1748C103.062 11.1748 103.212 11.1748 103.287 11.1748C104.637 11.1748 105.387 12.0748 105.387 13.5749V13.8749H102.012V13.9499C101.937 14.6249 102.462 15.2249 103.137 15.2999C103.212 15.2999 103.212 15.2999 103.287 15.2999C103.737 15.3749 104.187 15.1499 104.412 14.6999L105.462 14.7749ZM102.162 13.1999H104.562C104.637 12.5999 104.112 11.9998 103.512 11.9998H103.437C102.762 11.9998 102.162 12.5248 102.162 13.1999Z" fill="white"/>
<path d="M106.812 11.3248H107.712V12.0748H107.787C108.012 11.5498 108.612 11.1748 109.212 11.2498C110.037 11.1748 110.787 11.8498 110.862 12.6748C110.862 12.8248 110.862 12.8998 110.862 13.0498V16.1249H109.887V13.2749C109.887 12.5248 109.587 12.1498 108.837 12.1498C108.237 12.1498 107.712 12.5998 107.712 13.1999C107.712 13.2749 107.712 13.2749 107.712 13.3499V16.1249H106.737L106.812 11.3248Z" fill="white"/>
<path d="M118.887 14.7749C118.587 15.675 117.762 16.275 116.787 16.125C115.587 16.125 114.612 15.2249 114.537 14.0249C114.537 13.8749 114.537 13.7999 114.537 13.6499C114.387 12.4498 115.212 11.3248 116.412 11.1748C116.487 11.1748 116.637 11.1748 116.712 11.1748C118.062 11.1748 118.812 12.0748 118.812 13.5749V13.8749H115.437V13.9499C115.362 14.6249 115.887 15.2249 116.562 15.2999C116.637 15.2999 116.637 15.2999 116.712 15.2999C117.162 15.3749 117.612 15.1499 117.837 14.6999L118.887 14.7749ZM115.587 13.1999H117.987C118.062 12.5999 117.537 11.9998 116.937 11.9998H116.862C116.187 11.9998 115.587 12.5248 115.587 13.1999Z" fill="white"/>
<path d="M120.312 9.44922H121.288V16.0494H120.312V9.44922Z" fill="white"/>
<path d="M36.1276 28.0505C36.1276 25.3928 37.5672 22.9566 39.7819 21.517C38.3423 19.5238 36.0169 18.1949 33.5807 18.1949C30.923 17.9735 28.3761 19.7452 27.0472 19.7452C25.7184 19.7452 23.6144 18.1949 21.3997 18.1949C18.5205 18.3057 15.8629 19.856 14.4233 22.5137C11.4334 27.7183 13.6481 35.4698 16.5273 39.6778C17.9669 41.7818 19.6279 44.1073 21.8426 43.9965C24.0574 43.8858 24.8325 42.6677 27.4902 42.6677C30.0371 42.6677 30.8123 43.9965 33.1377 43.9965C35.4632 43.9965 36.9028 41.8925 38.3424 39.7885C39.339 38.349 40.2249 36.6879 40.6678 34.9161C38.0101 33.8088 36.1276 31.0404 36.1276 28.0505Z" fill="white"/>
<path d="M31.9189 15.4261C33.137 13.8758 33.8014 11.9933 33.6907 10C31.6974 10.2215 29.9257 11.1074 28.7076 12.5469C27.4895 13.9865 26.825 15.869 26.9358 17.7515C28.8183 17.8623 30.7008 16.9764 31.9189 15.4261Z" fill="white"/>
<rect x="0.5" y="0.5" width="179" height="54" rx="5.5" stroke="#A6A6A6"/>
</svg>
