<svg width="13" height="14" viewBox="0 0 13 14" fill="none" xmlns="http://www.w3.org/2000/svg">
<g clip-path="url(#clip0_1305_695)">
<path d="M5.89757 2.32329C6.67979 2.32257 7.44464 2.55387 8.09537 2.98793C8.74611 3.42198 9.25348 4.03929 9.55332 4.76175C9.85315 5.48422 9.93198 6.27939 9.77981 7.04666C9.62765 7.81393 9.25133 8.51883 8.69848 9.07219C8.14562 9.62555 7.44106 10.0025 6.67393 10.1554C5.9068 10.3082 5.11156 10.2301 4.38882 9.93097C3.66608 9.63179 3.04831 9.12498 2.61366 8.47464C2.17902 7.82431 1.94702 7.05967 1.94702 6.27745C1.95176 5.23083 2.36938 4.22837 3.10913 3.48795C3.84887 2.74753 4.85095 2.32898 5.89757 2.32329ZM5.89757 1.58301C4.9691 1.58301 4.06148 1.85833 3.28948 2.37416C2.51748 2.89 1.91578 3.62317 1.56047 4.48097C1.20516 5.33876 1.11219 6.28266 1.29333 7.19329C1.47447 8.10393 1.92157 8.9404 2.5781 9.59693C3.23463 10.2535 4.0711 10.7006 4.98173 10.8817C5.89236 11.0628 6.83626 10.9699 7.69406 10.6146C8.55186 10.2592 9.28503 9.65754 9.80086 8.88555C10.3167 8.11355 10.592 7.20593 10.592 6.27745C10.592 5.03241 10.0974 3.83836 9.21705 2.95798C8.33667 2.0776 7.14262 1.58301 5.89757 1.58301Z" fill="black"/>
<path d="M12.639 12.5212L9.97762 9.8418L9.46484 10.351L12.1262 13.0304C12.1597 13.0641 12.1994 13.0908 12.2432 13.1091C12.2869 13.1275 12.3339 13.137 12.3813 13.1371C12.4288 13.1373 12.4758 13.1281 12.5197 13.1101C12.5636 13.0921 12.6035 13.0656 12.6372 13.0322C12.6709 12.9988 12.6976 12.959 12.7159 12.9153C12.7343 12.8715 12.7438 12.8245 12.7439 12.7771C12.7441 12.7297 12.7349 12.6826 12.7169 12.6387C12.6989 12.5948 12.6724 12.5549 12.639 12.5212Z" fill="black"/>
</g>
<defs>
<clipPath id="clip0_1305_695">
<rect width="13" height="13" fill="white" transform="translate(0 0.5)"/>
</clipPath>
</defs>
</svg>
