<svg xmlns="http://www.w3.org/2000/svg" viewBox="0 0 39.87 39.8"><defs><style>.cls-1{fill:#e2a63b;}.cls-2{fill:#fedb41;}</style></defs><g id="Layer_2" data-name="Layer 2"><g id="Capa_1" data-name="Capa 1"><path class="cls-1" d="M19.75,39.8h0A19.9,19.9,0,0,1,19.91,0h.17a18.17,18.17,0,0,1,5.83.93A17.73,17.73,0,0,1,33,4.85a20.14,20.14,0,0,1,6.51,11l.09.42v.43c0,.24.06.64.11,1a14.66,14.66,0,0,1,.19,2.13,18.54,18.54,0,0,1-.93,5.95,20,20,0,0,1-5.52,8.74A20.35,20.35,0,0,1,19.75,39.8ZM19.91,8a11.9,11.9,0,0,0-8.5,20.23,11.76,11.76,0,0,0,8.36,3.55,11.94,11.94,0,0,0,11.53-8.4l0-.1a10.79,10.79,0,0,0,.53-3.47,8.4,8.4,0,0,0-.11-1c-.07-.49-.14-1-.17-1.62a12.25,12.25,0,0,0-3.87-6.28l-.08-.07a10.07,10.07,0,0,0-4-2.22l-.22-.07A10.4,10.4,0,0,0,20.05,8Z"/><path class="cls-2" d="M35.57,16.63h0a16.17,16.17,0,0,0-5.25-8.79A14,14,0,0,0,24.7,4.73,14.41,14.41,0,0,0,20.05,4a15.9,15.9,0,1,0-.3,31.79,16.23,16.23,0,0,0,10.94-4.21,16.09,16.09,0,0,0,4.44-7,14.9,14.9,0,0,0,.74-4.73C35.87,18.78,35.57,17.67,35.57,16.63Z"/><path class="cls-1" d="M16.73,23.06c.42,1.81,1.71,2.62,3.81,2.62s3-.84,3-2.15c0-1.5-.87-2.13-4-2.84-4.94-1.15-6.15-3-6.15-5.41,0-3.16,2.37-5.28,6.65-5.28,4.81,0,6.73,2.57,7,5.23H23.12c-.21-1.13-.82-2.34-3.15-2.34-1.61,0-2.55.65-2.55,1.94s.76,1.79,3.7,2.45c5.26,1.26,6.41,3.2,6.41,5.78,0,3.28-2.49,5.57-7.28,5.57-4.59,0-7-2.26-7.46-5.57Z"/><rect class="cls-1" x="19.75" y="8.46" width="3" height="22"/></g></g></svg>