<svg xmlns="http://www.w3.org/2000/svg" viewBox="0 0 149.39 149.39"><circle cx="74.7" cy="74.7" r="74.7" style="fill:#fff"/><circle cx="74.7" cy="74.7" r="67.95" style="fill:#0173ba"/><path d="M74.5,35.21A39.49,39.49,0,1,0,114,74.7,39.53,39.53,0,0,0,74.5,35.21ZM91,58.46A6.58,6.58,0,1,1,84.37,65,6.59,6.59,0,0,1,91,58.46Zm-32.9,0A6.58,6.58,0,1,1,51.47,65,6.59,6.59,0,0,1,58.05,58.46Zm44.31,26a29.16,29.16,0,0,1-55.72,0A2.46,2.46,0,0,1,49,81.28h51a2.49,2.49,0,0,1,2,1,2.53,2.53,0,0,1,.36,2.2Z" style="fill:#fff"/></svg>