<svg width="64" height="10" viewBox="0 0 64 10" fill="none" xmlns="http://www.w3.org/2000/svg">
<path d="M0.958807 9.5V0.772727H6.37074V1.90625H2.27557V4.56534H5.98295V5.6946H2.27557V9.5H0.958807ZM7.63743 9.5H6.2397L9.38033 0.772727H10.9016L14.0423 9.5H12.6445L10.1772 2.35795H10.109L7.63743 9.5ZM7.8718 6.08239H12.4059V7.19034H7.8718V6.08239ZM22.141 3.6108H20.8114C20.7603 3.3267 20.6651 3.0767 20.5259 2.8608C20.3867 2.64489 20.2163 2.46165 20.0146 2.31108C19.8129 2.16051 19.587 2.04687 19.337 1.97017C19.0898 1.89347 18.8271 1.85511 18.5487 1.85511C18.0458 1.85511 17.5955 1.98153 17.1978 2.23438C16.8029 2.48722 16.4904 2.85795 16.2603 3.34659C16.033 3.83523 15.9194 4.43182 15.9194 5.13636C15.9194 5.84659 16.033 6.44602 16.2603 6.93466C16.4904 7.4233 16.8043 7.79261 17.2021 8.04261C17.5998 8.29261 18.0472 8.41761 18.5444 8.41761C18.82 8.41761 19.0813 8.38068 19.3285 8.30682C19.5785 8.23011 19.8043 8.1179 20.006 7.97017C20.2077 7.82244 20.3782 7.64205 20.5174 7.42898C20.6594 7.21307 20.7575 6.96591 20.8114 6.6875L22.141 6.69176C22.07 7.12074 21.9322 7.51562 21.7276 7.87642C21.5259 8.23438 21.266 8.54403 20.9478 8.8054C20.6325 9.06392 20.2717 9.2642 19.8654 9.40625C19.4592 9.5483 19.016 9.61932 18.5359 9.61932C17.7802 9.61932 17.1069 9.44034 16.516 9.08239C15.9251 8.72159 15.4592 8.20597 15.1183 7.53551C14.7802 6.86506 14.6112 6.06534 14.6112 5.13636C14.6112 4.20455 14.7816 3.40483 15.1225 2.73722C15.4634 2.06676 15.9293 1.55256 16.5202 1.1946C17.1112 0.833807 17.783 0.653409 18.5359 0.653409C18.9989 0.653409 19.4308 0.72017 19.8313 0.853693C20.2347 0.984375 20.5969 1.17756 20.918 1.43324C21.239 1.68608 21.5046 1.99574 21.7148 2.36222C21.9251 2.72585 22.0671 3.14205 22.141 3.6108ZM23.7166 9.5V0.772727H29.1882V1.90625H25.0334V4.56534H28.9027V5.6946H25.0334V8.36648H29.2393V9.5H23.7166ZM30.9471 9.5V0.772727H34.1431C34.7624 0.772727 35.2752 0.875 35.6815 1.07955C36.0877 1.28125 36.3917 1.5554 36.5934 1.90199C36.7951 2.24574 36.896 2.63352 36.896 3.06534C36.896 3.42898 36.8292 3.7358 36.6957 3.9858C36.5621 4.23295 36.3832 4.43182 36.1587 4.58239C35.9371 4.73011 35.6928 4.83807 35.4258 4.90625V4.99148C35.7156 5.00568 35.9982 5.09943 36.2738 5.27273C36.5522 5.44318 36.7823 5.68608 36.9641 6.00142C37.146 6.31676 37.2369 6.70028 37.2369 7.15199C37.2369 7.59801 37.1317 7.99858 36.9215 8.35369C36.7141 8.70597 36.3931 8.9858 35.9585 9.19318C35.5238 9.39773 34.9684 9.5 34.2923 9.5H30.9471ZM32.2638 8.37074H34.1644C34.7951 8.37074 35.2468 8.24858 35.5195 8.00426C35.7923 7.75994 35.9286 7.45455 35.9286 7.08807C35.9286 6.8125 35.859 6.55966 35.7198 6.32955C35.5806 6.09943 35.3817 5.91619 35.1232 5.77983C34.8675 5.64347 34.5636 5.57528 34.2113 5.57528H32.2638V8.37074ZM32.2638 4.5483H34.0281C34.3235 4.5483 34.5891 4.49148 34.8249 4.37784C35.0636 4.2642 35.2525 4.10511 35.3917 3.90057C35.5337 3.69318 35.6048 3.44886 35.6048 3.16761C35.6048 2.80682 35.4783 2.50426 35.2255 2.25994C34.9727 2.01562 34.5849 1.89347 34.0621 1.89347H32.2638V4.5483ZM46.3796 5.13636C46.3796 6.06818 46.2092 6.86932 45.8683 7.53977C45.5273 8.20739 45.06 8.72159 44.4663 9.08239C43.8754 9.44034 43.2035 9.61932 42.4506 9.61932C41.695 9.61932 41.0202 9.44034 40.4265 9.08239C39.8356 8.72159 39.3697 8.20597 39.0288 7.53551C38.6879 6.86506 38.5174 6.06534 38.5174 5.13636C38.5174 4.20455 38.6879 3.40483 39.0288 2.73722C39.3697 2.06676 39.8356 1.55256 40.4265 1.1946C41.0202 0.833807 41.695 0.653409 42.4506 0.653409C43.2035 0.653409 43.8754 0.833807 44.4663 1.1946C45.06 1.55256 45.5273 2.06676 45.8683 2.73722C46.2092 3.40483 46.3796 4.20455 46.3796 5.13636ZM45.0756 5.13636C45.0756 4.42614 44.9606 3.82812 44.7305 3.34233C44.5032 2.85369 44.1907 2.48438 43.793 2.23438C43.3981 1.98153 42.9506 1.85511 42.4506 1.85511C41.9478 1.85511 41.4989 1.98153 41.104 2.23438C40.7092 2.48438 40.3967 2.85369 40.1665 3.34233C39.9393 3.82812 39.8256 4.42614 39.8256 5.13636C39.8256 5.84659 39.9393 6.44602 40.1665 6.93466C40.3967 7.42045 40.7092 7.78977 41.104 8.04261C41.4989 8.29261 41.9478 8.41761 42.4506 8.41761C42.9506 8.41761 43.3981 8.29261 43.793 8.04261C44.1907 7.78977 44.5032 7.42045 44.7305 6.93466C44.9606 6.44602 45.0756 5.84659 45.0756 5.13636ZM55.6023 5.13636C55.6023 6.06818 55.4318 6.86932 55.0909 7.53977C54.75 8.20739 54.2827 8.72159 53.6889 9.08239C53.098 9.44034 52.4261 9.61932 51.6733 9.61932C50.9176 9.61932 50.2429 9.44034 49.6491 9.08239C49.0582 8.72159 48.5923 8.20597 48.2514 7.53551C47.9105 6.86506 47.7401 6.06534 47.7401 5.13636C47.7401 4.20455 47.9105 3.40483 48.2514 2.73722C48.5923 2.06676 49.0582 1.55256 49.6491 1.1946C50.2429 0.833807 50.9176 0.653409 51.6733 0.653409C52.4261 0.653409 53.098 0.833807 53.6889 1.1946C54.2827 1.55256 54.75 2.06676 55.0909 2.73722C55.4318 3.40483 55.6023 4.20455 55.6023 5.13636ZM54.2983 5.13636C54.2983 4.42614 54.1832 3.82812 53.9531 3.34233C53.7259 2.85369 53.4134 2.48438 53.0156 2.23438C52.6207 1.98153 52.1733 1.85511 51.6733 1.85511C51.1705 1.85511 50.7216 1.98153 50.3267 2.23438C49.9318 2.48438 49.6193 2.85369 49.3892 3.34233C49.1619 3.82812 49.0483 4.42614 49.0483 5.13636C49.0483 5.84659 49.1619 6.44602 49.3892 6.93466C49.6193 7.42045 49.9318 7.78977 50.3267 8.04261C50.7216 8.29261 51.1705 8.41761 51.6733 8.41761C52.1733 8.41761 52.6207 8.29261 53.0156 8.04261C53.4134 7.78977 53.7259 7.42045 53.9531 6.93466C54.1832 6.44602 54.2983 5.84659 54.2983 5.13636ZM57.244 9.5V0.772727H58.5607V4.94034H58.6673L62.3278 0.772727H63.9854L60.4656 4.7017L63.9982 9.5H62.413L59.592 5.60085L58.5607 6.78551V9.5H57.244Z" fill="#9D9D9D"/>
</svg>
