<svg width="70" height="10" viewBox="0 0 70 10" fill="none" xmlns="http://www.w3.org/2000/svg">
<path d="M2.27557 0.772727V9.5H0.958807V0.772727H2.27557ZM11.2372 0.772727V9.5H10.027L5.59091 3.09943H5.50994V9.5H4.19318V0.772727H5.41193L9.85227 7.18182H9.93324V0.772727H11.2372ZM17.918 3.06534C17.8725 2.66193 17.685 2.34943 17.3555 2.12784C17.0259 1.90341 16.6112 1.79119 16.1112 1.79119C15.7532 1.79119 15.4435 1.84801 15.1822 1.96165C14.9208 2.07244 14.7177 2.22585 14.5728 2.42188C14.4308 2.61506 14.3597 2.83523 14.3597 3.08239C14.3597 3.28977 14.408 3.46875 14.5046 3.61932C14.604 3.76989 14.7333 3.89631 14.8924 3.99858C15.0543 4.09801 15.2276 4.18182 15.4123 4.25C15.5969 4.31534 15.7745 4.36932 15.945 4.41193L16.7972 4.63352C17.0756 4.7017 17.3612 4.79403 17.6538 4.91051C17.9464 5.02699 18.2177 5.1804 18.4677 5.37074C18.7177 5.56108 18.9194 5.79688 19.0728 6.07812C19.229 6.35938 19.3072 6.69602 19.3072 7.08807C19.3072 7.58239 19.1793 8.02131 18.9237 8.40483C18.6708 8.78835 18.3029 9.09091 17.82 9.3125C17.3398 9.53409 16.7589 9.64489 16.0771 9.64489C15.4237 9.64489 14.8583 9.54119 14.381 9.33381C13.9038 9.12642 13.5302 8.83239 13.2603 8.4517C12.9904 8.06818 12.8413 7.61364 12.8129 7.08807H14.1339C14.1594 7.40341 14.2617 7.66619 14.4407 7.87642C14.6225 8.08381 14.854 8.23864 15.1353 8.34091C15.4194 8.44034 15.7305 8.49006 16.0685 8.49006C16.4407 8.49006 16.7717 8.43182 17.0614 8.31534C17.354 8.19602 17.5842 8.03125 17.7518 7.82102C17.9194 7.60795 18.0032 7.35937 18.0032 7.07528C18.0032 6.81676 17.9293 6.60511 17.7816 6.44034C17.6367 6.27557 17.4393 6.1392 17.1893 6.03125C16.9421 5.9233 16.6623 5.82812 16.3498 5.74574L15.3185 5.46449C14.6197 5.27415 14.0657 4.99432 13.6566 4.625C13.2504 4.25568 13.0472 3.76705 13.0472 3.15909C13.0472 2.65625 13.1836 2.21733 13.4563 1.84233C13.729 1.46733 14.0984 1.17614 14.5643 0.96875C15.0302 0.758523 15.5558 0.653409 16.141 0.653409C16.7319 0.653409 17.2532 0.757102 17.7049 0.964489C18.1594 1.17188 18.5174 1.45739 18.7788 1.82102C19.0401 2.18182 19.1765 2.59659 19.1879 3.06534H17.918ZM20.4503 1.90625V0.772727H27.2045V1.90625H24.4815V9.5H23.169V1.90625H20.4503ZM28.4031 9.5H27.0053L30.146 0.772727H31.6673L34.8079 9.5H33.4102L30.9428 2.35795H30.8746L28.4031 9.5ZM28.6374 6.08239H33.1715V7.19034H28.6374V6.08239ZM41.5643 3.52983C41.4819 3.27131 41.3711 3.03977 41.2319 2.83523C41.0955 2.62784 40.9322 2.4517 40.7418 2.30682C40.5515 2.15909 40.3342 2.04687 40.0898 1.97017C39.8484 1.89347 39.5827 1.85511 39.293 1.85511C38.8015 1.85511 38.3583 1.98153 37.9634 2.23438C37.5685 2.48722 37.256 2.85795 37.0259 3.34659C36.7987 3.83239 36.685 4.42756 36.685 5.1321C36.685 5.83949 36.8001 6.4375 37.0302 6.92614C37.2603 7.41477 37.5756 7.78551 37.9762 8.03835C38.3768 8.29119 38.8327 8.41761 39.3441 8.41761C39.8185 8.41761 40.2319 8.32102 40.5842 8.12784C40.9393 7.93466 41.2134 7.66193 41.4066 7.30966C41.6026 6.95455 41.7006 6.53693 41.7006 6.05682L42.0415 6.12074H39.5444V5.03409H42.9748V6.02699C42.9748 6.75994 42.8185 7.39631 42.506 7.93608C42.1964 8.47301 41.7674 8.88778 41.2191 9.1804C40.6737 9.47301 40.0487 9.61932 39.3441 9.61932C38.5543 9.61932 37.8612 9.4375 37.2646 9.07386C36.6708 8.71023 36.2077 8.1946 35.8754 7.52699C35.543 6.85653 35.3768 6.06108 35.3768 5.14062C35.3768 4.4446 35.4734 3.8196 35.6665 3.26562C35.8597 2.71165 36.131 2.24148 36.4805 1.85511C36.8327 1.46591 37.2461 1.16903 37.7205 0.964489C38.1978 0.757102 38.7191 0.653409 39.2844 0.653409C39.756 0.653409 40.195 0.723011 40.6012 0.862216C41.0103 1.00142 41.3739 1.19886 41.6921 1.45455C42.0131 1.71023 42.2788 2.0142 42.489 2.36648C42.6992 2.71591 42.8413 3.10369 42.9151 3.52983H41.5643ZM44.6463 9.5V0.772727H47.7571C48.4332 0.772727 48.9943 0.889204 49.4403 1.12216C49.8892 1.35511 50.2244 1.67756 50.446 2.08949C50.6676 2.49858 50.7784 2.97159 50.7784 3.50852C50.7784 4.04261 50.6662 4.51278 50.4418 4.91903C50.2202 5.32244 49.8849 5.63636 49.4361 5.8608C48.9901 6.08523 48.429 6.19744 47.7528 6.19744H45.3963V5.06392H47.6335C48.0597 5.06392 48.4063 5.00284 48.6733 4.88068C48.9432 4.75852 49.1406 4.58097 49.2656 4.34801C49.3906 4.11506 49.4531 3.83523 49.4531 3.50852C49.4531 3.17898 49.3892 2.89347 49.2614 2.65199C49.1364 2.41051 48.9389 2.22585 48.669 2.09801C48.402 1.96733 48.0511 1.90199 47.6165 1.90199H45.9631V9.5H44.6463ZM48.9545 5.5625L51.1108 9.5H49.6108L47.4972 5.5625H48.9545ZM53.1179 9.5H51.7202L54.8608 0.772727H56.3821L59.5227 9.5H58.125L55.6577 2.35795H55.5895L53.1179 9.5ZM53.3523 6.08239H57.8864V7.19034H53.3523V6.08239ZM60.783 0.772727H62.381L65.1594 7.55682H65.2617L68.0401 0.772727H69.6381V9.5H68.3853V3.18466H68.3043L65.7305 9.48722H64.6907L62.1168 3.1804H62.0359V9.5H60.783V0.772727Z" fill="#9D9D9D"/>
</svg>
