<svg width="44" height="10" viewBox="0 0 44 10" fill="none" xmlns="http://www.w3.org/2000/svg">
<path d="M0.528409 1.90625V0.772727H7.28267V1.90625H4.55966V9.5H3.24716V1.90625H0.528409ZM10.092 0.772727V9.5H8.77521V0.772727H10.092ZM12.0096 9.5V0.772727H13.3263V4.94034H13.4329L17.0934 0.772727H18.7511L15.2312 4.7017L18.7638 9.5H17.1786L14.3576 5.60085L13.3263 6.78551V9.5H12.0096ZM19.5479 1.90625V0.772727H26.3022V1.90625H23.5792V9.5H22.2667V1.90625H19.5479ZM35.0007 5.13636C35.0007 6.06818 34.8303 6.86932 34.4893 7.53977C34.1484 8.20739 33.6811 8.72159 33.0874 9.08239C32.4964 9.44034 31.8246 9.61932 31.0717 9.61932C30.3161 9.61932 29.6413 9.44034 29.0476 9.08239C28.4567 8.72159 27.9908 8.20597 27.6499 7.53551C27.3089 6.86506 27.1385 6.06534 27.1385 5.13636C27.1385 4.20455 27.3089 3.40483 27.6499 2.73722C27.9908 2.06676 28.4567 1.55256 29.0476 1.1946C29.6413 0.833807 30.3161 0.653409 31.0717 0.653409C31.8246 0.653409 32.4964 0.833807 33.0874 1.1946C33.6811 1.55256 34.1484 2.06676 34.4893 2.73722C34.8303 3.40483 35.0007 4.20455 35.0007 5.13636ZM33.6967 5.13636C33.6967 4.42614 33.5817 3.82812 33.3516 3.34233C33.1243 2.85369 32.8118 2.48438 32.4141 2.23438C32.0192 1.98153 31.5717 1.85511 31.0717 1.85511C30.5689 1.85511 30.12 1.98153 29.7251 2.23438C29.3303 2.48438 29.0178 2.85369 28.7876 3.34233C28.5604 3.82812 28.4467 4.42614 28.4467 5.13636C28.4467 5.84659 28.5604 6.44602 28.7876 6.93466C29.0178 7.42045 29.3303 7.78977 29.7251 8.04261C30.12 8.29261 30.5689 8.41761 31.0717 8.41761C31.5717 8.41761 32.0192 8.29261 32.4141 8.04261C32.8118 7.78977 33.1243 7.42045 33.3516 6.93466C33.5817 6.44602 33.6967 5.84659 33.6967 5.13636ZM36.6424 9.5V0.772727H37.9592V4.94034H38.0657L41.7262 0.772727H43.3839L39.864 4.7017L43.3967 9.5H41.8114L38.9904 5.60085L37.9592 6.78551V9.5H36.6424Z" fill="#9D9D9D"/>
</svg>
