<svg width="54" height="10" viewBox="0 0 54 10" fill="none" xmlns="http://www.w3.org/2000/svg">
<path d="M0.528409 1.90625V0.772727H7.28267V1.90625H4.55966V9.5H3.24716V1.90625H0.528409ZM10.484 9.5L8.06357 0.772727H9.44851L11.1488 7.53125H11.2298L12.9982 0.772727H14.3704L16.1388 7.53551H16.2198L17.9158 0.772727H19.305L16.8803 9.5H15.555L13.7184 2.96307H13.6502L11.8136 9.5H10.484ZM21.8224 0.772727V9.5H20.5057V0.772727H21.8224ZM23.3097 1.90625V0.772727H30.0639V1.90625H27.3409V9.5H26.0284V1.90625H23.3097ZM31.1261 1.90625V0.772727H37.8803V1.90625H35.1573V9.5H33.8448V1.90625H31.1261ZM39.3729 9.5V0.772727H44.8445V1.90625H40.6896V4.56534H44.5589V5.6946H40.6896V8.36648H44.8956V9.5H39.3729ZM46.6033 9.5V0.772727H49.7141C50.3903 0.772727 50.9513 0.889204 51.3974 1.12216C51.8462 1.35511 52.1815 1.67756 52.4031 2.08949C52.6246 2.49858 52.7354 2.97159 52.7354 3.50852C52.7354 4.04261 52.6232 4.51278 52.3988 4.91903C52.1772 5.32244 51.842 5.63636 51.3931 5.8608C50.9471 6.08523 50.386 6.19744 49.7099 6.19744H47.3533V5.06392H49.5906C50.0167 5.06392 50.3633 5.00284 50.6303 4.88068C50.9002 4.75852 51.0977 4.58097 51.2227 4.34801C51.3477 4.11506 51.4102 3.83523 51.4102 3.50852C51.4102 3.17898 51.3462 2.89347 51.2184 2.65199C51.0934 2.41051 50.896 2.22585 50.6261 2.09801C50.359 1.96733 50.0082 1.90199 49.5735 1.90199H47.9201V9.5H46.6033ZM50.9116 5.5625L53.0678 9.5H51.5678L49.4542 5.5625H50.9116Z" fill="#9D9D9D"/>
</svg>
