<svg width="57" height="10" viewBox="0 0 57 10" fill="none" xmlns="http://www.w3.org/2000/svg">
<path d="M0.285511 0.772727H1.78125L4.06108 4.74006H4.15483L6.43466 0.772727H7.9304L4.7642 6.07386V9.5H3.4517V6.07386L0.285511 0.772727ZM16.3093 5.13636C16.3093 6.06818 16.1388 6.86932 15.7979 7.53977C15.457 8.20739 14.9897 8.72159 14.396 9.08239C13.805 9.44034 13.1332 9.61932 12.3803 9.61932C11.6246 9.61932 10.9499 9.44034 10.3562 9.08239C9.76527 8.72159 9.29936 8.20597 8.95845 7.53551C8.61754 6.86506 8.44709 6.06534 8.44709 5.13636C8.44709 4.20455 8.61754 3.40483 8.95845 2.73722C9.29936 2.06676 9.76527 1.55256 10.3562 1.1946C10.9499 0.833807 11.6246 0.653409 12.3803 0.653409C13.1332 0.653409 13.805 0.833807 14.396 1.1946C14.9897 1.55256 15.457 2.06676 15.7979 2.73722C16.1388 3.40483 16.3093 4.20455 16.3093 5.13636ZM15.0053 5.13636C15.0053 4.42614 14.8903 3.82812 14.6602 3.34233C14.4329 2.85369 14.1204 2.48438 13.7227 2.23438C13.3278 1.98153 12.8803 1.85511 12.3803 1.85511C11.8775 1.85511 11.4286 1.98153 11.0337 2.23438C10.6388 2.48438 10.3263 2.85369 10.0962 3.34233C9.86896 3.82812 9.75533 4.42614 9.75533 5.13636C9.75533 5.84659 9.86896 6.44602 10.0962 6.93466C10.3263 7.42045 10.6388 7.78977 11.0337 8.04261C11.4286 8.29261 11.8775 8.41761 12.3803 8.41761C12.8803 8.41761 13.3278 8.29261 13.7227 8.04261C14.1204 7.78977 14.4329 7.42045 14.6602 6.93466C14.8903 6.44602 15.0053 5.84659 15.0053 5.13636ZM23.5632 0.772727H24.8842V6.51278C24.8842 7.12358 24.7408 7.66477 24.4538 8.13636C24.1669 8.60511 23.7635 8.97443 23.2436 9.24432C22.7237 9.51136 22.1143 9.64489 21.4155 9.64489C20.7195 9.64489 20.1115 9.51136 19.5916 9.24432C19.0717 8.97443 18.6683 8.60511 18.3814 8.13636C18.0945 7.66477 17.951 7.12358 17.951 6.51278V0.772727H19.2678V6.40625C19.2678 6.80114 19.3544 7.15199 19.5277 7.45881C19.7038 7.76562 19.9524 8.0071 20.2734 8.18324C20.5945 8.35653 20.9751 8.44318 21.4155 8.44318C21.8587 8.44318 22.2408 8.35653 22.5618 8.18324C22.8857 8.0071 23.1328 7.76562 23.3033 7.45881C23.4766 7.15199 23.5632 6.80114 23.5632 6.40625V0.772727ZM26.3683 1.90625V0.772727H33.1225V1.90625H30.3995V9.5H29.087V1.90625H26.3683ZM40.2273 0.772727H41.5483V6.51278C41.5483 7.12358 41.4048 7.66477 41.1179 8.13636C40.831 8.60511 40.4276 8.97443 39.9077 9.24432C39.3878 9.51136 38.7784 9.64489 38.0795 9.64489C37.3835 9.64489 36.7756 9.51136 36.2557 9.24432C35.7358 8.97443 35.3324 8.60511 35.0455 8.13636C34.7585 7.66477 34.6151 7.12358 34.6151 6.51278V0.772727H35.9318V6.40625C35.9318 6.80114 36.0185 7.15199 36.1918 7.45881C36.3679 7.76562 36.6165 8.0071 36.9375 8.18324C37.2585 8.35653 37.6392 8.44318 38.0795 8.44318C38.5227 8.44318 38.9048 8.35653 39.2259 8.18324C39.5497 8.0071 39.7969 7.76562 39.9673 7.45881C40.1406 7.15199 40.2273 6.80114 40.2273 6.40625V0.772727ZM43.4627 9.5V0.772727H46.6587C47.2781 0.772727 47.7908 0.875 48.1971 1.07955C48.6033 1.28125 48.9073 1.5554 49.109 1.90199C49.3107 2.24574 49.4116 2.63352 49.4116 3.06534C49.4116 3.42898 49.3448 3.7358 49.2113 3.9858C49.0778 4.23295 48.8988 4.43182 48.6744 4.58239C48.4528 4.73011 48.2085 4.83807 47.9414 4.90625V4.99148C48.2312 5.00568 48.5138 5.09943 48.7894 5.27273C49.0678 5.44318 49.2979 5.68608 49.4798 6.00142C49.6616 6.31676 49.7525 6.70028 49.7525 7.15199C49.7525 7.59801 49.6474 7.99858 49.4371 8.35369C49.2298 8.70597 48.9087 8.9858 48.4741 9.19318C48.0394 9.39773 47.484 9.5 46.8079 9.5H43.4627ZM44.7795 8.37074H46.68C47.3107 8.37074 47.7624 8.24858 48.0352 8.00426C48.3079 7.75994 48.4442 7.45455 48.4442 7.08807C48.4442 6.8125 48.3746 6.55966 48.2354 6.32955C48.0962 6.09943 47.8974 5.91619 47.6388 5.77983C47.3832 5.64347 47.0792 5.57528 46.7269 5.57528H44.7795V8.37074ZM44.7795 4.5483H46.5437C46.8391 4.5483 47.1048 4.49148 47.3406 4.37784C47.5792 4.2642 47.7681 4.10511 47.9073 3.90057C48.0494 3.69318 48.1204 3.44886 48.1204 3.16761C48.1204 2.80682 47.994 2.50426 47.7411 2.25994C47.4883 2.01562 47.1005 1.89347 46.5778 1.89347H44.7795V4.5483ZM51.3143 9.5V0.772727H56.7859V1.90625H52.631V4.56534H56.5004V5.6946H52.631V8.36648H56.837V9.5H51.3143Z" fill="#9D9D9D"/>
</svg>
