<svg width="34" height="24" viewBox="0 0 34 24" fill="none" xmlns="http://www.w3.org/2000/svg">
<path d="M30.3821 5.13189C30.2215 4.52654 29.9082 3.97467 29.4734 3.53122C29.0386 3.08778 28.4976 2.76823 27.904 2.6044C25.7312 2 16.986 2 16.986 2C16.986 2 8.24048 2.01829 6.0676 2.6227C5.47407 2.78654 4.93298 3.1061 4.4982 3.54957C4.06343 3.99303 3.75015 4.54493 3.58956 5.15029C2.93232 9.08793 2.67736 15.088 3.60761 18.8681C3.76822 19.4735 4.0815 20.0253 4.51627 20.4688C4.95105 20.9122 5.49213 21.2318 6.08565 21.3956C8.25853 22 17.0039 22 17.0039 22C17.0039 22 25.7491 22 27.9219 21.3956C28.5154 21.2318 29.0565 20.9122 29.4913 20.4688C29.9261 20.0254 30.2394 19.4735 30.4 18.8681C31.0932 14.9249 31.3069 8.92852 30.3821 5.13189Z" fill="black"/>
<path d="M14 16L21 12L14 8V16Z" fill="#F7F7F7"/>
</svg>
