<svg width="10" height="11" viewBox="0 0 10 11" fill="none" xmlns="http://www.w3.org/2000/svg">
<path d="M9.5 2.25C9.5 3.215 8.715 4 7.75 4C6.785 4 6 3.215 6 2.25C6 1.285 6.785 0.500003 7.75 0.500003C8.715 0.500003 9.5 1.285 9.5 2.25ZM8.5 4.895C8.25 4.96 8 5 7.75 5C7.02106 4.99868 6.32236 4.70853 5.80692 4.19309C5.29148 3.67765 5.00132 2.97894 5 2.25C5 1.515 5.29 0.850003 5.75 0.355003C5.65926 0.243773 5.54485 0.154188 5.4151 0.0927746C5.28536 0.0313616 5.14355 -0.000332252 5 2.62634e-06C4.45 2.62634e-06 4 0.450003 4 1V1.145C2.515 1.585 1.5 2.95 1.5 4.5V7.5L0.5 8.5V9H9.5V8.5L8.5 7.5V4.895ZM5 10.5C5.555 10.5 6 10.055 6 9.5H4C4 9.76522 4.10536 10.0196 4.29289 10.2071C4.48043 10.3946 4.73478 10.5 5 10.5Z" fill="black"/>
</svg>
