<svg width="38" height="38" viewBox="0 0 38 38" fill="none" xmlns="http://www.w3.org/2000/svg">
<path d="M28.5 12.6667C28.5 10.1472 27.4991 7.73083 25.7175 5.94923C23.9359 4.16764 21.5196 3.16675 19 3.16675C16.4804 3.16675 14.0641 4.16764 12.2825 5.94923C10.5009 7.73083 9.5 10.1472 9.5 12.6667C9.5 23.7501 4.75 26.9167 4.75 26.9167H33.25C33.25 26.9167 28.5 23.7501 28.5 12.6667Z" stroke="black" stroke-width="4" stroke-linecap="round" stroke-linejoin="round"/>
<path d="M21.3123 33.25C21.0339 33.7299 20.6344 34.1282 20.1537 34.4051C19.6729 34.682 19.1279 34.8277 18.5732 34.8277C18.0184 34.8277 17.4734 34.682 16.9926 34.4051C16.5119 34.1282 16.1124 33.7299 15.834 33.25" stroke="black" stroke-width="4" stroke-linecap="round" stroke-linejoin="round"/>
</svg>
