<svg width="14" height="14" viewBox="0 0 14 14" fill="none" xmlns="http://www.w3.org/2000/svg">
<g clip-path="url(#clip0_3_11175)">
<path d="M11.2323 5.86676L13.7621 5.18877C13.4445 4.00173 12.8197 2.91932 11.9507 2.05054L10.0977 3.90236C10.6421 4.44595 11.0335 5.12355 11.2323 5.86676Z" fill="#F69F23"/>
<path d="M7 11.3841C6.61566 11.3852 6.23286 11.3355 5.86158 11.2361L5.18359 13.7659C6.37099 14.0813 7.62015 14.0813 8.80755 13.7659L8.12956 11.2361C7.76114 11.3346 7.38137 11.3844 7 11.3841Z" fill="#7421B0"/>
<path d="M3.90261 10.0977L2.05078 11.9507C2.91871 12.8198 4.00022 13.445 5.18649 13.7634L5.86448 11.2335C5.12204 11.034 4.44534 10.6422 3.90261 10.0977Z" fill="#3A48BA"/>
<path d="M8.13477 11.2323L8.81276 13.7621C9.99998 13.4442 11.0824 12.819 11.951 11.9495L10.0979 10.0977C9.55496 10.6423 8.87771 11.0337 8.13477 11.2323Z" fill="#D2298E"/>
<path d="M2.7681 8.13477L0.238281 8.81276C0.556633 9.99977 1.18177 11.0821 2.05089 11.951L3.90272 10.0979C3.35853 9.55463 2.96717 8.8775 2.7681 8.13477Z" fill="#006FC4"/>
<path d="M11.2322 8.13452C11.0325 8.87787 10.6398 9.55516 10.0938 10.0977L11.9506 11.9495C12.82 11.0813 13.4452 9.9993 13.7632 8.81251L11.2322 8.13452Z" fill="#FF2600"/>
<path d="M10.0979 3.90228L11.951 2.05045C11.0822 1.18087 9.9999 0.555285 8.81276 0.236572L8.13477 2.76639C8.87763 2.96582 9.55478 3.35762 10.0979 3.90228Z" fill="#FAC712"/>
<path d="M7.0004 2.6196C7.3847 2.61917 7.7674 2.66892 8.13882 2.7676L8.81681 0.23778C7.62752 -0.079156 6.37603 -0.079592 5.18652 0.236515C5.3497 0.84873 5.52678 1.50901 5.86451 2.76633C6.23515 2.6682 6.617 2.61888 7.0004 2.6196Z" fill="#FEEF00"/>
<path d="M11.3843 6.99994C11.3854 7.38427 11.3356 7.76706 11.2363 8.13835L13.7661 8.81634C14.0815 7.62894 14.0815 6.37978 13.7661 5.19238L11.2363 5.87037C11.3349 6.23878 11.3847 6.61856 11.3843 6.99994Z" fill="#FB6312"/>
<path d="M2.61963 6.99991C2.6191 6.61561 2.66885 6.23289 2.76762 5.8615L0.236543 5.18604C-0.0788476 6.37386 -0.0788476 7.62343 0.236543 8.81126L2.76636 8.13327C2.66855 7.76344 2.61923 7.38246 2.61963 6.99991Z" fill="#00AFCF"/>
<path d="M5.86701 2.76761C5.52928 1.50903 5.35219 0.848744 5.18902 0.237793C4.00189 0.555867 2.91949 1.18105 2.05078 2.05041L3.90261 3.90223C4.44652 3.35823 5.124 2.96692 5.86701 2.76761Z" fill="#7FD200"/>
<path d="M3.90203 3.90236L2.05021 2.05054C1.18086 2.91847 0.555282 3.99993 0.236328 5.18624L2.76614 5.8655C2.96602 5.12281 3.35776 4.44578 3.90203 3.90236Z" fill="#00B500"/>
</g>
<defs>
<clipPath id="clip0_3_11175">
<rect width="14" height="14" fill="white"/>
</clipPath>
</defs>
</svg>
