<svg width="14" height="14" viewBox="0 0 14 14" fill="none" xmlns="http://www.w3.org/2000/svg">
<path d="M12.7397 11.7934C13.1575 11.2333 13.4443 10.5866 13.5787 9.90098C13.7132 9.21533 13.692 8.50824 13.5166 7.83189C13.3413 7.15553 13.0164 6.52718 12.5657 5.9932C12.1151 5.45922 11.5503 5.03324 10.9131 4.7467C10.7743 3.9481 10.4553 3.19165 9.9803 2.53482C9.50533 1.87798 8.88689 1.33805 8.17198 0.956056C7.45706 0.574057 6.66448 0.360038 5.85445 0.33026C5.04443 0.300483 4.23827 0.455732 3.49724 0.784209C2.75621 1.11269 2.0998 1.60575 1.57788 2.22594C1.05596 2.84612 0.682277 3.57711 0.485213 4.36337C0.288148 5.14962 0.272891 5.97045 0.440601 6.76348C0.608311 7.55651 0.954575 8.30088 1.45308 8.94004L0.526416 9.86004C0.433911 9.95379 0.371247 10.0728 0.346331 10.2022C0.321415 10.3315 0.335363 10.4653 0.386416 10.5867C0.43643 10.7084 0.521362 10.8127 0.630509 10.8862C0.739655 10.9598 0.868133 10.9994 0.99975 11H4.79308C5.17085 11.7964 5.76644 12.4696 6.51091 12.9415C7.25539 13.4134 8.1183 13.6649 8.99975 13.6667H12.9998C13.1314 13.666 13.2598 13.6264 13.369 13.5529C13.4781 13.4793 13.5631 13.3751 13.6131 13.2534C13.6641 13.132 13.6781 12.9982 13.6532 12.8688C13.6283 12.7395 13.5656 12.6205 13.4731 12.5267L12.7397 11.7934ZM4.33308 9.00004C4.334 9.22329 4.35183 9.44615 4.38642 9.6667H2.60642L2.83975 9.44004C2.90224 9.37806 2.95183 9.30433 2.98568 9.22309C3.01952 9.14185 3.03695 9.05471 3.03695 8.9667C3.03695 8.87869 3.01952 8.79156 2.98568 8.71032C2.95183 8.62908 2.90224 8.55534 2.83975 8.49337C2.46612 8.12384 2.16992 7.68353 1.96845 7.19818C1.76699 6.71284 1.66431 6.1922 1.66642 5.6667C1.66642 4.60584 2.08784 3.58842 2.83799 2.83827C3.58814 2.08813 4.60555 1.6667 5.66642 1.6667C6.49421 1.66173 7.30274 1.91629 7.97837 2.39461C8.654 2.87293 9.16274 3.55095 9.43308 4.33337H8.99975C7.76207 4.33337 6.57509 4.82503 5.69992 5.7002C4.82475 6.57537 4.33308 7.76236 4.33308 9.00004ZM11.3598 12.3334L11.3931 12.3667H8.99975C8.22864 12.3653 7.48186 12.0966 6.88663 11.6064C6.2914 11.1162 5.88453 10.4348 5.73535 9.67826C5.58616 8.92172 5.70389 8.13686 6.06847 7.45738C6.43305 6.7779 7.02193 6.24584 7.73479 5.95184C8.44765 5.65783 9.24039 5.62007 9.97797 5.84499C10.7155 6.06991 11.3523 6.54359 11.7798 7.18534C12.2074 7.82709 12.3991 8.59721 12.3225 9.3645C12.2459 10.1318 11.9057 10.8488 11.3598 11.3934C11.2341 11.5165 11.1623 11.6842 11.1597 11.86C11.1601 11.9482 11.178 12.0355 11.2123 12.1167C11.2466 12.198 11.2968 12.2716 11.3598 12.3334Z" fill="#BB6CFF"/>
</svg>
