<svg width="16" height="16" viewBox="0 0 16 16" fill="none" xmlns="http://www.w3.org/2000/svg">
<path d="M10.0003 12.2C9.70034 12.2 9.50034 12.1 9.20034 12L8.00034 11.5L6.80034 12C6.60034 12.1 6.30034 12.2 6.00034 12.2C5.80034 12.2 5.70034 12.2 5.50034 12.1L5.00034 16L8.00034 14L11.0003 16L10.4003 12.1C10.3003 12.2 10.1003 12.2 10.0003 12.2ZM12.9003 5.9C12.8003 5.7 12.8003 5.4 12.9003 5.2L13.5003 4C13.7003 3.6 13.5003 3.1 13.0003 2.9L11.7003 2.4C11.5003 2.3 11.3003 2.1 11.2003 1.9L10.7003 0.6C10.6003 0.2 10.3003 0 10.0003 0C9.90034 0 9.70034 0 9.60034 0.1L8.30034 0.7H8.00034C7.90034 0.7 7.80034 0.7 7.70034 0.6L6.40034 0.1C6.30034 0 6.10034 0 6.00034 0C5.70034 0 5.40034 0.2 5.20034 0.5L4.70034 1.9C4.70034 2.1 4.50034 2.3 4.30034 2.4L2.90034 2.9C2.50034 3 2.30034 3.5 2.50034 4L3.10034 5.3C3.20034 5.5 3.20034 5.8 3.10034 6L2.50034 7.2C2.30034 7.6 2.50034 8.1 3.00034 8.3L4.30034 8.8C4.50034 8.9 4.70034 9.1 4.80034 9.3L5.30034 10.6C5.40034 11 5.70034 11.2 6.00034 11.2C6.10034 11.2 6.20034 11.2 6.30034 11.1L7.60034 10.5C7.70034 10.5 7.80034 10.4 7.90034 10.4C8.00034 10.4 8.10034 10.4 8.20034 10.5L9.50034 11.1C9.60034 11.2 9.70034 11.2 9.80034 11.2C10.1003 11.2 10.4003 11 10.6003 10.7L11.1003 9.4C11.2003 9.2 11.4003 9 11.6003 8.9L12.9003 8.4C13.3003 8.2 13.6003 7.7 13.4003 7.3L12.9003 5.9V5.9ZM8.00034 9.6C5.80034 9.6 4.00034 7.8 4.00034 5.6C4.00034 3.4 5.80034 1.6 8.00034 1.6C10.2003 1.6 12.0003 3.4 12.0003 5.6C12.0003 7.8 10.2003 9.6 8.00034 9.6Z" fill="#005BFF"/>
<path d="M11 5.6001C11 6.39575 10.6839 7.15881 10.1213 7.72142C9.55871 8.28403 8.79565 8.6001 8 8.6001C7.20435 8.6001 6.44129 8.28403 5.87868 7.72142C5.31607 7.15881 5 6.39575 5 5.6001C5 4.80445 5.31607 4.04139 5.87868 3.47878C6.44129 2.91617 7.20435 2.6001 8 2.6001C8.79565 2.6001 9.55871 2.91617 10.1213 3.47878C10.6839 4.04139 11 4.80445 11 5.6001Z" fill="#005BFF"/>
</svg>
