<svg width="16" height="16" viewBox="0 0 16 16" fill="none" xmlns="http://www.w3.org/2000/svg">
<path d="M7.99996 14.6667C7.64626 14.6649 7.30743 14.5241 7.0567 14.2746C6.80597 14.0251 6.66346 13.687 6.65996 13.3333H9.32663C9.32803 13.5116 9.29404 13.6883 9.22663 13.8533C9.14041 14.0512 9.00841 14.2257 8.84149 14.3624C8.67458 14.4992 8.47754 14.5943 8.26663 14.64H8.23529C8.15784 14.6561 8.07906 14.6651 7.99996 14.6667ZM13.3333 12.6667H2.66663V11.3333L3.99996 10.6667V6.99999C3.96484 6.05941 4.17725 5.12608 4.61596 4.29333C4.83185 3.91151 5.12625 3.5798 5.47973 3.32009C5.83321 3.06038 6.23773 2.87858 6.66663 2.78666V1.33333H9.33329V2.78666C11.0526 3.19599 12 4.69199 12 6.99999V10.6667L13.3333 11.3333V12.6667Z" fill="black"/>
</svg>
