
<svg width="37" height="18" viewBox="0 0 37 18" fill="none" xmlns="http://www.w3.org/2000/svg">
<path d="M21.6916 14.0751C20.0171 14.5001 18.9166 14.9251 18.1916 15.3252C15.9166 14.2997 13.4415 13.7501 11.0665 13.7501C8.14149 13.7501 5.49146 14.5001 3.24144 15.5752L0.0664062 0H21.6916M6.51647 3.90004H4.59145V9.60009H8.44103V8.25008H6.51647V3.90004ZM11.7915 8.72462C10.9165 8.72462 10.7165 8.34962 10.7165 7.30007H14.642C14.642 4.77505 14.042 3.72457 11.792 3.72457C9.34196 3.72457 8.69195 4.57458 8.69195 6.7746C8.69195 8.92509 9.59196 9.94963 11.6674 9.94963C13.7175 9.94963 14.4675 9.19963 14.517 8.02462H12.717C12.7165 8.50008 12.5415 8.72462 11.7915 8.72462ZM10.7165 6.17506C10.7165 5.32505 10.8915 4.85051 11.7165 4.85051C12.517 4.85051 12.7165 5.22551 12.7165 6.17506H10.7165ZM16.7916 3.90004H14.6916L16.8666 9.60009H19.2416L21.4671 3.90004H19.4166L18.092 7.62507L16.7916 3.90004Z" fill="#A50716"/>
<path d="M21.6667 0H36.2419L32.8169 15.5752C30.5668 14.2747 28.5168 13.7251 25.5418 13.7251C23.9168 13.7251 22.8168 13.8747 21.6667 14.0751M22.0168 3.87504V9.60009H23.8918V3.87504H22.0168ZM25.3168 4.25004L25.2168 4.82458C25.8168 4.44958 26.0668 4.12458 26.0668 3.69957C26.0668 3.22457 25.7418 2.97457 25.2668 2.97457C24.7918 2.97457 24.4918 3.25003 24.4918 3.64957C24.4922 4.17504 24.8418 4.25004 25.3168 4.25004ZM27.9918 7.80008H25.9668C25.9918 9.17509 26.7168 9.72463 28.9168 9.72463C30.9668 9.72463 31.7918 9.27463 31.7918 7.84961C31.7918 5.59959 27.9918 6.7246 27.9918 5.37459C27.9918 5.04959 28.3668 4.77458 28.8668 4.77458C29.3923 4.77458 29.5918 4.99912 29.7168 5.47459H31.6418C31.6168 4.27458 30.9173 3.72457 28.9918 3.72457C26.9918 3.72457 26.0668 4.27458 26.0668 5.52505C26.0668 8.00008 29.8668 6.6746 29.8668 8.07508C29.8668 8.50008 29.6418 8.70009 29.0918 8.70009C28.4418 8.70009 28.0423 8.45008 27.9918 7.80008ZM29.5418 15.4997C30.1418 15.4997 30.6418 15.9997 30.6418 16.5997C30.6418 17.1997 30.1418 17.6997 29.5418 17.6997C28.9418 17.6997 28.4418 17.2247 28.4418 16.5997C28.4445 16.3088 28.5612 16.0305 28.7669 15.8248C28.9727 15.6191 29.2509 15.5023 29.5418 15.4997ZM30.4668 16.6002C30.4668 16.1002 30.0673 15.7002 29.5418 15.7002C29.0168 15.7002 28.6168 16.1002 28.6168 16.6002C28.6168 17.1002 29.0418 17.5252 29.5418 17.5252C29.6634 17.5255 29.7838 17.5018 29.8962 17.4554C30.0085 17.409 30.1106 17.3409 30.1966 17.2549C30.2825 17.169 30.3507 17.0669 30.397 16.9545C30.4434 16.8421 30.4671 16.7217 30.4668 16.6002ZM29.1668 17.1502V16.0502H29.4664C29.7664 16.0502 29.9918 16.1252 29.9918 16.4002C29.9918 16.5256 29.9168 16.6252 29.7418 16.7252L29.9418 17.1502H29.7418L29.5668 16.8252H29.3918V17.1502H29.1668ZM29.7418 16.4002C29.7418 16.3252 29.6414 16.2752 29.3918 16.2752V16.5502C29.5668 16.5502 29.7418 16.5502 29.7418 16.4002Z" fill="#A50716"/>
</svg>
