
<svg width="32" height="25" viewBox="0 0 32 25" fill="none" xmlns="http://www.w3.org/2000/svg">
<path fill-rule="evenodd" clip-rule="evenodd" d="M23.8689 10.2826C23.7721 10.2826 23.5102 10.3102 23.3585 10.3377C23.3305 10.4206 22.9307 10.6 23.0272 11.0968C23.0959 11.4005 23.2479 11.6213 23.1788 11.6764C22.9857 11.7868 22.71 11.5937 22.4614 11.4971C22.2133 11.3729 21.8271 11.2072 21.5784 11.5248C21.3576 11.8283 22.1165 11.7868 22.7651 12.1318C23.2481 12.3804 23.5793 12.3252 24.3519 12.4081C25.1247 12.463 25.1658 12.1318 25.2899 12.1458C25.4008 12.1735 25.3593 12.4769 25.718 12.5874C25.8835 12.6289 26.256 12.4216 26.3249 12.4492C26.4355 12.463 26.4354 12.6842 26.6974 12.7944C26.9873 12.8773 27.0702 12.7118 27.1666 12.6703C27.2495 12.6289 27.2633 12.8359 27.4288 12.8773C27.5944 12.905 27.8428 12.8911 27.967 12.905C28.0634 12.9464 27.967 13.0705 28.2431 13.1119C28.4912 13.1534 28.5741 13.0152 28.6982 13.0566C28.7949 13.0981 28.9193 13.3742 29.4433 13.3327C29.7746 13.3051 29.692 13.0981 29.6088 12.9464C29.5121 12.7944 28.7949 12.6703 27.6358 12.2562C25.6767 11.58 25.1522 11.7457 24.7384 10.9451C24.5729 10.6139 24.4765 10.4344 24.4488 10.3242C24.3381 10.2964 24.1311 10.3104 23.8689 10.2826Z" fill="#CC2229"/>
<path fill-rule="evenodd" clip-rule="evenodd" d="M30.4642 12.5046C30.381 12.4494 30.1053 12.7119 29.995 12.6705C29.8706 12.629 29.7742 12.4632 29.6775 12.4217C29.5534 12.3806 29.4843 12.4494 29.3603 12.4217C29.2635 12.4082 29.3326 12.2562 29.2497 12.2147C29.1392 12.1736 29.0839 12.2838 28.9598 12.2424C28.8631 12.2147 28.7943 12.0356 28.7114 11.9941C28.615 11.9666 28.5873 12.0905 28.4771 12.0492C28.3251 11.9941 28.2836 11.8836 28.1872 11.8423C28.1043 11.787 27.925 11.9525 27.8009 11.8836C27.6765 11.8284 27.6765 11.4005 27.5936 11.3591C27.4972 11.3178 27.1935 11.6628 27.0694 11.58C26.9589 11.5249 27.0003 11.2072 26.9036 11.1521C26.821 11.0968 26.4485 11.4143 26.3518 11.3729C26.2692 11.3314 26.255 11.1659 26.131 11.1521C26.0204 11.1383 25.8273 11.2901 25.7032 11.2487C25.4548 11.1521 25.1512 11.1935 24.7788 10.3102C24.7373 10.1998 24.6547 10.1307 24.5718 10.1722C24.351 10.2549 24.4339 10.3377 24.7373 10.9451C25.1512 11.7457 25.6756 11.58 27.6347 12.2562C28.7938 12.6705 29.511 12.7944 29.6077 12.9464C29.691 13.0981 29.7736 13.305 29.4422 13.3327C28.918 13.3741 28.7938 13.0981 28.6971 13.0566C28.573 13.0152 28.4901 13.1534 28.242 13.1119C27.9659 13.0704 28.0623 12.9464 27.9659 12.9049C27.8416 12.8911 27.5931 12.9049 27.4278 12.8773C27.2623 12.8358 27.2484 12.6289 27.1655 12.6703C27.0691 12.7118 26.9862 12.8773 26.6963 12.7944C26.4344 12.6841 26.4344 12.463 26.3238 12.4492C26.2547 12.4216 25.8822 12.6289 25.7169 12.5874C25.3582 12.4768 25.3997 12.1734 25.2888 12.1458C25.1647 12.132 25.1236 12.463 24.3508 12.4081C23.5784 12.3251 23.247 12.3804 22.764 12.1318C22.1156 11.7868 21.3565 11.8283 21.5773 11.5247C21.826 11.2072 22.2122 11.3729 22.4603 11.4971C22.709 11.5937 22.9848 11.7868 23.1778 11.6764C23.2469 11.6213 23.0949 11.4005 23.0261 11.0968C22.9297 10.5586 23.3989 10.393 23.3574 10.3102C23.2883 10.2135 23.0261 10.0756 22.3915 10.1722C21.9637 10.2411 21.1357 10.8898 20.9287 10.9866C20.7218 11.1106 19.8667 11.5662 19.3972 10.8898C18.9283 10.1998 19.356 9.49597 19.5492 9.27518C19.7285 9.05439 20.0322 8.88871 20.1423 9.05439C20.2943 9.31664 19.9353 9.38558 19.7836 9.56507C19.6454 9.74457 19.425 10.3518 19.6731 10.6279C19.9353 10.9038 20.4182 10.9315 20.97 10.5175C21.4254 10.1725 22.1706 9.68929 22.9015 9.74473C23.6467 9.78587 24.0333 10.131 24.1435 10.1588C24.2541 10.1725 24.3505 9.92423 24.5022 9.86895C24.6128 9.82749 24.7645 9.96553 24.8609 9.92407C24.9438 9.86895 25.0405 9.64799 25.1508 9.60653C25.2751 9.56507 25.5788 9.77205 25.6753 9.70311C25.7582 9.66165 25.7444 9.39956 25.8822 9.38574C26.0201 9.3581 26.2547 9.60653 26.3515 9.56507C26.4755 9.49614 26.4755 9.35794 26.5996 9.35794C26.6963 9.35794 26.9171 9.68929 27.0277 9.66165C27.1102 9.64799 27.0829 9.31681 27.207 9.27535C27.331 9.23389 27.6486 9.49614 27.759 9.45468C27.8416 9.41338 27.8554 9.01293 28.0071 8.93017C28.1453 8.87506 28.2831 9.09585 28.3661 9.05439C28.4766 9.01293 28.5454 8.55736 28.6698 8.54371C28.78 8.52989 29.0008 8.66776 29.0972 8.64028C29.1801 8.62646 29.1387 8.21252 29.3042 8.1296C29.47 8.07448 29.677 8.33673 29.7323 8.32308C29.8149 8.29544 29.8563 8.07448 29.9392 8.06066C30.0357 8.03302 30.2841 8.23999 30.4085 8.21252C30.5049 8.17106 30.4637 7.86751 30.574 7.85352C30.6569 7.82588 31.0017 7.89498 30.9741 7.50852C30.9603 7.12205 30.4638 6.7494 29.9947 6.7494C29.139 6.7494 28.2836 7.12205 27.5522 7.26008C26.8212 7.3843 25.3173 7.82588 24.9444 7.89515C24.572 7.95026 24.2131 7.74329 24.5443 7.48088C24.8066 7.23244 24.9444 7.42576 24.9444 7.343C24.9444 7.26008 24.7789 7.17733 24.5443 7.13587C24.2959 7.09457 24.0063 7.343 23.689 7.30154C23.3718 7.26008 23.0544 7.01182 22.7095 7.08075C21.868 7.17733 21.7436 7.55014 21.3158 7.70167C20.8881 7.86751 20.5707 7.74329 20.3361 7.77077C19.7568 7.85352 19.5498 8.1987 19.1221 8.15707C18.6114 8.11561 18.3631 7.82588 17.8113 7.67386C17.2868 7.50835 16.2798 7.3565 16.045 7.27374C15.7969 7.177 14.7069 6.91475 14.4446 6.88727C14.1549 6.84581 14.0169 6.92857 13.8928 6.92857C13.7546 6.92857 13.5753 6.84581 13.3821 6.83199C13.2026 6.80435 12.9129 6.79069 12.789 6.83199C12.6791 6.8876 12.6378 6.8876 12.486 6.84614C12.3619 6.83232 11.9065 6.74956 11.7134 6.7772C11.4373 6.79102 11.3269 6.97036 11.1201 6.998C10.9269 7.01182 10.7338 6.91508 10.5132 6.95654C10.2925 6.998 10.113 7.08075 9.91989 7.13587C9.74055 7.20497 9.40937 7.16351 9.25767 7.17716C8.84373 7.2739 8.78845 7.48088 8.63676 7.48088C8.49872 7.48088 8.00219 7.39812 7.85033 7.48088C7.68465 7.54998 7.54678 7.67403 7.42257 7.68785C7.27087 7.7015 6.71889 7.78459 6.37389 7.74313C6.18073 7.72931 5.84955 7.89498 5.71167 7.93628C5.54616 7.97774 5.15969 7.97774 5.0493 7.78459C4.9389 7.54998 5.24245 7.20497 5.75313 6.79086C6.09798 6.52844 8.04348 5.16207 11.203 4.65155C13.6729 4.2376 16.5563 3.20241 17.1636 2.56751C17.4258 2.30526 18.4882 1.40811 18.7501 0.856126C19.0123 0.303981 19.0949 -0.0133867 18.9571 0.0004334C18.8192 0.0418936 18.6537 0.331622 18.3914 0.428198C18.143 0.510953 17.9222 0.373082 17.7292 0.455838C17.5499 0.510953 17.3429 0.800846 17.1499 0.814666C16.9429 0.842141 16.86 0.66281 16.708 0.731745C16.5563 0.842141 16.3082 1.0218 16.1424 1.06293C15.7975 1.11821 15.7837 0.71809 15.4663 0.883602C15.1352 1.04911 14.9007 1.32535 14.5697 1.39429C14.266 1.43575 14.3073 1.20113 14.1005 1.20113C13.7691 1.20113 13.4521 1.6567 13.3002 1.6567C13.1485 1.6567 13.0241 1.40811 12.8311 1.43591C12.6517 1.44957 12.086 1.87749 11.8652 1.9466C11.6306 1.98806 11.5893 1.62923 11.396 1.65687C11.1616 1.67069 10.7338 2.0848 10.4992 2.14008C10.2509 2.18137 10.1129 2.01586 9.94736 2.01586C9.78185 2.01586 9.27133 2.44379 9.0229 2.51272C8.66423 2.59548 8.63659 2.14024 8.25029 2.16772C7.97438 2.18154 7.68449 2.55435 7.46403 2.568C7.22925 2.59548 7.13267 2.41615 6.87059 2.47143C6.58086 2.55419 6.01522 2.94049 5.82191 2.98211C5.64257 3.02357 5.50454 2.91318 5.28375 2.98211C4.8698 3.10633 4.48366 3.65847 4.22125 3.79651C3.93168 3.96202 3.72471 3.87927 3.57285 3.97584C3.29695 4.16899 3.25549 4.55546 2.99323 4.66602C2.75895 4.79024 2.77261 4.61074 2.55165 4.74861C2.17933 5.02452 2.31737 5.3284 2.20697 5.46644C2.09657 5.60431 1.79286 5.7147 1.61353 5.93566C1.43403 6.14263 1.43403 6.26701 1.3651 6.40505C1.28251 6.54309 0.965138 6.95703 0.896037 7.13653C0.854906 7.31536 0.937497 7.50852 0.854906 7.64655C0.79979 7.77077 0.675574 7.97791 0.606638 8.1296C0.496242 8.48859 0.648099 8.84742 0.634278 8.98545C0.606638 9.10951 0.468602 9.31664 0.468602 9.48232C0.468602 9.64799 0.634279 9.96536 0.592818 10.2136C0.551523 10.4622 0.0410026 12.1045 0.330731 12.8498C0.648099 13.6226 1.11716 14.0369 1.28267 13.9678C1.462 13.9125 1.35161 13.5811 1.53094 13.2779C1.71027 12.9877 1.91724 12.6292 2.08292 12.8774C2.22079 13.1121 1.75173 13.1121 1.71027 13.7884C1.65515 14.4368 1.73775 14.1609 1.71027 14.3542C1.69645 14.5612 1.28251 14.9477 1.28251 15.127C1.28251 15.3201 1.32397 15.8034 1.9309 16.314C2.30355 16.6451 2.3863 16.866 2.48271 16.8798C2.56547 16.9075 2.64839 16.4932 2.82772 16.4103C3.07615 16.2997 3.61415 16.7831 3.71073 16.7693C3.83494 16.7278 3.87624 16.0653 4.09703 15.9412C4.31799 15.8445 4.85615 16.2726 4.96654 16.2173C5.07677 16.1344 4.95256 15.7203 5.00784 15.5548C5.07677 15.4031 5.38032 15.3616 5.28375 15.0855C5.20099 14.8095 5.15953 14.2713 4.18011 14.2022C3.89022 14.1746 3.49026 14.1334 3.75235 13.8297C4.0559 13.526 4.38692 12.4081 3.66943 11.5387C3.36605 11.1659 2.67603 11.3729 2.48288 11.4558C2.13803 11.58 1.79303 12.0356 1.65515 11.9114C1.53094 11.7871 1.93106 11.2765 2.55181 11.097C3.15891 10.9036 3.93168 10.9453 4.23523 11.7042C4.77323 13.029 4.23523 13.6502 4.30433 13.7883C4.38692 13.9261 4.69047 13.7744 5.11823 14.0367C5.72533 14.4368 5.64257 14.7818 5.79427 14.9062C5.93214 15.0164 6.66345 15.0717 7.33965 15.1132C8.0295 15.1546 8.78828 15.334 9.10565 15.1546C9.61617 14.8924 9.65747 13.9123 10.844 13.1945C11.4373 12.8358 12.2237 12.477 13.1067 12.6289C14.0865 12.7667 14.1003 12.9049 14.0174 13.029C14.0036 13.0981 13.9762 13.1945 13.9623 13.181C13.493 12.9326 12.8172 12.9049 12.4031 12.9875C11.796 13.0981 10.7611 13.2639 10.0023 14.5887C9.25718 15.9136 10.4576 15.9274 10.5818 15.9689C10.7198 16.0241 10.9406 16.0929 10.9268 16.4796C10.8991 16.8662 11.0234 17.0868 11.1614 17.3352C11.3269 17.556 11.5892 17.7354 11.5892 17.7354C11.5892 17.7354 11.7821 17.2938 12.0031 17.1972C12.2239 17.0732 12.486 17.2939 12.6102 17.4321C12.9965 17.929 12.8311 17.0041 13.1069 16.9076C13.5072 16.7833 13.6587 17.3769 13.8797 17.2663C14.2798 17.087 14.059 16.8109 14.3489 16.7005C14.6523 16.6176 14.8318 16.8663 14.9558 16.7834C15.0937 16.6867 15.08 15.8313 14.8178 15.4862C14.5281 15.1272 14.1005 14.5199 13.1896 14.5199C12.2928 14.5199 12.0031 14.3958 12.0444 14.2162C12.0859 14.0369 12.2652 13.9125 12.486 13.9954C12.8311 14.1194 12.8723 14.0918 13.4241 14.1194C14.2243 14.1336 14.045 14.4784 14.7074 14.7682C15.2043 14.9751 15.8526 14.63 16.6529 14.7682C17.4668 14.9064 18.143 15.0581 18.8878 15.0166C20.2956 14.9751 21.8547 14.3544 22.1581 14.3129C22.4756 14.2576 22.6411 14.2991 22.6411 14.2024C22.6411 14.1194 21.275 13.9125 21.3576 13.5813C21.4682 13.2641 22.1166 13.5263 23.0134 13.7333C23.9102 13.9265 25.8279 14.092 26.5732 14.0508C27.3736 14.037 28.7394 14.396 29.857 14.1338C30.4228 13.9956 30.9608 13.6504 31.0161 13.2642C31.0852 12.8773 30.5745 12.5876 30.4642 12.5046V12.5046ZM22.765 7.77077C22.9858 7.72931 23.3722 7.82588 23.2757 8.07432C23.1927 8.32291 23.1516 8.28129 22.972 8.32291C22.7926 8.36404 22.4201 8.4055 22.3236 8.23983C22.2406 8.07432 22.5167 7.82588 22.765 7.77077ZM17.1498 1.40811C17.2876 1.47721 17.3014 1.67052 17.2876 1.79474C17.2462 1.90513 17.1774 2.01553 17.1083 2.01553C16.9977 2.01553 16.9977 1.86368 16.9566 1.71182C16.9148 1.5876 16.9977 1.32535 17.1498 1.40811V1.40811ZM15.8805 1.79457C16.17 1.86351 16.0598 2.12593 16.0045 2.42948C15.963 2.63645 15.7837 2.69173 15.7561 2.73302C15.6595 2.91252 15.632 2.12593 15.632 2.12593C15.632 2.12593 15.7148 1.75311 15.8805 1.79457ZM14.4729 2.01553C14.5833 2.00171 14.7767 2.42964 14.6661 2.80229C14.542 3.16112 14.3902 3.16112 14.3902 3.16112C14.3902 3.16112 14.3489 2.76083 14.3073 2.71937C14.266 2.65027 14.1832 2.08447 14.4729 2.01553V2.01553ZM13.2035 2.2225C13.4659 2.12593 13.535 2.71937 13.4106 3.02308C13.3002 3.34045 13.3002 3.53376 13.1069 3.40938C12.8723 3.29899 13.0656 2.91268 12.9965 2.80229C12.9137 2.60881 12.9828 2.3329 13.2035 2.2225V2.2225ZM11.7961 2.55386C12.1273 2.5124 12.0859 3.03674 12.0031 3.32679C11.9065 3.58888 11.8376 3.7131 11.6997 3.6718C11.5479 3.61652 11.741 3.27135 11.6583 3.11966C11.5479 2.98162 11.6168 2.56751 11.7961 2.55386ZM10.3475 2.81594C10.5406 2.85724 10.6787 3.14713 10.5821 3.54742C10.4993 3.96153 10.3751 4.0581 10.2647 4.0581C10.1543 4.0581 10.306 3.40938 10.2094 3.40938C10.1267 3.40938 10.113 2.77448 10.3475 2.81594ZM8.92632 3.29899C9.05054 3.29899 9.32645 3.5336 9.18841 3.96153C9.05054 4.40311 9.05054 4.36182 8.92632 4.40311C8.78828 4.43075 8.88503 4.14086 8.8021 3.97535C8.70553 3.83715 8.58131 3.28517 8.92632 3.29899V3.29899ZM7.64319 3.75456C7.89163 3.74074 7.9882 4.26524 7.93292 4.48587C7.89163 4.70666 7.8087 4.9829 7.65701 4.94144C7.51898 4.91396 7.68449 4.51367 7.56044 4.51367C7.46386 4.51351 7.27071 3.76838 7.64319 3.75456ZM6.82913 5.25881C6.66361 5.56252 6.67727 5.56252 6.56704 5.56252C6.45664 5.56252 6.52558 5.12093 6.40153 5.12093C6.29113 5.12093 6.19455 4.47221 6.5394 4.44457C6.91188 4.43075 6.9257 5.03801 6.82913 5.25881ZM6.27731 3.18859C6.36007 3.18859 6.56704 3.32663 6.37389 3.5336C6.19455 3.74057 6.18073 3.87861 6.01522 3.79585C5.84955 3.74074 6.01506 3.20241 6.27731 3.18859ZM1.58605 7.54998C1.69629 7.54998 1.83449 7.82588 1.82067 7.93644C1.79303 8.0192 1.77937 8.15724 1.61369 8.1987C1.462 8.23983 1.40689 7.99172 1.40689 7.95026C1.39307 7.89515 1.35161 7.52234 1.58605 7.54998V7.54998ZM1.75173 9.35777C1.66897 9.35777 1.57223 9.35777 1.5033 9.30282C1.46184 9.23372 1.18593 8.95781 1.3929 8.68158C1.40672 8.64028 1.75173 8.87489 1.82067 9.02675C1.86213 9.13698 1.86213 9.35777 1.75173 9.35777ZM2.04129 7.05295C1.99983 7.12188 1.8896 7.16334 1.82067 7.12188C1.71027 7.05295 1.71027 6.83215 1.75173 6.79086C1.77921 6.77704 1.79303 6.44569 2.01365 6.48698C2.12405 6.5008 1.99983 6.77687 2.01365 6.80451C2.04129 6.84614 2.09657 6.99783 2.04129 7.05295ZM11.2305 8.46078C11.2443 8.36421 11.396 8.28145 11.5479 8.32291C11.741 8.33657 11.9618 8.50224 11.9205 8.62646C11.9067 8.75068 11.6997 8.84725 11.4927 8.75068C11.3132 8.66776 11.1892 8.585 11.2305 8.46078V8.46078ZM11.5064 9.35777C11.6306 9.34412 11.9618 9.31664 11.9342 9.49597C11.9205 9.66148 11.8376 9.70295 11.5755 9.74441C11.3132 9.78554 11.1477 9.62019 11.1477 9.53743C11.1616 9.3994 11.3685 9.38558 11.5064 9.35777V9.35777ZM10.8165 7.46722C10.9682 7.46722 11.1063 7.59127 11.0648 7.68785C11.0235 7.78459 11.0097 7.90864 10.7338 7.85352C10.6372 7.81206 10.513 7.67403 10.513 7.59127C10.5132 7.42576 10.6787 7.43958 10.8165 7.46722ZM9.32644 7.81206C9.35392 7.67403 9.61617 7.64655 9.74039 7.70167C9.87843 7.77077 9.96118 7.95026 9.87843 8.03302C9.78185 8.10212 9.68527 8.07448 9.5196 8.03302C9.35408 7.99156 9.31279 7.9501 9.32644 7.81206V7.81206ZM9.14711 8.44713C9.35408 8.44713 9.60235 8.59882 9.49196 8.70922C9.4092 8.79197 9.32644 8.84725 9.10565 8.84725C8.88486 8.84725 8.8021 8.7645 8.8021 8.64028C8.8021 8.52988 8.94014 8.41949 9.14711 8.44713V8.44713ZM8.78828 9.35777C9.0229 9.31664 9.18841 9.45451 9.17475 9.57873C9.17475 9.70295 8.96778 9.81334 8.82975 9.81334C8.66423 9.81334 8.42962 9.77188 8.40198 9.57873C8.37451 9.41322 8.66423 9.38558 8.78828 9.35777ZM8.15371 10.4621C8.11242 10.3378 8.40198 10.2826 8.54002 10.2549C8.66423 10.2411 8.92632 10.2964 8.88503 10.4206C8.84373 10.5172 8.76081 10.6414 8.54002 10.6414C8.31923 10.6277 8.19501 10.5586 8.15371 10.4621ZM8.49856 11.2348C8.45726 11.4143 8.29175 11.4418 8.16753 11.4556C8.0295 11.4833 7.80871 11.4556 7.80871 11.3178C7.80871 11.1659 8.00202 11.0555 8.11242 11.014C8.33321 10.9729 8.54002 11.0968 8.49856 11.2348V11.2348ZM7.89163 7.85352C7.97422 7.86734 8.23647 7.93628 8.25029 8.0605C8.25029 8.15707 8.31922 8.29511 8.0295 8.29511C7.76741 8.29511 7.65701 8.25365 7.60173 8.11561C7.51898 7.9501 7.80871 7.82588 7.89163 7.85352ZM7.85017 8.83343C8.12607 8.88871 8.16753 8.88871 8.19501 9.01276C8.20883 9.13698 8.00202 9.21974 7.76725 9.2612C7.51881 9.30266 7.38094 9.19226 7.31184 9.06804C7.27071 8.95781 7.57426 8.79197 7.85017 8.83343V8.83343ZM7.38111 9.9652C7.51898 9.95138 7.68449 10.0065 7.68449 10.1585C7.65701 10.2826 7.57426 10.3378 7.43622 10.3931C7.31201 10.4621 7.0361 10.3517 6.99464 10.2551C6.95318 10.1585 7.22925 9.99284 7.38111 9.9652V9.9652ZM7.13251 11.1106C7.13251 11.2348 6.88424 11.3314 6.76002 11.3591C6.66345 11.3729 6.58069 11.4556 6.49794 11.3729C6.40136 11.2901 6.41518 11.2072 6.48412 11.1521C6.52541 11.0968 6.78767 10.9727 6.84295 10.9451C6.95318 10.9036 7.14649 11.014 7.13251 11.1106V11.1106ZM6.56704 8.17089C6.78783 8.17089 6.88441 8.29511 6.92587 8.4055C6.95334 8.50208 6.92587 8.5572 6.87059 8.59866C6.82929 8.64012 6.58086 8.6263 6.44282 8.54354C6.24967 8.44713 6.31861 8.17089 6.56704 8.17089V8.17089ZM5.46324 5.12093C5.76679 5.09329 5.82191 5.5074 5.75297 5.88005C5.64257 6.23871 5.60111 6.23871 5.46324 6.19758C5.33903 6.15612 5.46324 5.94899 5.38032 5.85241C5.28375 5.76965 5.11823 5.13459 5.46324 5.12093ZM5.24229 3.57506C5.51836 3.53376 5.42178 3.87877 5.3665 3.97535C5.28375 4.09956 5.38032 4.2789 5.20099 4.26508C5.00784 4.2376 5.03548 4.00282 5.00784 3.87861C4.99402 3.74074 5.07694 3.58872 5.24229 3.57506ZM4.26287 4.81722C4.31799 4.73447 4.35945 4.52749 4.53878 4.51367C4.66283 4.48603 4.62153 4.83104 4.60771 4.99672C4.60771 5.16223 4.64917 5.36937 4.42838 5.28661C4.19377 5.20369 4.19377 4.9138 4.26287 4.81722ZM3.40734 4.85852C3.44864 4.85852 3.44864 4.83088 3.44864 4.83088C3.44864 4.83088 3.64179 4.51351 3.83494 4.61009C3.9177 4.62391 3.71073 5.02403 3.68325 5.09329C3.64195 5.20369 3.50392 5.28645 3.3797 5.17605C3.25565 5.05183 3.36605 4.85852 3.40734 4.85852ZM2.82789 5.58999C2.93828 5.63145 2.82789 5.99028 2.78643 6.15579C2.77277 6.32147 2.64855 6.40423 2.52434 6.36277C2.40012 6.34911 2.46922 6.05905 2.4276 6.05905C2.40012 6.03174 2.56563 5.5487 2.82789 5.58999V5.58999ZM2.4276 8.33673C2.51052 8.36421 2.52434 8.52989 2.52434 8.55736C2.52434 8.62646 2.60709 8.66776 2.64855 8.79197C2.67603 8.88871 2.60709 8.98529 2.51068 9.01276C2.40029 9.01276 2.30371 8.80579 2.30371 8.80579C2.30371 8.83343 2.22079 8.32291 2.4276 8.33673ZM2.77277 10.0341C2.68985 10.0894 2.59344 10.1307 2.46922 10.1169C2.34501 10.0756 2.20713 9.86862 2.31753 9.74441C2.4276 9.64783 2.59344 9.73059 2.67603 9.78554C2.75895 9.85497 2.85553 9.9652 2.77277 10.0341ZM2.81407 7.70167C2.64855 7.67403 2.71749 7.35666 2.68985 7.35666C2.68985 7.35666 2.85553 6.79102 3.02104 6.8876C3.14525 6.97036 3.07632 7.343 3.0625 7.52234C3.03486 7.68785 2.9521 7.74329 2.81407 7.70167V7.70167ZM3.11745 8.75068C3.0625 8.72304 2.99323 8.36404 3.24167 8.33657C3.33824 8.33657 3.50392 8.52972 3.50392 8.64012C3.4901 8.76433 3.53139 8.93001 3.29695 8.91602C3.07632 8.88871 3.15891 8.7645 3.11745 8.75068V8.75068ZM3.71089 10.5173C3.6283 10.5173 3.46246 10.5037 3.36605 10.3517C3.28329 10.2413 3.25565 10.0481 3.36605 9.99284C3.4488 9.95138 3.66943 10.0894 3.76617 10.2826C3.8764 10.4621 3.76617 10.5173 3.71089 10.5173ZM4.00062 9.82716C3.89022 9.81351 3.76617 9.77188 3.66943 9.64783C3.57302 9.53743 3.57302 9.30282 3.72471 9.27518C3.95916 9.23372 4.09703 9.44086 4.18011 9.62019C4.23523 9.81334 4.06972 9.82716 4.00062 9.82716V9.82716ZM4.22125 8.84725C4.11085 8.84725 4.0559 8.80579 4.00062 8.72304C3.91786 8.66776 3.89022 8.41949 4.11085 8.41949C4.22125 8.41949 4.38692 8.50224 4.40058 8.62646C4.42838 8.7645 4.31799 8.83343 4.22125 8.84725ZM4.42838 6.05922C4.58007 6.05922 4.85631 6.22489 4.77323 6.70794C4.66283 7.17716 4.60771 7.01165 4.51114 7.03913C4.42838 7.08059 4.48366 6.77704 4.42838 6.70794C4.31799 6.58372 4.0559 6.05922 4.42838 6.05922V6.05922ZM4.70429 10.6001C4.60771 10.5586 4.48366 10.5035 4.46968 10.3517C4.42838 10.2136 4.58007 10.1723 4.70429 10.2C4.85615 10.2136 4.96654 10.3378 4.96654 10.4346C4.96654 10.5586 4.78705 10.6277 4.70429 10.6001ZM4.96654 9.64783C4.89744 9.66149 4.85615 9.70295 4.70429 9.66149C4.56642 9.60637 4.27653 9.30282 4.53878 9.13698C4.62153 9.06804 4.9389 9.1508 5.008 9.38541C5.11823 9.57873 5.04913 9.60637 4.96654 9.64783ZM4.99402 8.70922C4.95256 8.66776 5.03531 8.44713 5.25611 8.50225C5.46324 8.54371 5.51836 8.68158 5.50454 8.80579C5.46324 8.93001 5.32521 8.93001 5.21464 8.91619C5.11823 8.88871 5.04913 8.75068 4.99402 8.70922V8.70922ZM5.82191 11.1106C5.75297 11.1521 5.60111 11.1935 5.39414 11.1659C5.21465 11.1521 5.17335 11.0968 5.24229 10.9866C5.32521 10.8898 5.38032 10.8623 5.546 10.8071C5.71151 10.7381 5.90483 10.8207 5.94629 10.8898C5.98742 10.9451 5.90466 11.0968 5.82191 11.1106V11.1106ZM6.09781 10.2135C5.98742 10.2826 5.75297 10.2135 5.68387 10.048C5.62875 9.86862 5.72533 9.827 5.80809 9.78554C5.90466 9.77172 6.13911 9.88228 6.18073 10.0341C6.19455 10.1307 6.19455 10.1585 6.09781 10.2135V10.2135ZM6.31861 9.41322C6.22203 9.41322 5.8632 9.35777 5.9323 9.17844C5.9736 8.98529 6.18073 8.98529 6.29113 9.01276C6.36007 9.01276 6.64979 9.10934 6.58086 9.27502C6.5394 9.45451 6.41518 9.3994 6.31861 9.41322V9.41322ZM9.49196 12.6703C9.49196 12.7667 9.43684 12.8358 9.35409 12.8358C9.25751 12.8358 8.9816 12.7667 8.84357 12.8773C8.70553 12.9737 8.62277 13.1534 8.63659 13.2777C8.66423 13.3741 8.66423 13.5262 8.5953 13.5673C8.54018 13.6226 8.27793 13.5262 8.16753 13.5397C8.07096 13.5397 7.72595 13.6226 7.64319 13.8022C7.54662 13.9678 7.61572 14.0918 7.56044 14.1336C7.50532 14.2024 7.4224 14.23 7.33965 14.23C7.25689 14.2576 6.88424 14.2024 6.82913 14.2576C6.74637 14.3129 6.5394 14.5614 6.48412 14.4784C6.41518 14.3958 6.31861 14.437 6.49794 14.1336C6.58069 13.9954 6.80149 13.8437 6.82913 13.8437C6.84295 13.8437 7.11885 13.871 7.17413 13.8299C7.22925 13.7746 7.39493 13.4432 7.46403 13.3741C7.73993 13.1534 7.72611 13.2363 7.80887 13.1945C7.89179 13.181 8.1677 13.2363 8.19517 13.181C8.23663 13.0981 8.40215 12.7944 8.54018 12.6703C8.71951 12.5045 9.00941 12.4768 9.0507 12.4492C9.06436 12.4081 9.13346 12.2975 9.17492 12.2146C9.23003 12.1318 9.47847 11.9249 9.64398 11.9663C9.72673 11.9938 9.43701 12.3804 9.43701 12.463C9.4092 12.5461 9.49196 12.5599 9.49196 12.6703V12.6703ZM9.69893 11.4973C9.49196 11.5387 9.27116 11.5249 9.25734 11.4145C9.2297 11.3316 9.29881 11.2074 9.43668 11.1522C9.56089 11.097 9.68494 11.1384 9.78152 11.1384C9.86428 11.1384 10.0714 11.1384 10.0438 11.2074C10.0301 11.2763 9.9059 11.4558 9.69893 11.4973V11.4973ZM9.98882 10.5586C9.75421 10.5863 9.53358 10.5173 9.56106 10.4208C9.60235 10.3104 9.74039 10.2136 9.94736 10.2136C10.1543 10.2 10.2924 10.2551 10.2924 10.3517C10.2924 10.4346 10.2094 10.545 9.98882 10.5586ZM10.4579 9.44086C10.4166 9.60637 10.3337 9.64783 10.182 9.66149C10.0301 9.66149 9.72657 9.62019 9.72657 9.38558C9.72657 9.27518 10.0439 9.2199 10.1129 9.2199C10.182 9.19226 10.4717 9.27518 10.4579 9.44086V9.44086ZM10.6787 8.55736C10.6512 8.68158 10.4717 8.79197 10.3337 8.75068C10.182 8.70922 9.98882 8.68158 10.0026 8.54371C10.0026 8.46078 10.1267 8.33673 10.3475 8.36421C10.5821 8.36421 10.6925 8.46078 10.6787 8.55736V8.55736ZM11.4098 11.2348C11.3547 11.2901 11.2856 11.4418 11.1201 11.4833C10.9684 11.4971 10.7751 11.566 10.6923 11.3729C10.651 11.2763 10.72 11.1935 10.844 11.1106C10.9406 11.0555 11.2718 11.0555 11.2718 11.0555C11.2718 11.0555 11.3131 10.9451 11.3958 11.014C11.4788 11.0693 11.4788 11.1659 11.4098 11.2348V11.2348ZM11.7961 10.5035C11.6581 10.5035 11.3269 10.5172 11.3131 10.3517C11.2718 10.2827 11.4926 10.2 11.6304 10.1585C11.796 10.1171 11.9064 10.1171 11.9616 10.1309C12.0168 10.1585 12.1686 10.2136 12.1686 10.2827C12.1688 10.3517 11.9205 10.4759 11.7961 10.5035V10.5035ZM11.9756 7.74329C11.9205 7.60509 11.9067 7.48088 11.9618 7.42576C12.0584 7.35666 12.3896 7.48088 12.4447 7.63273C12.5276 7.77077 12.5276 7.93644 12.3896 7.9779C12.2515 7.99156 12.0169 7.86751 11.9756 7.74329V7.74329ZM12.4722 8.54371C12.4445 8.41949 12.6929 8.32291 12.8586 8.33673C12.9965 8.36421 13.2451 8.50224 13.2035 8.64028C13.1485 8.79197 13.1209 8.83343 12.9965 8.83343C12.8723 8.83343 12.486 8.75068 12.4722 8.54371V8.54371ZM12.5964 9.52345C12.5687 9.41322 12.8173 9.35777 12.9137 9.35777C12.9965 9.35777 13.3693 9.41322 13.2589 9.56491C13.1898 9.70295 13.038 9.77188 12.9137 9.77188C12.8173 9.77188 12.6378 9.62019 12.5964 9.52345V9.52345ZM13.3415 10.6829C13.2035 10.7794 13.1069 10.7794 12.9414 10.7794C12.7897 10.7794 12.7619 10.6829 12.7619 10.5586C12.7619 10.4621 12.9137 10.3931 12.9828 10.3793C13.0656 10.3517 13.1622 10.3793 13.2451 10.3517C13.3002 10.3378 13.3002 10.3378 13.383 10.3104C13.4521 10.2966 13.4934 10.2827 13.5072 10.3931C13.5348 10.5035 13.4932 10.6001 13.3415 10.6829V10.6829ZM13.6174 7.89515C13.5483 7.93644 13.5483 7.9779 13.4104 7.95026C13.2449 7.93644 13.162 7.68801 13.1207 7.67403C13.0654 7.64655 12.9412 7.50852 12.9963 7.43958C13.0654 7.3843 13.3691 7.3843 13.507 7.50852C13.6727 7.64655 13.6727 7.85352 13.6174 7.89515V7.89515ZM13.921 8.46078C13.9624 8.41949 14.059 8.36421 14.1832 8.36421C14.3073 8.36421 14.4729 8.44713 14.5282 8.52989C14.5697 8.62646 14.5697 8.70922 14.4868 8.79197C14.4315 8.84725 14.059 8.75068 14.0037 8.68158C13.921 8.59882 13.8935 8.52988 13.921 8.46078ZM14.0175 9.70295C13.9764 9.74441 13.9624 9.60637 14.0175 9.53743C14.1005 9.48215 14.2798 9.38558 14.3902 9.38558C14.4868 9.38558 14.6523 9.41322 14.625 9.49597C14.611 9.57873 14.5833 9.7857 14.3627 9.7857C14.1418 9.81334 14.059 9.68913 14.0175 9.70295V9.70295ZM14.4453 10.7243C14.266 10.7381 14.1418 10.7105 14.1143 10.5586C14.1005 10.4208 14.2385 10.3793 14.266 10.3793C14.2798 10.3793 14.4315 10.3517 14.4729 10.3378C14.5697 10.3378 14.735 10.2136 14.8179 10.3378C14.8591 10.4208 14.6248 10.6829 14.4453 10.7243V10.7243ZM15.0386 7.93644C15.0109 7.99172 14.9558 8.15724 14.7487 8.10212C14.5419 8.03302 14.4451 7.93644 14.39 7.85369C14.3487 7.77093 14.1967 7.64672 14.3211 7.5225C14.39 7.46738 14.7074 7.59144 14.8591 7.70183C14.9835 7.82588 15.0524 7.85352 15.0386 7.93644V7.93644ZM15.1766 8.52989C15.2181 8.44713 15.3836 8.40567 15.508 8.40567C15.632 8.41949 15.7975 8.46078 15.8248 8.59882C15.8528 8.72304 15.8248 8.7645 15.7837 8.83343C15.7149 8.88871 15.4663 8.80579 15.3698 8.7645C15.2594 8.72304 15.1352 8.585 15.1766 8.52989V8.52989ZM15.2043 9.48215C15.2043 9.38558 15.3423 9.3994 15.4112 9.38558C15.4389 9.35794 15.4802 9.31664 15.5906 9.30282C15.6733 9.27518 15.8528 9.27518 15.8528 9.35777C15.8805 9.41322 15.8528 9.53743 15.632 9.60637C15.3836 9.68913 15.2181 9.57873 15.2043 9.48215ZM16.0045 10.3931C16.0045 10.3931 15.8248 10.5586 15.7837 10.6277C15.7149 10.669 15.6044 10.7794 15.4389 10.6416C15.3423 10.545 15.4389 10.3793 15.508 10.3378C15.5631 10.2827 15.9769 10.0343 16.0598 10.1585C16.1286 10.2826 16.0045 10.3931 16.0045 10.3931ZM16.2524 7.9501C16.1698 8.07432 16.0455 8.0605 15.8941 8.03286C15.7559 8.01904 15.5078 7.85352 15.5215 7.68785C15.5491 7.54998 15.7974 7.59127 15.9352 7.64655C16.0874 7.70167 16.3492 7.82588 16.2524 7.9501ZM17.8946 9.85497C17.812 9.85497 17.605 9.64783 17.936 9.60637C18.0604 9.57873 18.0742 9.66148 18.0742 9.7857C18.0742 9.88244 17.9637 9.85497 17.8946 9.85497V9.85497ZM18.0742 8.88871C17.936 8.84725 17.8807 8.79197 17.9637 8.68158C18.0604 8.59882 18.1015 8.62646 18.2256 8.66776C18.3223 8.70922 18.35 8.79197 18.3223 8.87489C18.3085 8.97163 18.2256 8.93017 18.0742 8.88871ZM18.8605 11.8699C18.667 11.8284 18.488 11.5938 18.3913 11.4558C18.3083 11.2903 18.281 10.9866 18.3498 10.8487C18.4051 10.683 18.488 10.6692 18.5706 10.7245C18.667 10.7796 18.6121 11.1939 18.667 11.2075C18.7361 11.249 18.7776 11.539 18.9569 11.5803C19.0122 11.5803 19.0813 11.7184 19.0813 11.7184C19.0813 11.7184 19.0122 11.9112 18.8605 11.8699V11.8699Z" fill="#33A457"/>
<path fill-rule="evenodd" clip-rule="evenodd" d="M15.7215 24.429C17.1579 24.429 18.3221 23.1563 18.3221 21.5859C18.3221 20.0158 17.1579 18.743 15.7215 18.743C14.2852 18.743 13.1207 20.0158 13.1207 21.5859C13.1208 23.1563 14.2852 24.429 15.7215 24.429V24.429ZM15.7215 23.1614C15.0278 23.1614 14.6567 22.456 14.6567 21.5859C14.6567 20.7157 14.9874 20.0104 15.7215 20.0104C16.4554 20.0104 16.7864 20.7157 16.7864 21.5859C16.7864 22.456 16.4151 23.1614 15.7215 23.1614ZM4.29047 24.2976H4.95531C5.04379 24.2984 5.12995 24.2693 5.19974 24.2149C5.26954 24.1606 5.31885 24.0841 5.33964 23.9981L5.48278 23.4328C5.50532 23.3432 5.58264 23.2831 5.67494 23.2831H6.92056C7.01286 23.2831 7.09018 23.3432 7.11272 23.4328L7.25569 23.9981C7.27651 24.0841 7.32583 24.1605 7.39562 24.2149C7.46541 24.2693 7.55156 24.2984 7.64002 24.2976H8.30487C8.36667 24.2976 8.4276 24.2831 8.48282 24.2553C8.53804 24.2276 8.58601 24.1873 8.62289 24.1377C8.65978 24.0882 8.68457 24.0307 8.69529 23.9698C8.706 23.9089 8.70234 23.8464 8.68459 23.7872L7.28876 19.1211C7.26514 19.0389 7.21521 18.9667 7.14662 18.9157C7.07802 18.8646 6.99456 18.8374 6.90904 18.8383H5.68646C5.50811 18.8383 5.35774 18.9502 5.30674 19.1211L3.91091 23.7872C3.89313 23.8464 3.88944 23.9089 3.90013 23.9698C3.91082 24.0306 3.93559 24.0882 3.97247 24.1377C4.00934 24.1873 4.0573 24.2276 4.11252 24.2554C4.16773 24.2831 4.22867 24.2976 4.29047 24.2976V24.2976ZM6.67443 22.1736H5.92091C5.90676 22.1733 5.89284 22.17 5.88018 22.1637C5.86751 22.1573 5.85643 22.1483 5.84774 22.1371C5.83906 22.1259 5.83299 22.113 5.82999 22.0991C5.82699 22.0853 5.82714 22.071 5.83042 22.0572L6.25588 20.3743C6.26575 20.3358 6.32942 20.3358 6.33913 20.3743L6.76475 22.0572C6.76803 22.071 6.76818 22.0853 6.76519 22.0991C6.7622 22.1129 6.75615 22.1259 6.74748 22.137C6.73881 22.1482 6.72775 22.1573 6.7151 22.1636C6.70246 22.1699 6.68856 22.1733 6.67443 22.1736V22.1736ZM8.68393 21.5862C8.68393 23.1563 9.84844 24.429 11.2847 24.429C11.9703 24.429 12.5939 24.1391 13.0583 23.6651C13.1401 23.5819 13.1381 23.447 13.0593 23.3608L12.5369 22.7904C12.4325 22.6767 12.2719 22.7094 12.1605 22.8163C11.9063 23.0612 11.7051 23.1615 11.2846 23.1615C10.5505 23.1615 10.2198 22.4562 10.2198 21.586V21.5857C10.2198 20.7155 10.5505 20.0102 11.2846 20.0102C11.7051 20.0102 11.9063 20.1104 12.1605 20.3554C12.2719 20.4623 12.4325 20.4952 12.5369 20.3814L13.0593 19.811C13.1381 19.7253 13.1401 19.5899 13.0583 19.5066C12.5939 19.0326 11.9701 18.7427 11.2847 18.7427C9.84844 18.7427 8.68393 20.0155 8.68393 21.5855V21.5862V21.5862ZM21.2146 22.7375C21.2146 23.064 20.9581 23.242 20.6095 23.242C20.1696 23.242 19.8849 22.9791 19.6214 22.7092C19.4819 22.5666 19.2482 22.5714 19.1008 22.7058L18.7741 23.0034C18.6466 23.1197 18.5505 23.3149 18.6591 23.4488C19.012 23.8854 19.5386 24.3813 20.8087 24.3813C21.9361 24.3813 22.6404 23.5954 22.6404 22.7482C22.6404 22.0571 22.3484 21.5999 21.5228 21.1778L20.6681 20.772C20.3046 20.6752 20.1498 20.5438 20.1498 20.3064C20.1498 20.0541 20.3265 19.8998 20.6161 19.8998C20.9566 19.8998 21.2439 20.1112 21.5027 20.3189C21.6544 20.4406 21.8777 20.412 22.0098 20.269L22.3513 19.8992C22.4699 19.7707 22.5139 19.557 22.3883 19.4349C21.9767 19.0351 21.3614 18.735 20.5195 18.735C19.3283 18.735 18.6262 19.4737 18.6262 20.3715C18.6262 21.1283 18.994 21.5215 19.7933 21.886L20.7753 22.306C21.0863 22.4024 21.2146 22.5222 21.2146 22.7375V22.7375ZM30.1269 20.9227H29.158C29.132 20.9227 29.1062 20.9176 29.0821 20.9076C29.0581 20.8977 29.0362 20.8831 29.0178 20.8647C28.9994 20.8462 28.9848 20.8244 28.9748 20.8003C28.9649 20.7762 28.9598 20.7505 28.9598 20.7244V20.3273C28.9598 20.2177 29.0485 20.129 29.158 20.129H30.5858C30.6379 20.129 30.6894 20.1188 30.7375 20.0989C30.7857 20.0789 30.8294 20.0497 30.8662 20.0129C30.903 19.9761 30.9322 19.9324 30.9521 19.8843C30.9721 19.8361 30.9823 19.7846 30.9823 19.7325V19.2351C30.9823 19.1831 30.9721 19.1315 30.9521 19.0834C30.9322 19.0353 30.903 18.9915 30.8662 18.9547C30.8294 18.9179 30.7857 18.8887 30.7375 18.8688C30.6894 18.8489 30.6379 18.8386 30.5858 18.8386H27.8502C27.7982 18.8386 27.7466 18.8489 27.6985 18.8688C27.6505 18.8888 27.6068 18.918 27.57 18.9548C27.5332 18.9916 27.504 19.0353 27.4841 19.0834C27.4642 19.1315 27.454 19.1831 27.4541 19.2351V23.9012C27.4541 24.0063 27.4958 24.1071 27.5701 24.1815C27.6444 24.2558 27.7451 24.2976 27.8502 24.2977H30.5858C30.6909 24.2977 30.7918 24.256 30.8662 24.1816C30.9405 24.1072 30.9823 24.0064 30.9823 23.9012V23.4035C30.9823 23.2984 30.9405 23.1975 30.8662 23.1232C30.7918 23.0488 30.6909 23.007 30.5858 23.007H29.158C29.132 23.0071 29.1062 23.0019 29.0821 22.992C29.0581 22.982 29.0362 22.9674 29.0178 22.949C28.9994 22.9306 28.9848 22.9087 28.9748 22.8847C28.9649 22.8606 28.9598 22.8348 28.9598 22.8088V22.4116C28.9598 22.3024 29.0485 22.2134 29.158 22.2134H30.1269C30.179 22.2134 30.2306 22.2031 30.2787 22.1832C30.3268 22.1633 30.3705 22.1341 30.4073 22.0973C30.4442 22.0605 30.4734 22.0167 30.4933 21.9686C30.5132 21.9205 30.5235 21.8689 30.5234 21.8169V21.3195C30.5235 21.2674 30.5132 21.2158 30.4933 21.1677C30.4734 21.1195 30.4442 21.0758 30.4074 21.0389C30.3706 21.0021 30.3269 20.9728 30.2787 20.9529C30.2306 20.9329 30.179 20.9227 30.1269 20.9227V20.9227ZM24.5558 24.2976H25.2688C25.4877 24.2976 25.6653 24.1199 25.6653 23.9011V20.3271C25.6653 20.2175 25.7537 20.1288 25.8633 20.1288H26.664C26.7692 20.1288 26.87 20.0871 26.9444 20.0127C27.0187 19.9383 27.0605 19.8375 27.0605 19.7323V19.235C27.0605 19.1298 27.0187 19.029 26.9444 18.9546C26.87 18.8802 26.7692 18.8385 26.664 18.8385H23.1605C23.1084 18.8385 23.0568 18.8487 23.0087 18.8686C22.9606 18.8885 22.9169 18.9177 22.88 18.9546C22.8432 18.9914 22.814 19.0351 22.7941 19.0832C22.7742 19.1313 22.7639 19.1829 22.764 19.235V19.7323C22.7639 19.7844 22.7742 19.836 22.7941 19.8841C22.814 19.9322 22.8432 19.9759 22.88 20.0128C22.9169 20.0496 22.9606 20.0788 23.0087 20.0987C23.0568 20.1186 23.1084 20.1289 23.1605 20.1288H23.9609C24.0704 20.1288 24.1591 20.2175 24.1591 20.3271V23.9011C24.1593 24.0062 24.2011 24.107 24.2755 24.1813C24.3498 24.2557 24.4506 24.2975 24.5558 24.2976V24.2976ZM3.225 23.0036H2.16004C2.10746 23.0036 2.05703 22.9827 2.01985 22.9455C1.98267 22.9083 1.96178 22.8579 1.96178 22.8053V19.235C1.96178 19.1298 1.92003 19.029 1.84571 18.9547C1.77139 18.8803 1.67058 18.8385 1.56544 18.8385H0.852395C0.747264 18.8385 0.646453 18.8803 0.57213 18.9547C0.497806 19.029 0.456055 19.1298 0.456055 19.235V23.9007C0.456055 24.1199 0.633741 24.2972 0.852888 24.2969L2.91191 24.2949L3.2255 24.2943C3.33051 24.2942 3.4312 24.2524 3.50542 24.1781C3.57965 24.1038 3.62134 24.0031 3.62134 23.8981V23.4001C3.62137 23.348 3.61113 23.2965 3.59122 23.2484C3.57131 23.2003 3.54212 23.1565 3.50532 23.1197C3.46851 23.0829 3.42481 23.0537 3.37672 23.0338C3.32862 23.0138 3.27707 23.0036 3.225 23.0036V23.0036Z" fill="#33A457"/>
</svg>
