
<svg width="21" height="14" viewBox="0 0 21 14" fill="none" xmlns="http://www.w3.org/2000/svg">
<path fill-rule="evenodd" clip-rule="evenodd" d="M20.9539 13.7354V10.3367H0V13.7354H20.9539Z" fill="#001C4E"/>
<path fill-rule="evenodd" clip-rule="evenodd" d="M2.69821 12.7616H2.58721V12.0847H1.63378V12.7616H1.52278V11.3326H1.63378V11.9926H2.58721V11.3326H2.69821V12.7616V12.7616ZM4.5736 12.7616H4.46259V11.3326H4.5736V12.7616V12.7616ZM6.44696 12.6693H7.15307V12.7616H6.33585V11.3326H6.44696V12.6693V12.6693ZM9.48736 11.4246H8.86291V11.9674H9.42665V12.0595H8.86291V12.7616H8.7519V11.3326H9.48736V11.4246ZM11.2161 12.7616H11.1049V11.3326H11.2161V12.7616V12.7616ZM14.1748 11.561C14.0008 11.4625 13.8394 11.4164 13.6677 11.4164C13.3052 11.4164 13.037 11.6846 13.037 12.0471C13.037 12.3675 13.2485 12.6778 13.6989 12.6778C13.8646 12.6778 13.9778 12.6463 14.091 12.5899V12.2042H13.7891V12.1122H14.202V12.6591C14.0322 12.7408 13.8605 12.7805 13.6949 12.7805C13.2508 12.7805 12.9177 12.4663 12.9177 12.043C12.9177 11.6239 13.2425 11.3139 13.6847 11.3139C13.8459 11.3139 13.9737 11.3451 14.175 11.4353V11.561H14.1748V11.561ZM16.7017 11.4246H16.0333V11.9968H16.6849V12.0889H16.0333V12.6693H16.7186V12.7616H15.9222V11.3326H16.7017V11.4246V11.4246ZM18.4932 11.4246H18.7257C18.9878 11.4246 19.1029 11.5421 19.1029 11.7033C19.1029 11.8753 18.9814 11.9842 18.7299 11.9842H18.4932V11.4246V11.4246ZM18.3823 11.3326V12.7616H18.4932V12.0764H18.686C18.8579 12.0764 18.9123 12.0994 19.0841 12.3698L19.3336 12.7616H19.4635L19.1408 12.2672C19.0736 12.1666 19.0171 12.0847 18.9501 12.0493C19.1323 11.9821 19.2225 11.8669 19.2225 11.7015C19.2225 11.5108 19.0988 11.3327 18.749 11.3327H18.3823V11.3326V11.3326ZM0.0136719 3.39868V10.3366H10.4284V3.39868H0.0136719Z" fill="white"/>
<path fill-rule="evenodd" clip-rule="evenodd" d="M10.4287 10.3366H20.9538V10.9961H20.9556V3.39868H10.4287V10.3366Z" fill="#B81D37"/>
<path fill-rule="evenodd" clip-rule="evenodd" d="M20.956 3.39872V0H0.00195312V3.39872H20.956Z" fill="#001C4E"/>
<path fill-rule="evenodd" clip-rule="evenodd" d="M2.69054 1.1514H2.15412V2.48824H2.04301V1.1514H1.50659V1.0591H2.69054V1.1514ZM6.72424 1.77361C6.72424 2.1298 6.44769 2.40434 6.08937 2.40434C5.73105 2.40434 5.45024 2.1298 5.45024 1.77361C5.45024 1.41742 5.73093 1.143 6.08937 1.143C6.44757 1.143 6.72424 1.41742 6.72424 1.77361V1.77361ZM6.84364 1.77361C6.84364 1.36287 6.51041 1.04028 6.08522 1.04028C5.66194 1.04028 5.33084 1.36298 5.33084 1.77361C5.33084 2.18424 5.66194 2.50694 6.08522 2.50694C6.51041 2.50705 6.84364 2.18435 6.84364 1.77361ZM10.9926 1.0591H11.1037V2.48824H10.9926V1.22039H10.9885L10.4478 1.88887L9.90723 1.22039H9.90297V2.48824H9.79185V1.0591H9.90297L10.4478 1.72343L10.9926 1.0591V1.0591ZM15.311 1.0591H15.4221V2.48824H15.311V1.22039H15.3069L14.7663 1.88887L14.2258 1.22039H14.2216V2.48824H14.1105V1.0591H14.2216L14.7663 1.72343L15.311 1.0591ZM18.9341 1.7213V2.48824H18.823V1.7213L18.2678 1.0591H18.4018L18.8797 1.62486L19.3553 1.0591H19.4893L18.9341 1.7213V1.7213Z" fill="white"/>
</svg>
