
<svg width="27" height="17" viewBox="0 0 27 17" fill="none" xmlns="http://www.w3.org/2000/svg">
<path d="M24.1383 16.9927C22.9615 16.9927 22.2637 16.3907 22.2102 15.5236H23.3354C23.3354 15.8127 23.4957 16.1974 24.1919 16.2213C24.6743 16.2213 24.9413 15.9323 24.9413 15.7151C24.8879 15.3782 24.4589 15.3542 24.0315 15.2806C23.5491 15.2106 23.1752 15.113 22.9064 14.9934C22.5325 14.8001 22.317 14.3896 22.317 13.957C22.317 13.1855 22.9615 12.5835 24.085 12.5835C25.2085 12.5835 25.8529 13.1377 25.9044 13.9809H24.8345C24.8345 13.7654 24.7811 13.4029 24.1383 13.4029C23.7093 13.4029 23.4423 13.4746 23.3889 13.7875C23.3889 14.222 24.2987 14.1981 24.9948 14.3656C25.6374 14.535 26.0665 14.9437 26.0665 15.5237C26.0665 16.5841 25.2102 16.9928 24.1385 16.9928M3.63452 9.87805L7.32875 7.73328L9.31019 11.1319H4.33063" fill="black"/>
<path d="M11.9431 12.5752H10.8621V16.8647H11.9431V12.5752Z" fill="black"/>
<path d="M1.91991 14.7834C1.91991 15.4572 2.50912 16.0114 3.14997 16.0114C3.84789 16.0114 4.38195 15.4572 4.38195 14.7834C4.38195 14.1096 3.84789 13.5554 3.14997 13.5554C2.50912 13.5554 1.91991 14.1335 1.91991 14.7834ZM3.09663 17C1.9198 17 0.90332 16.0114 0.90332 14.7834C0.90332 13.5554 1.91991 12.5907 3.09663 12.5907C3.57905 12.5907 4.00813 12.7123 4.38195 12.9754V12.6385H5.4538V16.9023H4.38205V16.6373C4.06168 16.8784 3.57915 16.9999 3.09673 16.9999M17.395 11.1307L12.2553 2.16872L15.9494 0L22.3746 11.1308M6.84612 14.7834C6.84612 15.4572 7.38209 16.0114 8.0781 16.0114C8.71895 16.0114 9.31008 15.4572 9.31008 14.7834C9.31008 14.1096 8.71895 13.5554 8.0781 13.5554C7.38199 13.5554 6.84612 14.1335 6.84612 14.7834ZM8.02465 17C6.79267 17 5.82953 16.0114 5.82953 14.7834C5.82953 13.5554 6.79267 12.5907 8.02465 12.5907C8.50526 12.5907 8.93444 12.7123 9.31008 12.9754V11.1693H10.38V16.9023H9.30998V16.6373C8.93424 16.8784 8.50526 16.9999 8.02455 16.9999M7.97191 6.04732L11.7195 3.92831L15.8428 11.1304H11.9332V12.1908H10.8631V11.1304M25.3721 12.2241C25.1033 12.2241 24.8364 11.983 24.8364 11.694C24.8364 11.405 25.1034 11.1638 25.3721 11.1638C25.6925 11.1638 25.9081 11.4051 25.9081 11.694C25.9081 11.9829 25.6925 12.2242 25.3721 12.2242M25.3721 11.2374C25.1033 11.2374 24.943 11.4528 24.943 11.694C24.943 11.9352 25.1033 12.1524 25.3721 12.1524C25.641 12.1524 25.7994 11.9353 25.7994 11.694C25.7994 11.4527 25.6392 11.2374 25.3721 11.2374Z" fill="black"/>
<path d="M25.4823 11.985L25.3754 11.7438H25.2686V11.985H25.1876V11.407H25.4289C25.4823 11.407 25.5891 11.4807 25.5891 11.5763C25.5891 11.6719 25.5357 11.72 25.4823 11.7438L25.5891 11.985M25.3754 11.4806H25.2686V11.6721H25.3754C25.4823 11.6721 25.4823 11.6482 25.4823 11.5763C25.4823 11.5267 25.4823 11.4806 25.3754 11.4806ZM18.3002 14.7834C18.3002 15.4571 18.8362 16.0114 19.5322 16.0114C20.1748 16.0114 20.7623 15.4571 20.7623 14.7834C20.7623 14.1096 20.1748 13.5554 19.5322 13.5554C18.8361 13.5554 18.3002 14.1334 18.3002 14.7834ZM19.477 17C18.2469 17 17.2837 16.0114 17.2837 14.7834C17.2837 13.5554 18.2469 12.5907 19.477 12.5907C19.9595 12.5907 20.3886 12.7122 20.7624 12.9754V12.6385H21.7808V16.9023H20.7625V16.6372C20.3886 16.8784 19.9595 16.9999 19.477 16.9999M13.3779 14.7833C13.3779 15.457 13.9671 16.0113 14.6098 16.0113C15.306 16.0113 15.8418 15.457 15.8418 14.7833C15.8418 14.1095 15.3059 13.5553 14.6098 13.5553C13.9671 13.5553 13.3779 14.1333 13.3779 14.7833ZM15.8419 11.1693H16.9118V16.9023H15.8419V16.6372C15.5196 16.8784 15.0906 16.9999 14.6099 16.9999C13.378 16.9999 12.3613 16.0113 12.3613 14.7833C12.3613 13.5553 13.3779 12.5906 14.6099 12.5906C15.0905 12.5906 15.5197 12.7121 15.8419 12.9753V11.1692V11.1693Z" fill="black"/>
</svg>
