
<svg width="27" height="18" viewBox="0 0 27 18" fill="none" xmlns="http://www.w3.org/2000/svg">
<path fill-rule="evenodd" clip-rule="evenodd" d="M0.90332 0H3.66076L5.18867 10.5083L6.67916 0H25.5719L24.9385 3.0184H8.98967L6.56746 16.8432H3.80988L0.90332 0Z" fill="black"/>
<path fill-rule="evenodd" clip-rule="evenodd" d="M26.0565 12.9305C26.1311 14.57 25.1995 17.0667 23.1498 17.0667C20.7652 17.0667 20.2434 14.123 20.2434 12.8932H22.1811C22.1811 13.6011 22.7775 14.3093 23.2245 14.3093C23.6717 14.3093 24.1191 13.7502 24.1191 13.3777C24.1191 13.0049 23.97 12.4461 23.2621 11.9616C20.9514 10.5829 20.4298 8.98038 20.4298 7.60173C20.3552 5.96212 21.1377 3.53992 23.1872 3.53992C25.2369 3.53992 25.7959 6.40934 25.7959 7.60173H23.97C23.97 6.93098 23.5228 6.44662 23.0757 6.44662C22.6285 6.44662 22.3302 6.8937 22.3302 7.2665C22.3302 7.63916 22.4048 7.97454 23.113 8.45889C24.0817 8.90611 26.0565 10.3593 26.0565 12.9305ZM26.1672 16.098C26.2456 16.0979 26.3234 16.1133 26.3959 16.1432C26.4684 16.1732 26.5343 16.2172 26.5898 16.2727C26.6452 16.3282 26.6892 16.3941 26.7192 16.4666C26.7492 16.5391 26.7645 16.6168 26.7644 16.6953C26.7649 16.774 26.7498 16.8521 26.7201 16.925C26.6903 16.9979 26.6464 17.0641 26.5908 17.12C26.5353 17.1758 26.4693 17.2202 26.3966 17.2504C26.3239 17.2806 26.2459 17.2962 26.1672 17.2962C26.0882 17.2964 26.01 17.281 25.9369 17.2509C25.8639 17.2208 25.7976 17.1765 25.7417 17.1207C25.6859 17.0648 25.6416 16.9985 25.6115 16.9255C25.5814 16.8525 25.566 16.7742 25.5663 16.6953C25.5663 16.3646 25.8349 16.098 26.1672 16.098V15.9591C25.7577 15.9591 25.4272 16.2896 25.4272 16.6954C25.4271 16.7926 25.4461 16.8889 25.4832 16.9787C25.5204 17.0686 25.5749 17.1502 25.6436 17.219C25.7124 17.2877 25.794 17.3422 25.8838 17.3793C25.9737 17.4165 26.07 17.4355 26.1672 17.4354C26.5728 17.4354 26.9035 17.1049 26.9035 16.6954C26.9032 16.5002 26.8255 16.3131 26.6875 16.1751C26.5495 16.0371 26.3624 15.9594 26.1672 15.9591V16.098Z" fill="black"/>
<path fill-rule="evenodd" clip-rule="evenodd" d="M26.0193 16.4194H26.2127C26.2897 16.4194 26.4025 16.4194 26.4025 16.5225C26.4025 16.624 26.3403 16.6447 26.2521 16.6427H26.0193V16.7612H26.1751L26.3516 17.0992H26.5338L26.3402 16.7612C26.4812 16.7517 26.5581 16.6915 26.5581 16.5471C26.5581 16.4644 26.5356 16.3873 26.4641 16.3406C26.4041 16.303 26.3159 16.3009 26.2483 16.3009H25.8631V17.0992H26.0191V16.4194H26.0193ZM9.95888 12.3718L10.7042 7.52739L11.4495 12.3718H9.95888ZM9.51181 15.092H11.8222L12.1203 16.8433H15.8093V9.91232L18.0824 16.8433H19.9828V3.95007H18.0451V10.5085L15.8838 3.95007H13.8717V16.0608L11.7849 3.95007H9.6235L7.3877 16.8433H9.28812L9.51181 15.092Z" fill="black"/>
</svg>
