
<svg width="41" height="15" viewBox="0 0 41 15" fill="none" xmlns="http://www.w3.org/2000/svg">
<path d="M23.9859 7.54132H24.4124C24.4124 8.01404 24.4912 8.5587 24.6042 8.96977C24.7104 9.34658 24.9862 9.70112 25.2277 9.97003C25.6782 10.4873 26.4643 10.7802 27.3241 10.7802C27.9424 10.7802 28.5162 10.5661 28.8982 10.2578C29.3024 9.92549 29.561 9.44763 29.561 8.87385C29.561 8.39599 29.3589 7.95752 29.0883 7.68177C28.8125 7.40601 28.2113 7.0018 27.5142 6.73118L26.514 6.34923C25.6713 6.02381 24.9297 5.52197 24.558 5.06123C24.1863 4.59536 23.9397 3.91368 23.9397 3.2457C23.9397 2.29511 24.3268 1.51923 24.9845 0.957438C25.6422 0.400788 26.699 0.102766 27.9424 0.102766C29.3538 0.102766 30.3317 0.339128 31.2806 0.935172V3.39299H30.8987C30.8987 3.20116 30.849 3.01105 30.849 2.91513C30.849 2.77469 30.8045 2.6291 30.8045 2.53318C30.8045 2.43727 30.7086 2.34136 30.7086 2.24715C30.6126 2.01079 30.4671 1.70249 30.2821 1.43701C29.8265 0.76732 29.0403 0.390511 28.1788 0.390511C27.6102 0.390511 27.0552 0.570352 26.7007 0.863235C26.3187 1.17325 26.1338 1.67851 26.1338 2.20091C26.1338 2.62739 26.2742 3.03331 26.5157 3.29708C26.7743 3.58311 27.319 3.88799 27.9887 4.15689L28.8999 4.5337C29.8385 4.91565 30.6144 5.41577 31.0425 5.87137C31.4981 6.34923 31.7568 7.01208 31.7568 7.77768C31.7568 8.73341 31.3748 9.59836 30.6161 10.1619C29.8624 10.7236 28.8057 11.0662 27.5177 11.0662C26.8942 11.0662 26.0567 10.948 25.1335 10.7785C24.8081 10.7219 24.3747 10.6157 23.9859 10.453V7.54132ZM33.1304 7.54132H33.5569C33.5569 8.01404 33.6357 8.5587 33.7487 8.96977C33.8549 9.34658 34.1307 9.70112 34.3722 9.97003C34.8226 10.4873 35.6088 10.7802 36.4686 10.7802C37.0869 10.7802 37.6607 10.5661 38.0426 10.2578C38.4468 9.92549 38.7055 9.44763 38.7055 8.87385C38.7055 8.39599 38.5034 7.95752 38.2327 7.68177C37.957 7.40601 37.3558 7.0018 36.6587 6.73118L35.6585 6.34923C34.8158 6.02381 34.0741 5.52197 33.7025 5.06123C33.3308 4.59536 33.0842 3.91368 33.0842 3.2457C33.0842 2.29511 33.4713 1.51923 34.1307 0.957438C34.7884 0.400788 35.8451 0.102766 37.0869 0.102766C38.4982 0.102766 39.4762 0.339128 40.4268 0.935172V3.39299H40.0449C40.0449 3.20116 39.9952 3.01105 39.9952 2.91513C39.9952 2.77469 39.9507 2.6291 39.9507 2.53318C39.9507 2.43727 39.8547 2.34136 39.8547 2.24715C39.7588 2.01079 39.6132 1.70249 39.4283 1.43701C38.9727 0.76732 38.1848 0.390511 37.325 0.390511C36.7563 0.390511 36.2014 0.570352 35.8469 0.863235C35.4649 1.17325 35.2799 1.67851 35.2799 2.20091C35.2799 2.62739 35.4204 3.03331 35.6619 3.29708C35.9205 3.58311 36.4652 3.88799 37.1349 4.15689L38.0461 4.5337C38.9847 4.91565 39.7605 5.41577 40.1887 5.87137C40.6443 6.34923 40.903 7.01208 40.903 7.77768C40.903 8.73341 40.521 9.59836 39.7623 10.1619C39.0086 10.7236 37.9519 11.0662 36.6639 11.0662C36.0404 11.0662 35.2029 10.948 34.2797 10.7785C33.9543 10.7219 33.5209 10.6157 33.1321 10.453L33.1304 7.54132ZM17.1194 0C18.5479 0 19.7897 0.426479 20.694 1.19209C21.8861 2.14267 22.5044 3.67046 22.5044 5.67269C22.5044 6.43658 22.3639 7.15081 22.1721 7.8205C21.9306 8.48334 21.5538 9.1085 21.1205 9.53498C20.1699 10.5352 18.7877 11.0576 16.9722 11.0576C15.3073 11.0576 13.9697 10.5798 13.0653 9.62918C12.1096 8.67346 11.6369 7.24501 11.6369 5.48086C11.6369 3.76638 12.1096 2.42871 13.0653 1.47812C14.0228 0.522394 15.405 0 17.1194 0ZM17.1246 0.286032C16.1689 0.286032 15.405 0.803289 14.9322 1.75901C14.5503 2.56915 14.3019 3.86229 14.3019 5.48086C14.3019 7.24672 14.5486 8.57241 14.9322 9.38255C15.3587 10.2937 16.0678 10.7648 16.979 10.7648C18.8905 10.7648 19.8342 9.01088 19.8342 5.56992C19.8342 3.75953 19.5978 2.42185 19.1713 1.61172C18.9795 1.22977 18.6421 0.902629 18.2602 0.65599C17.8885 0.419628 17.45 0.28432 17.0681 0.28432H17.1246V0.286032ZM6.91478 5.49114C7.96642 5.49114 8.87076 5.7275 9.4394 6.20536C10.0132 6.63869 10.2992 7.30153 10.2992 8.11167C10.2992 8.58953 10.1588 9.0674 9.96693 9.44934C9.72543 9.83129 9.34348 10.2132 8.91529 10.4051C8.50423 10.5746 8.0709 10.6877 7.62729 10.7373C7.14943 10.8333 6.4352 10.8778 5.58053 10.8778H0.956055V10.59H2.09676V0.486426H0.956055V0.200394H5.48804C6.15088 0.200394 6.77604 0.244926 7.24705 0.296309C8.06233 0.392224 8.72517 0.673118 9.20304 1.10645C9.6809 1.53293 9.91726 2.15124 9.91726 2.87231C9.91726 3.8229 9.49078 4.53712 8.68064 4.96874C8.29869 5.16057 7.68038 5.35069 6.86511 5.39522L6.91478 5.49114ZM4.58199 10.59H5.30135C5.77407 10.59 6.15602 10.5455 6.43691 10.489C6.73665 10.3931 7.00213 10.215 7.20081 9.97174C7.53822 9.54355 7.73005 8.92524 7.73005 8.16134C7.73005 7.3512 7.53822 6.67809 7.20081 6.29443C7.00898 6.10259 6.77433 5.91248 6.49344 5.8217C6.20055 5.72065 5.72954 5.62987 5.24483 5.62987H4.58199V10.59ZM4.58199 5.35069H5.24483C5.91966 5.35069 6.49344 5.15886 6.81886 4.77691C7.15628 4.39496 7.34811 3.77665 7.34811 2.90999C7.34811 2.24715 7.20252 1.62884 6.96616 1.24518C6.82057 0.952299 6.58421 0.762182 6.34785 0.671405C6.05497 0.570352 5.62849 0.479575 5.15576 0.479575H4.58199V5.35069ZM1.10507 14.1595V12.8098H1.27292V13.3716H1.982V12.8098H2.14985V14.1595H1.982V13.5292H1.27292V14.1595H1.10507ZM7.00213 12.8115H7.16998V13.5925C7.16998 13.7278 7.15285 13.8392 7.12545 13.9128C7.09119 13.9933 7.03296 14.0601 6.9576 14.1047C6.87881 14.1543 6.77262 14.1834 6.64245 14.1834C6.51913 14.1834 6.41122 14.1612 6.33244 14.1218C6.25707 14.079 6.19713 14.0122 6.16458 13.9299C6.14403 13.8854 6.13204 13.8375 6.12519 13.7895C6.11834 13.7244 6.11491 13.6576 6.1132 13.5925V12.8115H6.28105V13.5925C6.28105 13.7107 6.29304 13.8015 6.30846 13.8512C6.33072 13.9077 6.37012 13.9522 6.42664 13.9796C6.48316 14.0087 6.54996 14.0241 6.62361 14.0241C6.75891 14.0241 6.85483 13.9967 6.90964 13.9402C6.96616 13.8837 6.9987 13.7604 6.9987 13.5908L7.00213 12.8115ZM11.7482 13.6319V13.4744H12.3168V13.9745C12.2278 14.0413 12.137 14.0978 12.0462 14.1321C11.9555 14.1663 11.8544 14.1834 11.7602 14.1834C11.6369 14.1852 11.517 14.1577 11.4057 14.1047C11.3012 14.0516 11.2173 13.9659 11.1642 13.8631C11.1076 13.7518 11.0785 13.6285 11.0802 13.5035C11.0802 13.3733 11.1076 13.25 11.159 13.1369C11.2155 13.0239 11.2943 12.94 11.3954 12.8834C11.4964 12.8269 11.6146 12.7995 11.7499 12.7995C11.8458 12.7995 11.9349 12.8166 12.0137 12.8441C12.0925 12.8783 12.1541 12.9228 12.1935 12.9794C12.2381 13.0359 12.2723 13.1078 12.2946 13.1986L12.137 13.238C12.1199 13.1763 12.0925 13.1198 12.0634 13.0856C12.0342 13.0513 11.9897 13.0188 11.9349 12.9948C11.8767 12.9691 11.8133 12.9571 11.7499 12.9554C11.6711 12.9554 11.5975 12.9674 11.5427 12.9896C11.4862 13.0119 11.4365 13.0462 11.3971 13.0907C11.3611 13.1301 11.3337 13.1763 11.3132 13.226C11.2789 13.3099 11.2618 13.399 11.2618 13.4898C11.2618 13.6079 11.284 13.709 11.3183 13.7878C11.3577 13.8666 11.4194 13.9334 11.4981 13.9676C11.5769 14.0019 11.666 14.0241 11.7568 14.0241C11.8304 14.0241 11.9092 14.007 11.976 13.9848C12.0497 13.9556 12.1113 13.918 12.1507 13.8837V13.6302L11.7482 13.6319ZM16.1826 13.5086C16.1826 13.2894 16.2442 13.1147 16.3573 12.9914C16.4754 12.868 16.633 12.7995 16.8231 12.7995C16.9465 12.7995 17.0595 12.8338 17.1554 12.8903C17.2513 12.9468 17.3301 13.0359 17.3798 13.1369C17.4363 13.238 17.4637 13.3613 17.4637 13.4966C17.4637 13.6319 17.4363 13.7552 17.3798 13.8563C17.3233 13.9625 17.2445 14.0481 17.1486 14.0978C17.0475 14.1543 16.9345 14.1817 16.8231 14.1817C16.705 14.1817 16.5885 14.1509 16.4857 14.0909C16.3864 14.0344 16.3076 13.9488 16.2614 13.8443C16.21 13.7415 16.1826 13.6268 16.1826 13.512V13.5086ZM16.3624 13.5137C16.3624 13.6713 16.4069 13.7946 16.4909 13.8854C16.5748 13.9762 16.6878 14.0259 16.8163 14.0259C16.9516 14.0259 17.0629 13.9813 17.1486 13.8906C17.2376 13.7998 17.2839 13.6645 17.2839 13.4966C17.2839 13.3904 17.2616 13.2945 17.2274 13.2157C17.1931 13.1369 17.1314 13.0684 17.0646 13.0239C16.9978 12.9794 16.9122 12.9571 16.8231 12.9571C16.6998 12.9571 16.5868 13.0016 16.4977 13.0856C16.4087 13.1695 16.3624 13.3168 16.3624 13.5137ZM24.4004 14.1595V12.8098H24.9006C25.0016 12.8098 25.0855 12.8269 25.1421 12.8492C25.2037 12.8766 25.2534 12.9228 25.2876 12.9776C25.3219 13.0342 25.3442 13.101 25.3442 13.1575C25.3442 13.214 25.327 13.2757 25.2996 13.3202C25.262 13.375 25.2123 13.4178 25.154 13.4487C25.2328 13.4709 25.2996 13.5103 25.3459 13.5668C25.3904 13.6234 25.4127 13.6953 25.4127 13.7689C25.4127 13.8306 25.3955 13.8923 25.3733 13.9436C25.3527 13.9933 25.3202 14.0379 25.2774 14.0738C25.238 14.1012 25.1815 14.1235 25.1249 14.1355C25.0684 14.1475 24.9896 14.1577 24.9057 14.1577L24.4004 14.1595ZM24.57 13.3836H24.8629C24.9417 13.3836 25.0033 13.3784 25.0376 13.3716C25.0787 13.3613 25.1164 13.3339 25.1386 13.2979C25.1506 13.2825 25.1609 13.2654 25.1677 13.2483C25.1729 13.226 25.178 13.2037 25.178 13.1815C25.178 13.1369 25.1677 13.0975 25.1455 13.0633C25.1232 13.029 25.089 13.0016 25.0496 12.9896C25.0102 12.9776 24.9382 12.9674 24.8423 12.9674H24.5717L24.57 13.3836ZM24.57 14.0019H24.9074C24.9639 14.0019 25.0085 13.9967 25.0307 13.9967C25.0701 13.9916 25.1095 13.9745 25.1318 13.9625C25.1643 13.9471 25.19 13.9214 25.2054 13.8888C25.2226 13.8546 25.2328 13.8152 25.2328 13.7707C25.2328 13.7261 25.2157 13.6816 25.1934 13.6473C25.1712 13.6131 25.1266 13.5805 25.0804 13.5686C25.0359 13.5514 24.9622 13.5411 24.8834 13.5411H24.5683V14.0019H24.57ZM29.4497 13.5086C29.4497 13.2894 29.5113 13.1147 29.6244 12.9914C29.7426 12.868 29.9001 12.7995 30.0902 12.7995C30.2136 12.7995 30.3266 12.8338 30.4225 12.8903C30.5184 12.9468 30.5972 13.0359 30.6486 13.1369C30.7051 13.238 30.7325 13.3613 30.7325 13.4966C30.7325 13.6319 30.7051 13.7552 30.6486 13.8563C30.5921 13.9625 30.5133 14.0481 30.4174 14.0978C30.3163 14.1543 30.2033 14.1817 30.092 14.1817C29.9738 14.1817 29.8573 14.1509 29.7545 14.0909C29.6552 14.0344 29.5764 13.9488 29.5302 13.8443C29.4788 13.7415 29.4514 13.6268 29.4514 13.512L29.4497 13.5086ZM29.6295 13.5137C29.6295 13.6713 29.674 13.7946 29.758 13.8854C29.8419 13.9762 29.9549 14.0259 30.0834 14.0259C30.2187 14.0259 30.3317 13.9813 30.4157 13.8906C30.5065 13.7998 30.551 13.6645 30.551 13.4966C30.551 13.3904 30.5287 13.2945 30.4945 13.2157C30.4602 13.1369 30.3985 13.0684 30.3317 13.0239C30.2649 12.9794 30.1793 12.9571 30.0902 12.9571C29.9669 12.9571 29.8539 13.0016 29.7648 13.0856C29.674 13.1712 29.6295 13.3168 29.6295 13.5137ZM34.7387 13.733L34.9083 13.721C34.9134 13.7826 34.9357 13.8392 34.9579 13.8786C34.9853 13.9231 35.0367 13.9625 35.0984 13.9848C35.1258 13.9967 35.16 14.0122 35.1943 14.0122C35.2285 14.0173 35.2679 14.0241 35.3005 14.0241C35.3673 14.0241 35.4289 14.0122 35.4803 13.9967C35.53 13.9796 35.5762 13.9522 35.5985 13.918C35.6208 13.8837 35.6379 13.8392 35.6379 13.7998C35.6379 13.7604 35.6259 13.721 35.6036 13.6936C35.5814 13.6593 35.5369 13.6319 35.4803 13.6097C35.4015 13.5857 35.3228 13.5651 35.244 13.548C35.1206 13.5206 35.0247 13.4863 34.9802 13.4641C34.9185 13.4298 34.8672 13.3853 34.8398 13.3408C34.8089 13.2894 34.7935 13.2311 34.7952 13.1712C34.7952 13.1044 34.8175 13.0427 34.8517 12.9862C34.886 12.9297 34.9477 12.88 35.0145 12.8509C35.0915 12.8166 35.1772 12.7995 35.2611 12.7995C35.357 12.7995 35.4461 12.8166 35.5197 12.8441C35.5985 12.8783 35.6602 12.928 35.6944 12.9914C35.7372 13.0513 35.7612 13.1249 35.7612 13.1986L35.5917 13.2157C35.5865 13.1318 35.5523 13.0633 35.5026 13.0239C35.4512 12.9794 35.3673 12.9571 35.2662 12.9571C35.1652 12.9571 35.0813 12.9794 35.0367 13.0136C34.9922 13.053 34.9631 13.1027 34.9631 13.1592C34.9631 13.2037 34.9802 13.25 35.0145 13.2774C35.0487 13.3065 35.1378 13.339 35.2782 13.3733C35.4187 13.4076 35.5197 13.435 35.5762 13.4572C35.655 13.4915 35.7167 13.5411 35.7509 13.5977C35.7629 13.6199 35.7784 13.6542 35.7903 13.6816C35.8023 13.7159 35.8075 13.7484 35.8075 13.7826C35.8075 13.8494 35.7852 13.9231 35.7458 13.9848C35.703 14.0481 35.643 14.0995 35.5711 14.1303C35.4872 14.1646 35.3981 14.1817 35.3073 14.1817C35.1892 14.1817 35.0813 14.1646 35.0042 14.1303C34.9271 14.0978 34.8603 14.043 34.8124 13.9728C34.7884 13.9368 34.7695 13.8991 34.7558 13.8597C34.7456 13.8203 34.7387 13.7758 34.7387 13.733ZM39.8325 13.733L40.002 13.721C40.0072 13.7826 40.0294 13.8392 40.0517 13.8786C40.0791 13.9231 40.1305 13.9625 40.1922 13.9848C40.2196 13.9967 40.2538 14.0122 40.2881 14.0122C40.3223 14.0173 40.3617 14.0241 40.3943 14.0241C40.4611 14.0241 40.5227 14.0122 40.5741 13.9967C40.6238 13.9796 40.67 13.9522 40.6923 13.918C40.7146 13.8837 40.7317 13.8392 40.7317 13.7998C40.7317 13.7604 40.7197 13.721 40.6974 13.6936C40.6752 13.6593 40.6306 13.6319 40.5741 13.6097C40.4953 13.5857 40.4165 13.5651 40.3377 13.548C40.2144 13.5206 40.1185 13.4863 40.074 13.4641C40.0123 13.4298 39.9609 13.3853 39.9335 13.3408C39.9044 13.2894 39.8873 13.2311 39.889 13.1712C39.889 13.1044 39.9113 13.0427 39.9455 12.9862C39.9798 12.9297 40.0414 12.88 40.1082 12.8509C40.1853 12.8166 40.2709 12.7995 40.3549 12.7995C40.4508 12.7995 40.5399 12.8166 40.6135 12.8441C40.6923 12.8783 40.7539 12.928 40.7882 12.9914C40.831 13.0513 40.855 13.1249 40.855 13.1986L40.6854 13.2157C40.6803 13.1318 40.646 13.0633 40.5964 13.0239C40.545 12.9794 40.4611 12.9571 40.36 12.9571C40.259 12.9571 40.175 12.9794 40.1305 13.0136C40.086 13.053 40.0569 13.1027 40.0569 13.1592C40.0569 13.2037 40.074 13.25 40.1065 13.2774C40.1408 13.3065 40.2298 13.339 40.3703 13.3733C40.5107 13.4076 40.6118 13.435 40.6683 13.4572C40.7471 13.4915 40.8088 13.5411 40.843 13.5977C40.855 13.6199 40.8704 13.6542 40.8824 13.6816C40.8944 13.7159 40.8995 13.7484 40.8995 13.7826C40.8995 13.8494 40.8773 13.9231 40.8379 13.9848C40.7951 14.0481 40.7351 14.0995 40.6632 14.1303C40.5792 14.1646 40.4902 14.1817 40.3994 14.1817C40.2812 14.1817 40.1733 14.1646 40.0962 14.1303C40.0192 14.0978 39.9524 14.043 39.9044 13.9728C39.8804 13.9368 39.8616 13.8991 39.8479 13.8597C39.8376 13.8203 39.8325 13.7758 39.8325 13.733Z" fill="black"/>
</svg>
