
<svg width="47" height="8" viewBox="0 0 47 8" fill="none" xmlns="http://www.w3.org/2000/svg">
<path fill-rule="evenodd" clip-rule="evenodd" d="M3.00459 7.8756H2.13715V0.927628H0.242188V0.125125H4.92045V0.927628H3.00459V7.8756V7.8756ZM9.45438 0.802503C11.2554 0.802503 12.6714 2.24764 12.6714 4.00061C12.6714 5.74216 11.2345 7.19798 9.45438 7.19798C7.67376 7.19798 6.23711 5.74216 6.23711 4.00061C6.23711 2.24764 7.65286 0.802503 9.45438 0.802503ZM9.45438 0C7.21594 0 5.36966 1.79646 5.36966 4.01057C5.36966 6.23464 7.21569 8 9.45438 8C11.6928 8 13.5389 6.23464 13.5389 4.01057C13.5391 1.79646 11.6928 0 9.45438 0ZM15.6094 0.927628H15.9334C16.9585 0.927628 17.9946 1.0202 17.9946 2.28287C17.9946 3.39199 17.1677 3.67917 16.1948 3.67917H15.6094V0.927628ZM15.6094 4.48167H16.2474C16.9069 4.48167 17.5864 4.39906 18.1188 3.96732C18.6041 3.56668 18.8625 2.92963 18.8625 2.30328C18.8625 1.61521 18.5623 0.937346 17.9845 0.536702C17.4087 0.145534 16.7072 0.124882 16.0276 0.124882H14.7414V7.87536H15.6094V4.48167ZM23.5111 1.64339C23.1985 1.11009 22.8226 0.802503 22.1551 0.802503C21.4558 0.802503 20.8502 1.2945 20.8502 2.002C20.8502 2.6682 21.5495 2.97555 22.0818 3.21098L22.6038 3.43621C23.6264 3.87743 24.4837 4.37914 24.4837 5.60926C24.4837 6.96255 23.3864 8 22.0196 8C20.7577 8 19.8269 7.19798 19.5773 5.99897L20.4273 5.76305C20.5406 6.55219 21.1534 7.19798 21.9989 7.19798C22.844 7.19798 23.6165 6.56215 23.6165 5.69138C23.6165 4.78926 22.8964 4.48167 22.1654 4.15392L21.6854 3.94886C20.7686 3.53922 19.983 3.0776 19.983 1.97115C19.983 0.771403 21.0076 0 22.1762 0C23.0525 0 23.7918 0.44219 24.2047 1.20217L23.5111 1.64339V1.64339ZM30.6692 3.26905V0.124639H31.5369V7.8756H30.6692V4.07131H26.6391V7.8756H25.7714V0.124639H26.6391V3.26905H30.6692ZM36.8448 0.802503C38.6461 0.802503 40.0624 2.24764 40.0624 4.00061C40.0624 5.74216 38.6255 7.19798 36.8448 7.19798C35.0642 7.19798 33.6278 5.74216 33.6278 4.00061C33.6278 2.24764 35.0436 0.802503 36.8448 0.802503ZM36.8448 0C34.6064 0 32.7601 1.79646 32.7601 4.01057C32.7601 6.23464 34.6066 8 36.8448 8C39.0835 8 40.9296 6.23464 40.9296 4.01057C40.9296 1.79646 39.0838 0 36.8448 0ZM42.9888 0.927628H43.3128C44.3391 0.927628 45.3745 1.0202 45.3745 2.28287C45.3745 3.39199 44.5481 3.67917 43.5747 3.67917H42.9888V0.927628ZM42.9888 4.48167H43.6276C44.287 4.48167 44.9673 4.39906 45.4989 3.96732C45.984 3.56668 46.2422 2.92963 46.2422 2.30328C46.2422 1.61521 45.9425 0.937346 45.3644 0.536702C44.7886 0.145534 44.0881 0.124882 43.4075 0.124882H42.1216V7.87536H42.9888V4.48167Z" fill="black"/>
</svg>
