<svg width="74" height="26" viewBox="0 0 74 26" fill="none" xmlns="http://www.w3.org/2000/svg">
<path d="M73.9994 0.400146L19.8623 22.8281C15.3729 24.6761 11.602 25.6031 8.55259 25.6031C5.09926 25.6031 2.59251 24.4271 1.03851 22.0721C0.0610927 20.5601 -0.225657 18.6431 0.175176 16.3181C0.576009 13.9931 1.64284 11.5181 3.36951 8.88415C4.80943 6.75415 7.16818 3.95515 10.4519 0.484146C9.33812 2.19014 8.52136 4.06332 8.03459 6.02814C7.17126 9.61314 7.94826 12.2441 10.3656 13.9241C11.5157 14.7071 13.0974 15.1001 15.1139 15.1001C16.7234 15.1001 18.5364 14.8481 20.5529 14.3441L73.9994 0.400146Z" fill="black"/>
</svg>
