<svg width="15" height="16" viewBox="0 0 15 16" fill="none" xmlns="http://www.w3.org/2000/svg">
<path d="M11.0893 7.33331C11.4767 10.9166 13 12 13 12H1C1 12 3 10.578 3 5.59998C3 4.46865 3.42133 3.38331 4.17133 2.58331C4.922 1.78331 5.94 1.33331 7 1.33331C7.22467 1.33331 7.448 1.35331 7.66667 1.39331M8.15333 14C8.03626 14.2022 7.86808 14.3701 7.66565 14.4868C7.46322 14.6035 7.23366 14.6649 7 14.6649C6.76634 14.6649 6.53678 14.6035 6.33435 14.4868C6.13192 14.3701 5.96374 14.2022 5.84667 14M11.6667 5.33331C12.1971 5.33331 12.7058 5.1226 13.0809 4.74753C13.456 4.37245 13.6667 3.86375 13.6667 3.33331C13.6667 2.80288 13.456 2.29417 13.0809 1.9191C12.7058 1.54403 12.1971 1.33331 11.6667 1.33331C11.1362 1.33331 10.6275 1.54403 10.2525 1.9191C9.87738 2.29417 9.66667 2.80288 9.66667 3.33331C9.66667 3.86375 9.87738 4.37245 10.2525 4.74753C10.6275 5.1226 11.1362 5.33331 11.6667 5.33331Z" stroke="white" stroke-width="1.5" stroke-linecap="round" stroke-linejoin="round"/>
</svg>
