<svg width="18" height="18" viewBox="0 0 18 18" fill="none" xmlns="http://www.w3.org/2000/svg">
<path d="M2.8125 9.84375C3.27849 9.84375 3.65625 9.46599 3.65625 9C3.65625 8.53401 3.27849 8.15625 2.8125 8.15625C2.34651 8.15625 1.96875 8.53401 1.96875 9C1.96875 9.46599 2.34651 9.84375 2.8125 9.84375Z" stroke="black" stroke-width="1.5" stroke-linecap="round" stroke-linejoin="round"/>
<path d="M9 9.84375C9.46599 9.84375 9.84375 9.46599 9.84375 9C9.84375 8.53401 9.46599 8.15625 9 8.15625C8.53401 8.15625 8.15625 8.53401 8.15625 9C8.15625 9.46599 8.53401 9.84375 9 9.84375Z" stroke="black" stroke-width="1.5" stroke-linecap="round" stroke-linejoin="round"/>
<path d="M15.1875 9.84375C15.6535 9.84375 16.0312 9.46599 16.0312 9C16.0312 8.53401 15.6535 8.15625 15.1875 8.15625C14.7215 8.15625 14.3438 8.53401 14.3438 9C14.3438 9.46599 14.7215 9.84375 15.1875 9.84375Z" stroke="black" stroke-width="1.5" stroke-linecap="round" stroke-linejoin="round"/>
</svg>
