<svg width="14" height="14" viewBox="0 0 14 14" fill="none" xmlns="http://www.w3.org/2000/svg">
<g clip-path="url(#clip0_1_1165)">
<path d="M7.00003 0.280029C3.28863 0.280029 0.280029 3.28863 0.280029 7.00003C0.280029 10.7114 3.28863 13.72 7.00003 13.72C10.7114 13.72 13.72 10.7114 13.72 7.00003C13.72 3.28863 10.7114 0.280029 7.00003 0.280029ZM9.73353 5.78483C9.73633 5.84223 9.73703 5.89963 9.73703 5.95563C9.73703 7.70563 8.40633 9.72233 5.97173 9.72233C5.25234 9.72353 4.54791 9.51691 3.94313 9.12733C4.04603 9.13993 4.15173 9.14483 4.25883 9.14483C4.87903 9.14483 5.44953 8.93413 5.90243 8.57853C5.62643 8.57311 5.359 8.48172 5.13741 8.31709C4.91582 8.15247 4.7511 7.92281 4.66623 7.66013C4.86444 7.69782 5.06862 7.68992 5.26333 7.63703C4.96376 7.57645 4.69437 7.41413 4.50082 7.17759C4.30728 6.94106 4.2015 6.64486 4.20143 6.33923V6.32313C4.37993 6.42183 4.58433 6.48203 4.80133 6.48903C4.52049 6.30208 4.32168 6.0149 4.24556 5.68622C4.16944 5.35755 4.22177 5.01221 4.39183 4.72083C4.7243 5.12963 5.13891 5.46405 5.60883 5.70245C6.07874 5.94084 6.59349 6.07789 7.11973 6.10473C7.05283 5.82075 7.08162 5.52261 7.20164 5.25668C7.32165 4.99075 7.52616 4.77192 7.78338 4.63421C8.04059 4.49651 8.3361 4.44764 8.62395 4.4952C8.91181 4.54276 9.17589 4.6841 9.37513 4.89723C9.67135 4.83862 9.95541 4.72997 10.2151 4.57593C10.1164 4.88262 9.9097 5.14305 9.63343 5.30883C9.89582 5.27723 10.152 5.20668 10.3936 5.09953C10.2162 5.36546 9.99262 5.59754 9.73353 5.78483Z" fill="black"/>
</g>
<defs>
<clipPath id="clip0_1_1165">
<rect width="14" height="14" fill="white"/>
</clipPath>
</defs>
</svg>
