<svg width="14" height="11" viewBox="0 0 14 11" fill="none" xmlns="http://www.w3.org/2000/svg">
<g clip-path="url(#clip0_1_1160)">
<path d="M13.6906 1.58808C13.6103 1.28113 13.4536 1.00129 13.2362 0.776436C13.0189 0.551579 12.7483 0.389546 12.4516 0.306473C11.3651 0 6.99266 0 6.99266 0C6.99266 0 2.61995 0.00927674 1.53353 0.315749C1.23677 0.398827 0.966228 0.560869 0.748845 0.785737C0.531462 1.0106 0.374825 1.29045 0.294532 1.59741C-0.0340852 3.59407 -0.161562 6.63651 0.303555 8.55329C0.383857 8.86024 0.540498 9.14008 0.75788 9.36494C0.975262 9.5898 1.2458 9.75183 1.54256 9.8349C2.62898 10.1414 7.00157 10.1414 7.00157 10.1414C7.00157 10.1414 11.3741 10.1414 12.4605 9.8349C12.7572 9.75184 13.0278 9.58981 13.2452 9.36495C13.4626 9.14009 13.6192 8.86025 13.6995 8.55329C14.0461 6.55381 14.1529 3.51329 13.6906 1.58814V1.58808Z" fill="black"/>
<path d="M5.6012 7.2438L9.22851 5.07066L5.6012 2.89752V7.2438Z" fill="white"/>
</g>
<defs>
<clipPath id="clip0_1_1160">
<rect width="14" height="10.1818" fill="white"/>
</clipPath>
</defs>
</svg>
