<svg width="14" height="14" viewBox="0 0 14 14" fill="none" xmlns="http://www.w3.org/2000/svg">
<g clip-path="url(#clip0_1_1163)">
<path fill-rule="evenodd" clip-rule="evenodd" d="M4.35462 0.621813C5.03887 0.590313 5.25704 0.583313 7.00004 0.583313C8.74304 0.583313 8.96121 0.590896 9.64487 0.621813C10.3285 0.65273 10.7952 0.761813 11.2035 0.919896C11.6311 1.08148 12.019 1.33406 12.3399 1.66073C12.6665 1.98098 12.9185 2.36831 13.0795 2.79648C13.2382 3.20481 13.3467 3.67148 13.3782 4.35398C13.4097 5.0394 13.4167 5.25756 13.4167 6.99998C13.4167 8.74298 13.4091 8.96115 13.3782 9.6454C13.3473 10.3279 13.2382 10.7946 13.0795 11.2029C12.9185 11.6311 12.6661 12.0191 12.3399 12.3398C12.019 12.6665 11.6311 12.9185 11.2035 13.0795C10.7952 13.2381 10.3285 13.3466 9.64604 13.3781C8.96121 13.4096 8.74304 13.4166 7.00004 13.4166C5.25704 13.4166 5.03887 13.4091 4.35462 13.3781C3.67212 13.3472 3.20546 13.2381 2.79712 13.0795C2.36891 12.9185 1.98094 12.666 1.66021 12.3398C1.33376 12.0194 1.08114 11.6316 0.919957 11.2035C0.761874 10.7951 0.653374 10.3285 0.621874 9.64598C0.590374 8.96056 0.583374 8.7424 0.583374 6.99998C0.583374 5.25698 0.590957 5.03881 0.621874 4.35515C0.652791 3.67148 0.761874 3.20481 0.919957 2.79648C1.08138 2.36836 1.33419 1.98058 1.66079 1.66015C1.98106 1.33377 2.36865 1.08115 2.79654 0.919896C3.20487 0.761813 3.67154 0.653313 4.35404 0.621813H4.35462ZM9.59296 1.77681C8.91629 1.7459 8.71329 1.73948 7.00004 1.73948C5.28679 1.73948 5.08379 1.7459 4.40712 1.77681C3.78121 1.8054 3.44171 1.90981 3.21537 1.9979C2.91612 2.11456 2.70204 2.25281 2.47746 2.4774C2.26457 2.68451 2.10073 2.93664 1.99796 3.21531C1.90987 3.44165 1.80546 3.78115 1.77687 4.40706C1.74596 5.08373 1.73954 5.28673 1.73954 6.99998C1.73954 8.71323 1.74596 8.91623 1.77687 9.5929C1.80546 10.2188 1.90987 10.5583 1.99796 10.7846C2.10062 11.0629 2.26454 11.3155 2.47746 11.5226C2.68454 11.7355 2.93712 11.8994 3.21537 12.0021C3.44171 12.0901 3.78121 12.1946 4.40712 12.2231C5.08379 12.2541 5.28621 12.2605 7.00004 12.2605C8.71387 12.2605 8.91629 12.2541 9.59296 12.2231C10.2189 12.1946 10.5584 12.0901 10.7847 12.0021C11.084 11.8854 11.298 11.7471 11.5226 11.5226C11.7355 11.3155 11.8995 11.0629 12.0021 10.7846C12.0902 10.5583 12.1946 10.2188 12.2232 9.5929C12.2541 8.91623 12.2605 8.71323 12.2605 6.99998C12.2605 5.28673 12.2541 5.08373 12.2232 4.40706C12.1946 3.78115 12.0902 3.44165 12.0021 3.21531C11.8855 2.91606 11.7472 2.70198 11.5226 2.4774C11.3155 2.26452 11.0634 2.10069 10.7847 1.9979C10.5584 1.90981 10.2189 1.8054 9.59296 1.77681ZM6.18046 8.97806C6.63818 9.1686 7.14784 9.19431 7.62242 9.05082C8.09699 8.90732 8.50702 8.60351 8.78248 8.19129C9.05794 7.77906 9.18174 7.28399 9.13273 6.79062C9.08373 6.29726 8.86496 5.83621 8.51379 5.48623C8.28993 5.26251 8.01925 5.0912 7.72123 4.98465C7.42322 4.87809 7.10529 4.83894 6.79033 4.87001C6.47537 4.90107 6.17121 5.00158 5.89976 5.16431C5.62831 5.32703 5.39631 5.54791 5.22047 5.81106C5.04463 6.0742 4.92932 6.37306 4.88284 6.68612C4.83637 6.99918 4.85988 7.31865 4.95169 7.62153C5.0435 7.92441 5.20132 8.20317 5.41379 8.43773C5.62627 8.6723 5.8881 8.85684 6.18046 8.97806ZM4.66787 4.66781C4.97414 4.36155 5.33773 4.11861 5.73788 3.95286C6.13803 3.78711 6.56692 3.7018 7.00004 3.7018C7.43316 3.7018 7.86205 3.78711 8.2622 3.95286C8.66235 4.11861 9.02594 4.36155 9.33221 4.66781C9.63847 4.97408 9.88141 5.33767 10.0472 5.73782C10.2129 6.13797 10.2982 6.56686 10.2982 6.99998C10.2982 7.4331 10.2129 7.86199 10.0472 8.26214C9.88141 8.66229 9.63847 9.02588 9.33221 9.33215C8.71368 9.95068 7.87477 10.2982 7.00004 10.2982C6.12531 10.2982 5.2864 9.95068 4.66787 9.33215C4.04934 8.71362 3.70186 7.87471 3.70186 6.99998C3.70186 6.12525 4.04934 5.28634 4.66787 4.66781ZM11.0297 4.19298C11.1056 4.12139 11.1664 4.03529 11.2084 3.9398C11.2504 3.8443 11.2728 3.74134 11.2744 3.63702C11.2759 3.5327 11.2565 3.42913 11.2172 3.33245C11.178 3.23577 11.1198 3.14794 11.046 3.07417C10.9722 3.00039 10.8844 2.94217 10.7877 2.90295C10.6911 2.86373 10.5875 2.8443 10.4832 2.84582C10.3788 2.84734 10.2759 2.86978 10.1804 2.9118C10.0849 2.95383 9.9988 3.01459 9.92721 3.09048C9.78797 3.23808 9.71174 3.43413 9.7147 3.63702C9.71766 3.83991 9.79957 4.03366 9.94305 4.17714C10.0865 4.32062 10.2803 4.40253 10.4832 4.40549C10.6861 4.40845 10.8821 4.33222 11.0297 4.19298Z" fill="black"/>
</g>
<defs>
<clipPath id="clip0_1_1163">
<rect width="14" height="14" fill="white"/>
</clipPath>
</defs>
</svg>
