<svg width="13" height="14" viewBox="0 0 13 14" fill="none" xmlns="http://www.w3.org/2000/svg">
<g clip-path="url(#clip0_1_1274)">
<path d="M9.18173 5.04101C10.0857 5.68525 11.1931 6.06431 12.3891 6.06431V3.76976C12.1627 3.76981 11.937 3.74625 11.7155 3.69947V5.50561C10.5196 5.50561 9.41234 5.1266 8.50821 4.48241V9.16497C8.50821 11.5075 6.60353 13.4062 4.2542 13.4062C3.3776 13.4062 2.5628 13.142 1.88599 12.6889C2.65848 13.4764 3.73578 13.9649 4.92758 13.9649C7.27711 13.9649 9.18183 12.0661 9.18183 9.72353V5.04101H9.18173ZM10.0127 2.72608C9.5507 2.2229 9.24736 1.57263 9.18173 0.853704V0.558594H8.54344C8.70411 1.47231 9.25215 2.25293 10.0126 2.72608H10.0127ZM3.37194 10.8914C3.11384 10.554 2.97432 10.1412 2.97495 9.71681C2.97495 8.64548 3.84612 7.7768 4.92095 7.7768C5.12122 7.7767 5.32032 7.80736 5.51123 7.8677V5.52183C5.28813 5.49137 5.06299 5.47839 4.83795 5.48317V7.30906C4.64694 7.24867 4.44774 7.21802 4.24737 7.2182C3.17259 7.2182 2.30147 8.08678 2.30147 9.15826C2.30147 9.9159 2.73688 10.5718 3.37194 10.8914Z" fill="#FF004F"/>
<path d="M8.50822 4.48236C9.4124 5.12655 10.5196 5.50557 11.7155 5.50557V3.69942C11.0479 3.55764 10.457 3.20986 10.0127 2.72608C9.25212 2.25288 8.70413 1.47226 8.54345 0.558594H6.86687V9.72343C6.86305 10.7919 5.99337 11.657 4.92087 11.657C4.28891 11.657 3.72742 11.3566 3.37186 10.8913C2.7369 10.5718 2.30143 9.91586 2.30143 9.15831C2.30143 8.08692 3.17256 7.21825 4.24734 7.21825C4.45326 7.21825 4.65174 7.25021 4.83792 7.3091V5.48321C2.52981 5.53077 0.673584 7.41101 0.673584 9.72348C0.673584 10.8778 1.13581 11.9243 1.88605 12.689C2.56287 13.142 3.37761 13.4063 4.25426 13.4063C6.60364 13.4063 8.50827 11.5074 8.50827 9.16497V4.48241H8.50822V4.48236Z" fill="black"/>
<path d="M11.7155 3.69938V3.21112C11.1135 3.21203 10.5234 3.04395 10.0126 2.72609C10.4647 3.21957 11.0601 3.55988 11.7155 3.69948V3.69938ZM8.54335 0.558552C8.52803 0.47125 8.51628 0.383364 8.50812 0.29511V0H6.19314V9.16493C6.18946 10.2333 5.31979 11.0984 4.24723 11.0984C3.94318 11.0988 3.64327 11.0279 3.37175 10.8914C3.72732 11.3567 4.28881 11.6569 4.92076 11.6569C5.99322 11.6569 6.86299 10.7919 6.86677 9.72348V0.5586H8.54335V0.558552ZM4.83796 5.48317V4.96329C4.64451 4.93691 4.44949 4.92372 4.25425 4.9238C1.90463 4.9238 0 6.82268 0 9.16493C0 10.6334 0.748541 11.9276 1.88604 12.6889C1.13581 11.9243 0.673576 10.8778 0.673576 9.72343C0.673576 7.41102 2.52976 5.53077 4.83796 5.48322V5.48317Z" fill="#00F2EA"/>
</g>
<defs>
<clipPath id="clip0_1_1274">
<rect width="12.3894" height="14" fill="white"/>
</clipPath>
</defs>
</svg>
