<svg width="17" height="18" viewBox="0 0 17 18" fill="none" xmlns="http://www.w3.org/2000/svg">
<g clip-path="url(#clip0_561_736)">
<path d="M11.9203 6.48137C13.0939 7.30968 14.5316 7.79704 16.0844 7.79704V4.8469C15.7905 4.84696 15.4974 4.81668 15.2099 4.75653V7.07872C13.6572 7.07872 12.2197 6.59141 11.0459 5.76316V11.7836C11.0459 14.7954 8.57302 17.2367 5.52289 17.2367C4.3848 17.2367 3.32695 16.897 2.44824 16.3143C3.45117 17.3269 4.84982 17.9549 6.39714 17.9549C9.44753 17.9549 11.9204 15.5136 11.9204 12.5017V6.48137H11.9203ZM12.9991 3.50503C12.3993 2.85809 12.0055 2.02202 11.9203 1.09769V0.718262H11.0916C11.3002 1.89304 12.0118 2.8967 12.9991 3.50503ZM4.37745 14.0033C4.04236 13.5695 3.86122 13.0388 3.86204 12.4931C3.86204 11.1157 4.99308 9.99881 6.38853 9.99881C6.64854 9.99868 6.90703 10.0381 7.1549 10.1157V7.09957C6.86524 7.06041 6.57294 7.04371 6.28077 7.04985V9.39743C6.03279 9.31978 5.77417 9.28038 5.51403 9.28061C4.11864 9.28061 2.98766 10.3974 2.98766 11.775C2.98766 12.7491 3.55296 13.5924 4.37745 14.0033Z" fill="#FF004F"/>
<path d="M11.0457 5.7631C12.2196 6.59135 13.657 7.07865 15.2097 7.07865V4.75647C14.343 4.57417 13.5758 4.12703 12.9989 3.50503C12.0115 2.89663 11.3001 1.89298 11.0915 0.718262H8.91475V12.5016C8.90979 13.8753 7.78069 14.9876 6.38826 14.9876C5.5678 14.9876 4.83881 14.6015 4.37718 14.0032C3.55282 13.5924 2.98746 12.749 2.98746 11.775C2.98746 10.3975 4.11844 9.28067 5.51382 9.28067C5.78118 9.28067 6.03885 9.32176 6.28057 9.39749V7.04992C3.28396 7.11105 0.874023 9.52852 0.874023 12.5017C0.874023 13.9859 1.47414 15.3313 2.44816 16.3145C3.32688 16.897 4.38466 17.2368 5.52281 17.2368C8.57301 17.2368 11.0458 14.7953 11.0458 11.7836V5.76316L11.0457 5.7631Z" fill="black"/>
<path d="M15.2102 4.75634V4.12858C14.4286 4.12975 13.6625 3.91365 12.9993 3.50497C13.5863 4.13945 14.3592 4.57698 15.2102 4.75647V4.75634ZM11.0918 0.718138C11.0719 0.605893 11.0567 0.492896 11.0461 0.379428V0H8.04054V11.7835C8.03577 13.1571 6.90667 14.2693 5.51418 14.2693C5.11942 14.2699 4.73005 14.1788 4.37754 14.0033C4.83917 14.6014 5.56815 14.9875 6.38862 14.9875C7.78098 14.9875 8.91021 13.8753 8.91511 12.5016V0.7182H11.0918V0.718138ZM6.28111 7.04979V6.38137C6.02996 6.34746 5.77677 6.3305 5.52329 6.3306C2.47277 6.3306 0 8.77202 0 11.7835C0 13.6716 0.97183 15.3355 2.44864 16.3143C1.47461 15.3312 0.874502 13.9857 0.874502 12.5016C0.874502 9.52846 3.28438 7.11093 6.28111 7.04979Z" fill="#00F2EA"/>
</g>
<defs>
<clipPath id="clip0_561_736">
<rect width="16.0851" height="18" fill="white"/>
</clipPath>
</defs>
</svg>
