<svg width="16" height="12" viewBox="0 0 16 12" fill="none" xmlns="http://www.w3.org/2000/svg">
<path d="M15.1945 2.40226C15.1091 2.08531 14.9421 1.79626 14.7103 1.56388C14.4784 1.3315 14.1898 1.1639 13.873 1.07776C12.6985 0.755256 7.99976 0.750006 7.99976 0.750006C7.99976 0.750006 3.30176 0.744756 2.12651 1.05301C1.80995 1.14312 1.52188 1.31309 1.28993 1.54661C1.05799 1.78012 0.889973 2.06935 0.802009 2.38651C0.492259 3.56101 0.489259 5.99701 0.489259 5.99701C0.489259 5.99701 0.486259 8.445 0.793759 9.6075C0.966259 10.2503 1.47251 10.758 2.11601 10.9313C3.30251 11.2538 7.98851 11.259 7.98851 11.259C7.98851 11.259 12.6873 11.2643 13.8618 10.9568C14.1786 10.8708 14.4676 10.7035 14.7 10.4716C14.9324 10.2397 15.1003 9.95118 15.187 9.63451C15.4975 8.46076 15.4998 6.02551 15.4998 6.02551C15.4998 6.02551 15.5148 3.57676 15.1945 2.40226ZM6.49676 8.25376L6.50051 3.75376L10.4058 6.00751L6.49676 8.25376Z" fill="#FF0000"/>
</svg>
