<svg width="18" height="18" viewBox="0 0 18 18" fill="none" xmlns="http://www.w3.org/2000/svg">
<path d="M9.00035 0.359863C4.22855 0.359863 0.360352 4.22806 0.360352 8.99986C0.360352 13.7717 4.22855 17.6399 9.00035 17.6399C13.7722 17.6399 17.6404 13.7717 17.6404 8.99986C17.6404 4.22806 13.7722 0.359863 9.00035 0.359863ZM12.5149 7.43746C12.5185 7.51126 12.5194 7.58506 12.5194 7.65706C12.5194 9.90706 10.8085 12.5 7.67825 12.5C6.75332 12.5015 5.84762 12.2359 5.07005 11.735C5.20235 11.7512 5.33825 11.7575 5.47595 11.7575C6.27335 11.7575 7.00685 11.4866 7.58915 11.0294C7.2343 11.0224 6.89046 10.9049 6.60555 10.6932C6.32065 10.4816 6.10888 10.1863 5.99975 9.84856C6.25459 9.89702 6.51712 9.88686 6.76745 9.81886C6.3823 9.74098 6.03593 9.53228 5.78709 9.22816C5.53825 8.92404 5.40225 8.54321 5.40215 8.15026V8.12956C5.63165 8.25646 5.89445 8.33386 6.17345 8.34286C5.81237 8.1025 5.55676 7.73327 5.45889 7.31068C5.36102 6.8881 5.4283 6.44409 5.64695 6.06946C6.07441 6.59506 6.60749 7.02504 7.21166 7.33154C7.81584 7.63805 8.47765 7.81426 9.15425 7.84876C9.06823 7.48364 9.10525 7.10033 9.25956 6.75842C9.41387 6.41651 9.67681 6.13515 10.0075 5.9581C10.3382 5.78105 10.7182 5.71821 11.0883 5.77937C11.4584 5.84052 11.7979 6.02224 12.0541 6.29626C12.4349 6.22091 12.8001 6.08121 13.1341 5.88316C13.0071 6.27748 12.7414 6.61232 12.3862 6.82546C12.7235 6.78483 13.0529 6.69413 13.3636 6.55636C13.1354 6.89827 12.848 7.19666 12.5149 7.43746Z" fill="#1DA1F2"/>
</svg>
