<svg width="14" height="14" viewBox="0 0 14 14" fill="none" xmlns="http://www.w3.org/2000/svg">
<path d="M14 10.5C14 10.9126 13.8361 11.3082 13.5444 11.6C13.2527 11.8917 12.857 12.0556 12.4444 12.0556H1.55556C1.143 12.0556 0.747335 11.8917 0.455612 11.6C0.163888 11.3082 0 10.9126 0 10.5V3.50001C0 3.08745 0.163888 2.69179 0.455612 2.40007C0.747335 2.10835 1.143 1.94446 1.55556 1.94446H12.4444C12.857 1.94446 13.2527 2.10835 13.5444 2.40007C13.8361 2.69179 14 3.08745 14 3.50001V10.5Z" fill="#C60A1D"/>
<path d="M0 4.66663H14V9.33329H0V4.66663Z" fill="#FFC400"/>
<path d="M3.5 6.61108V7.77775C3.5 8.08717 3.62292 8.38392 3.84171 8.60271C4.0605 8.8215 4.35725 8.94442 4.66667 8.94442C4.97609 8.94442 5.27283 8.8215 5.49162 8.60271C5.71042 8.38392 5.83333 8.08717 5.83333 7.77775V6.61108H3.5Z" fill="#EA596E"/>
<path d="M4.66675 6.22217H5.83341V7.38883H4.66675V6.22217Z" fill="#F4A2B2"/>
<path d="M3.5 6.22217H4.66667V7.38883H3.5V6.22217Z" fill="#DD2E44"/>
<path d="M4.66667 6.22221C5.311 6.22221 5.83333 5.96104 5.83333 5.63888C5.83333 5.31671 5.311 5.05554 4.66667 5.05554C4.02233 5.05554 3.5 5.31671 3.5 5.63888C3.5 5.96104 4.02233 6.22221 4.66667 6.22221Z" fill="#EA596E"/>
<path d="M4.66667 5.63888C5.311 5.63888 5.83333 5.50829 5.83333 5.34721C5.83333 5.18613 5.311 5.05554 4.66667 5.05554C4.02233 5.05554 3.5 5.18613 3.5 5.34721C3.5 5.50829 4.02233 5.63888 4.66667 5.63888Z" fill="#FFAC33"/>
<path d="M2.72217 6.22217H3.11106V8.94439H2.72217V6.22217ZM6.22217 6.22217H6.61106V8.94439H6.22217V6.22217Z" fill="#99AAB5"/>
<path d="M2.33325 8.5556H3.49992V8.94449H2.33325V8.5556ZM5.83325 8.5556H6.99992V8.94449H5.83325V8.5556ZM2.72214 5.83337H3.11103V6.22226H2.72214V5.83337ZM6.22214 5.83337H6.61103V6.22226H6.22214V5.83337Z" fill="#66757F"/>
</svg>
