<svg width="16" height="16" viewBox="0 0 16 16" fill="none" xmlns="http://www.w3.org/2000/svg">
<path d="M5.5625 15.5C5.34028 15.5 5.12833 15.4583 4.92667 15.375C4.72556 15.2917 4.54861 15.1736 4.39583 15.0208L0.979167 11.6042C0.826389 11.4514 0.708333 11.2744 0.625 11.0733C0.541667 10.8717 0.5 10.6597 0.5 10.4375V5.5625C0.5 5.34028 0.541667 5.12833 0.625 4.92667C0.708333 4.72556 0.826389 4.54861 0.979167 4.39583L4.39583 0.979167C4.54861 0.826389 4.72556 0.708333 4.92667 0.625C5.12833 0.541667 5.34028 0.5 5.5625 0.5H10.4375C10.6597 0.5 10.8717 0.541667 11.0733 0.625C11.2744 0.708333 11.4514 0.826389 11.6042 0.979167L15.0208 4.39583C15.1736 4.54861 15.2917 4.72556 15.375 4.92667C15.4583 5.12833 15.5 5.34028 15.5 5.5625V10.4375C15.5 10.6597 15.4583 10.8717 15.375 11.0733C15.2917 11.2744 15.1736 11.4514 15.0208 11.6042L11.6042 15.0208C11.4514 15.1736 11.2744 15.2917 11.0733 15.375C10.8717 15.4583 10.6597 15.5 10.4375 15.5H5.5625ZM8 12.1667C8.23611 12.1667 8.43417 12.0867 8.59417 11.9267C8.75361 11.7672 8.83333 11.5694 8.83333 11.3333C8.83333 11.0972 8.75361 10.8992 8.59417 10.7392C8.43417 10.5797 8.23611 10.5 8 10.5C7.76389 10.5 7.56611 10.5797 7.40667 10.7392C7.24667 10.8992 7.16667 11.0972 7.16667 11.3333C7.16667 11.5694 7.24667 11.7672 7.40667 11.9267C7.56611 12.0867 7.76389 12.1667 8 12.1667ZM8 8.83333C8.23611 8.83333 8.43417 8.75333 8.59417 8.59333C8.75361 8.43389 8.83333 8.23611 8.83333 8V4.66667C8.83333 4.43056 8.75361 4.2325 8.59417 4.0725C8.43417 3.91306 8.23611 3.83333 8 3.83333C7.76389 3.83333 7.56611 3.91306 7.40667 4.0725C7.24667 4.2325 7.16667 4.43056 7.16667 4.66667V8C7.16667 8.23611 7.24667 8.43389 7.40667 8.59333C7.56611 8.75333 7.76389 8.83333 8 8.83333Z" fill="#6F6F6F"/>
</svg>
