<svg width="27" height="26" viewBox="0 0 27 26" fill="none" xmlns="http://www.w3.org/2000/svg">
<path fill-rule="evenodd" clip-rule="evenodd" d="M0.0976562 0H26.0977V26H0.0976562V0Z" fill="white"/>
<path fill-rule="evenodd" clip-rule="evenodd" d="M1.24187 23.969H1.16755C1.16755 23.9319 1.14893 23.8761 1.14893 23.8574C1.14893 23.8389 1.14893 23.8018 1.09309 23.8018H0.981405V23.969H0.925563V23.5784H1.09309C1.16755 23.5784 1.22325 23.5972 1.22325 23.6714C1.22325 23.7272 1.20464 23.7459 1.18616 23.7643C1.20478 23.783 1.22325 23.8016 1.22325 23.8389V23.9132C1.22325 23.9319 1.22325 23.9319 1.24187 23.9319V23.969ZM1.16755 23.6901C1.16755 23.6343 1.13032 23.6343 1.1117 23.6343H0.981405V23.7459H1.09309C1.13032 23.7459 1.16755 23.7272 1.16755 23.6901ZM1.48385 23.7644C1.48385 23.5413 1.29785 23.355 1.05586 23.355C0.832626 23.355 0.646484 23.5413 0.646484 23.7644C0.646484 24.0063 0.832626 24.1925 1.05586 24.1925C1.29771 24.1924 1.48385 24.0063 1.48385 23.7644ZM1.42801 23.7644C1.42801 23.9692 1.26062 24.118 1.05586 24.118C0.851106 24.118 0.702327 23.969 0.702327 23.7644C0.702327 23.5784 0.851241 23.4109 1.05586 23.4109C1.26048 23.4109 1.42801 23.5784 1.42801 23.7644ZM24.3523 16.2471C24.3523 16.8054 23.9988 17.0656 23.3661 17.0656H22.1568V16.5073H23.3661C23.4778 16.5073 23.5708 16.4888 23.6082 16.4517C23.6453 16.4144 23.6825 16.3585 23.6825 16.2842C23.6825 16.2096 23.6454 16.1353 23.6082 16.0982C23.5708 16.0608 23.4965 16.0424 23.3848 16.0424C22.8082 16.0236 22.0824 16.0608 22.0824 15.2422C22.0824 14.8699 22.3242 14.4606 22.9754 14.4606H24.222V15.0188H23.0684C22.957 15.0188 22.8824 15.0188 22.8265 15.0559C22.7707 15.1118 22.7336 15.1676 22.7336 15.2607C22.7336 15.3538 22.7894 15.4096 22.8638 15.447C22.9383 15.4655 23.0128 15.4841 23.1059 15.4841H23.4407C23.7942 15.4841 24.0176 15.5584 24.1665 15.6888C24.2779 15.819 24.3523 15.9867 24.3523 16.2471ZM21.7287 15.6888C21.5798 15.5584 21.3564 15.4841 21.0029 15.4841H20.6681C20.5751 15.4841 20.5006 15.4653 20.4262 15.447C20.3516 15.4096 20.2961 15.3538 20.2961 15.2607C20.2961 15.1676 20.3146 15.1118 20.389 15.0559C20.4448 15.0188 20.5192 15.0188 20.6309 15.0188H21.7845V14.4606H20.5379C19.8679 14.4606 19.6446 14.8699 19.6446 15.2422C19.6446 16.0607 20.3704 16.0236 20.9473 16.0424C21.0587 16.0424 21.1333 16.0608 21.1704 16.0982C21.2075 16.1353 21.245 16.2096 21.245 16.2842C21.245 16.3585 21.2076 16.4144 21.1704 16.4517C21.1146 16.4888 21.0402 16.5073 20.9285 16.5073H19.719V17.0656H20.9285C21.561 17.0656 21.9147 16.8053 21.9147 16.2471C21.9147 15.9867 21.8404 15.819 21.7287 15.6888ZM19.3469 16.5262H17.8772V16.0051H19.3098V15.4843H17.8772V15.0004H19.3469V14.4608H17.263V17.0657H19.3469V16.5262ZM16.5931 14.5911C16.3883 14.4794 16.1465 14.4607 15.8301 14.4607H14.3975V17.0656H15.03V16.1167H15.7C15.9231 16.1167 16.0535 16.1354 16.1466 16.2284C16.2583 16.3585 16.2583 16.5819 16.2583 16.7494V17.0656H16.8721V16.5632C16.8721 16.3213 16.8537 16.2096 16.7792 16.0795C16.7234 16.0049 16.6119 15.9119 16.463 15.8561C16.6303 15.8005 16.9096 15.5771 16.9096 15.1676C16.9095 14.8701 16.7978 14.7025 16.5931 14.5911ZM13.0577 14.4607H11.0667L10.2665 15.3167L9.50361 14.4607H6.99164V17.0656H9.46652L10.2667 16.2096L11.0296 17.0656H12.2391V16.1913H13.0206C13.5602 16.1913 14.1 16.0424 14.1 15.3167C14.0998 14.6096 13.5415 14.4607 13.0577 14.4607ZM16.0906 15.54C15.9977 15.5771 15.9046 15.5771 15.7929 15.5771L15.03 15.5959V15.0002H15.7929C15.9046 15.0002 16.0163 15.0002 16.0906 15.0561C16.1652 15.0934 16.2208 15.1678 16.2208 15.2794C16.2208 15.3911 16.1652 15.4842 16.0906 15.54ZM13.0577 15.6702H12.239V15.0002H13.0577C13.2811 15.0002 13.4299 15.0934 13.4299 15.3167C13.4299 15.54 13.2809 15.6702 13.0577 15.6702ZM10.6573 15.7631L11.6248 14.7399V16.8425L10.6573 15.7631ZM9.15007 16.5262H7.60563V16.0051H8.98255V15.4843H7.60563V15.0004H9.16869L9.85714 15.7633L9.15007 16.5262ZM22.6218 12.5813H21.7287L20.5564 10.6275V12.5813H19.2913L19.0492 12.0044H17.7467L17.5049 12.5813H16.7791C16.4814 12.5813 16.0906 12.5069 15.8675 12.2835C15.6628 12.0603 15.5511 11.7626 15.5511 11.2974C15.5511 10.9066 15.6069 10.5531 15.8859 10.274C16.0719 10.0692 16.4069 9.97629 16.8348 9.97629H17.4302V10.5346H16.8348C16.6117 10.5346 16.4812 10.5718 16.3511 10.6835C16.2394 10.7952 16.1835 10.9998 16.1835 11.2789C16.1835 11.558 16.2394 11.7627 16.3511 11.893C16.444 11.9859 16.6117 12.0232 16.7789 12.0232H17.0581L17.9512 9.97642H18.8817L19.9237 12.4326V9.97629H20.8913L21.9892 11.7812V9.97629H22.6216V12.5813H22.6218ZM15.2348 9.97629H14.6023V12.5813H15.2348V9.97629ZM13.9136 10.088C13.7088 9.97629 13.4857 9.97629 13.1694 9.97629H11.7365V12.5813H12.3505V11.6323H13.0203C13.2437 11.6323 13.3926 11.6509 13.4856 11.744C13.5972 11.8743 13.5785 12.0976 13.5785 12.2464V12.5813H14.211V12.0603C14.211 11.837 14.1925 11.7253 14.0996 11.595C14.0437 11.5206 13.932 11.4275 13.8019 11.3718C13.9691 11.2974 14.2485 11.0927 14.2485 10.6834C14.2486 10.3857 14.1182 10.2181 13.9136 10.088ZM11.2899 12.0418H9.83853V11.5207H11.2713V10.9812H9.83853V10.516H11.2899V9.97642H9.20592V12.5815H11.2899V12.0418ZM8.7407 9.97629H7.71732L6.95441 11.744L6.13565 9.97629H5.13089V12.4324L4.07028 9.97629H3.13998L2.02353 12.5813H2.69337L2.93522 12.0044H4.23768L4.47953 12.5813H5.74489V10.5346L6.65658 12.5813H7.19612L8.10795 10.5346V12.5813H8.74056L8.7407 9.97629ZM18.8261 11.4463L18.398 10.4229L17.9701 11.4463H18.8261ZM13.4299 11.037C13.3369 11.0929 13.2439 11.0929 13.1136 11.0929H12.3505V10.5161H13.1134C13.2251 10.5161 13.3551 10.5161 13.4297 10.5533C13.504 10.6092 13.5414 10.6836 13.5414 10.7952C13.5414 10.9067 13.5042 10.9997 13.4299 11.037ZM3.15846 11.4463L3.58645 10.4229L4.01444 11.4463H3.15846ZM24.2036 1.80762H2.00478V11.1858L2.76769 9.45536H4.38646L4.60983 9.88335V9.45536H6.5078L6.93579 10.3857L7.34517 9.45536H13.3926C13.6716 9.45536 13.9134 9.5112 14.0997 9.65998V9.45536H15.7557V9.65998C16.0346 9.51107 16.3882 9.45536 16.7977 9.45536H19.198L19.4213 9.88335V9.45536H21.189L21.4496 9.88335V9.45536H23.1799V13.1024H21.431L21.0962 12.5442V13.1024H18.919L18.6772 12.507H18.1374L17.8955 13.1024H16.7606C16.314 13.1024 15.9789 12.9907 15.7558 12.8792V13.1024H13.0577V12.265C13.0577 12.1533 13.0391 12.1347 12.9646 12.1347H12.8717V13.1023H7.66148V12.637L7.47547 13.1023H6.37764L6.19163 12.6557V13.1023H4.0889L3.86566 12.5069H3.32599L3.08414 13.1023H2.00478V24.0993H24.2036V17.4191C23.9617 17.5308 23.6267 17.5867 23.2917 17.5867H21.6728V17.3633C21.4868 17.5123 21.1518 17.5867 20.8356 17.5867H15.7371V16.7494C15.7371 16.6377 15.7186 16.6377 15.6254 16.6377H15.5325V17.5867H13.8577V16.6005C13.5788 16.7307 13.2623 16.7307 12.9833 16.7307H12.7971V17.5867H10.7504L10.2667 17.0284L9.72711 17.5867H6.43334V13.9398H9.78269L10.2665 14.4978L10.7876 13.9398H13.0391C13.2994 13.9398 13.7276 13.9769 13.9136 14.1629V13.9398H15.9231C16.1278 13.9398 16.5187 13.9769 16.7791 14.1629V13.9398H19.8121V14.163C19.9796 14.0141 20.2961 13.9399 20.575 13.9399H22.2682V14.163C22.4545 14.0328 22.7148 13.9399 23.0499 13.9399H24.2036V1.80762Z" fill="#0077A6"/>
</svg>
