<svg width="12" height="8" viewBox="0 0 12 8" fill="none" xmlns="http://www.w3.org/2000/svg">
<path d="M9 7.25C8.80109 7.25 8.61032 7.17098 8.46967 7.03033C8.32902 6.88968 8.25 6.69891 8.25 6.5C8.25 6.30109 8.32902 6.11032 8.46967 5.96967C8.61032 5.82902 8.80109 5.75 9 5.75C9.19891 5.75 9.38968 5.82902 9.53033 5.96967C9.67098 6.11032 9.75 6.30109 9.75 6.5C9.75 6.69891 9.67098 6.88968 9.53033 7.03033C9.38968 7.17098 9.19891 7.25 9 7.25ZM9.75 2.75L10.73 4H8.5V2.75M3 7.25C2.80109 7.25 2.61032 7.17098 2.46967 7.03033C2.32902 6.88968 2.25 6.69891 2.25 6.5C2.25 6.30109 2.32902 6.11032 2.46967 5.96967C2.61032 5.82902 2.80109 5.75 3 5.75C3.19891 5.75 3.38968 5.82902 3.53033 5.96967C3.67098 6.11032 3.75 6.30109 3.75 6.5C3.75 6.69891 3.67098 6.88968 3.53033 7.03033C3.38968 7.17098 3.19891 7.25 3 7.25ZM10 2H8.5V0H1.5C0.945 0 0.5 0.445 0.5 1V6.5H1.5C1.5 6.89782 1.65804 7.27936 1.93934 7.56066C2.22064 7.84196 2.60218 8 3 8C3.39782 8 3.77936 7.84196 4.06066 7.56066C4.34196 7.27936 4.5 6.89782 4.5 6.5H7.5C7.5 6.89782 7.65804 7.27936 7.93934 7.56066C8.22064 7.84196 8.60218 8 9 8C9.39782 8 9.77936 7.84196 10.0607 7.56066C10.342 7.27936 10.5 6.89782 10.5 6.5H11.5V4L10 2Z" fill="#9B9B9B"/>
</svg>
