<svg width="12" height="14" viewBox="0 0 12 14" fill="none" xmlns="http://www.w3.org/2000/svg">
<path d="M10 13.6668C9.44444 13.6668 8.97222 13.4724 8.58333 13.0835C8.19444 12.6946 8 12.2224 8 11.6668C8 11.5891 8.00556 11.5084 8.01667 11.4248C8.02778 11.3417 8.04445 11.2668 8.06667 11.2002L3.36667 8.46683C3.17778 8.6335 2.96667 8.76394 2.73333 8.85816C2.5 8.95283 2.25556 9.00016 2 9.00016C1.44444 9.00016 0.972222 8.80572 0.583333 8.41683C0.194444 8.02794 0 7.55572 0 7.00016C0 6.44461 0.194444 5.97238 0.583333 5.5835C0.972222 5.19461 1.44444 5.00016 2 5.00016C2.25556 5.00016 2.5 5.04727 2.73333 5.1415C2.96667 5.23616 3.17778 5.36683 3.36667 5.5335L8.06667 2.80016C8.04445 2.7335 8.02778 2.65861 8.01667 2.5755C8.00556 2.49194 8 2.41127 8 2.3335C8 1.77794 8.19444 1.30572 8.58333 0.916829C8.97222 0.527941 9.44444 0.333496 10 0.333496C10.5556 0.333496 11.0278 0.527941 11.4167 0.916829C11.8056 1.30572 12 1.77794 12 2.3335C12 2.88905 11.8056 3.36127 11.4167 3.75016C11.0278 4.13905 10.5556 4.3335 10 4.3335C9.74444 4.3335 9.5 4.28616 9.26667 4.1915C9.03333 4.09727 8.82222 3.96683 8.63333 3.80016L3.93333 6.5335C3.95556 6.60016 3.97222 6.67505 3.98333 6.75816C3.99444 6.84172 4 6.92238 4 7.00016C4 7.07794 3.99444 7.15838 3.98333 7.2415C3.97222 7.32505 3.95556 7.40016 3.93333 7.46683L8.63333 10.2002C8.82222 10.0335 9.03333 9.90283 9.26667 9.80816C9.5 9.71394 9.74444 9.66683 10 9.66683C10.5556 9.66683 11.0278 9.86127 11.4167 10.2502C11.8056 10.6391 12 11.1113 12 11.6668C12 12.2224 11.8056 12.6946 11.4167 13.0835C11.0278 13.4724 10.5556 13.6668 10 13.6668Z" fill="#AEAEAE"/>
</svg>
