<svg width="18" height="16" viewBox="0 0 18 16" fill="none" xmlns="http://www.w3.org/2000/svg">
<path d="M14.6243 0.917337C14.98 0.917337 15.3322 0.98739 15.6608 1.1235C15.9894 1.2596 16.2879 1.4591 16.5394 1.71059C16.7909 1.96208 16.9904 2.26065 17.1265 2.58924C17.2626 2.91783 17.3327 3.27001 17.3327 3.62567V12.3782C17.3327 12.7338 17.2626 13.086 17.1265 13.4146C16.9904 13.7432 16.7909 14.0418 16.5394 14.2933C16.2879 14.5447 15.9894 14.7442 15.6608 14.8803C15.3322 15.0165 14.98 15.0865 14.6243 15.0865H3.37435C2.65605 15.0865 1.96718 14.8012 1.45927 14.2933C0.951357 13.7853 0.666016 13.0965 0.666016 12.3782V3.62484C0.666016 2.90654 0.951357 2.21767 1.45927 1.70976C1.96718 1.20185 2.65605 0.916504 3.37435 0.916504L14.6243 0.917337ZM5.67852 5.39317C4.32268 5.39317 3.38352 6.56817 3.38352 7.99567C3.38352 9.42317 4.32352 10.6007 5.67852 10.6007C6.41768 10.6007 7.09768 10.2448 7.43768 9.589L7.50185 9.454L7.52102 9.39567L7.53602 9.33317L7.54268 9.264V7.99734L7.53685 7.91984C7.52053 7.81094 7.47013 7.71002 7.39287 7.63157C7.31561 7.55311 7.21548 7.50116 7.10685 7.48317L7.02185 7.4765H6.18685L6.11018 7.4815C6.00134 7.49794 5.90048 7.54839 5.82205 7.62562C5.74362 7.70286 5.69162 7.80293 5.67352 7.9115L5.66602 7.99734L5.67185 8.074C5.70518 8.29734 5.88018 8.474 6.10185 8.51067L6.18685 8.51817H6.50018V9.129L6.49518 9.1415C6.33768 9.40817 6.03518 9.55817 5.67852 9.55817C4.95685 9.55817 4.42518 8.89317 4.42518 7.99567C4.42518 7.099 4.95602 6.43484 5.67852 6.43484C6.02935 6.43484 6.22852 6.474 6.47852 6.59317C6.60242 6.64927 6.74336 6.65468 6.8712 6.60823C6.99904 6.56178 7.10364 6.46716 7.16263 6.3446C7.22163 6.22204 7.23034 6.08127 7.1869 5.95237C7.14346 5.82348 7.05132 5.71669 6.93018 5.65484C6.52768 5.4615 6.17602 5.39317 5.67852 5.39317ZM9.52351 5.49484C9.39869 5.49488 9.27804 5.53974 9.18351 5.62126C9.08899 5.70278 9.02689 5.81554 9.00852 5.939L9.00268 6.01567V9.98484L9.00852 10.0615C9.02712 10.1848 9.08932 10.2973 9.18382 10.3786C9.27832 10.4599 9.39885 10.5046 9.52351 10.5046C9.64818 10.5046 9.76871 10.4599 9.86321 10.3786C9.95771 10.2973 10.0199 10.1848 10.0385 10.0615L10.0443 9.98484V6.01567L10.0385 5.939C10.0201 5.81554 9.95804 5.70278 9.86352 5.62126C9.76899 5.53974 9.64834 5.49488 9.52351 5.49484ZM13.6843 5.50067L12.0202 5.49484C11.8954 5.49439 11.7747 5.53872 11.6799 5.61977C11.5851 5.70082 11.5225 5.81321 11.5035 5.9365L11.4977 6.014V9.97067L11.5027 10.0482C11.536 10.2715 11.711 10.4482 11.9327 10.4848L12.0185 10.4915L12.0952 10.4865C12.3185 10.4532 12.4952 10.2782 12.5318 10.0565L12.5393 9.97067L12.5385 9.0415H13.4743L13.551 9.0365C13.7743 9.00317 13.951 8.82817 13.9885 8.6065L13.9952 8.5215L13.9893 8.44484C13.9732 8.33579 13.9229 8.23468 13.8456 8.15607C13.7683 8.07745 13.6681 8.02537 13.5593 8.00734L13.4743 8.00067H12.5385V6.53734L13.6802 6.54234L13.7577 6.53734C13.8816 6.51984 13.9951 6.4583 14.0774 6.36399C14.1596 6.26967 14.2052 6.14888 14.2057 6.02372C14.2062 5.89857 14.1616 5.77741 14.0801 5.68243C13.9986 5.58745 13.8856 5.525 13.7618 5.5065L13.6843 5.50067Z" fill="#B8B8B8"/>
</svg>
