<svg width="16" height="17" viewBox="0 0 16 17" fill="none" xmlns="http://www.w3.org/2000/svg">
<path d="M15.3027 9.11232C15.6309 8.67873 15.8125 8.14748 15.8125 7.59474C15.8125 6.71779 15.3223 5.88771 14.5332 5.42482C14.3301 5.30567 14.0988 5.24296 13.8633 5.24318H9.17969L9.29688 2.84279C9.32422 2.26271 9.11914 1.71193 8.7207 1.29201C8.52517 1.08503 8.28926 0.920352 8.02757 0.80815C7.76588 0.695947 7.48395 0.638603 7.19922 0.639663C6.18359 0.639663 5.28516 1.32326 5.01562 2.30177L3.33789 8.37599H0.8125C0.466797 8.37599 0.1875 8.65529 0.1875 9.00099V16.1104C0.1875 16.4561 0.466797 16.7354 0.8125 16.7354H12.5566C12.7363 16.7354 12.9121 16.7002 13.0742 16.6299C14.0039 16.2334 14.6035 15.3252 14.6035 14.3174C14.6035 14.0713 14.5684 13.8291 14.498 13.5947C14.8262 13.1611 15.0078 12.6299 15.0078 12.0772C15.0078 11.8311 14.9727 11.5889 14.9023 11.3545C15.2305 10.9209 15.4121 10.3897 15.4121 9.83693C15.4082 9.59083 15.373 9.34669 15.3027 9.11232ZM1.59375 15.3291V9.78224H3.17578V15.3291H1.59375ZM14.0234 8.43458L13.5957 8.80568L13.8672 9.30177C13.9566 9.46519 14.003 9.64868 14.002 9.83498C14.002 10.1572 13.8613 10.4639 13.6191 10.6748L13.1914 11.0459L13.4629 11.542C13.5523 11.7054 13.5987 11.8889 13.5977 12.0752C13.5977 12.3975 13.457 12.7041 13.2148 12.9151L12.7871 13.2861L13.0586 13.7822C13.148 13.9457 13.1944 14.1292 13.1934 14.3154C13.1934 14.7529 12.9355 15.1475 12.5371 15.3272H4.42578V9.71974L6.36914 2.67873C6.41925 2.49826 6.52682 2.33904 6.67555 2.2252C6.82428 2.11136 7.00607 2.04911 7.19336 2.04787C7.3418 2.04787 7.48828 2.09083 7.60547 2.17873C7.79883 2.32326 7.90234 2.54201 7.89062 2.77443L7.70312 6.64943H13.8438C14.1914 6.86232 14.4062 7.22169 14.4062 7.59474C14.4062 7.91701 14.2656 8.22169 14.0234 8.43458Z" fill="#222222"/>
</svg>
