<svg width="27" height="22" viewBox="0 0 27 22" fill="none" xmlns="http://www.w3.org/2000/svg">
<path d="M26.3619 21.2398V21.2939H26.412C26.4214 21.2941 26.4306 21.2917 26.4388 21.287C26.4421 21.2847 26.4447 21.2816 26.4465 21.278C26.4482 21.2743 26.4491 21.2703 26.4489 21.2663C26.4491 21.2624 26.4482 21.2584 26.4465 21.2549C26.4447 21.2514 26.4421 21.2484 26.4388 21.2462C26.4307 21.2413 26.4214 21.2389 26.412 21.2393H26.3619V21.2398ZM26.4125 21.2015C26.434 21.2002 26.4552 21.2064 26.4727 21.2191C26.4796 21.2249 26.4852 21.2322 26.4889 21.2405C26.4925 21.2488 26.4942 21.2579 26.4937 21.267C26.4941 21.2748 26.4927 21.2826 26.4898 21.2899C26.4869 21.2971 26.4825 21.3037 26.4768 21.3091C26.4634 21.3208 26.4465 21.3279 26.4287 21.3292L26.4959 21.4063H26.4442L26.3824 21.3298H26.3624V21.4063H26.3192V21.2017H26.4132L26.4125 21.2015ZM26.3991 21.4769C26.4218 21.4772 26.4442 21.4726 26.465 21.4634C26.485 21.4547 26.5033 21.4423 26.5187 21.4268C26.5342 21.4112 26.5465 21.3929 26.5551 21.3726C26.5727 21.3298 26.5727 21.2816 26.5551 21.2387C26.5464 21.2186 26.5341 21.2002 26.5187 21.1846C26.5033 21.1691 26.485 21.1567 26.465 21.148C26.4441 21.1393 26.4217 21.135 26.3991 21.1352C26.3761 21.135 26.3533 21.1393 26.3319 21.148C26.3114 21.1565 26.2928 21.1689 26.277 21.1846C26.2533 21.2092 26.2372 21.2402 26.2308 21.2739C26.2244 21.3076 26.228 21.3424 26.2412 21.374C26.2493 21.3943 26.2615 21.4127 26.277 21.4281C26.2928 21.4438 26.3115 21.4562 26.3319 21.4648C26.3531 21.4739 26.376 21.4785 26.3991 21.4783M26.3991 21.086C26.4581 21.0859 26.5148 21.1093 26.5569 21.1509C26.5771 21.1709 26.5933 21.1948 26.6044 21.2211C26.6159 21.2482 26.6218 21.2773 26.6218 21.3067C26.6218 21.3361 26.6159 21.3652 26.6044 21.3923C26.593 21.4185 26.5769 21.4423 26.5569 21.4625C26.5363 21.4824 26.5123 21.4984 26.4861 21.5098C26.4586 21.5216 26.429 21.5276 26.3991 21.5274C26.3688 21.5276 26.3389 21.5216 26.311 21.5098C26.2845 21.4987 26.2603 21.4826 26.2397 21.4625C26.2196 21.4415 26.2037 21.4169 26.1928 21.39C26.1813 21.3629 26.1754 21.3338 26.1754 21.3044C26.1754 21.275 26.1813 21.2459 26.1928 21.2188C26.2039 21.1925 26.2201 21.1686 26.2404 21.1486C26.2607 21.1281 26.285 21.112 26.3117 21.1013C26.3395 21.0895 26.3695 21.0835 26.3997 21.0837M5.8382 20.2956C5.8382 19.9053 6.09199 19.5847 6.50678 19.5847C6.90317 19.5847 7.17066 19.8915 7.17066 20.2956C7.17066 20.6996 6.90317 21.0065 6.50678 21.0065C6.09199 21.0065 5.8382 20.6858 5.8382 20.2956ZM7.62251 20.2956V19.1849H7.14327V19.4555C6.99126 19.2556 6.7607 19.1301 6.44716 19.1301C5.82948 19.1301 5.34473 19.6182 5.34473 20.2961C5.34473 20.974 5.82921 21.4621 6.44716 21.4621C6.76057 21.4621 6.99126 21.3365 7.14327 21.1367V21.4063H7.62197V20.2956H7.62251ZM23.8155 20.2956C23.8155 19.9053 24.0693 19.5847 24.4842 19.5847C24.881 19.5847 25.1481 19.8915 25.1481 20.2956C25.1481 20.6996 24.881 21.0065 24.4842 21.0065C24.0695 21.0065 23.8155 20.6858 23.8155 20.2956ZM25.6004 20.2956V18.2935H25.1207V19.4555C24.9687 19.2556 24.7382 19.1301 24.4246 19.1301C23.8069 19.1301 23.3222 19.6182 23.3222 20.2961C23.3222 20.974 23.8067 21.4621 24.4246 21.4621C24.7382 21.4621 24.9687 21.3365 25.1207 21.1367V21.4063H25.6004V20.2956ZM13.5706 19.5618C13.8794 19.5618 14.0777 19.7569 14.1283 20.1004H12.9848C13.036 19.7798 13.2292 19.5618 13.5707 19.5618M13.5802 19.1289C12.9343 19.1289 12.4825 19.6024 12.4825 20.2949C12.4825 21.0009 12.9525 21.4608 13.6123 21.4608C13.9443 21.4608 14.2483 21.3774 14.5157 21.1497L14.2809 20.7919C14.0961 20.9407 13.8609 21.0242 13.6397 21.0242C13.3309 21.0242 13.0497 20.8801 12.9805 20.4804H14.617C14.6217 20.4203 14.6265 20.3597 14.6265 20.2948C14.6217 19.6025 14.1968 19.1288 13.58 19.1288M19.3661 20.2948C19.3661 19.9045 19.6198 19.5839 20.0346 19.5839C20.431 19.5839 20.6985 19.8907 20.6985 20.2948C20.6985 20.6988 20.431 21.0056 20.0346 21.0056C19.6198 21.0056 19.3659 20.685 19.3659 20.2948M21.1502 20.2948V19.1849H20.6712V19.4555C20.5187 19.2556 20.2887 19.1301 19.9751 19.1301C19.3575 19.1301 18.8727 19.6182 18.8727 20.2961C18.8727 20.974 19.3572 21.4621 19.9751 21.4621C20.2887 21.4621 20.5187 21.3365 20.6712 21.1367V21.4063H21.1504V20.2956L21.1502 20.2948ZM16.6596 20.2948C16.6596 20.9683 17.1251 21.4607 17.8354 21.4607C18.1673 21.4607 18.3885 21.3863 18.6277 21.196L18.3975 20.8057C18.2176 20.936 18.0286 21.0056 17.8201 21.0056C17.4375 21.0009 17.1562 20.7222 17.1562 20.2948C17.1562 19.8673 17.4375 19.5887 17.8201 19.5839C18.0281 19.5839 18.217 19.6535 18.3975 19.7838L18.6277 19.3935C18.3881 19.2032 18.1669 19.1288 17.8354 19.1288C17.1251 19.1288 16.6596 19.6211 16.6596 20.2948ZM22.8378 19.1288C22.5614 19.1288 22.3813 19.2591 22.2568 19.4541V19.1849H21.7819V21.4051H22.2617V20.1606C22.2617 19.7931 22.4184 19.589 22.7316 19.589C22.8342 19.5875 22.9361 19.6065 23.0313 19.6449L23.1791 19.1898C23.073 19.1477 22.9347 19.1292 22.8376 19.1292M9.99187 19.3615C9.76131 19.2083 9.44361 19.1292 9.09314 19.1292C8.5348 19.1292 8.17534 19.3988 8.17534 19.84C8.17534 20.202 8.44296 20.4253 8.93576 20.495L9.16216 20.5274C9.42494 20.5646 9.54902 20.6343 9.54902 20.7597C9.54902 20.9314 9.37445 21.0293 9.04668 21.0293C8.71474 21.0293 8.47518 20.9224 8.31365 20.797L8.08846 21.1735C8.35124 21.3686 8.68318 21.4617 9.04265 21.4617C9.67913 21.4617 10.048 21.1597 10.048 20.737C10.048 20.3467 9.75769 20.1426 9.27804 20.0729L9.05218 20.0399C8.84472 20.0128 8.67848 19.9708 8.67848 19.822C8.67848 19.6596 8.83519 19.562 9.09811 19.562C9.37942 19.562 9.65174 19.6688 9.78521 19.7523L9.99268 19.362L9.99187 19.3615ZM16.1756 19.1296C15.8991 19.1296 15.719 19.2599 15.5951 19.455V19.1849H15.1201V21.4051H15.5994V20.1606C15.5994 19.7931 15.7561 19.589 16.0694 19.589C16.1719 19.5875 16.2738 19.6065 16.3691 19.6449L16.5168 19.1898C16.4107 19.1477 16.2724 19.1292 16.1753 19.1292M12.086 19.1849H11.3023V18.5114H10.8178V19.1849H10.3708V19.6262H10.8178V20.639C10.8178 21.1542 11.0163 21.461 11.5832 21.461C11.7912 21.461 12.0308 21.3961 12.1828 21.2893L12.0443 20.8759C11.9013 20.9594 11.7446 21.0014 11.62 21.0014C11.3805 21.0014 11.3023 20.8526 11.3023 20.6298V19.6266H12.086V19.1849ZM4.92094 21.4057V20.0123C4.92094 19.4876 4.589 19.1345 4.0539 19.1297C3.77258 19.125 3.48241 19.2132 3.27924 19.5248C3.12724 19.2785 2.88768 19.1297 2.55091 19.1297C2.31552 19.1297 2.0855 19.1994 1.90543 19.4594V19.1849H1.42578V21.4051H1.90919V20.1741C1.90919 19.7887 2.12135 19.5839 2.44899 19.5839C2.76723 19.5839 2.92823 19.7929 2.92823 20.1692V21.4048H3.41271V20.1738C3.41271 19.7884 3.63387 19.5836 3.95198 19.5836C4.27922 19.5836 4.43539 19.7926 4.43539 20.1689V21.4046L4.92094 21.4057Z" fill="#231F20"/>
<path d="M26.637 14.02V13.6953H26.553L26.456 13.9181L26.3594 13.6953H26.2752V14.02H26.3348V13.7754L26.4256 13.9864H26.4874L26.5781 13.7749V14.02H26.6372H26.637ZM26.1045 14.02V13.7509H26.212V13.6961H25.9375V13.7509H26.0449V14.02H26.104H26.1045Z" fill="#F79410"/>
<path d="M17.0947 15.4127H9.83203V2.26367H17.0948L17.0947 15.4127Z" fill="#FF5F00"/>
<path d="M10.2941 8.83854C10.2941 6.17127 11.5338 3.79526 13.4642 2.26405C12.003 1.10329 10.1957 0.473313 8.33483 0.476083C3.75094 0.476083 0.0351562 4.22003 0.0351562 8.83854C0.0351562 13.4571 3.75094 17.201 8.33483 17.201C10.1957 17.2038 12.0031 16.5738 13.4643 15.413C11.534 13.8821 10.2941 11.506 10.2941 8.83854Z" fill="#EB001B"/>
<path d="M26.8927 8.83854C26.8927 13.4571 23.1769 17.201 18.593 17.201C16.732 17.2038 14.9244 16.5738 13.4629 15.413C15.3938 13.8818 16.6335 11.506 16.6335 8.83854C16.6335 6.17114 15.3938 3.79526 13.4629 2.26405C14.9244 1.10333 16.7319 0.473362 18.5929 0.476083C23.1768 0.476083 26.8926 4.22003 26.8926 8.83854" fill="#F79E1B"/>
</svg>
