<svg width="20" height="6" viewBox="0 0 20 6" fill="none" xmlns="http://www.w3.org/2000/svg">
<path d="M2.99935 0.666504C1.71602 0.666504 0.666016 1.7165 0.666016 2.99984C0.666016 4.28317 1.71602 5.33317 2.99935 5.33317C4.28268 5.33317 5.33268 4.28317 5.33268 2.99984C5.33268 1.7165 4.28268 0.666504 2.99935 0.666504ZM16.9993 0.666504C15.716 0.666504 14.666 1.7165 14.666 2.99984C14.666 4.28317 15.716 5.33317 16.9993 5.33317C18.2827 5.33317 19.3327 4.28317 19.3327 2.99984C19.3327 1.7165 18.2827 0.666504 16.9993 0.666504ZM9.99935 0.666504C8.71601 0.666504 7.66602 1.7165 7.66602 2.99984C7.66602 4.28317 8.71601 5.33317 9.99935 5.33317C11.2827 5.33317 12.3327 4.28317 12.3327 2.99984C12.3327 1.7165 11.2827 0.666504 9.99935 0.666504Z" fill="#AAAAAA"/>
</svg>
