<svg width="56" height="16" viewBox="0 0 56 16" fill="none" xmlns="http://www.w3.org/2000/svg">
<g clip-path="url(#clip0_1305_670)">
<path d="M20.8924 4.23193H17.8022C17.6999 4.23187 17.6009 4.26834 17.5231 4.33477C17.4453 4.4012 17.3938 4.49322 17.3779 4.59426L16.1281 12.5171C16.1223 12.5538 16.1246 12.5914 16.1348 12.6272C16.145 12.663 16.1628 12.6961 16.187 12.7244C16.2112 12.7527 16.2413 12.7753 16.2751 12.7908C16.3089 12.8064 16.3457 12.8144 16.3829 12.8143H17.8582C17.9606 12.8144 18.0596 12.7778 18.1374 12.7113C18.2152 12.6448 18.2667 12.5527 18.2825 12.4515L18.6196 10.3146C18.6354 10.2136 18.6868 10.1215 18.7645 10.055C18.8422 9.98851 18.9411 9.95193 19.0434 9.95187H20.0217C22.0572 9.95187 23.2321 8.967 23.5389 7.01533C23.6771 6.16147 23.5447 5.49058 23.1448 5.02073C22.7056 4.50481 21.9267 4.23193 20.8924 4.23193ZM21.2489 7.12556C21.0799 8.23422 20.2327 8.23422 19.4135 8.23422H18.9472L19.2743 6.16373C19.2839 6.10315 19.3148 6.04799 19.3614 6.00815C19.408 5.96831 19.4674 5.94643 19.5287 5.94642H19.7424C20.3005 5.94642 20.8269 5.94642 21.0989 6.26447C21.2611 6.45422 21.3108 6.73613 21.2489 7.12556ZM30.1295 7.08987H28.6497C28.5884 7.08987 28.5291 7.11176 28.4824 7.15159C28.4358 7.19143 28.4049 7.2466 28.3953 7.30717L28.3298 7.721L28.2263 7.57101C27.906 7.10613 27.1916 6.95072 26.4786 6.95072C24.8433 6.95072 23.4467 8.18904 23.1747 9.92612C23.0332 10.7926 23.2343 11.6212 23.7259 12.199C24.1769 12.7303 24.8221 12.9517 25.5898 12.9517C26.9074 12.9517 27.638 12.1046 27.638 12.1046L27.5721 12.5157C27.5662 12.5525 27.5683 12.5901 27.5784 12.6259C27.5884 12.6617 27.6061 12.695 27.6303 12.7233C27.6544 12.7517 27.6844 12.7744 27.7182 12.7901C27.752 12.8057 27.7888 12.8138 27.826 12.8139H29.1589C29.2613 12.8139 29.3603 12.7774 29.4381 12.7109C29.5159 12.6443 29.5674 12.5522 29.5832 12.4511L30.383 7.38714C30.3889 7.35046 30.3867 7.31295 30.3767 7.27718C30.3667 7.24142 30.349 7.20826 30.3249 7.17999C30.3008 7.15173 30.2708 7.12903 30.2371 7.11347C30.2034 7.09791 30.1667 7.08986 30.1295 7.08987ZM28.0668 9.96949C27.924 10.8148 27.2531 11.3822 26.3972 11.3822C25.9675 11.3822 25.6241 11.2444 25.4036 10.9833C25.1849 10.724 25.1018 10.3549 25.1714 9.94374C25.3047 9.1057 25.987 8.51974 26.8297 8.51974C27.2499 8.51974 27.5915 8.65934 27.8165 8.92273C28.042 9.18882 28.1314 9.56018 28.0668 9.96949ZM38.0107 7.08987H36.5236C36.4535 7.08998 36.3845 7.1072 36.3225 7.14003C36.2605 7.17286 36.2075 7.22031 36.168 7.27826L34.1171 10.2988L33.2477 7.39617C33.221 7.30764 33.1666 7.23006 33.0923 7.17489C33.0181 7.11972 32.9281 7.08991 32.8356 7.08987H31.3744C31.3333 7.08976 31.2929 7.09945 31.2564 7.11813C31.2199 7.13681 31.1883 7.16394 31.1644 7.19726C31.1405 7.23058 31.1249 7.26913 31.1189 7.3097C31.1129 7.35027 31.1167 7.39169 31.1299 7.43051L32.7679 12.2365L31.228 14.41C31.2006 14.4485 31.1844 14.4939 31.181 14.541C31.1777 14.5882 31.1874 14.6353 31.2091 14.6773C31.2308 14.7193 31.2637 14.7545 31.3041 14.7791C31.3444 14.8036 31.3908 14.8166 31.4381 14.8166H32.9233C32.9926 14.8167 33.061 14.8 33.1224 14.7679C33.1839 14.7358 33.2367 14.6892 33.2762 14.6323L38.2221 7.49421C38.2489 7.45559 38.2647 7.41037 38.2676 7.36346C38.2705 7.31654 38.2606 7.26971 38.2388 7.22806C38.217 7.1864 38.1842 7.1515 38.144 7.12714C38.1038 7.10278 38.0577 7.08989 38.0107 7.08987Z" fill="#253B80"/>
<path d="M42.9335 4.2319H39.8428C39.7406 4.23194 39.6417 4.26846 39.5641 4.33488C39.4864 4.4013 39.4349 4.49326 39.419 4.59422L38.1692 12.517C38.1634 12.5537 38.1656 12.5912 38.1757 12.627C38.1858 12.6628 38.2035 12.6959 38.2276 12.7242C38.2518 12.7524 38.2817 12.7751 38.3155 12.7907C38.3492 12.8062 38.386 12.8143 38.4231 12.8143H40.0091C40.0807 12.8142 40.1498 12.7886 40.2042 12.742C40.2585 12.6955 40.2944 12.6311 40.3055 12.5604L40.6602 10.3146C40.676 10.2136 40.7274 10.1215 40.8052 10.055C40.8829 9.98848 40.9818 9.9519 41.0841 9.95184H42.0619C44.0979 9.95184 45.2722 8.96696 45.5795 7.01529C45.7182 6.16143 45.5849 5.49055 45.185 5.0207C44.7463 4.50477 43.9678 4.2319 42.9335 4.2319ZM43.29 7.12552C43.1214 8.23418 42.2742 8.23418 41.4546 8.23418H40.9887L41.3163 6.16369C41.3257 6.10312 41.3565 6.0479 41.403 6.00804C41.4496 5.96818 41.5089 5.94631 41.5702 5.94639H41.784C42.3415 5.94639 42.8684 5.94639 43.1404 6.26444C43.3026 6.45418 43.3519 6.73609 43.29 7.12552ZM52.1702 7.08983H50.6913C50.6299 7.08966 50.5706 7.1115 50.524 7.15138C50.4774 7.19125 50.4466 7.24652 50.4373 7.30714L50.3718 7.72096L50.2679 7.57098C49.9475 7.1061 49.2336 6.95069 48.5206 6.95069C46.8853 6.95069 45.4891 8.18901 45.2171 9.92608C45.0761 10.7926 45.2763 11.6212 45.7679 12.199C46.2198 12.7303 46.8641 12.9516 47.6318 12.9516C48.9494 12.9516 49.68 12.1045 49.68 12.1045L49.6141 12.5157C49.6082 12.5525 49.6103 12.5902 49.6204 12.6261C49.6306 12.662 49.6483 12.6953 49.6726 12.7236C49.6968 12.752 49.7269 12.7747 49.7608 12.7903C49.7947 12.8059 49.8316 12.8139 49.8689 12.8138H51.2014C51.3037 12.8138 51.4026 12.7772 51.4803 12.7107C51.558 12.6442 51.6094 12.5521 51.6252 12.4511L52.4255 7.3871C52.4311 7.35031 52.4288 7.31273 52.4185 7.27694C52.4083 7.24114 52.3905 7.20799 52.3662 7.17975C52.3419 7.1515 52.3119 7.12884 52.278 7.11332C52.2442 7.0978 52.2074 7.08979 52.1702 7.08983ZM50.1075 9.96945C49.9656 10.8147 49.2937 11.3822 48.4379 11.3822C48.0091 11.3822 47.6648 11.2444 47.4443 10.9832C47.2256 10.7239 47.1433 10.3548 47.212 9.9437C47.3462 9.10566 48.0276 8.51971 48.8703 8.51971C49.2905 8.51971 49.6321 8.6593 49.8571 8.92269C50.0835 9.18879 50.173 9.56015 50.1075 9.96945ZM53.9147 4.4492L52.6464 12.517C52.6406 12.5537 52.6428 12.5912 52.6529 12.627C52.663 12.6628 52.6807 12.6959 52.7048 12.7242C52.729 12.7524 52.759 12.7751 52.7927 12.7907C52.8265 12.8062 52.8632 12.8143 52.9003 12.8143H54.1755C54.3874 12.8143 54.5672 12.6607 54.5997 12.4515L55.8505 4.52917C55.8563 4.49244 55.8541 4.4549 55.844 4.41911C55.8339 4.38333 55.8162 4.35015 55.792 4.32186C55.7679 4.29357 55.7379 4.27084 55.7042 4.25523C55.6704 4.23963 55.6337 4.23151 55.5965 4.23145H54.1687C54.1074 4.23166 54.0482 4.25369 54.0016 4.2936C53.9551 4.3335 53.9243 4.38866 53.9147 4.4492Z" fill="#179BD7"/>
<path d="M3.29591 14.354L3.53222 12.8532L3.00582 12.841H0.492188L2.23903 1.76659C2.24423 1.73275 2.26142 1.70191 2.28747 1.67968C2.31351 1.65746 2.34667 1.64533 2.38091 1.64551H6.61925C8.02631 1.64551 8.99733 1.93826 9.50431 2.51608C9.74198 2.78715 9.89335 3.07041 9.96655 3.38214C10.0434 3.70922 10.0447 4.10001 9.96971 4.57663L9.96429 4.61142V4.91682L10.202 5.05145C10.3834 5.14336 10.5465 5.26769 10.6832 5.41829C10.8865 5.65005 11.018 5.94461 11.0736 6.29384C11.131 6.653 11.112 7.08038 11.018 7.56423C10.9096 8.12082 10.7342 8.60557 10.4975 9.00223C10.2886 9.35758 10.0077 9.66534 9.67284 9.90579C9.35836 10.129 8.98468 10.2984 8.5622 10.4068C8.15283 10.5134 7.68607 10.5672 7.17412 10.5672H6.84427C6.60841 10.5672 6.37932 10.6521 6.19949 10.8044C6.01991 10.9582 5.90078 11.1708 5.86331 11.4043L5.83846 11.5394L5.42095 14.1846L5.40197 14.2817C5.397 14.3124 5.38842 14.3278 5.37577 14.3382C5.36351 14.3482 5.34822 14.3538 5.33239 14.354H3.29591Z" fill="#253B80"/>
<path d="M10.4266 4.64648C10.4139 4.72735 10.3995 4.81003 10.3832 4.89496C9.82429 7.76419 7.91206 8.75539 5.46982 8.75539H4.22633C3.92766 8.75539 3.67598 8.97224 3.62944 9.2668L2.99279 13.3039L2.8125 14.4482C2.80532 14.4936 2.80806 14.54 2.82054 14.5843C2.83302 14.6285 2.85493 14.6695 2.88478 14.7044C2.91462 14.7394 2.95169 14.7675 2.99342 14.7867C3.03516 14.806 3.08057 14.8159 3.12654 14.816H5.33201C5.59318 14.816 5.81503 14.6262 5.85615 14.3687L5.87784 14.2567L6.29309 11.6219L6.31975 11.4773C6.36041 11.2189 6.58272 11.0292 6.84389 11.0292H7.17374C9.31053 11.0292 10.9833 10.1618 11.4722 7.6517C11.6764 6.60313 11.5707 5.72758 11.0303 5.11181C10.859 4.92133 10.6544 4.76364 10.4266 4.64648Z" fill="#179BD7"/>
<path d="M9.84137 4.41364C9.6629 4.36202 9.48135 4.32173 9.2978 4.29302C8.93511 4.23729 8.56855 4.21055 8.20161 4.21305H4.87962C4.7532 4.21295 4.63091 4.25808 4.53486 4.34028C4.43882 4.42247 4.37535 4.53631 4.35593 4.66121L3.64924 9.13651L3.62891 9.26707C3.65092 9.12461 3.72321 8.99472 3.83269 8.90092C3.94217 8.80712 4.08162 8.75559 4.2258 8.75566H5.46929C7.91153 8.75566 9.82375 7.76401 10.3827 4.89523C10.3994 4.8103 10.4134 4.72762 10.4261 4.64676C10.2786 4.56943 10.1249 4.50459 9.96653 4.45294C9.92502 4.43917 9.8833 4.42607 9.84137 4.41364Z" fill="#222D65"/>
<path d="M4.35575 4.66084C4.375 4.5359 4.43844 4.42201 4.53453 4.33986C4.63063 4.2577 4.75301 4.21274 4.87944 4.21313H8.20143C8.59499 4.21313 8.96235 4.23888 9.29762 4.2931C9.5245 4.32875 9.74824 4.38207 9.96681 4.45257C10.1317 4.50724 10.2849 4.57184 10.4263 4.64639C10.5926 3.58607 10.425 2.86413 9.85158 2.21041C9.21945 1.49073 8.07853 1.18262 6.61861 1.18262H2.38027C2.08205 1.18262 1.82766 1.39947 1.78157 1.69448L0.0161964 12.8827C0.00797363 12.9347 0.0111021 12.9878 0.0253667 13.0384C0.0396313 13.089 0.0646935 13.1359 0.0988293 13.176C0.132965 13.216 0.175364 13.2481 0.22311 13.2702C0.270857 13.2922 0.322817 13.3037 0.375416 13.3038H2.99207L3.64906 9.13614L4.35575 4.66084Z" fill="#253B80"/>
</g>
<defs>
<clipPath id="clip0_1305_670">
<rect width="55.8629" height="14.8571" fill="white" transform="translate(0 0.571289)"/>
</clipPath>
</defs>
</svg>
