<svg width="21" height="20" viewBox="0 0 21 20" fill="none" xmlns="http://www.w3.org/2000/svg">
<path fill-rule="evenodd" clip-rule="evenodd" d="M1.34407 0.245067C1.49334 0.1154 1.6777 0.032893 1.87384 0.00797416C2.06999 -0.0169447 2.26912 0.0168431 2.44607 0.105067L20.4461 9.10507C20.6125 9.188 20.7525 9.31569 20.8503 9.47379C20.9482 9.63189 21 9.81414 21 10.0001C21 10.186 20.9482 10.3682 20.8503 10.5263C20.7525 10.6844 20.6125 10.8121 20.4461 10.8951L2.44607 19.8951C2.26914 19.9836 2.06991 20.0177 1.87362 19.9929C1.67732 19.9682 1.49277 19.8858 1.34332 19.7562C1.19386 19.6265 1.08623 19.4554 1.03403 19.2646C0.981829 19.0738 0.987412 18.8717 1.05007 18.6841L3.61207 11.0001H8.99907C9.26429 11.0001 9.51864 10.8947 9.70618 10.7072C9.89371 10.5196 9.99907 10.2653 9.99907 10.0001C9.99907 9.73485 9.89371 9.4805 9.70618 9.29296C9.51864 9.10542 9.26429 9.00007 8.99907 9.00007H3.61207L1.04907 1.31607C0.986735 1.12848 0.981393 0.926623 1.03372 0.736C1.08605 0.545377 1.1947 0.374539 1.34407 0.245067Z" fill="#15ABFF"/>
</svg>
