<svg width="19" height="20" viewBox="0 0 19 20" fill="none" xmlns="http://www.w3.org/2000/svg">
<path d="M11.8242 10L18.6345 2.84872C18.8266 2.64718 18.8266 2.32062 18.6345 2.11953C17.2923 0.710158 15.1156 0.710158 13.7734 2.11953L9.04643 7.08328L8.02909 6.01508C8.20547 5.54586 8.30245 5.03497 8.30245 4.5C8.30245 2.2218 6.5436 0.375 4.37389 0.375C2.20416 0.375 0.445312 2.2218 0.445312 4.5C0.445312 6.7782 2.20416 8.625 4.37389 8.625C4.55967 8.625 4.74178 8.61125 4.92061 8.58505L6.26819 10L4.92061 11.415C4.74178 11.3887 4.55926 11.375 4.37389 11.375C2.20416 11.375 0.445312 13.2218 0.445312 15.5C0.445312 17.7782 2.20416 19.625 4.37389 19.625C6.5436 19.625 8.30245 17.7782 8.30245 15.5C8.30245 14.965 8.20547 14.4541 8.02909 13.9849L9.04643 12.9167L13.7734 17.8805C15.1156 19.2899 17.2923 19.2899 18.6345 17.8805C18.8266 17.6793 18.8266 17.3528 18.6345 17.1513L11.8242 10ZM4.37389 5.875C3.65201 5.875 3.06436 5.25797 3.06436 4.5C3.06436 3.74203 3.65201 3.125 4.37389 3.125C5.09576 3.125 5.6834 3.74203 5.6834 4.5C5.6834 5.25797 5.09576 5.875 4.37389 5.875ZM4.37389 16.875C3.65201 16.875 3.06436 16.258 3.06436 15.5C3.06436 14.742 3.65201 14.125 4.37389 14.125C5.09576 14.125 5.6834 14.742 5.6834 15.5C5.6834 16.258 5.09576 16.875 4.37389 16.875Z" fill="#232323"/>
</svg>
