<svg width="13" height="14" viewBox="0 0 13 14" fill="none" xmlns="http://www.w3.org/2000/svg">
<path d="M7.9782 7L12.5288 2.44918C12.657 2.32094 12.657 2.11312 12.5288 1.98516C11.6319 1.08828 10.1775 1.08828 9.28059 1.98516L6.12211 5.14391L5.44234 4.46414C5.5602 4.16555 5.625 3.84043 5.625 3.5C5.625 2.05023 4.44977 0.875 3 0.875C1.55023 0.875 0.375 2.05023 0.375 3.5C0.375 4.94977 1.55023 6.125 3 6.125C3.12414 6.125 3.24582 6.11625 3.36531 6.09957L4.26574 7L3.36531 7.90043C3.24582 7.88375 3.12387 7.875 3 7.875C1.55023 7.875 0.375 9.05023 0.375 10.5C0.375 11.9498 1.55023 13.125 3 13.125C4.44977 13.125 5.625 11.9498 5.625 10.5C5.625 10.1596 5.5602 9.83445 5.44234 9.53586L6.12211 8.85609L9.28059 12.0148C10.1775 12.9117 11.6319 12.9117 12.5288 12.0148C12.657 11.8869 12.657 11.6791 12.5288 11.5508L7.9782 7ZM3 4.375C2.51766 4.375 2.125 3.98234 2.125 3.5C2.125 3.01766 2.51766 2.625 3 2.625C3.48234 2.625 3.875 3.01766 3.875 3.5C3.875 3.98234 3.48234 4.375 3 4.375ZM3 11.375C2.51766 11.375 2.125 10.9823 2.125 10.5C2.125 10.0177 2.51766 9.625 3 9.625C3.48234 9.625 3.875 10.0177 3.875 10.5C3.875 10.9823 3.48234 11.375 3 11.375Z" fill="#232323"/>
</svg>
