<svg width="19" height="17" viewBox="0 0 19 17" fill="none" xmlns="http://www.w3.org/2000/svg">
<path d="M18.3333 9.1665C18.3333 9.60853 18.1577 10.0325 17.8452 10.345C17.5326 10.6576 17.1087 10.8332 16.6667 10.8332H11.4L12.2 14.6415C12.2167 14.7248 12.225 14.8165 12.225 14.9082C12.225 15.2498 12.0833 15.5665 11.8583 15.7915L10.975 16.6665L5.49167 11.1832C5.18333 10.8748 5 10.4582 5 9.99984V1.6665C5 1.22448 5.17559 0.800554 5.48816 0.487993C5.80072 0.175432 6.22464 -0.000162125 6.66667 -0.000162125H14.1667C14.8583 -0.000162125 15.45 0.416504 15.7 1.0165L18.2167 6.8915C18.2917 7.08317 18.3333 7.28317 18.3333 7.49984V9.1665ZM0 -0.000162125H3.33333V9.99984H0V-0.000162125Z" fill="#999999"/>
</svg>
