<svg width="16" height="16" viewBox="0 0 16 16" fill="none" xmlns="http://www.w3.org/2000/svg">
<path d="M6.82412 9.17509C7.16578 9.50009 7.16578 10.0334 6.82412 10.3584C6.49912 10.6834 5.96579 10.6834 5.64078 10.3584C4.86027 9.57674 4.42188 8.51724 4.42188 7.41259C4.42188 6.30795 4.86027 5.24845 5.64078 4.46676L8.59079 1.51676C9.37248 0.736243 10.432 0.297852 11.5366 0.297852C12.6413 0.297852 13.7008 0.736243 14.4825 1.51676C15.263 2.29845 15.7014 3.35795 15.7014 4.46259C15.7014 5.56724 15.263 6.62674 14.4825 7.40843L13.2408 8.65009C13.2491 7.96676 13.1408 7.28343 12.9075 6.63343L13.2991 6.23343C13.5327 6.00233 13.7182 5.7272 13.8448 5.42395C13.9713 5.12071 14.0365 4.79537 14.0365 4.46676C14.0365 4.13816 13.9713 3.81282 13.8448 3.50957C13.7182 3.20632 13.5327 2.93119 13.2991 2.70009C13.068 2.46648 12.7929 2.28102 12.4896 2.15444C12.1864 2.02787 11.8611 1.9627 11.5325 1.9627C11.2038 1.9627 10.8785 2.02787 10.5753 2.15444C10.272 2.28102 9.99688 2.46648 9.76579 2.70009L6.82412 5.64176C6.5905 5.87286 6.40504 6.14799 6.27847 6.45124C6.15189 6.75448 6.08672 7.07982 6.08672 7.40843C6.08672 7.73703 6.15189 8.06237 6.27847 8.36562C6.40504 8.66887 6.5905 8.944 6.82412 9.17509ZM9.17412 5.64176C9.49912 5.31676 10.0325 5.31676 10.3575 5.64176C11.138 6.42345 11.5764 7.48295 11.5764 8.58759C11.5764 9.69224 11.138 10.7517 10.3575 11.5334L7.40745 14.4834C6.62576 15.2639 5.56627 15.7023 4.46162 15.7023C3.35697 15.7023 2.29747 15.2639 1.51578 14.4834C0.735267 13.7017 0.296875 12.6422 0.296875 11.5376C0.296875 10.4329 0.735267 9.37345 1.51578 8.59176L2.75745 7.3501C2.74912 8.03343 2.85745 8.71676 3.09078 9.37509L2.69912 9.76676C2.4655 9.99786 2.28004 10.273 2.15347 10.5762C2.02689 10.8795 1.96172 11.2048 1.96172 11.5334C1.96172 11.862 2.02689 12.1874 2.15347 12.4906C2.28004 12.7939 2.4655 13.069 2.69912 13.3001C2.93021 13.5337 3.20534 13.7192 3.50859 13.8457C3.81184 13.9723 4.13718 14.0375 4.46579 14.0375C4.79439 14.0375 5.11973 13.9723 5.42298 13.8457C5.72622 13.7192 6.00136 13.5337 6.23245 13.3001L9.17412 10.3584C9.40773 10.1273 9.59319 9.8522 9.71977 9.54895C9.84634 9.24571 9.91152 8.92037 9.91152 8.59176C9.91152 8.26316 9.84634 7.93782 9.71977 7.63457C9.59319 7.33132 9.40773 7.05619 9.17412 6.82509C9.09318 6.74926 9.02867 6.65762 8.98457 6.55585C8.94046 6.45408 8.9177 6.34434 8.9177 6.23343C8.9177 6.12251 8.94046 6.01278 8.98457 5.91101C9.02867 5.80924 9.09318 5.7176 9.17412 5.64176Z" fill="#B8B8B8"/>
</svg>
