<svg width="18" height="18" viewBox="0 0 18 18" fill="none" xmlns="http://www.w3.org/2000/svg">
<path d="M6.91602 12.7498L12.7493 8.99984L6.91602 5.24984V12.7498ZM8.99935 17.3332C7.84657 17.3332 6.76324 17.1143 5.74935 16.6765C4.73546 16.2393 3.85352 15.6457 3.10352 14.8957C2.35352 14.1457 1.7599 13.2637 1.32268 12.2498C0.884905 11.2359 0.666016 10.1526 0.666016 8.99984C0.666016 7.84706 0.884905 6.76373 1.32268 5.74984C1.7599 4.73595 2.35352 3.854 3.10352 3.104C3.85352 2.354 4.73546 1.76011 5.74935 1.32234C6.76324 0.885115 7.84657 0.666504 8.99935 0.666504C10.1521 0.666504 11.2355 0.885115 12.2493 1.32234C13.2632 1.76011 14.1452 2.354 14.8952 3.104C15.6452 3.854 16.2388 4.73595 16.676 5.74984C17.1138 6.76373 17.3327 7.84706 17.3327 8.99984C17.3327 10.1526 17.1138 11.2359 16.676 12.2498C16.2388 13.2637 15.6452 14.1457 14.8952 14.8957C14.1452 15.6457 13.2632 16.2393 12.2493 16.6765C11.2355 17.1143 10.1521 17.3332 8.99935 17.3332ZM8.99935 15.6665C10.8605 15.6665 12.4368 15.0207 13.7285 13.729C15.0202 12.4373 15.666 10.8609 15.666 8.99984C15.666 7.13873 15.0202 5.56234 13.7285 4.27067C12.4368 2.979 10.8605 2.33317 8.99935 2.33317C7.13824 2.33317 5.56185 2.979 4.27018 4.27067C2.97852 5.56234 2.33268 7.13873 2.33268 8.99984C2.33268 10.8609 2.97852 12.4373 4.27018 13.729C5.56185 15.0207 7.13824 15.6665 8.99935 15.6665Z" fill="#B8B8B8"/>
</svg>
