<svg width="35" height="22" viewBox="0 0 35 22" fill="none" xmlns="http://www.w3.org/2000/svg">
<path fill-rule="evenodd" clip-rule="evenodd" d="M34.131 2.87355C34.131 1.27107 33.2982 0.476074 31.6827 0.476074H3.2157C2.40822 0.476074 1.81509 0.690605 1.42383 1.13215C0.982288 1.57388 0.767578 2.14168 0.767578 2.87355V19.1262C0.767578 19.8581 0.982288 20.4132 1.42383 20.8674C1.87822 21.3092 2.45868 21.5237 3.2157 21.5237H31.6827C33.2982 21.5237 34.131 20.7164 34.131 19.1264V2.87355ZM31.6827 0.854669C33.0202 0.854669 33.7018 1.53607 33.7018 2.87355V19.1262C33.7018 20.4762 33.0202 21.1449 31.6827 21.1449H3.2157C2.5721 21.1449 2.08009 20.9557 1.71416 20.5771C1.33556 20.211 1.14635 19.7063 1.14635 19.126V2.87355C1.14635 1.53607 1.81509 0.854669 3.2157 0.854669H31.6827Z" fill="#315881"/>
<path fill-rule="evenodd" clip-rule="evenodd" d="M3.44301 1.78809C2.90053 1.78809 2.55974 1.87636 2.37054 2.06575C2.20647 2.28028 2.13086 2.63355 2.13086 3.15089V6.67131H32.7684V3.15089C32.7684 2.22981 32.3138 1.78809 31.4054 1.78809H3.44301Z" fill="#315881"/>
<path fill-rule="evenodd" clip-rule="evenodd" d="M2.13086 18.7984C2.13086 19.7318 2.57241 20.2115 3.44301 20.2115H31.4054C32.3138 20.2115 32.7684 19.732 32.7684 18.7984V15.2778H2.13086V18.7984Z" fill="#DFA43B"/>
<path fill-rule="evenodd" clip-rule="evenodd" d="M12.2752 8.17293C12.2752 8.33699 12.2499 8.46307 12.1869 8.55152L9.97864 12.4002L9.83972 7.70606H6.30664L7.49272 8.27386C7.83333 8.48839 8.01005 8.76587 8.01005 9.11933L8.338 14.1038H10.0667L14.2058 7.70606H12.086C12.2121 7.81965 12.2752 7.9962 12.2752 8.17293ZM26.5594 7.89527L26.698 7.70588H24.5402C24.6158 7.78149 24.6411 7.81948 24.6411 7.84462C24.6156 7.94538 24.5652 8.00868 24.5402 8.0843L21.3982 13.813C21.3226 13.9139 21.2466 14.0024 21.1585 14.1035H22.9377L22.8493 13.9141C22.8493 13.75 22.9377 13.4474 23.1269 13.0183L23.5055 12.3116H25.3352C25.4112 12.9047 25.4616 13.3969 25.4868 13.763L25.3352 14.1037H27.5435L27.2153 13.6241L26.5594 7.89527ZM25.2469 11.4159H23.9346L25.0575 9.25807L25.2469 11.4159ZM19.7957 7.37793C19.1145 7.37793 18.5339 7.56732 18.0165 7.94573C17.4485 8.27386 17.1711 8.69026 17.1711 9.20778C17.1711 9.8009 17.3729 10.3182 17.7767 10.7093L19.0009 11.5546C19.4426 11.8702 19.6572 12.1477 19.6572 12.4002C19.6572 12.6399 19.5432 12.8545 19.329 13.0185C19.1145 13.1826 18.8745 13.2582 18.5718 13.2582C18.1301 13.2582 17.3731 12.9429 16.3258 12.3624V13.5359C17.1459 14.028 17.9411 14.2806 18.7106 14.2806C19.4426 14.2806 20.0609 14.0785 20.5911 13.6243C21.1589 13.2077 21.4364 12.7159 21.4364 12.1732C21.4364 11.7187 21.2343 11.3024 20.7801 10.8607L19.6063 10.0153C19.2156 9.69979 19.0009 9.42213 19.0009 9.20778C19.0009 8.71576 19.2911 8.46325 19.8842 8.46325C20.2879 8.46325 20.881 8.69044 21.6759 9.16997L21.9159 7.94591C21.2468 7.56714 20.5529 7.37793 19.7957 7.37793ZM15.1017 14.1037C15.0764 13.8387 15.0259 13.599 15.0006 13.3465L16.6033 8.17293L16.9819 7.70606H14.6727C14.698 7.81965 14.7231 7.97106 14.7484 8.08465C14.7484 8.19825 14.7484 8.33717 14.7231 8.46325L13.1206 13.5863L12.7925 14.1038L15.1017 14.1037Z" fill="#315881"/>
</svg>
