<svg width="14" height="14" viewBox="0 0 14 14" fill="none" xmlns="http://www.w3.org/2000/svg">
<path d="M12.5 0H7.82812C7.29688 0 6.79063 0.210625 6.41563 0.585938L0.915625 6.08437C0.134375 6.86562 0.134375 8.13437 0.915625 8.91562L5.08438 13.0844C5.86563 13.8656 7.13438 13.8656 7.91563 13.0844L13.4141 7.58438C13.7893 7.20938 14 6.70312 14 6.17188V1.5C14 0.671562 13.3284 0 12.5 0ZM10.5 4.5C9.94688 4.5 9.5 4.05312 9.5 3.5C9.5 2.94688 9.94688 2.5 10.5 2.5C11.0522 2.5 11.5 2.94688 11.5 3.5C11.5 4.05312 11.0522 4.5 10.5 4.5Z" fill="black"/>
</svg>
