<svg width="10" height="10" viewBox="0 0 10 10" fill="none" xmlns="http://www.w3.org/2000/svg">
<path d="M1.30556 9.75C1.01528 9.75 0.766694 9.64673 0.559806 9.4402C0.353268 9.23331 0.25 8.98472 0.25 8.69444V1.30556C0.25 1.01528 0.353268 0.766694 0.559806 0.559806C0.766694 0.353268 1.01528 0.25 1.30556 0.25H6.05556V2.88889H7.11111V3.94444H9.75V8.69444C9.75 8.98472 9.64673 9.23331 9.4402 9.4402C9.23331 9.64673 8.98472 9.75 8.69444 9.75H1.30556ZM1.83333 7.63889H8.16667L6.1875 5L4.60417 7.11111L3.41667 5.52778L1.83333 7.63889ZM7.63889 3.41667V2.36111H6.58333V1.30556H7.63889V0.25H8.69444V1.30556H9.75V2.36111H8.69444V3.41667H7.63889Z" fill="black"/>
</svg>
