<?xml version="1.0" encoding="UTF-8" standalone="no"?>
<!-- Uploaded to: SVG Repo, www.svgrepo.com, Generator: SVG Repo Mixer Tools -->

<svg
   width="800px"
   height="800px"
   viewBox="0 0 24 24"
   fill="none"
   version="1.1"
   id="svg116"
   sodipodi:docname="add-alert.svg"
   inkscape:version="1.2.2 (732a01da63, 2022-12-09)"
   xmlns:inkscape="http://www.inkscape.org/namespaces/inkscape"
   xmlns:sodipodi="http://sodipodi.sourceforge.net/DTD/sodipodi-0.dtd"
   xmlns="http://www.w3.org/2000/svg"
   xmlns:svg="http://www.w3.org/2000/svg">
  <defs
     id="defs120" />
  <sodipodi:namedview
     id="namedview118"
     pagecolor="#505050"
     bordercolor="#ffffff"
     borderopacity="1"
     inkscape:showpageshadow="0"
     inkscape:pageopacity="0"
     inkscape:pagecheckerboard="1"
     inkscape:deskcolor="#505050"
     showgrid="false"
     inkscape:zoom="1.06875"
     inkscape:cx="400.46784"
     inkscape:cy="400"
     inkscape:window-width="1920"
     inkscape:window-height="1058"
     inkscape:window-x="-8"
     inkscape:window-y="-8"
     inkscape:window-maximized="1"
     inkscape:current-layer="svg116" />
  <path
     style="fill:#ffffff;stroke-width:0.935673"
     d="m 182.76878,698.02974 c -43.54168,-7.90049 -76.71929,-43.58301 -81.6516,-87.81629 -1.393916,-12.50079 -1.393916,-407.92611 0,-420.42689 4.96783,-44.55188 38.26005,-80.13958 82.16328,-87.82841 11.79391,-2.065482 421.64517,-2.065482 433.43908,0 43.94738,7.69656 77.19045,43.23173 82.16328,87.82841 1.39391,12.50078 1.39391,407.9261 0,420.42689 -4.37158,39.2046 -30.29102,71.41382 -67.77171,84.2176 -15.26682,5.21529 -4.6603,4.99123 -231.93543,4.89971 -167.72824,-0.0676 -211.04404,-0.32795 -216.4069,-1.30102 z m 425.92352,-65.5459 c 6.44735,-1.65822 14.17591,-6.60711 17.85887,-11.43571 1.40762,-1.8455 3.52579,-5.70473 4.70702,-8.57606 l 2.14769,-5.22061 V 400 192.74854 l -2.14769,-5.22061 c -2.86808,-6.97173 -6.26957,-11.25016 -12.12777,-15.25449 -9.71359,-6.63965 6.1447,-6.19157 -219.13042,-6.19157 -223.86754,0 -209.12616,-0.388 -218.70141,5.75641 -5.55114,3.56216 -9.69005,8.71866 -12.51917,15.59713 l -2.1853,5.31313 V 400 607.25146 l 2.14769,5.22061 c 2.86699,6.96905 6.26773,11.24792 12.12777,15.25932 9.49342,6.49857 -6.26922,6.0571 218.69992,6.12516 179.95667,0.0545 204.1924,-0.10464 209.1228,-1.37271 z"
     id="path260"
     transform="scale(0.03)" />
  <path
     style="fill:none;stroke-width:0.935673"
     d="m 393.96051,565.55459 c -10.79448,-2.18586 -20.45141,-10.18431 -24.55349,-20.33669 -2.15054,-5.32245 -2.1562,-5.45934 -2.43224,-58.87311 l -0.27667,-53.53825 -54.01347,-0.26292 -54.01347,-0.26292 -6.19396,-3.04999 c -7.2088,-3.54973 -12.15787,-8.62339 -15.62559,-16.019 -2.05944,-4.39215 -2.46566,-6.57204 -2.46566,-13.23139 0,-7.10905 0.33046,-8.64414 3.05,-14.16831 3.54966,-7.21038 8.62213,-12.15874 16.019,-15.62706 l 5.25849,-2.46565 53.99233,-0.26292 53.99233,-0.26292 0.27667,-53.53825 0.27668,-53.53825 2.25743,-5.60714 c 6.62296,-16.4505 25.81221,-24.64769 42.64796,-18.21818 7.54826,2.88266 15.23545,10.52117 18.33426,18.21818 l 2.25743,5.60714 0.27668,53.53825 0.27667,53.53825 54.01347,0.26292 54.01347,0.26292 6.19396,3.04999 c 7.2088,3.54973 12.15786,8.62339 15.62559,16.019 2.05943,4.39215 2.46566,6.57204 2.46566,13.23139 0,7.10905 -0.33047,8.64414 -3.05,14.16831 -3.54966,7.21038 -8.62214,12.15874 -16.019,15.62706 l -5.25849,2.46565 -53.99233,0.26292 -53.99233,0.26292 -0.27667,53.53825 -0.27668,53.53825 -2.25743,5.60714 c -5.64768,14.02803 -21.99639,23.00756 -36.5306,20.06441 z"
     id="path262"
     transform="scale(0.03)" />
  <path
     style="fill:#ffffff;stroke-width:0.935673"
     d="m 373.33333,632.98246 -181.9883,-0.46784 -4.90593,-2.58564 c -2.69826,-1.42211 -5.22457,-2.66894 -5.61403,-2.77074 -1.45593,-0.38057 -8.74449,-9.66318 -10.60486,-13.50618 -1.06208,-2.19398 -2.31397,-6.63691 -2.78197,-9.87319 -1.1107,-7.68068 -1.12796,-399.75872 -0.0179,-407.43092 0.45814,-3.16652 1.69303,-7.7016 2.74421,-10.07794 1.05117,-2.37635 1.82575,-4.4414 1.7213,-4.58899 -0.60852,-0.85986 10.83122,-9.71005 15.19952,-11.75889 l 5.19536,-2.43675 h 207.73901 207.739 l 6.2351,3.06954 c 7.58481,3.73402 13.81157,10.31638 16.83309,17.79443 l 2.15556,5.33486 0.26004,201.63743 c 0.17831,138.2652 -0.051,203.69592 -0.72948,208.18713 -1.86232,12.32691 -8.50793,21.37136 -19.48364,26.51658 -5.26025,2.46591 -5.55594,2.49366 -31.50891,2.95711 -14.40936,0.25731 -108.09357,0.25731 -208.18714,0 z M 405.63848,566.466 c 14.54901,-2.68953 24.80465,-12.94518 27.49419,-27.49418 0.65364,-3.53591 1.01938,-23.40221 1.01938,-55.3719 v -49.85757 l 54.03508,-0.26299 54.03509,-0.26299 5.34978,-2.62707 c 7.02866,-3.45151 12.86119,-9.24287 16.24085,-16.12623 2.44213,-4.97391 2.73686,-6.5314 2.73686,-14.46307 0,-7.93167 -0.29473,-9.48916 -2.73686,-14.46307 -3.37966,-6.88336 -9.21219,-12.67472 -16.24085,-16.12623 l -5.34978,-2.62707 -54.03509,-0.26299 -54.03508,-0.26299 v -49.85757 c 0,-31.96969 -0.36574,-51.83599 -1.01938,-55.3719 -2.69783,-14.59384 -13.00302,-24.86087 -27.61231,-27.51004 -13.98614,-2.53617 -28.95363,4.86652 -35.34621,17.48168 -4.01172,7.91673 -4.3262,12.67081 -4.3262,65.40026 v 49.85757 l -54.03508,0.26299 -54.03509,0.26299 -5.37023,2.63708 c -6.84204,3.35982 -12.96036,9.47813 -16.32018,16.32017 -2.33041,4.74572 -2.63708,6.40394 -2.63708,14.25912 0,7.85518 0.30667,9.5134 2.63708,14.25912 3.35982,6.84204 9.47814,12.96035 16.32018,16.32017 l 5.37023,2.63708 54.03509,0.26299 54.03508,0.26299 v 49.85757 c 0,31.96969 0.36574,51.83599 1.01938,55.3719 2.61147,14.12674 12.20049,24.1187 26.11513,27.21251 6.6497,1.47851 6.23201,1.46921 12.65602,0.28167 z"
     id="path402"
     transform="scale(0.03)" />
  <path
     style="fill:none;stroke-width:0.935673"
     d="m 393.96051,565.55459 c -10.79448,-2.18586 -20.45141,-10.18431 -24.55349,-20.33669 -2.15054,-5.32245 -2.1562,-5.45934 -2.43224,-58.87311 l -0.27667,-53.53825 -54.01347,-0.26292 -54.01347,-0.26292 -6.19396,-3.04999 c -7.2088,-3.54973 -12.15787,-8.62339 -15.62559,-16.019 -2.05944,-4.39215 -2.46566,-6.57204 -2.46566,-13.23139 0,-7.10905 0.33046,-8.64414 3.05,-14.16831 3.54966,-7.21038 8.62213,-12.15874 16.019,-15.62706 l 5.25849,-2.46565 53.99233,-0.26292 53.99233,-0.26292 0.27667,-53.53825 0.27668,-53.53825 2.25743,-5.60714 c 6.62296,-16.4505 25.81221,-24.64769 42.64796,-18.21818 7.54826,2.88266 15.23545,10.52117 18.33426,18.21818 l 2.25743,5.60714 0.27668,53.53825 0.27667,53.53825 54.01347,0.26292 54.01347,0.26292 6.19396,3.04999 c 7.2088,3.54973 12.15786,8.62339 15.62559,16.019 2.05943,4.39215 2.46566,6.57204 2.46566,13.23139 0,7.10905 -0.33047,8.64414 -3.05,14.16831 -3.54966,7.21038 -8.62214,12.15874 -16.019,15.62706 l -5.25849,2.46565 -53.99233,0.26292 -53.99233,0.26292 -0.27667,53.53825 -0.27668,53.53825 -2.25743,5.60714 c -5.64768,14.02803 -21.99639,23.00756 -36.5306,20.06441 z"
     id="path458"
     transform="scale(0.03)" />
  <path
     style="fill:none;stroke-width:0.935673"
     d="m 393.96051,565.55459 c -10.79448,-2.18586 -20.45141,-10.18431 -24.55349,-20.33669 -2.15054,-5.32245 -2.1562,-5.45934 -2.43224,-58.87311 l -0.27667,-53.53825 -54.01347,-0.26292 -54.01347,-0.26292 -6.19396,-3.04999 c -7.2088,-3.54973 -12.15787,-8.62339 -15.62559,-16.019 -2.05944,-4.39215 -2.46566,-6.57204 -2.46566,-13.23139 0,-7.10905 0.33046,-8.64414 3.05,-14.16831 3.54966,-7.21038 8.62213,-12.15874 16.019,-15.62706 l 5.25849,-2.46565 53.99233,-0.26292 53.99233,-0.26292 0.27667,-53.53825 0.27668,-53.53825 2.25743,-5.60714 c 6.62296,-16.4505 25.81221,-24.64769 42.64796,-18.21818 7.54826,2.88266 15.23545,10.52117 18.33426,18.21818 l 2.25743,5.60714 0.27668,53.53825 0.27667,53.53825 54.01347,0.26292 54.01347,0.26292 6.19396,3.04999 c 7.2088,3.54973 12.15786,8.62339 15.62559,16.019 2.05943,4.39215 2.46566,6.57204 2.46566,13.23139 0,7.10905 -0.33047,8.64414 -3.05,14.16831 -3.54966,7.21038 -8.62214,12.15874 -16.019,15.62706 l -5.25849,2.46565 -53.99233,0.26292 -53.99233,0.26292 -0.27667,53.53825 -0.27668,53.53825 -2.25743,5.60714 c -5.64768,14.02803 -21.99639,23.00756 -36.5306,20.06441 z"
     id="path460"
     transform="scale(0.03)" />
  <path
     style="fill:#ffffff;stroke-width:0.935673"
     d="m 184.28322,697.52912 c -3.36937,-0.40127 -10.10621,-2.05935 -14.97076,-3.6846 -32.0177,-10.6972 -56.3479,-36.83043 -65.19484,-70.02622 l -2.42028,-9.08146 -0.81562,-107.36842 c -0.46371,-61.04286 -0.46371,-153.69398 0,-214.73684 l 0.81562,-107.36842 2.42028,-9.08146 c 9.29307,-34.86979 34.64464,-60.90565 69.65166,-71.53172 l 8.21902,-2.49481 108.83992,-0.93221 c 72.26458,-0.61893 145.52676,-0.61915 218.0117,-6.4e-4 l 109.17178,0.93156 8.32785,2.52699 c 34.87201,10.58152 60.31737,36.66403 69.48567,71.22556 l 2.48209,9.35673 0.75597,107.36842 c 0.41578,59.05263 0.41578,155.68421 0,214.73684 l -0.75597,107.36842 -2.48209,9.35673 c -8.14689,30.71114 -30.48747,56.06411 -59.71561,67.76762 -16.77063,6.71529 5.76659,6.10692 -231.89908,6.2599 -117.59065,0.0757 -216.55793,-0.19069 -219.92731,-0.59197 z m 429.68183,-66.5681 c 7.19838,-3.37447 13.24804,-9.18753 16.65323,-16.00192 l 2.83201,-5.66735 -0.009,-209.20728 -0.009,-209.20728 -2.26297,-4.86042 c -2.75194,-5.91064 -8.84795,-12.70002 -14.24054,-15.86029 -3.00175,-1.75915 -6.16237,-2.55231 -12.68539,-3.1834 -11.3741,-1.10042 -397.11213,-1.10042 -408.48622,0 -6.52934,0.63171 -9.66735,1.41988 -12.63158,3.17268 -5.34657,3.16151 -11.37378,9.48292 -10.45658,10.96698 0.4678,0.75692 0.33686,0.92802 -0.37399,0.48869 -0.70783,-0.43747 -1.91126,1.07988 -3.41029,4.29987 l -2.31603,4.97589 V 400 609.12281 l 2.26297,4.86042 c 2.759,5.9258 8.85116,12.70191 14.28049,15.88371 3.12339,1.83043 5.99618,2.52854 12.6854,3.08267 4.75618,0.39402 99.59496,0.66785 210.75286,0.60853 l 202.10526,-0.10785 z"
     id="path464"
     transform="scale(0.03)" />
  <path
     style="fill:#ffffff;stroke-width:0.935673"
     d="m 171.22807,622.05912 v -2.50228 l 2.33918,2.19755 c 2.8882,2.71332 2.8882,2.80701 0,2.80701 -1.912,0 -2.33918,-0.45696 -2.33918,-2.50228 z"
     id="path466"
     transform="scale(0.03)" />
  <path
     style="fill:#000000;stroke-width:0.935673"
     d="m 276.02339,632.09392 -85.61403,-0.51497 -4.73774,-2.50042 c -8.25667,-4.35758 -15.23938,-13.78099 -17.21378,-23.23058 -0.79596,-3.80953 -1.00114,-58.00527 -0.78993,-208.65497 l 0.28531,-203.50877 2.29177,-6.32429 c 1.98198,-5.4694 3.01426,-6.89191 7.63648,-10.52333 2.93958,-2.30947 7.44311,-5.25301 10.00785,-6.54121 l 4.66315,-2.34216 h 207.37618 207.37617 l 5.61504,2.83446 c 7.95017,4.01323 12.50736,8.51325 16.30119,16.09667 l 3.29357,6.58345 v 204.12215 c 0,226.83965 0.47419,210.37817 -6.34952,220.42175 -3.80602,5.60194 -11.41765,11.32961 -17.51013,13.17618 -4.2872,1.29941 -185.2753,1.7924 -332.63158,0.90604 z m 137.93233,-67.72671 c 7.17088,-3.28292 13.09872,-9.10678 16.68762,-16.3949 l 3.04087,-6.17519 0.26982,-53.46636 0.26982,-53.46636 4.30522,-0.5901 c 2.36787,-0.32455 26.78677,-0.59009 54.2642,-0.59009 h 49.959 l 4.7715,-2.4179 c 6.34759,-3.21657 12.93533,-9.51293 16.29187,-15.57127 2.57707,-4.65144 2.73407,-5.5527 2.73407,-15.69504 0,-10.14234 -0.157,-11.0436 -2.73407,-15.69504 -3.35654,-6.05834 -9.94428,-12.3547 -16.29187,-15.57127 l -4.7715,-2.4179 h -49.959 c -27.47743,0 -51.89633,-0.26554 -54.2642,-0.59009 l -4.30522,-0.5901 -0.26982,-53.44499 -0.26982,-53.445 -2.48927,-5.31007 c -3.48517,-7.43452 -9.23464,-13.3071 -16.55764,-16.91221 -5.59661,-2.7552 -6.96987,-3.03949 -14.61762,-3.02616 -7.14516,0.0125 -9.25578,0.39453 -13.75081,2.48927 -10.67005,4.97236 -17.61153,13.95147 -19.42461,25.12658 -0.5959,3.67287 -0.98495,25.41459 -0.98924,55.2832 l -0.007,49.22953 -4.34112,0.59503 c -2.3872,0.32725 -26.82225,0.59501 -54.29968,0.59501 h -49.959 l -4.80292,2.43382 c -5.81082,2.94457 -13.77456,10.70112 -16.78688,16.35015 -1.95176,3.66015 -2.20764,5.38719 -2.20764,14.90024 0,9.51305 0.25588,11.24009 2.20764,14.90024 3.01232,5.64903 10.97606,13.40558 16.78688,16.35015 l 4.80292,2.43382 h 49.959 c 27.47743,0 51.89633,0.26554 54.2642,0.59009 l 4.30522,0.5901 0.26982,53.44499 0.26982,53.445 2.46566,5.25848 c 4.45981,9.51145 12.53247,16.49259 22.26356,19.25326 6.31751,1.79226 16.73394,0.92891 22.91071,-1.89892 z"
     id="path468"
     transform="scale(0.03)" />
  <path
     style="fill:#000000;stroke-width:0.935673"
     d="m 226.43275,631.17155 c -33.62143,-0.48057 -37.24651,-0.68494 -40.14203,-2.26318 -5.13169,-2.79707 -12.17507,-10.5045 -14.88658,-16.29009 l -2.51525,-5.36682 -0.24217,-206.66493 -0.24216,-206.66495 1.93697,-5.26488 c 1.06534,-2.89569 2.648,-6.12288 3.51702,-7.17155 2.24028,-2.70338 11.1564,-9.21928 15.81178,-11.55526 l 3.93933,-1.97667 h 206.60655 206.60655 l 7.10589,4.15962 c 8.2701,4.84113 10.92534,7.71869 15.50486,16.80307 l 3.3471,6.63965 -0.66141,199.29824 c -0.36377,109.61404 -1.02801,202.96681 -1.47609,207.4506 -0.44809,4.4838 -1.51045,9.61853 -2.3608,11.41051 -2.29881,4.84438 -10.28287,12.356 -16.24554,15.28424 l -5.25314,2.5798 -171.69591,0.0604 c -94.43275,0.0332 -188.32749,-0.17729 -208.65497,-0.46783 z m 188.15392,-66.66482 c 6.35579,-2.90978 12.696,-9.1851 16.48428,-16.31558 l 2.92262,-5.50109 0.31315,-53.0531 c 0.19908,-33.72563 0.65403,-53.38114 1.24884,-53.95354 0.56033,-0.53925 22.51739,-1.16849 54.73684,-1.56866 l 53.80117,-0.66821 4.34817,-2.18733 c 6.06123,-3.04907 13.52076,-10.61574 16.25463,-16.48808 1.98646,-4.26688 2.30289,-6.29656 2.30289,-14.77114 0,-8.47458 -0.31643,-10.50426 -2.30289,-14.77114 -2.73387,-5.87234 -10.1934,-13.43901 -16.25463,-16.48808 l -4.34817,-2.18733 -53.80117,-0.66821 c -32.21945,-0.40017 -54.17651,-1.02941 -54.73684,-1.56866 -0.59461,-0.57222 -1.05243,-20.22551 -1.256,-53.91745 l -0.3203,-53.01702 -2.77293,-5.49312 c -3.38007,-6.69587 -8.93111,-12.36108 -15.7751,-16.09952 -4.82821,-2.63734 -5.76098,-2.80701 -15.43123,-2.80701 -9.04221,0 -10.80384,0.27084 -14.50292,2.22977 -6.42901,3.40462 -10.74869,7.15174 -13.89271,12.05127 -5.61178,8.74521 -5.75642,10.41153 -5.75642,66.32032 0,47.5138 -0.10394,50.76468 -1.63742,51.20967 -0.90059,0.26132 -25.63743,0.75812 -54.97076,1.10399 l -53.33334,0.62885 -4.49982,2.41276 c -6.12416,3.2837 -15.8223,13.70492 -17.27915,18.56744 -1.47686,4.92932 -1.47686,20.05762 0,24.98694 1.45666,4.8619 11.15412,15.28291 17.27915,18.56841 l 4.49982,2.41372 53.80117,0.65368 c 32.24592,0.3918 54.17605,1.0145 54.73684,1.55425 0.5945,0.57219 1.05443,20.23935 1.26136,53.93676 0.3136,51.06993 0.396,53.17559 2.22275,56.79568 4.95506,9.81952 10.96653,15.60204 20.02412,19.26148 6.55964,2.65022 19.53362,2.07994 26.634,-1.17072 z"
     id="path470"
     transform="scale(0.03)" />
  <path
     style="fill:#ffffff;stroke-width:0.935673"
     d="m 226.35769,631.17233 -37.03412,-0.52906 -4.55549,-2.81747 c -5.86491,-3.62734 -11.87658,-11.03537 -14.37566,-17.71477 l -1.97137,-5.26895 4.7e-4,-205.57893 c 4.8e-4,-205.23888 0.004,-205.58732 1.92592,-210.64488 1.059,-2.78627 2.47826,-5.8552 3.15392,-6.81983 1.71915,-2.45443 10.44067,-8.88678 15.7073,-11.58455 l 4.41334,-2.26067 h 206.44984 206.44984 l 5.46836,2.91461 c 8.56134,4.56314 12.39979,8.42093 16.80648,16.89114 l 4.00646,7.70091 -0.6814,199.69458 c -0.37476,109.83202 -1.04361,203.20541 -1.48633,207.49644 -0.44272,4.29102 -1.50111,9.26892 -2.35198,11.062 -2.14818,4.52694 -9.7158,11.85599 -15.61869,15.12629 l -4.94528,2.73976 -172.16374,0.0612 c -94.69006,0.0337 -188.8291,-0.17686 -209.19787,-0.46784 z m 188.51832,-66.87447 c 6.40422,-3.13328 12.5848,-9.31029 16.28486,-16.27542 l 2.8327,-5.33238 0.31315,-53.0531 c 0.19908,-33.72563 0.65403,-53.38114 1.24884,-53.95354 0.56071,-0.53961 22.49597,-1.16241 54.73684,-1.55414 l 53.80117,-0.65368 4.62352,-2.4688 c 6.21855,-3.32048 13.37012,-10.63332 16.0708,-16.43319 1.88278,-4.04338 2.21137,-6.20888 2.21137,-14.57361 0,-8.36473 -0.32859,-10.53023 -2.21137,-14.57361 -2.70068,-5.79987 -9.85225,-13.11271 -16.0708,-16.43319 l -4.62352,-2.4688 -53.80117,-0.65368 c -32.24087,-0.39173 -54.17613,-1.01453 -54.73684,-1.55414 -0.59481,-0.5724 -1.04976,-20.22791 -1.24884,-53.95354 l -0.31315,-53.0531 -2.92262,-5.50109 c -3.60315,-6.78202 -9.04433,-12.3313 -15.70732,-16.01938 -4.77209,-2.64143 -5.67835,-2.80701 -15.36363,-2.80701 -9.68528,0 -10.59154,0.16558 -15.36363,2.80701 -9.87402,5.46545 -15.88415,13.47931 -17.8388,23.78614 -0.56786,2.9943 -0.94962,25.05478 -0.94962,54.87501 0,46.68828 -0.1044,49.89801 -1.63742,50.34287 -0.90059,0.26132 -25.63743,0.76417 -54.97076,1.11743 -50.75966,0.61132 -53.51193,0.73253 -57.0343,2.512 -5.4535,2.75505 -14.1553,11.48254 -16.85959,16.90934 -2.08083,4.17567 -2.36342,5.9295 -2.36342,14.66774 0,8.73824 0.28259,10.49207 2.36342,14.66774 2.70389,5.42601 11.40499,14.15328 16.85959,16.91029 3.52276,1.78058 6.29154,1.90277 57.50213,2.5378 32.22774,0.39962 54.17636,1.02826 54.73684,1.56773 0.59566,0.57334 1.02487,19.66953 1.18114,52.55005 0.14567,30.64908 0.62535,53.03892 1.17978,55.06683 2.4396,8.92327 11.53641,18.47268 21.41227,22.47759 6.53216,2.64895 19.71481,1.91701 26.65838,-1.48017 z"
     id="path472"
     transform="scale(0.03)" />
  <path
     style="fill:#ffffff;stroke-width:0.935673"
     d="m 204.41622,630.21884 -15.93466,-0.51124 -4.76983,-3.50461 c -5.92214,-4.35128 -9.01555,-8.35363 -12.68646,-16.4142 l -2.86002,-6.28002 0.66241,-203.97661 c 0.40134,-123.58451 1.01491,-205.58153 1.55678,-208.04874 1.79459,-8.17092 5.3711,-12.29168 16.70704,-19.24941 l 6.97451,-4.28079 h 205.80107 205.80106 l 6.11183,3.41793 c 7.74914,4.33357 12.78262,9.55214 17.23357,17.86732 l 3.51645,6.56935 -0.96919,201.97913 c -0.61765,128.7179 -1.31764,204.17489 -1.92984,208.03278 -0.52835,3.32951 -1.75433,7.32951 -2.72439,8.88889 -2.48978,4.00232 -9.02169,10.10428 -14.45816,13.50647 l -4.62763,2.89602 -193.73494,-0.19051 C 307.5316,630.81582 213.18028,630.50003 204.41622,630.21884 Z M 414.75193,564.915 c 5.67988,-2.56781 13.81963,-10.68234 16.98857,-16.93594 l 2.45611,-4.8469 0.6797,-53.24272 c 0.37383,-29.2835 0.92587,-53.48889 1.22674,-53.78976 0.30087,-0.30087 24.81135,-0.95085 54.46773,-1.4444 52.41299,-0.87227 54.03094,-0.95361 57.86362,-2.90888 5.71257,-2.91434 13.47701,-10.63908 16.21359,-16.13068 2.12642,-4.26717 2.36955,-5.86946 2.36955,-15.61572 0,-9.74626 -0.24313,-11.34855 -2.36955,-15.61572 -2.73661,-5.49166 -10.50104,-13.21635 -16.21374,-16.13074 -3.8317,-1.9548 -5.45323,-2.03673 -57.41943,-2.90136 -35.23703,-0.58629 -53.81453,-1.2278 -54.46783,-1.88087 -0.65824,-0.65803 -1.21842,-18.7348 -1.66686,-53.7893 l -0.67541,-52.79818 -2.44424,-4.82347 c -3.46746,-6.84268 -10.0044,-13.43413 -16.58348,-16.72174 -5.172,-2.58448 -6.45211,-2.82322 -15.09253,-2.81486 -8.03144,0.008 -10.17294,0.34982 -14.34171,2.29069 -7.06478,3.28916 -13.53829,9.74069 -16.71901,16.66222 l -2.68063,5.83327 -0.79933,52.8655 c -0.43962,29.07602 -1.11648,53.19936 -1.50413,53.60742 -0.38764,0.40806 -24.39714,1.1414 -53.35445,1.62964 -29.49094,0.49725 -54.19859,1.30481 -56.17107,1.83594 -6.50942,1.7528 -17.11216,11.82165 -20.17987,19.16372 -1.84992,4.42747 -1.84992,22.74821 0,27.17568 3.05621,7.31455 13.66708,17.41001 20.1272,19.14954 1.90782,0.51372 27.19176,1.36088 56.18654,1.88259 28.99478,0.5217 52.9599,1.19067 53.25581,1.48658 0.29593,0.29592 0.8471,24.39557 1.22484,53.55477 l 0.68681,53.01673 2.85186,5.79298 c 3.27092,6.64415 9.72326,12.93892 17.08185,16.66467 4.54749,2.30246 5.58988,2.45377 14.71866,2.13666 7.52198,-0.26128 10.86973,-0.81378 14.28409,-2.35736 z"
     id="path474"
     transform="scale(0.03)" />
 
  <path
     style="fill:#ffffff;stroke-width:0.03"
     id="path710"
     d="M 5.0180547,4.9004094 C 4.843203,5.1224775 4.6590018,5.3369145 4.5066693,5.5754793 4.3915749,5.7569088 4.3505454,5.964948 4.322472,6.1743 4.300744,6.3201996 4.317692,6.4660188 4.350306,6.6086271 4.387682,6.7589133 4.42455,6.9092568 4.473384,7.0562856 4.517582,7.1935857 4.546131,7.335189 4.566576,7.4777688 c 0.029492,0.180945 0.041001,0.3636888 0.048627,0.5466159 0.00646,0.1857012 0.00639,0.3715725 0.00511,0.5573595 -0.00263,0.1728627 0.0017,0.3456852 3e-4,0.5185431 -0.00646,0.1934403 0.010906,0.3862977 0.018818,0.5793768 0.00921,0.2040957 0.00905,0.4084239 0.00759,0.6126689 -3e-5,0.177409 0.00301,0.35479 0.00209,0.532204 -0.0035,0.145515 -0.00349,0.29106 -0.00297,0.436608 0.00334,0.155873 0.00106,0.311778 -6.48e-4,0.467654 -9.66e-4,0.111073 -0.00135,0.222149 -0.00253,0.33322 -0.00121,0.0881 1.11e-5,0.176189 -7.05e-4,0.264289 -0.00178,0.09403 0.00264,0.188017 2.58e-5,0.282006 -0.00795,0.133809 -0.020967,0.267229 -0.031039,0.400873 -0.012807,0.193918 -0.024583,0.387752 -0.051688,0.580275 -0.027175,0.219087 -0.062704,0.436789 -0.098917,0.654501 -0.027182,0.14733 -0.033082,0.296971 -0.044092,0.445981 -0.020434,0.179633 -0.033692,0.359393 -0.040123,0.540018 -0.00152,0.178687 -0.016558,0.356735 -0.02547,0.535083 -0.00767,0.149055 -0.00714,0.298351 -0.011052,0.447536 0,0 0.8094261,0.413429 0.8094261,0.413429 v 0 c -9.3e-4,-0.148208 0.00221,-0.296282 0.00905,-0.444347 0.0094,-0.179365 0.022052,-0.358522 0.0219,-0.53822 0.00736,-0.178418 0.020229,-0.356622 0.044472,-0.533629 0.012444,-0.147579 0.020669,-0.295385 0.036986,-0.442623 0.028919,-0.219258 0.0642,-0.437667 0.093803,-0.656824 0.031728,-0.192603 0.049488,-0.386474 0.063232,-0.581163 0.012397,-0.133499 0.029357,-0.266418 0.037493,-0.400306 0.00794,-0.09465 0.00766,-0.189454 0.00674,-0.284396 -7.14e-4,-0.08834 4.98e-4,-0.176674 -7.05e-4,-0.265008 -0.00117,-0.111929 -0.00156,-0.223862 -0.00253,-0.335793 -0.00169,-0.156086 -0.004,-0.312202 -6.15e-4,-0.468283 5.73e-4,-0.146502 6.36e-4,-0.293002 -0.00269,-0.439475 -8.04e-4,-0.17712 0.00269,-0.354221 0.00103,-0.531333 -0.0042,-0.206358 -0.00932,-0.412696 -0.013989,-0.619043 -0.00654,-0.1911224 -0.015279,-0.3822044 -0.014781,-0.5734634 -0.0012,-0.1726899 0.00349,-0.345333 9.84e-4,-0.5180301 C 5.4281526,8.806893 5.4279096,8.619693 5.4236652,8.432544 5.4176607,8.2482405 5.4086046,8.0635389 5.382798,7.8808002 5.3665977,7.7336301 5.3428785,7.5872931 5.2980921,7.4457417 5.2557171,7.2981987 5.1985056,7.1547096 5.1714573,7.0029183 5.137836,6.8702115 5.115009,6.7323585 5.1265518,6.5951874 5.1436515,6.3963102 5.1803949,6.201381 5.2814727,6.0259536 5.4225243,5.7900999 5.5924644,5.5662666 5.7993105,5.3842881 c 0,0 -0.7812498,-0.4838787 -0.7812498,-0.4838787 z" />
  <path
     style="fill:#ffffff;stroke-width:0.03"
     id="path712"
     d="M 5.5970217,17.671725 C 5.4085437,17.409556 5.2915131,17.102446 5.195259,16.796482 5.155225,16.643167 5.114942,16.487175 5.107303,16.328056 c -0.00296,-0.06168 8.61e-4,-0.09928 0.00447,-0.160512 0.012367,-0.08769 0.00387,-0.04657 0.023972,-0.123639 0,0 -0.805317,-0.435532 -0.805317,-0.435532 v 0 c -0.021659,0.08968 -0.012516,0.04273 -0.02643,0.141053 -0.00396,0.05732 -0.00963,0.117522 -0.00717,0.175034 0.00721,0.168746 0.058207,0.332748 0.099338,0.495178 0.045777,0.144524 0.0598,0.196908 0.1161909,0.340526 0.072463,0.184551 0.1572216,0.364231 0.2362983,0.545967 0,0 0.8483706,0.365594 0.8483706,0.365594 z" />
</svg>
