<svg width="16" height="15" viewBox="0 0 16 15" fill="none" xmlns="http://www.w3.org/2000/svg">
<path d="M13.4167 1.62492H1.08333V0.083252H13.4167V1.62492ZM10.0944 7.79158H8.79167V9.09429C8.30604 9.82658 8.02083 10.6976 8.02083 11.6458C8.02083 11.9078 8.05167 12.1622 8.09021 12.4166H1.08333V7.79158H0.3125V6.24992L1.08333 2.39575H13.4167L14.1875 6.24992V7.29054C13.7019 7.12096 13.1854 7.02075 12.6458 7.02075C11.6977 7.02075 10.8267 7.30596 10.0944 7.79158ZM7.25 7.79158H2.625V10.8749H7.25V7.79158ZM12.615 6.24992L12.1525 3.93742H2.3475L1.885 6.24992H12.615ZM13.4167 10.8749V8.56242H11.875V10.8749H9.5625V12.4166H11.875V14.7291H13.4167V12.4166H15.7292V10.8749H13.4167Z" fill="black"/>
</svg>
