<svg width="34" height="34" viewBox="0 0 34 34" fill="none" xmlns="http://www.w3.org/2000/svg">
<path d="M15.1667 26.1667H18.8333V18.8333H26.1667V15.1667H18.8333V7.83333H15.1667V15.1667H7.83333V18.8333H15.1667V26.1667ZM4.16667 33.5C3.15833 33.5 2.29483 33.1413 1.57617 32.4238C0.858722 31.7052 0.5 30.8417 0.5 29.8333V4.16667C0.5 3.15833 0.858722 2.29483 1.57617 1.57617C2.29483 0.858722 3.15833 0.5 4.16667 0.5H29.8333C30.8417 0.5 31.7052 0.858722 32.4238 1.57617C33.1413 2.29483 33.5 3.15833 33.5 4.16667V29.8333C33.5 30.8417 33.1413 31.7052 32.4238 32.4238C31.7052 33.1413 30.8417 33.5 29.8333 33.5H4.16667Z" fill="white"/>
</svg>
