<svg width="24" height="24" viewBox="0 0 24 24" fill="none" xmlns="http://www.w3.org/2000/svg">
<circle cx="12" cy="12" r="12" fill="#FFEAB9"/>
<path d="M17.8327 16.6665H6.16602V15.4998H6.74935V11.4346C6.74935 8.52492 9.10018 6.1665 11.9993 6.1665C14.8985 6.1665 17.2493 8.52492 17.2493 11.4346V15.4998H17.8327V16.6665ZM7.91602 15.4998H16.0827V11.4346C16.0827 9.1695 14.2545 7.33317 11.9993 7.33317C9.74418 7.33317 7.91602 9.1695 7.91602 11.4346V15.4998ZM10.541 17.2498H13.4577C13.4577 17.6366 13.304 18.0075 13.0305 18.281C12.7571 18.5545 12.3861 18.7082 11.9993 18.7082C11.6126 18.7082 11.2416 18.5545 10.9682 18.281C10.6947 18.0075 10.541 17.6366 10.541 17.2498Z" fill="#F3B230"/>
</svg>
