<svg width="19" height="19" viewBox="0 0 19 19" fill="none" xmlns="http://www.w3.org/2000/svg">
<path d="M9.5 17.5C13.9183 17.5 17.5 13.9183 17.5 9.5C17.5 5.08172 13.9183 1.5 9.5 1.5C5.08172 1.5 1.5 5.08172 1.5 9.5C1.5 13.9183 5.08172 17.5 9.5 17.5Z" stroke="#FC624B" stroke-width="1.5" stroke-linecap="round" stroke-linejoin="round"/>
<path d="M7 8C7.55228 8 8 7.55228 8 7C8 6.44772 7.55228 6 7 6C6.44772 6 6 6.44772 6 7C6 7.55228 6.44772 8 7 8Z" fill="#FC614B"/>
<path d="M12 8C12.5523 8 13 7.55228 13 7C13 6.44772 12.5523 6 12 6C11.4477 6 11 6.44772 11 7C11 7.55228 11.4477 8 12 8Z" fill="#FC614B"/>
<path d="M6.5 12.5C7.103 11.167 8.103 10.5 9.5 10.5C10.897 10.5 11.897 11.167 12.5 12.5" stroke="#FC624B" stroke-width="1.5" stroke-linecap="round" stroke-linejoin="round"/>
</svg>
