<svg width="65" height="18" viewBox="0 0 65 18" fill="none" xmlns="http://www.w3.org/2000/svg">
<path d="M20.5909 12.1236C20.1733 12.1236 19.8011 12.0511 19.4744 11.9062C19.1477 11.7585 18.8892 11.5412 18.6989 11.2543C18.5114 10.9645 18.4176 10.6037 18.4176 10.1719C18.4176 9.80824 18.4844 9.50284 18.6179 9.25568C18.7514 9.00852 18.9332 8.80966 19.1634 8.65909C19.3935 8.50852 19.6548 8.39489 19.9474 8.31818C20.2429 8.24148 20.5526 8.1875 20.8764 8.15625C21.2571 8.11648 21.5639 8.07955 21.7969 8.04545C22.0298 8.00852 22.1989 7.95455 22.304 7.88352C22.4091 7.8125 22.4616 7.70739 22.4616 7.56818V7.54261C22.4616 7.27273 22.3764 7.06392 22.206 6.91619C22.0384 6.76847 21.7997 6.6946 21.4901 6.6946C21.1634 6.6946 20.9034 6.76705 20.7102 6.91193C20.517 7.05398 20.3892 7.23295 20.3267 7.44886L18.6477 7.3125C18.733 6.91477 18.9006 6.57102 19.1506 6.28125C19.4006 5.98864 19.723 5.7642 20.1179 5.60795C20.5156 5.44886 20.9759 5.36932 21.4986 5.36932C21.8622 5.36932 22.2102 5.41193 22.5426 5.49716C22.8778 5.58239 23.1747 5.71449 23.4332 5.89347C23.6946 6.07244 23.9006 6.30256 24.0511 6.58381C24.2017 6.86222 24.277 7.19602 24.277 7.58523V12H22.5554V11.0923H22.5043C22.3991 11.2969 22.2585 11.4773 22.0824 11.6335C21.9062 11.7869 21.6946 11.9077 21.4474 11.9957C21.2003 12.081 20.9148 12.1236 20.5909 12.1236ZM21.1108 10.8707C21.3778 10.8707 21.6136 10.8182 21.8182 10.7131C22.0227 10.6051 22.1832 10.4602 22.2997 10.2784C22.4162 10.0966 22.4744 9.89062 22.4744 9.66051V8.96591C22.4176 9.00284 22.3395 9.03693 22.2401 9.06818C22.1435 9.09659 22.0341 9.12358 21.9119 9.14915C21.7898 9.17187 21.6676 9.19318 21.5455 9.21307C21.4233 9.23011 21.3125 9.24574 21.2131 9.25994C21 9.29119 20.8139 9.34091 20.6548 9.40909C20.4957 9.47727 20.3722 9.5696 20.2841 9.68608C20.196 9.79972 20.152 9.94176 20.152 10.1122C20.152 10.3594 20.2415 10.5483 20.4205 10.679C20.6023 10.8068 20.8324 10.8707 21.1108 10.8707ZM27.5007 8.21591V12H25.6854V5.45455H27.4155V6.60938H27.4922C27.6371 6.22869 27.88 5.92756 28.2209 5.70597C28.5618 5.48153 28.9751 5.36932 29.4609 5.36932C29.9155 5.36932 30.3118 5.46875 30.6499 5.66761C30.9879 5.86648 31.2507 6.15057 31.4382 6.51989C31.6257 6.88636 31.7195 7.32386 31.7195 7.83239V12H29.9041V8.15625C29.907 7.75568 29.8047 7.44318 29.5973 7.21875C29.3899 6.99148 29.1044 6.87784 28.7408 6.87784C28.4964 6.87784 28.2805 6.9304 28.093 7.03551C27.9084 7.14062 27.7635 7.29403 27.6584 7.49574C27.5561 7.6946 27.5036 7.93466 27.5007 8.21591ZM36.6317 5.45455V6.81818H32.69V5.45455H36.6317ZM33.5849 3.88636H35.4002V9.98864C35.4002 10.1562 35.4258 10.2869 35.4769 10.3807C35.5281 10.4716 35.5991 10.5355 35.69 10.5724C35.7837 10.6094 35.8917 10.6278 36.0138 10.6278C36.0991 10.6278 36.1843 10.6207 36.2695 10.6065C36.3548 10.5895 36.4201 10.5767 36.4656 10.5682L36.7511 11.919C36.6602 11.9474 36.5323 11.9801 36.3675 12.017C36.2028 12.0568 36.0025 12.081 35.7667 12.0895C35.3292 12.1065 34.9457 12.0483 34.6161 11.9148C34.2894 11.7812 34.0352 11.5739 33.8533 11.2926C33.6715 11.0114 33.582 10.6562 33.5849 10.2273V3.88636ZM40.7269 12.1278C40.0536 12.1278 39.4741 11.9915 38.9883 11.7188C38.5053 11.4432 38.1332 11.054 37.8718 10.5511C37.6104 10.0455 37.4798 9.44744 37.4798 8.7571C37.4798 8.08381 37.6104 7.4929 37.8718 6.98438C38.1332 6.47585 38.5011 6.07955 38.9755 5.79545C39.4528 5.51136 40.0124 5.36932 40.6545 5.36932C41.0863 5.36932 41.4883 5.43892 41.8604 5.57812C42.2354 5.71449 42.5621 5.92045 42.8406 6.19602C43.1218 6.47159 43.3406 6.81818 43.4968 7.2358C43.6531 7.65057 43.7312 8.13636 43.7312 8.69318V9.19176H38.2042V8.06676H42.0224C42.0224 7.8054 41.9656 7.57386 41.8519 7.37216C41.7383 7.17045 41.5806 7.01278 41.3789 6.89915C41.18 6.78267 40.9485 6.72443 40.6843 6.72443C40.4087 6.72443 40.1644 6.78835 39.9513 6.91619C39.7411 7.04119 39.5763 7.21023 39.457 7.4233C39.3377 7.63352 39.2766 7.8679 39.2738 8.12642V9.19602C39.2738 9.51989 39.3335 9.79972 39.4528 10.0355C39.5749 10.2713 39.7468 10.4531 39.9684 10.581C40.19 10.7088 40.4528 10.7727 40.7567 10.7727C40.9585 10.7727 41.1431 10.7443 41.3107 10.6875C41.4783 10.6307 41.6218 10.5455 41.7411 10.4318C41.8604 10.3182 41.9513 10.179 42.0138 10.0142L43.6928 10.125C43.6076 10.5284 43.4329 10.8807 43.1687 11.1818C42.9073 11.4801 42.5692 11.7131 42.1545 11.8807C41.7425 12.0455 41.2667 12.1278 40.7269 12.1278ZM44.9158 12V5.45455H46.6758V6.59659H46.744C46.8633 6.19034 47.0636 5.88352 47.3448 5.67614C47.6261 5.46591 47.9499 5.3608 48.3164 5.3608C48.4073 5.3608 48.5053 5.36648 48.6104 5.37784C48.7156 5.3892 48.8079 5.40483 48.8874 5.42472V7.03551C48.8022 7.00994 48.6843 6.98722 48.5337 6.96733C48.3832 6.94744 48.2454 6.9375 48.1204 6.9375C47.8533 6.9375 47.6147 6.99574 47.4045 7.11222C47.1971 7.22585 47.0323 7.38494 46.9102 7.58949C46.7908 7.79403 46.7312 8.02983 46.7312 8.29688V12H44.9158ZM49.826 12V5.45455H51.6413V12H49.826ZM50.7379 4.6108C50.468 4.6108 50.2365 4.52131 50.0433 4.34233C49.853 4.16051 49.7578 3.94318 49.7578 3.69034C49.7578 3.44034 49.853 3.22585 50.0433 3.04688C50.2365 2.86506 50.468 2.77415 50.7379 2.77415C51.0078 2.77415 51.2379 2.86506 51.4283 3.04688C51.6214 3.22585 51.718 3.44034 51.718 3.69034C51.718 3.94318 51.6214 4.16051 51.4283 4.34233C51.2379 4.52131 51.0078 4.6108 50.7379 4.6108ZM56.0529 12.1278C55.391 12.1278 54.8185 11.9872 54.3356 11.706C53.8555 11.4219 53.4847 11.027 53.2234 10.5213C52.962 10.0128 52.8313 9.4233 52.8313 8.75284C52.8313 8.0767 52.962 7.4858 53.2234 6.98011C53.4847 6.47159 53.8555 6.0767 54.3356 5.79545C54.8185 5.51136 55.391 5.36932 56.0529 5.36932C56.7148 5.36932 57.2859 5.51136 57.766 5.79545C58.2489 6.0767 58.6211 6.47159 58.8825 6.98011C59.1438 7.4858 59.2745 8.0767 59.2745 8.75284C59.2745 9.4233 59.1438 10.0128 58.8825 10.5213C58.6211 11.027 58.2489 11.4219 57.766 11.706C57.2859 11.9872 56.7148 12.1278 56.0529 12.1278ZM56.0614 10.7216C56.3626 10.7216 56.614 10.6364 56.8157 10.4659C57.0174 10.2926 57.1694 10.0568 57.2717 9.75852C57.3768 9.46023 57.4293 9.12074 57.4293 8.74006C57.4293 8.35938 57.3768 8.01989 57.2717 7.72159C57.1694 7.4233 57.0174 7.1875 56.8157 7.0142C56.614 6.84091 56.3626 6.75426 56.0614 6.75426C55.7575 6.75426 55.5018 6.84091 55.2944 7.0142C55.0898 7.1875 54.935 7.4233 54.8299 7.72159C54.7276 8.01989 54.6765 8.35938 54.6765 8.74006C54.6765 9.12074 54.7276 9.46023 54.8299 9.75852C54.935 10.0568 55.0898 10.2926 55.2944 10.4659C55.5018 10.6364 55.7575 10.7216 56.0614 10.7216ZM60.4549 12V5.45455H62.2148V6.59659H62.283C62.4023 6.19034 62.6026 5.88352 62.8839 5.67614C63.1651 5.46591 63.489 5.3608 63.8555 5.3608C63.9464 5.3608 64.0444 5.36648 64.1495 5.37784C64.2546 5.3892 64.3469 5.40483 64.4265 5.42472V7.03551C64.3413 7.00994 64.2234 6.98722 64.0728 6.96733C63.9222 6.94744 63.7844 6.9375 63.6594 6.9375C63.3924 6.9375 63.1538 6.99574 62.9435 7.11222C62.7362 7.22585 62.5714 7.38494 62.4492 7.58949C62.3299 7.79403 62.2702 8.02983 62.2702 8.29688V12H60.4549Z" fill="#BEBEBE"/>
<path d="M11.25 13.5L6.75 9L11.25 4.5" stroke="#BEBEBE" stroke-width="2" stroke-linecap="round" stroke-linejoin="round"/>
</svg>
