<svg width="18" height="18" viewBox="0 0 18 18" fill="none" xmlns="http://www.w3.org/2000/svg">
<rect x="18" y="18.0001" width="18" height="18" rx="9" transform="rotate(-180 18 18.0001)" fill="#D7F3DC"/>
<g clip-path="url(#clip0_1_1696)">
<path fill-rule="evenodd" clip-rule="evenodd" d="M12.9714 9.8463C12.9424 9.8754 12.9079 9.89849 12.8699 9.91425C12.832 9.93 12.7913 9.93811 12.7502 9.93811C12.7091 9.93811 12.6684 9.93 12.6304 9.91425C12.5924 9.89849 12.558 9.8754 12.5289 9.8463L9.00017 6.31693L5.47143 9.8463C5.41275 9.90498 5.33316 9.93795 5.25018 9.93795C5.16719 9.93795 5.0876 9.90498 5.02892 9.8463C4.97025 9.78762 4.93728 9.70804 4.93728 9.62505C4.93728 9.54207 4.97025 9.46248 5.02892 9.4038L8.77892 5.6538C8.80795 5.6247 8.84244 5.60161 8.8804 5.58586C8.91837 5.5701 8.95907 5.56199 9.00017 5.56199C9.04128 5.56199 9.08198 5.5701 9.11995 5.58586C9.15791 5.60161 9.1924 5.6247 9.22143 5.6538L12.9714 9.4038C13.0005 9.43283 13.0236 9.46732 13.0394 9.50528C13.0551 9.54325 13.0632 9.58395 13.0632 9.62505C13.0632 9.66616 13.0551 9.70686 13.0394 9.74482C13.0236 9.78279 13.0005 9.81727 12.9714 9.8463Z" fill="#15BC5B"/>
<path fill-rule="evenodd" clip-rule="evenodd" d="M12.9714 12.3463C12.9424 12.3754 12.9079 12.3985 12.8699 12.4142C12.832 12.43 12.7913 12.4381 12.7502 12.4381C12.7091 12.4381 12.6684 12.43 12.6304 12.4142C12.5924 12.3985 12.558 12.3754 12.5289 12.3463L9.00017 8.81693L5.47143 12.3463C5.44237 12.3754 5.40788 12.3984 5.36992 12.4141C5.33195 12.4299 5.29127 12.4379 5.25018 12.4379C5.20909 12.4379 5.1684 12.4299 5.13044 12.4141C5.09247 12.3984 5.05798 12.3754 5.02892 12.3463C4.99987 12.3172 4.97682 12.2828 4.9611 12.2448C4.94537 12.2068 4.93728 12.1661 4.93728 12.1251C4.93728 12.084 4.94537 12.0433 4.9611 12.0053C4.97682 11.9673 4.99987 11.9329 5.02892 11.9038L8.77892 8.1538C8.80795 8.1247 8.84244 8.10161 8.8804 8.08586C8.91837 8.0701 8.95907 8.06199 9.00017 8.06199C9.04128 8.06199 9.08198 8.0701 9.11995 8.08586C9.15791 8.10161 9.1924 8.1247 9.22143 8.1538L12.9714 11.9038C13.0005 11.9328 13.0236 11.9673 13.0394 12.0053C13.0551 12.0432 13.0632 12.0839 13.0632 12.1251C13.0632 12.1662 13.0551 12.2069 13.0394 12.2448C13.0236 12.2828 13.0005 12.3173 12.9714 12.3463Z" fill="#15BC5B"/>
</g>
<defs>
<clipPath id="clip0_1_1696">
<rect width="10" height="10" fill="white" transform="translate(14.0001 14.0001) rotate(-180)"/>
</clipPath>
</defs>
</svg>
