<svg width="18" height="18" viewBox="0 0 18 18" fill="none" xmlns="http://www.w3.org/2000/svg">
<rect width="18" height="18" rx="9" fill="#F9DCDC"/>
<path fill-rule="evenodd" clip-rule="evenodd" d="M5.0287 8.1537C5.05773 8.1246 5.09221 8.10151 5.13018 8.08575C5.16814 8.07 5.20884 8.06189 5.24995 8.06189C5.29105 8.06189 5.33175 8.07 5.36972 8.08575C5.40769 8.10151 5.44217 8.1246 5.4712 8.1537L8.99995 11.6831L12.5287 8.1537C12.5874 8.09502 12.667 8.06205 12.7499 8.06205C12.8329 8.06205 12.9125 8.09502 12.9712 8.1537C13.0299 8.21238 13.0628 8.29196 13.0628 8.37495C13.0628 8.45793 13.0299 8.53752 12.9712 8.5962L9.2212 12.3462C9.19217 12.3753 9.15768 12.3984 9.11972 12.4141C9.08175 12.4299 9.04105 12.438 8.99995 12.438C8.95884 12.438 8.91814 12.4299 8.88018 12.4141C8.84221 12.3984 8.80773 12.3753 8.7787 12.3462L5.0287 8.5962C4.9996 8.56717 4.97651 8.53268 4.96075 8.49472C4.945 8.45675 4.93689 8.41605 4.93689 8.37495C4.93689 8.33384 4.945 8.29314 4.96075 8.25518C4.97651 8.21721 4.9996 8.18273 5.0287 8.1537Z" fill="#D80E0E"/>
<path fill-rule="evenodd" clip-rule="evenodd" d="M5.0287 5.6537C5.05773 5.6246 5.09221 5.60151 5.13018 5.58575C5.16814 5.57 5.20884 5.56189 5.24995 5.56189C5.29105 5.56189 5.33175 5.57 5.36972 5.58575C5.40769 5.60151 5.44217 5.6246 5.4712 5.6537L8.99995 9.18307L12.5287 5.6537C12.5578 5.62464 12.5922 5.6016 12.6302 5.58587C12.6682 5.57015 12.7089 5.56205 12.7499 5.56205C12.791 5.56205 12.8317 5.57015 12.8697 5.58587C12.9076 5.6016 12.9421 5.62464 12.9712 5.6537C13.0003 5.68275 13.0233 5.71725 13.039 5.75521C13.0547 5.79317 13.0628 5.83386 13.0628 5.87495C13.0628 5.91604 13.0547 5.95673 13.039 5.99469C13.0233 6.03265 13.0003 6.06714 12.9712 6.0962L9.2212 9.8462C9.19217 9.8753 9.15768 9.89839 9.11972 9.91414C9.08175 9.9299 9.04105 9.93801 8.99995 9.93801C8.95884 9.93801 8.91814 9.9299 8.88018 9.91414C8.84221 9.89839 8.80773 9.8753 8.7787 9.8462L5.0287 6.0962C4.9996 6.06717 4.97651 6.03269 4.96075 5.99472C4.945 5.95675 4.93689 5.91605 4.93689 5.87495C4.93689 5.83384 4.945 5.79314 4.96075 5.75518C4.97651 5.71721 4.9996 5.68273 5.0287 5.6537Z" fill="#D80E0E"/>
</svg>
