<svg xmlns="http://www.w3.org/2000/svg" width="25" height="25" viewBox="0 0 25 25"><path d="m23.83 20-1.73-.7a3.22 3.22 0 0 1-1.05-2.3c0-2.29-.05-6.22-.05-6.37V8.92A7.76 7.76 0 0 0 13.43 1h-1.86A7.76 7.76 0 0 0 4 8.92V17a3.19 3.19 0 0 1-1.06 2.31L1.17 20a.49.49 0 0 0-.31.55.5.5 0 0 0 .49.41h6.72c.31 1.69 2.17 3 4.43 3s4.12-1.31 4.43-3h6.72a.5.5 0 0 0 .49-.41.49.49 0 0 0-.31-.55zM12.5 23a3.43 3.43 0 0 1-3.43-2h6.86a3.43 3.43 0 0 1-3.43 2zm-8.84-3A4.21 4.21 0 0 0 5 17V8.92A6.76 6.76 0 0 1 11.57 2h1.86A6.76 6.76 0 0 1 20 8.92v1.73c0 .15 0 4.08.05 6.39a4.18 4.18 0 0 0 1.3 3z" style="fill:#000"/></svg>