<svg width="18" height="18" viewBox="0 0 18 18" fill="none" xmlns="http://www.w3.org/2000/svg">
<path fill-rule="evenodd" clip-rule="evenodd" d="M7.1595 15.1875C7.1595 15.3367 7.21876 15.4798 7.32425 15.5852C7.42974 15.6907 7.57282 15.75 7.722 15.75H15.1875C15.6351 15.75 16.0643 15.5722 16.3807 15.2557C16.6972 14.9393 16.875 14.5101 16.875 14.0625V2.8125C16.875 2.36495 16.6972 1.93572 16.3807 1.61926C16.0643 1.30279 15.6351 1.125 15.1875 1.125H3.9375C3.48995 1.125 3.06072 1.30279 2.74426 1.61926C2.42779 1.93572 2.25 2.36495 2.25 2.8125V10.278C2.25 10.4272 2.30926 10.5703 2.41475 10.6757C2.52024 10.7812 2.66332 10.8405 2.8125 10.8405C2.96168 10.8405 3.10476 10.7812 3.21025 10.6757C3.31574 10.5703 3.375 10.4272 3.375 10.278V2.8125C3.375 2.66332 3.43426 2.52024 3.53975 2.41475C3.64524 2.30926 3.78832 2.25 3.9375 2.25H15.1875C15.3367 2.25 15.4798 2.30926 15.5852 2.41475C15.6907 2.52024 15.75 2.66332 15.75 2.8125V14.0625C15.75 14.2117 15.6907 14.3548 15.5852 14.4602C15.4798 14.5657 15.3367 14.625 15.1875 14.625H7.722C7.57282 14.625 7.42974 14.6843 7.32425 14.7898C7.21876 14.8952 7.1595 15.0383 7.1595 15.1875Z" fill="white"/>
<path fill-rule="evenodd" clip-rule="evenodd" d="M12.375 6.1875C12.375 6.03832 12.3157 5.89524 12.2102 5.78975C12.1047 5.68426 11.9617 5.625 11.8125 5.625H6.18748C6.03829 5.625 5.89522 5.68426 5.78973 5.78975C5.68424 5.89524 5.62498 6.03832 5.62498 6.1875C5.62498 6.33668 5.68424 6.47976 5.78973 6.58525C5.89522 6.69074 6.03829 6.75 6.18748 6.75H10.4546L1.28923 15.9142C1.18361 16.0199 1.12427 16.1631 1.12427 16.3125C1.12427 16.4619 1.18361 16.6051 1.28923 16.7108C1.39485 16.8164 1.53811 16.8757 1.68748 16.8757C1.83685 16.8757 1.98011 16.8164 2.08573 16.7108L11.25 7.54537V11.8125C11.25 11.9617 11.3092 12.1048 11.4147 12.2102C11.5202 12.3157 11.6633 12.375 11.8125 12.375C11.9617 12.375 12.1047 12.3157 12.2102 12.2102C12.3157 12.1048 12.375 11.9617 12.375 11.8125V6.1875Z" fill="white"/>
</svg>
