<svg width="28" height="28" viewBox="0 0 28 28" fill="none" xmlns="http://www.w3.org/2000/svg">
<path fill-rule="evenodd" clip-rule="evenodd" d="M28 0H0V28H28V0ZM10.5 10.5C10.5 9.88116 10.7458 9.28767 11.1834 8.85008C11.621 8.4125 12.2145 8.16667 12.8333 8.16667H15.1667C15.6493 8.1666 16.12 8.3161 16.5142 8.5946C16.9083 8.8731 17.2065 9.26691 17.3676 9.72183C17.4747 10.0082 17.6899 10.2411 17.9669 10.3704C18.2439 10.4997 18.5607 10.5151 18.8489 10.4133C19.1372 10.3115 19.374 10.1006 19.5083 9.82594C19.6427 9.55131 19.6639 9.23492 19.5673 8.94483C19.2454 8.03491 18.6494 7.24712 17.8614 6.6899C17.0733 6.13269 16.1318 5.83343 15.1667 5.83333H12.8333C11.5957 5.83333 10.4087 6.325 9.5335 7.20017C8.65833 8.07534 8.16667 9.26232 8.16667 10.5C8.16667 11.7377 8.65833 12.9247 9.5335 13.7998C10.4087 14.675 11.5957 15.1667 12.8333 15.1667H15.1667C15.7855 15.1667 16.379 15.4125 16.8166 15.8501C17.2542 16.2877 17.5 16.8812 17.5 17.5C17.5 18.1188 17.2542 18.7123 16.8166 19.1499C16.379 19.5875 15.7855 19.8333 15.1667 19.8333H12.8333C12.3507 19.8334 11.88 19.6839 11.4858 19.4054C11.0917 19.1269 10.7935 18.7331 10.6324 18.2782C10.5253 17.9918 10.3101 17.7589 10.0331 17.6296C9.75607 17.5003 9.43935 17.4849 9.15107 17.5867C8.8628 17.6885 8.62601 17.8994 8.49166 18.1741C8.35731 18.4487 8.33612 18.7651 8.43267 19.0552C8.75455 19.9651 9.35056 20.7529 10.1386 21.3101C10.9267 21.8673 11.8682 22.1666 12.8333 22.1667H15.1667C16.4043 22.1667 17.5913 21.675 18.4665 20.7998C19.3417 19.9247 19.8333 18.7377 19.8333 17.5C19.8333 16.2623 19.3417 15.0753 18.4665 14.2002C17.5913 13.325 16.4043 12.8333 15.1667 12.8333H12.8333C12.2145 12.8333 11.621 12.5875 11.1834 12.1499C10.7458 11.7123 10.5 11.1188 10.5 10.5Z" fill="#37219A"/>
</svg>
