<svg width="364" height="25" viewBox="0 0 364 25" fill="none" xmlns="http://www.w3.org/2000/svg">
<path fill-rule="evenodd" clip-rule="evenodd" d="M20.9539 18.7354V15.3367H0V18.7354H20.9539Z" fill="#001C4E"/>
<path fill-rule="evenodd" clip-rule="evenodd" d="M2.69821 17.7616H2.58721V17.0847H1.63378V17.7616H1.52278V16.3326H1.63378V16.9926H2.58721V16.3326H2.69821V17.7616ZM4.5736 17.7616H4.46259V16.3326H4.5736V17.7616ZM6.44696 17.6693H7.15307V17.7616H6.33585V16.3326H6.44696V17.6693ZM9.48736 16.4246H8.86291V16.9674H9.42665V17.0595H8.86291V17.7616H8.7519V16.3326H9.48736V16.4246ZM11.2161 17.7616H11.1049V16.3326H11.2161V17.7616ZM14.1748 16.561C14.0008 16.4625 13.8394 16.4164 13.6677 16.4164C13.3052 16.4164 13.037 16.6846 13.037 17.0471C13.037 17.3675 13.2485 17.6778 13.6989 17.6778C13.8646 17.6778 13.9778 17.6463 14.091 17.5899V17.2042H13.7891V17.1122H14.202V17.6591C14.0322 17.7408 13.8605 17.7805 13.6949 17.7805C13.2508 17.7805 12.9177 17.4663 12.9177 17.043C12.9177 16.6239 13.2425 16.3139 13.6847 16.3139C13.8459 16.3139 13.9737 16.3451 14.175 16.4353V16.561H14.1748ZM16.7017 16.4246H16.0333V16.9968H16.6849V17.0889H16.0333V17.6693H16.7186V17.7616H15.9222V16.3326H16.7017V16.4246ZM18.4932 16.4246H18.7257C18.9878 16.4246 19.1029 16.5421 19.1029 16.7033C19.1029 16.8753 18.9814 16.9842 18.7299 16.9842H18.4932V16.4246ZM18.3823 16.3326V17.7616H18.4932V17.0764H18.686C18.8579 17.0764 18.9123 17.0994 19.0841 17.3698L19.3336 17.7616H19.4635L19.1408 17.2672C19.0736 17.1666 19.0171 17.0847 18.9501 17.0493C19.1323 16.9821 19.2225 16.8669 19.2225 16.7015C19.2225 16.5108 19.0988 16.3327 18.749 16.3327H18.3823V16.3326ZM0.0136719 8.39868V15.3366H10.4284V8.39868H0.0136719Z" fill="white"/>
<path fill-rule="evenodd" clip-rule="evenodd" d="M10.4287 15.3366H20.9538V15.9961H20.9556V8.39868H10.4287V15.3366Z" fill="#B81D37"/>
<path fill-rule="evenodd" clip-rule="evenodd" d="M20.956 8.39872V5H0.00195312V8.39872H20.956Z" fill="#001C4E"/>
<path fill-rule="evenodd" clip-rule="evenodd" d="M2.69054 6.1514H2.15412V7.48824H2.04301V6.1514H1.50659V6.0591H2.69054V6.1514ZM6.72424 6.77361C6.72424 7.1298 6.44769 7.40434 6.08937 7.40434C5.73105 7.40434 5.45024 7.1298 5.45024 6.77361C5.45024 6.41742 5.73093 6.143 6.08937 6.143C6.44757 6.143 6.72424 6.41742 6.72424 6.77361ZM6.84364 6.77361C6.84364 6.36287 6.51041 6.04028 6.08522 6.04028C5.66194 6.04028 5.33084 6.36298 5.33084 6.77361C5.33084 7.18424 5.66194 7.50694 6.08522 7.50694C6.51041 7.50705 6.84364 7.18435 6.84364 6.77361ZM10.9926 6.0591H11.1037V7.48824H10.9926V6.22039H10.9885L10.4478 6.88887L9.90723 6.22039H9.90297V7.48824H9.79185V6.0591H9.90297L10.4478 6.72343L10.9926 6.0591ZM15.311 6.0591H15.4221V7.48824H15.311V6.22039H15.3069L14.7663 6.88887L14.2258 6.22039H14.2216V7.48824H14.1105V6.0591H14.2216L14.7663 6.72343L15.311 6.0591ZM18.9341 6.7213V7.48824H18.823V6.7213L18.2678 6.0591H18.4018L18.8797 6.62486L19.3553 6.0591H19.4893L18.9341 6.7213Z" fill="white"/>
<path d="M66.9859 12.5413H67.4124C67.4124 13.014 67.4912 13.5587 67.6042 13.9698C67.7104 14.3466 67.9862 14.7011 68.2277 14.97C68.6782 15.4873 69.4643 15.7802 70.3241 15.7802C70.9424 15.7802 71.5162 15.5661 71.8982 15.2578C72.3024 14.9255 72.561 14.4476 72.561 13.8739C72.561 13.396 72.3589 12.9575 72.0883 12.6818C71.8125 12.406 71.2113 12.0018 70.5142 11.7312L69.514 11.3492C68.6713 11.0238 67.9297 10.522 67.558 10.0612C67.1863 9.59536 66.9397 8.91368 66.9397 8.2457C66.9397 7.29511 67.3268 6.51923 67.9845 5.95744C68.6422 5.40079 69.699 5.10277 70.9424 5.10277C72.3538 5.10277 73.3317 5.33913 74.2806 5.93517V8.39299H73.8987C73.8987 8.20116 73.849 8.01105 73.849 7.91513C73.849 7.77469 73.8045 7.6291 73.8045 7.53318C73.8045 7.43727 73.7086 7.34136 73.7086 7.24715C73.6126 7.01079 73.4671 6.70249 73.2821 6.43701C72.8265 5.76732 72.0403 5.39051 71.1788 5.39051C70.6102 5.39051 70.0552 5.57035 69.7007 5.86324C69.3187 6.17325 69.1338 6.67851 69.1338 7.20091C69.1338 7.62739 69.2742 8.03331 69.5157 8.29708C69.7743 8.58311 70.319 8.88799 70.9887 9.15689L71.8999 9.5337C72.8385 9.91565 73.6144 10.4158 74.0425 10.8714C74.4981 11.3492 74.7568 12.0121 74.7568 12.7777C74.7568 13.7334 74.3748 14.5984 73.6161 15.1619C72.8624 15.7236 71.8057 16.0662 70.5177 16.0662C69.8942 16.0662 69.0567 15.948 68.1335 15.7785C67.8081 15.7219 67.3747 15.6157 66.9859 15.453V12.5413ZM76.1304 12.5413H76.5569C76.5569 13.014 76.6357 13.5587 76.7487 13.9698C76.8549 14.3466 77.1307 14.7011 77.3722 14.97C77.8226 15.4873 78.6088 15.7802 79.4686 15.7802C80.0869 15.7802 80.6607 15.5661 81.0426 15.2578C81.4468 14.9255 81.7055 14.4476 81.7055 13.8739C81.7055 13.396 81.5034 12.9575 81.2327 12.6818C80.957 12.406 80.3558 12.0018 79.6587 11.7312L78.6585 11.3492C77.8158 11.0238 77.0741 10.522 76.7025 10.0612C76.3308 9.59536 76.0842 8.91368 76.0842 8.2457C76.0842 7.29511 76.4713 6.51923 77.1307 5.95744C77.7884 5.40079 78.8451 5.10277 80.0869 5.10277C81.4982 5.10277 82.4762 5.33913 83.4268 5.93517V8.39299H83.0449C83.0449 8.20116 82.9952 8.01105 82.9952 7.91513C82.9952 7.77469 82.9507 7.6291 82.9507 7.53318C82.9507 7.43727 82.8547 7.34136 82.8547 7.24715C82.7588 7.01079 82.6132 6.70249 82.4283 6.43701C81.9727 5.76732 81.1848 5.39051 80.325 5.39051C79.7563 5.39051 79.2014 5.57035 78.8469 5.86324C78.4649 6.17325 78.2799 6.67851 78.2799 7.20091C78.2799 7.62739 78.4204 8.03331 78.6619 8.29708C78.9205 8.58311 79.4652 8.88799 80.1349 9.15689L81.0461 9.5337C81.9847 9.91565 82.7605 10.4158 83.1887 10.8714C83.6443 11.3492 83.903 12.0121 83.903 12.7777C83.903 13.7334 83.521 14.5984 82.7623 15.1619C82.0086 15.7236 80.9519 16.0662 79.6639 16.0662C79.0404 16.0662 78.2029 15.948 77.2797 15.7785C76.9543 15.7219 76.5209 15.6157 76.1321 15.453L76.1304 12.5413ZM60.1194 5C61.5479 5 62.7897 5.42648 63.694 6.19209C64.8861 7.14267 65.5044 8.67046 65.5044 10.6727C65.5044 11.4366 65.3639 12.1508 65.1721 12.8205C64.9306 13.4833 64.5538 14.1085 64.1205 14.535C63.1699 15.5352 61.7877 16.0576 59.9722 16.0576C58.3073 16.0576 56.9697 15.5798 56.0653 14.6292C55.1096 13.6735 54.6369 12.245 54.6369 10.4809C54.6369 8.76638 55.1096 7.42871 56.0653 6.47812C57.0228 5.52239 58.405 5 60.1194 5ZM60.1246 5.28603C59.1689 5.28603 58.405 5.80329 57.9322 6.75901C57.5503 7.56915 57.3019 8.86229 57.3019 10.4809C57.3019 12.2467 57.5486 13.5724 57.9322 14.3825C58.3587 15.2937 59.0678 15.7648 59.979 15.7648C61.8905 15.7648 62.8342 14.0109 62.8342 10.5699C62.8342 8.75953 62.5978 7.42185 62.1713 6.61172C61.9795 6.22977 61.6421 5.90263 61.2602 5.65599C60.8885 5.41963 60.45 5.28432 60.0681 5.28432H60.1246V5.28603ZM49.9148 10.4911C50.9664 10.4911 51.8708 10.7275 52.4394 11.2054C53.0132 11.6387 53.2992 12.3015 53.2992 13.1117C53.2992 13.5895 53.1588 14.0674 52.9669 14.4493C52.7254 14.8313 52.3435 15.2132 51.9153 15.4051C51.5042 15.5746 51.0709 15.6877 50.6273 15.7373C50.1494 15.8333 49.4352 15.8778 48.5805 15.8778H43.9561V15.59H45.0968V5.48643H43.9561V5.20039H48.488C49.1509 5.20039 49.776 5.24493 50.2471 5.29631C51.0623 5.39222 51.7252 5.67312 52.203 6.10645C52.6809 6.53293 52.9173 7.15124 52.9173 7.87231C52.9173 8.8229 52.4908 9.53712 51.6806 9.96874C51.2987 10.1606 50.6804 10.3507 49.8651 10.3952L49.9148 10.4911ZM47.582 15.59H48.3013C48.7741 15.59 49.156 15.5455 49.4369 15.489C49.7366 15.3931 50.0021 15.215 50.2008 14.9717C50.5382 14.5435 50.7301 13.9252 50.7301 13.1613C50.7301 12.3512 50.5382 11.6781 50.2008 11.2944C50.009 11.1026 49.7743 10.9125 49.4934 10.8217C49.2006 10.7206 48.7295 10.6299 48.2448 10.6299H47.582V15.59ZM47.582 10.3507H48.2448C48.9197 10.3507 49.4934 10.1589 49.8189 9.77691C50.1563 9.39496 50.3481 8.77665 50.3481 7.90999C50.3481 7.24715 50.2025 6.62884 49.9662 6.24518C49.8206 5.9523 49.5842 5.76218 49.3479 5.67141C49.055 5.57035 48.6285 5.47958 48.1558 5.47958H47.582V10.3507ZM44.1051 19.1595V17.8098H44.2729V18.3716H44.982V17.8098H45.1499V19.1595H44.982V18.5292H44.2729V19.1595H44.1051ZM50.0021 17.8115H50.17V18.5925C50.17 18.7278 50.1529 18.8392 50.1254 18.9128C50.0912 18.9933 50.033 19.0601 49.9576 19.1047C49.8788 19.1543 49.7726 19.1834 49.6424 19.1834C49.5191 19.1834 49.4112 19.1612 49.3324 19.1218C49.2571 19.079 49.1971 19.0122 49.1646 18.9299C49.144 18.8854 49.132 18.8375 49.1252 18.7895C49.1183 18.7244 49.1149 18.6576 49.1132 18.5925V17.8115H49.2811V18.5925C49.2811 18.7107 49.293 18.8015 49.3085 18.8512C49.3307 18.9077 49.3701 18.9522 49.4266 18.9796C49.4832 19.0087 49.55 19.0241 49.6236 19.0241C49.7589 19.0241 49.8548 18.9967 49.9096 18.9402C49.9662 18.8837 49.9987 18.7604 49.9987 18.5908L50.0021 17.8115ZM54.7482 18.6319V18.4744H55.3168V18.9745C55.2278 19.0413 55.137 19.0978 55.0462 19.1321C54.9555 19.1663 54.8544 19.1834 54.7602 19.1834C54.6369 19.1852 54.517 19.1577 54.4057 19.1047C54.3012 19.0516 54.2173 18.9659 54.1642 18.8631C54.1076 18.7518 54.0785 18.6285 54.0802 18.5035C54.0802 18.3733 54.1076 18.25 54.159 18.1369C54.2155 18.0239 54.2943 17.94 54.3954 17.8834C54.4964 17.8269 54.6146 17.7995 54.7499 17.7995C54.8458 17.7995 54.9349 17.8166 55.0137 17.8441C55.0925 17.8783 55.1541 17.9228 55.1935 17.9794C55.2381 18.0359 55.2723 18.1078 55.2946 18.1986L55.137 18.238C55.1199 18.1763 55.0925 18.1198 55.0634 18.0856C55.0342 18.0513 54.9897 18.0188 54.9349 17.9948C54.8767 17.9691 54.8133 17.9571 54.7499 17.9554C54.6711 17.9554 54.5975 17.9674 54.5427 17.9896C54.4862 18.0119 54.4365 18.0462 54.3971 18.0907C54.3611 18.1301 54.3337 18.1763 54.3132 18.226C54.2789 18.3099 54.2618 18.399 54.2618 18.4898C54.2618 18.6079 54.284 18.709 54.3183 18.7878C54.3577 18.8666 54.4194 18.9334 54.4981 18.9676C54.5769 19.0019 54.666 19.0241 54.7568 19.0241C54.8304 19.0241 54.9092 19.007 54.976 18.9848C55.0497 18.9556 55.1113 18.918 55.1507 18.8837V18.6302L54.7482 18.6319ZM59.1826 18.5086C59.1826 18.2894 59.2442 18.1147 59.3573 17.9914C59.4754 17.868 59.633 17.7995 59.8231 17.7995C59.9465 17.7995 60.0595 17.8338 60.1554 17.8903C60.2513 17.9468 60.3301 18.0359 60.3798 18.1369C60.4363 18.238 60.4637 18.3613 60.4637 18.4966C60.4637 18.6319 60.4363 18.7552 60.3798 18.8563C60.3233 18.9625 60.2445 19.0481 60.1486 19.0978C60.0475 19.1543 59.9345 19.1817 59.8231 19.1817C59.705 19.1817 59.5885 19.1509 59.4857 19.0909C59.3864 19.0344 59.3076 18.9488 59.2614 18.8443C59.21 18.7415 59.1826 18.6268 59.1826 18.512V18.5086ZM59.3624 18.5137C59.3624 18.6713 59.4069 18.7946 59.4909 18.8854C59.5748 18.9762 59.6878 19.0259 59.8163 19.0259C59.9516 19.0259 60.0629 18.9813 60.1486 18.8906C60.2376 18.7998 60.2839 18.6645 60.2839 18.4966C60.2839 18.3904 60.2616 18.2945 60.2274 18.2157C60.1931 18.1369 60.1314 18.0684 60.0646 18.0239C59.9978 17.9794 59.9122 17.9571 59.8231 17.9571C59.6998 17.9571 59.5868 18.0016 59.4977 18.0856C59.4087 18.1695 59.3624 18.3168 59.3624 18.5137ZM67.4004 19.1595V17.8098H67.9006C68.0016 17.8098 68.0855 17.8269 68.1421 17.8492C68.2037 17.8766 68.2534 17.9228 68.2876 17.9776C68.3219 18.0342 68.3442 18.101 68.3442 18.1575C68.3442 18.214 68.327 18.2757 68.2996 18.3202C68.262 18.375 68.2123 18.4178 68.154 18.4487C68.2328 18.4709 68.2996 18.5103 68.3459 18.5668C68.3904 18.6234 68.4127 18.6953 68.4127 18.7689C68.4127 18.8306 68.3955 18.8923 68.3733 18.9436C68.3527 18.9933 68.3202 19.0379 68.2774 19.0738C68.238 19.1012 68.1815 19.1235 68.1249 19.1355C68.0684 19.1475 67.9896 19.1577 67.9057 19.1577L67.4004 19.1595ZM67.57 18.3836H67.8629C67.9417 18.3836 68.0033 18.3784 68.0376 18.3716C68.0787 18.3613 68.1164 18.3339 68.1386 18.2979C68.1506 18.2825 68.1609 18.2654 68.1677 18.2483C68.1729 18.226 68.178 18.2037 68.178 18.1815C68.178 18.1369 68.1677 18.0975 68.1455 18.0633C68.1232 18.029 68.089 18.0016 68.0496 17.9896C68.0102 17.9776 67.9382 17.9674 67.8423 17.9674H67.5717L67.57 18.3836ZM67.57 19.0019H67.9074C67.9639 19.0019 68.0085 18.9967 68.0307 18.9967C68.0701 18.9916 68.1095 18.9745 68.1318 18.9625C68.1643 18.9471 68.19 18.9214 68.2054 18.8888C68.2226 18.8546 68.2328 18.8152 68.2328 18.7707C68.2328 18.7261 68.2157 18.6816 68.1934 18.6473C68.1712 18.6131 68.1266 18.5805 68.0804 18.5686C68.0359 18.5514 67.9622 18.5411 67.8834 18.5411H67.5683V19.0019H67.57ZM72.4497 18.5086C72.4497 18.2894 72.5113 18.1147 72.6244 17.9914C72.7426 17.868 72.9001 17.7995 73.0902 17.7995C73.2136 17.7995 73.3266 17.8338 73.4225 17.8903C73.5184 17.9468 73.5972 18.0359 73.6486 18.1369C73.7051 18.238 73.7325 18.3613 73.7325 18.4966C73.7325 18.6319 73.7051 18.7552 73.6486 18.8563C73.5921 18.9625 73.5133 19.0481 73.4174 19.0978C73.3163 19.1543 73.2033 19.1817 73.092 19.1817C72.9738 19.1817 72.8573 19.1509 72.7545 19.0909C72.6552 19.0344 72.5764 18.9488 72.5302 18.8443C72.4788 18.7415 72.4514 18.6268 72.4514 18.512L72.4497 18.5086ZM72.6295 18.5137C72.6295 18.6713 72.674 18.7946 72.758 18.8854C72.8419 18.9762 72.9549 19.0259 73.0834 19.0259C73.2187 19.0259 73.3317 18.9813 73.4157 18.8906C73.5065 18.7998 73.551 18.6645 73.551 18.4966C73.551 18.3904 73.5287 18.2945 73.4945 18.2157C73.4602 18.1369 73.3985 18.0684 73.3317 18.0239C73.2649 17.9794 73.1793 17.9571 73.0902 17.9571C72.9669 17.9571 72.8539 18.0016 72.7648 18.0856C72.674 18.1712 72.6295 18.3168 72.6295 18.5137ZM77.7387 18.733L77.9083 18.721C77.9134 18.7826 77.9357 18.8392 77.9579 18.8786C77.9853 18.9231 78.0367 18.9625 78.0984 18.9848C78.1258 18.9967 78.16 19.0122 78.1943 19.0122C78.2285 19.0173 78.2679 19.0241 78.3005 19.0241C78.3673 19.0241 78.4289 19.0122 78.4803 18.9967C78.53 18.9796 78.5762 18.9522 78.5985 18.918C78.6208 18.8837 78.6379 18.8392 78.6379 18.7998C78.6379 18.7604 78.6259 18.721 78.6036 18.6936C78.5814 18.6593 78.5369 18.6319 78.4803 18.6097C78.4015 18.5857 78.3228 18.5651 78.244 18.548C78.1206 18.5206 78.0247 18.4863 77.9802 18.4641C77.9185 18.4298 77.8672 18.3853 77.8398 18.3408C77.8089 18.2894 77.7935 18.2311 77.7952 18.1712C77.7952 18.1044 77.8175 18.0427 77.8517 17.9862C77.886 17.9297 77.9477 17.88 78.0145 17.8509C78.0915 17.8166 78.1772 17.7995 78.2611 17.7995C78.357 17.7995 78.4461 17.8166 78.5197 17.8441C78.5985 17.8783 78.6602 17.928 78.6944 17.9914C78.7372 18.0513 78.7612 18.1249 78.7612 18.1986L78.5917 18.2157C78.5865 18.1318 78.5523 18.0633 78.5026 18.0239C78.4512 17.9794 78.3673 17.9571 78.2662 17.9571C78.1652 17.9571 78.0813 17.9794 78.0367 18.0136C77.9922 18.053 77.9631 18.1027 77.9631 18.1592C77.9631 18.2037 77.9802 18.25 78.0145 18.2774C78.0487 18.3065 78.1378 18.339 78.2782 18.3733C78.4187 18.4076 78.5197 18.435 78.5762 18.4572C78.655 18.4915 78.7167 18.5411 78.7509 18.5977C78.7629 18.6199 78.7784 18.6542 78.7903 18.6816C78.8023 18.7159 78.8075 18.7484 78.8075 18.7826C78.8075 18.8494 78.7852 18.9231 78.7458 18.9848C78.703 19.0481 78.643 19.0995 78.5711 19.1303C78.4872 19.1646 78.3981 19.1817 78.3073 19.1817C78.1892 19.1817 78.0813 19.1646 78.0042 19.1303C77.9271 19.0978 77.8603 19.043 77.8124 18.9728C77.7884 18.9368 77.7695 18.8991 77.7558 18.8597C77.7456 18.8203 77.7387 18.7758 77.7387 18.733ZM82.8325 18.733L83.002 18.721C83.0072 18.7826 83.0294 18.8392 83.0517 18.8786C83.0791 18.9231 83.1305 18.9625 83.1922 18.9848C83.2196 18.9967 83.2538 19.0122 83.2881 19.0122C83.3223 19.0173 83.3617 19.0241 83.3943 19.0241C83.4611 19.0241 83.5227 19.0122 83.5741 18.9967C83.6238 18.9796 83.67 18.9522 83.6923 18.918C83.7146 18.8837 83.7317 18.8392 83.7317 18.7998C83.7317 18.7604 83.7197 18.721 83.6974 18.6936C83.6752 18.6593 83.6306 18.6319 83.5741 18.6097C83.4953 18.5857 83.4165 18.5651 83.3377 18.548C83.2144 18.5206 83.1185 18.4863 83.074 18.4641C83.0123 18.4298 82.9609 18.3853 82.9335 18.3408C82.9044 18.2894 82.8873 18.2311 82.889 18.1712C82.889 18.1044 82.9113 18.0427 82.9455 17.9862C82.9798 17.9297 83.0414 17.88 83.1082 17.8509C83.1853 17.8166 83.2709 17.7995 83.3549 17.7995C83.4508 17.7995 83.5399 17.8166 83.6135 17.8441C83.6923 17.8783 83.7539 17.928 83.7882 17.9914C83.831 18.0513 83.855 18.1249 83.855 18.1986L83.6854 18.2157C83.6803 18.1318 83.646 18.0633 83.5964 18.0239C83.545 17.9794 83.4611 17.9571 83.36 17.9571C83.259 17.9571 83.175 17.9794 83.1305 18.0136C83.086 18.053 83.0569 18.1027 83.0569 18.1592C83.0569 18.2037 83.074 18.25 83.1065 18.2774C83.1408 18.3065 83.2298 18.339 83.3703 18.3733C83.5107 18.4076 83.6118 18.435 83.6683 18.4572C83.7471 18.4915 83.8088 18.5411 83.843 18.5977C83.855 18.6199 83.8704 18.6542 83.8824 18.6816C83.8944 18.7159 83.8995 18.7484 83.8995 18.7826C83.8995 18.8494 83.8773 18.9231 83.8379 18.9848C83.7951 19.0481 83.7351 19.0995 83.6632 19.1303C83.5792 19.1646 83.4902 19.1817 83.3994 19.1817C83.2812 19.1817 83.1733 19.1646 83.0962 19.1303C83.0192 19.0978 82.9524 19.043 82.9044 18.9728C82.8804 18.9368 82.8616 18.8991 82.8479 18.8597C82.8376 18.8203 82.8325 18.7758 82.8325 18.733Z" fill="black"/>
<path fill-rule="evenodd" clip-rule="evenodd" d="M106.903 3H109.661L111.189 13.5083L112.679 3H131.572L130.939 6.0184H114.99L112.567 19.8432H109.81L106.903 3Z" fill="black"/>
<path fill-rule="evenodd" clip-rule="evenodd" d="M132.057 15.9305C132.131 17.57 131.2 20.0667 129.15 20.0667C126.765 20.0667 126.243 17.123 126.243 15.8932H128.181C128.181 16.6011 128.777 17.3093 129.225 17.3093C129.672 17.3093 130.119 16.7502 130.119 16.3777C130.119 16.0049 129.97 15.4461 129.262 14.9616C126.951 13.5829 126.43 11.9804 126.43 10.6017C126.355 8.96212 127.138 6.53992 129.187 6.53992C131.237 6.53992 131.796 9.40934 131.796 10.6017H129.97C129.97 9.93098 129.523 9.44662 129.076 9.44662C128.628 9.44662 128.33 9.8937 128.33 10.2665C128.33 10.6392 128.405 10.9745 129.113 11.4589C130.082 11.9061 132.057 13.3593 132.057 15.9305ZM132.167 19.098C132.246 19.0979 132.323 19.1133 132.396 19.1432C132.468 19.1732 132.534 19.2172 132.59 19.2727C132.645 19.3282 132.689 19.3941 132.719 19.4666C132.749 19.5391 132.765 19.6168 132.764 19.6953C132.765 19.774 132.75 19.8521 132.72 19.925C132.69 19.9979 132.646 20.0641 132.591 20.12C132.535 20.1758 132.469 20.2202 132.397 20.2504C132.324 20.2806 132.246 20.2962 132.167 20.2962C132.088 20.2964 132.01 20.281 131.937 20.2509C131.864 20.2208 131.798 20.1765 131.742 20.1207C131.686 20.0648 131.642 19.9985 131.612 19.9255C131.581 19.8525 131.566 19.7742 131.566 19.6953C131.566 19.3646 131.835 19.098 132.167 19.098V18.9591C131.758 18.9591 131.427 19.2896 131.427 19.6954C131.427 19.7926 131.446 19.8889 131.483 19.9787C131.52 20.0686 131.575 20.1502 131.644 20.219C131.712 20.2877 131.794 20.3422 131.884 20.3793C131.974 20.4165 132.07 20.4355 132.167 20.4354C132.573 20.4354 132.903 20.1049 132.903 19.6954C132.903 19.5002 132.825 19.3131 132.687 19.1751C132.549 19.0371 132.362 18.9594 132.167 18.9591V19.098Z" fill="black"/>
<path fill-rule="evenodd" clip-rule="evenodd" d="M132.019 19.4194H132.213C132.29 19.4194 132.402 19.4194 132.402 19.5225C132.402 19.624 132.34 19.6447 132.252 19.6427H132.019V19.7612H132.175L132.352 20.0992H132.534L132.34 19.7612C132.481 19.7517 132.558 19.6915 132.558 19.5471C132.558 19.4644 132.536 19.3873 132.464 19.3406C132.404 19.303 132.316 19.3009 132.248 19.3009H131.863V20.0992H132.019V19.4194H132.019ZM115.959 15.3718L116.704 10.5274L117.45 15.3718H115.959ZM115.512 18.092H117.822L118.12 19.8433H121.809V12.9123L124.082 19.8433H125.983V6.95007H124.045V13.5085L121.884 6.95007H119.872V19.0608L117.785 6.95007H115.623L113.388 19.8433H115.288L115.512 18.092Z" fill="black"/>
<path d="M179.138 19.9927C177.962 19.9927 177.264 19.3907 177.21 18.5236H178.335C178.335 18.8127 178.496 19.1974 179.192 19.2213C179.674 19.2213 179.941 18.9323 179.941 18.7151C179.888 18.3782 179.459 18.3542 179.032 18.2806C178.549 18.2106 178.175 18.113 177.906 17.9934C177.533 17.8001 177.317 17.3896 177.317 16.957C177.317 16.1855 177.962 15.5835 179.085 15.5835C180.208 15.5835 180.853 16.1377 180.904 16.9809H179.835C179.835 16.7654 179.781 16.4029 179.138 16.4029C178.709 16.4029 178.442 16.4746 178.389 16.7875C178.389 17.222 179.299 17.1981 179.995 17.3656C180.637 17.535 181.067 17.9437 181.067 18.5237C181.067 19.5841 180.21 19.9928 179.139 19.9928M158.635 12.878L162.329 10.7333L164.31 14.1319H159.331" fill="black"/>
<path d="M166.943 15.5752H165.862V19.8647H166.943V15.5752Z" fill="black"/>
<path d="M156.92 17.7834C156.92 18.4572 157.509 19.0114 158.15 19.0114C158.848 19.0114 159.382 18.4572 159.382 17.7834C159.382 17.1096 158.848 16.5554 158.15 16.5554C157.509 16.5554 156.92 17.1335 156.92 17.7834ZM158.097 20C156.92 20 155.903 19.0114 155.903 17.7834C155.903 16.5554 156.92 15.5907 158.097 15.5907C158.579 15.5907 159.008 15.7123 159.382 15.9754V15.6385H160.454V19.9023H159.382V19.6373C159.062 19.8784 158.579 19.9999 158.097 19.9999M172.395 14.1307L167.255 5.16872L170.949 3L177.375 14.1308M161.846 17.7834C161.846 18.4572 162.382 19.0114 163.078 19.0114C163.719 19.0114 164.31 18.4572 164.31 17.7834C164.31 17.1096 163.719 16.5554 163.078 16.5554C162.382 16.5554 161.846 17.1335 161.846 17.7834ZM163.025 20C161.793 20 160.83 19.0114 160.83 17.7834C160.83 16.5554 161.793 15.5907 163.025 15.5907C163.505 15.5907 163.934 15.7123 164.31 15.9754V14.1693H165.38V19.9023H164.31V19.6373C163.934 19.8784 163.505 19.9999 163.025 19.9999M162.972 9.04732L166.719 6.92831L170.843 14.1304H166.933V15.1908H165.863V14.1304M180.372 15.2241C180.103 15.2241 179.836 14.983 179.836 14.694C179.836 14.405 180.103 14.1638 180.372 14.1638C180.692 14.1638 180.908 14.4051 180.908 14.694C180.908 14.9829 180.692 15.2242 180.372 15.2242M180.372 14.2374C180.103 14.2374 179.943 14.4528 179.943 14.694C179.943 14.9352 180.103 15.1524 180.372 15.1524C180.641 15.1524 180.799 14.9353 180.799 14.694C180.799 14.4527 180.639 14.2374 180.372 14.2374Z" fill="black"/>
<path d="M180.482 14.985L180.375 14.7438H180.269V14.985H180.188V14.407H180.429C180.482 14.407 180.589 14.4807 180.589 14.5763C180.589 14.6719 180.536 14.72 180.482 14.7438L180.589 14.985M180.375 14.4806H180.269V14.6721H180.375C180.482 14.6721 180.482 14.6482 180.482 14.5763C180.482 14.5267 180.482 14.4806 180.375 14.4806ZM173.3 17.7834C173.3 18.4571 173.836 19.0114 174.532 19.0114C175.175 19.0114 175.762 18.4571 175.762 17.7834C175.762 17.1096 175.175 16.5554 174.532 16.5554C173.836 16.5554 173.3 17.1334 173.3 17.7834ZM174.477 20C173.247 20 172.284 19.0114 172.284 17.7834C172.284 16.5554 173.247 15.5907 174.477 15.5907C174.96 15.5907 175.389 15.7122 175.762 15.9754V15.6385H176.781V19.9023H175.763V19.6372C175.389 19.8784 174.96 19.9999 174.477 19.9999M168.378 17.7833C168.378 18.457 168.967 19.0113 169.61 19.0113C170.306 19.0113 170.842 18.457 170.842 17.7833C170.842 17.1095 170.306 16.5553 169.61 16.5553C168.967 16.5553 168.378 17.1333 168.378 17.7833ZM170.842 14.1693H171.912V19.9023H170.842V19.6372C170.52 19.8784 170.091 19.9999 169.61 19.9999C168.378 19.9999 167.361 19.0113 167.361 17.7833C167.361 16.5553 168.378 15.5906 169.61 15.5906C170.091 15.5906 170.52 15.7121 170.842 15.9753V14.1692V14.1693Z" fill="black"/>
<path d="M225.692 17.0751C224.017 17.5001 222.917 17.9251 222.192 18.3252C219.917 17.2997 217.442 16.7501 215.067 16.7501C212.141 16.7501 209.491 17.5001 207.241 18.5752L204.066 3H225.692M210.516 6.90004H208.591V12.6001H212.441V11.2501H210.516V6.90004ZM215.792 11.7246C214.917 11.7246 214.717 11.3496 214.717 10.3001H218.642C218.642 7.77505 218.042 6.72457 215.792 6.72457C213.342 6.72457 212.692 7.57458 212.692 9.7746C212.692 11.9251 213.592 12.9496 215.667 12.9496C217.717 12.9496 218.467 12.1996 218.517 11.0246H216.717C216.717 11.5001 216.542 11.7246 215.792 11.7246ZM214.717 9.17506C214.717 8.32505 214.892 7.85051 215.717 7.85051C216.517 7.85051 216.717 8.22551 216.717 9.17506H214.717ZM220.792 6.90004H218.692L220.867 12.6001H223.242L225.467 6.90004H223.417L222.092 10.6251L220.792 6.90004Z" fill="#A50716"/>
<path d="M225.667 3H240.242L236.817 18.5752C234.567 17.2747 232.517 16.7251 229.542 16.7251C227.917 16.7251 226.817 16.8747 225.667 17.0751M226.017 6.87504V12.6001H227.892V6.87504H226.017ZM229.317 7.25004L229.217 7.82458C229.817 7.44958 230.067 7.12458 230.067 6.69957C230.067 6.22457 229.742 5.97457 229.267 5.97457C228.792 5.97457 228.492 6.25003 228.492 6.64957C228.492 7.17504 228.842 7.25004 229.317 7.25004ZM231.992 10.8001H229.967C229.992 12.1751 230.717 12.7246 232.917 12.7246C234.967 12.7246 235.792 12.2746 235.792 10.8496C235.792 8.59959 231.992 9.7246 231.992 8.37459C231.992 8.04959 232.367 7.77458 232.867 7.77458C233.392 7.77458 233.592 7.99912 233.717 8.47459H235.642C235.617 7.27458 234.917 6.72457 232.992 6.72457C230.992 6.72457 230.067 7.27458 230.067 8.52505C230.067 11.0001 233.867 9.6746 233.867 11.0751C233.867 11.5001 233.642 11.7001 233.092 11.7001C232.442 11.7001 232.042 11.4501 231.992 10.8001ZM233.542 18.4997C234.142 18.4997 234.642 18.9997 234.642 19.5997C234.642 20.1997 234.142 20.6997 233.542 20.6997C232.942 20.6997 232.442 20.2247 232.442 19.5997C232.444 19.3088 232.561 19.0305 232.767 18.8248C232.973 18.6191 233.251 18.5023 233.542 18.4997ZM234.467 19.6002C234.467 19.1002 234.067 18.7002 233.542 18.7002C233.017 18.7002 232.617 19.1002 232.617 19.6002C232.617 20.1002 233.042 20.5252 233.542 20.5252C233.663 20.5255 233.784 20.5018 233.896 20.4554C234.009 20.409 234.111 20.3409 234.197 20.2549C234.283 20.169 234.351 20.0669 234.397 19.9545C234.443 19.8421 234.467 19.7217 234.467 19.6002ZM233.167 20.1502V19.0502H233.466C233.766 19.0502 233.992 19.1252 233.992 19.4002C233.992 19.5256 233.917 19.6252 233.742 19.7252L233.942 20.1502H233.742L233.567 19.8252H233.392V20.1502H233.167ZM233.742 19.4002C233.742 19.3252 233.641 19.2752 233.392 19.2752V19.5502C233.567 19.5502 233.742 19.5502 233.742 19.4002Z" fill="#A50716"/>
<path fill-rule="evenodd" clip-rule="evenodd" d="M266.005 15.8756H265.137V8.92763H263.242V8.12513H267.92V8.92763H266.005V15.8756ZM272.454 8.8025C274.255 8.8025 275.671 10.2476 275.671 12.0006C275.671 13.7422 274.235 15.198 272.454 15.198C270.674 15.198 269.237 13.7422 269.237 12.0006C269.237 10.2476 270.653 8.8025 272.454 8.8025ZM272.454 8C270.216 8 268.37 9.79646 268.37 12.0106C268.37 14.2346 270.216 16 272.454 16C274.693 16 276.539 14.2346 276.539 12.0106C276.539 9.79646 274.693 8 272.454 8ZM278.609 8.92763H278.933C279.958 8.92763 280.995 9.0202 280.995 10.2829C280.995 11.392 280.168 11.6792 279.195 11.6792H278.609V8.92763ZM278.609 12.4817H279.247C279.907 12.4817 280.586 12.3991 281.119 11.9673C281.604 11.5667 281.863 10.9296 281.863 10.3033C281.863 9.61521 281.562 8.93735 280.985 8.5367C280.409 8.14553 279.707 8.12488 279.028 8.12488H277.741V15.8754H278.609V12.4817ZM286.511 9.64339C286.199 9.11009 285.823 8.8025 285.155 8.8025C284.456 8.8025 283.85 9.2945 283.85 10.002C283.85 10.6682 284.549 10.9756 285.082 11.211L285.604 11.4362C286.626 11.8774 287.484 12.3791 287.484 13.6093C287.484 14.9626 286.386 16 285.02 16C283.758 16 282.827 15.198 282.577 13.999L283.427 13.7631C283.541 14.5522 284.153 15.198 284.999 15.198C285.844 15.198 286.617 14.5622 286.617 13.6914C286.617 12.7893 285.896 12.4817 285.165 12.1539L284.685 11.9489C283.769 11.5392 282.983 11.0776 282.983 9.97115C282.983 8.7714 284.008 8 285.176 8C286.052 8 286.792 8.44219 287.205 9.20217L286.511 9.64339ZM293.669 11.269V8.12464H294.537V15.8756H293.669V12.0713H289.639V15.8756H288.771V8.12464H289.639V11.269H293.669ZM299.845 8.8025C301.646 8.8025 303.062 10.2476 303.062 12.0006C303.062 13.7422 301.625 15.198 299.845 15.198C298.064 15.198 296.628 13.7422 296.628 12.0006C296.628 10.2476 298.044 8.8025 299.845 8.8025ZM299.845 8C297.606 8 295.76 9.79646 295.76 12.0106C295.76 14.2346 297.607 16 299.845 16C302.084 16 303.93 14.2346 303.93 12.0106C303.93 9.79646 302.084 8 299.845 8ZM305.989 8.92763H306.313C307.339 8.92763 308.374 9.0202 308.374 10.2829C308.374 11.392 307.548 11.6792 306.575 11.6792H305.989V8.92763ZM305.989 12.4817H306.628C307.287 12.4817 307.967 12.3991 308.499 11.9673C308.984 11.5667 309.242 10.9296 309.242 10.3033C309.242 9.61521 308.942 8.93735 308.364 8.5367C307.789 8.14553 307.088 8.12488 306.407 8.12488H305.122V15.8754H305.989V12.4817Z" fill="black"/>
<path fill-rule="evenodd" clip-rule="evenodd" d="M355.869 10.2826C355.772 10.2826 355.51 10.3102 355.359 10.3377C355.331 10.4206 354.931 10.6 355.027 11.0968C355.096 11.4005 355.248 11.6213 355.179 11.6764C354.986 11.7868 354.71 11.5937 354.461 11.4971C354.213 11.3729 353.827 11.2072 353.578 11.5248C353.358 11.8283 354.117 11.7868 354.765 12.1318C355.248 12.3804 355.579 12.3252 356.352 12.4081C357.125 12.463 357.166 12.1318 357.29 12.1458C357.401 12.1735 357.359 12.4769 357.718 12.5874C357.883 12.6289 358.256 12.4216 358.325 12.4492C358.435 12.463 358.435 12.6842 358.697 12.7944C358.987 12.8773 359.07 12.7118 359.167 12.6703C359.25 12.6289 359.263 12.8359 359.429 12.8773C359.594 12.905 359.843 12.8911 359.967 12.905C360.063 12.9464 359.967 13.0705 360.243 13.1119C360.491 13.1534 360.574 13.0152 360.698 13.0566C360.795 13.0981 360.919 13.3742 361.443 13.3327C361.775 13.3051 361.692 13.0981 361.609 12.9464C361.512 12.7944 360.795 12.6703 359.636 12.2562C357.677 11.58 357.152 11.7457 356.738 10.9451C356.573 10.6139 356.476 10.4344 356.449 10.3242C356.338 10.2964 356.131 10.3104 355.869 10.2826Z" fill="#CC2229"/>
<path fill-rule="evenodd" clip-rule="evenodd" d="M362.464 12.5046C362.381 12.4494 362.105 12.7119 361.995 12.6705C361.871 12.629 361.774 12.4632 361.677 12.4217C361.553 12.3806 361.484 12.4494 361.36 12.4217C361.264 12.4082 361.333 12.2562 361.25 12.2147C361.139 12.1736 361.084 12.2838 360.96 12.2424C360.863 12.2147 360.794 12.0356 360.711 11.9941C360.615 11.9666 360.587 12.0905 360.477 12.0492C360.325 11.9941 360.284 11.8836 360.187 11.8423C360.104 11.787 359.925 11.9525 359.801 11.8836C359.677 11.8284 359.677 11.4005 359.594 11.359C359.497 11.3178 359.193 11.6628 359.069 11.58C358.959 11.5249 359 11.2072 358.904 11.1521C358.821 11.0968 358.449 11.4143 358.352 11.3729C358.269 11.3314 358.255 11.1659 358.131 11.1521C358.02 11.1383 357.827 11.2901 357.703 11.2487C357.455 11.1521 357.151 11.1935 356.779 10.3102C356.737 10.1998 356.655 10.1307 356.572 10.1722C356.351 10.2549 356.434 10.3377 356.737 10.9451C357.151 11.7457 357.676 11.58 359.635 12.2562C360.794 12.6705 361.511 12.7944 361.608 12.9464C361.691 13.0981 361.774 13.305 361.442 13.3327C360.918 13.3741 360.794 13.0981 360.697 13.0566C360.573 13.0152 360.49 13.1534 360.242 13.1119C359.966 13.0704 360.062 12.9464 359.966 12.9049C359.842 12.8911 359.593 12.9049 359.428 12.8773C359.262 12.8358 359.248 12.6289 359.166 12.6703C359.069 12.7118 358.986 12.8773 358.696 12.7944C358.434 12.6841 358.434 12.463 358.324 12.4492C358.255 12.4216 357.882 12.6289 357.717 12.5874C357.358 12.4768 357.4 12.1734 357.289 12.1458C357.165 12.132 357.124 12.463 356.351 12.4081C355.578 12.3251 355.247 12.3804 354.764 12.1318C354.116 11.7868 353.356 11.8283 353.577 11.5247C353.826 11.2072 354.212 11.3729 354.46 11.4971C354.709 11.5937 354.985 11.7868 355.178 11.6764C355.247 11.6213 355.095 11.4005 355.026 11.0968C354.93 10.5586 355.399 10.393 355.357 10.3102C355.288 10.2135 355.026 10.0756 354.392 10.1722C353.964 10.2411 353.136 10.8898 352.929 10.9866C352.722 11.1106 351.867 11.5662 351.397 10.8898C350.928 10.1998 351.356 9.49597 351.549 9.27518C351.729 9.05439 352.032 8.88871 352.142 9.05439C352.294 9.31664 351.935 9.38558 351.784 9.56507C351.645 9.74457 351.425 10.3518 351.673 10.6279C351.935 10.9038 352.418 10.9315 352.97 10.5175C353.425 10.1725 354.171 9.68929 354.902 9.74473C355.647 9.78587 356.033 10.131 356.144 10.1588C356.254 10.1725 356.351 9.92423 356.502 9.86895C356.613 9.82749 356.764 9.96553 356.861 9.92407C356.944 9.86895 357.041 9.64799 357.151 9.60653C357.275 9.56507 357.579 9.77205 357.675 9.70311C357.758 9.66165 357.744 9.39956 357.882 9.38574C358.02 9.3581 358.255 9.60653 358.351 9.56507C358.476 9.49614 358.476 9.35794 358.6 9.35794C358.696 9.35794 358.917 9.68929 359.028 9.66165C359.11 9.64799 359.083 9.31681 359.207 9.27535C359.331 9.23389 359.649 9.49614 359.759 9.45468C359.842 9.41338 359.855 9.01293 360.007 8.93017C360.145 8.87506 360.283 9.09585 360.366 9.05439C360.477 9.01293 360.545 8.55736 360.67 8.5437C360.78 8.52989 361.001 8.66776 361.097 8.64028C361.18 8.62646 361.139 8.21252 361.304 8.1296C361.47 8.07448 361.677 8.33673 361.732 8.32308C361.815 8.29544 361.856 8.07448 361.939 8.06066C362.036 8.03302 362.284 8.23999 362.408 8.21252C362.505 8.17106 362.464 7.86751 362.574 7.85352C362.657 7.82588 363.002 7.89498 362.974 7.50852C362.96 7.12205 362.464 6.7494 361.995 6.7494C361.139 6.7494 360.284 7.12205 359.552 7.26008C358.821 7.3843 357.317 7.82588 356.944 7.89515C356.572 7.95026 356.213 7.74329 356.544 7.48088C356.807 7.23244 356.944 7.42576 356.944 7.343C356.944 7.26008 356.779 7.17733 356.544 7.13587C356.296 7.09457 356.006 7.343 355.689 7.30154C355.372 7.26008 355.054 7.01182 354.71 7.08075C353.868 7.17733 353.744 7.55014 353.316 7.70167C352.888 7.86751 352.571 7.74329 352.336 7.77077C351.757 7.85352 351.55 8.1987 351.122 8.15707C350.611 8.11561 350.363 7.82588 349.811 7.67386C349.287 7.50835 348.28 7.35649 348.045 7.27374C347.797 7.177 346.707 6.91475 346.445 6.88727C346.155 6.84581 346.017 6.92857 345.893 6.92857C345.755 6.92857 345.575 6.84581 345.382 6.83199C345.203 6.80435 344.913 6.79069 344.789 6.83199C344.679 6.8876 344.638 6.8876 344.486 6.84614C344.362 6.83232 343.907 6.74956 343.713 6.7772C343.437 6.79102 343.327 6.97036 343.12 6.998C342.927 7.01182 342.734 6.91508 342.513 6.95654C342.293 6.998 342.113 7.08075 341.92 7.13587C341.741 7.20497 341.409 7.16351 341.258 7.17716C340.844 7.2739 340.788 7.48088 340.637 7.48088C340.499 7.48088 340.002 7.39812 339.85 7.48088C339.685 7.54998 339.547 7.67403 339.423 7.68785C339.271 7.7015 338.719 7.78459 338.374 7.74313C338.181 7.72931 337.85 7.89498 337.712 7.93628C337.546 7.97774 337.16 7.97774 337.049 7.78459C336.939 7.54998 337.242 7.20497 337.753 6.79086C338.098 6.52844 340.043 5.16207 343.203 4.65155C345.673 4.2376 348.556 3.20241 349.164 2.56751C349.426 2.30526 350.488 1.40811 350.75 0.856126C351.012 0.303981 351.095 -0.0133867 350.957 0.0004334C350.819 0.0418936 350.654 0.331622 350.391 0.428198C350.143 0.510953 349.922 0.373082 349.729 0.455838C349.55 0.510953 349.343 0.800846 349.15 0.814666C348.943 0.842141 348.86 0.66281 348.708 0.731745C348.556 0.842141 348.308 1.0218 348.142 1.06293C347.798 1.11821 347.784 0.71809 347.466 0.883602C347.135 1.04911 346.901 1.32535 346.57 1.39429C346.266 1.43575 346.307 1.20113 346.1 1.20113C345.769 1.20113 345.452 1.6567 345.3 1.6567C345.149 1.6567 345.024 1.40811 344.831 1.43591C344.652 1.44957 344.086 1.87749 343.865 1.9466C343.631 1.98806 343.589 1.62923 343.396 1.65687C343.162 1.67069 342.734 2.0848 342.499 2.14008C342.251 2.18137 342.113 2.01586 341.947 2.01586C341.782 2.01586 341.271 2.44379 341.023 2.51272C340.664 2.59548 340.637 2.14024 340.25 2.16772C339.974 2.18154 339.684 2.55435 339.464 2.568C339.229 2.59548 339.133 2.41615 338.871 2.47143C338.581 2.55419 338.015 2.94049 337.822 2.98211C337.643 3.02357 337.505 2.91318 337.284 2.98211C336.87 3.10633 336.484 3.65847 336.221 3.79651C335.932 3.96202 335.725 3.87927 335.573 3.97584C335.297 4.16899 335.255 4.55546 334.993 4.66602C334.759 4.79024 334.773 4.61074 334.552 4.74861C334.179 5.02452 334.317 5.3284 334.207 5.46644C334.097 5.60431 333.793 5.7147 333.614 5.93566C333.434 6.14263 333.434 6.26701 333.365 6.40505C333.283 6.54309 332.965 6.95703 332.896 7.13653C332.855 7.31536 332.937 7.50852 332.855 7.64655C332.8 7.77077 332.676 7.97791 332.607 8.1296C332.496 8.48859 332.648 8.84742 332.634 8.98545C332.607 9.1095 332.469 9.31664 332.469 9.48232C332.469 9.64799 332.634 9.96536 332.593 10.2136C332.552 10.4622 332.041 12.1045 332.331 12.8498C332.648 13.6226 333.117 14.0369 333.283 13.9678C333.462 13.9125 333.352 13.5811 333.531 13.2779C333.71 12.9877 333.917 12.6292 334.083 12.8774C334.221 13.1121 333.752 13.1121 333.71 13.7884C333.655 14.4368 333.738 14.1609 333.71 14.3542C333.696 14.5612 333.283 14.9477 333.283 15.127C333.283 15.3201 333.324 15.8034 333.931 16.314C334.304 16.6451 334.386 16.866 334.483 16.8798C334.565 16.9075 334.648 16.4932 334.828 16.4103C335.076 16.2997 335.614 16.7831 335.711 16.7693C335.835 16.7278 335.876 16.0653 336.097 15.9412C336.318 15.8445 336.856 16.2726 336.967 16.2173C337.077 16.1344 336.953 15.7203 337.008 15.5548C337.077 15.4031 337.38 15.3616 337.284 15.0855C337.201 14.8095 337.16 14.2713 336.18 14.2022C335.89 14.1746 335.49 14.1334 335.752 13.8297C336.056 13.526 336.387 12.4081 335.669 11.5387C335.366 11.1659 334.676 11.3729 334.483 11.4558C334.138 11.58 333.793 12.0356 333.655 11.9114C333.531 11.7871 333.931 11.2765 334.552 11.097C335.159 10.9036 335.932 10.9453 336.235 11.7042C336.773 13.029 336.235 13.6502 336.304 13.7883C336.387 13.9261 336.69 13.7744 337.118 14.0367C337.725 14.4368 337.643 14.7818 337.794 14.9062C337.932 15.0164 338.663 15.0717 339.34 15.1132C340.029 15.1546 340.788 15.334 341.106 15.1546C341.616 14.8924 341.657 13.9123 342.844 13.1945C343.437 12.8358 344.224 12.477 345.107 12.6289C346.086 12.7667 346.1 12.9049 346.017 13.029C346.004 13.0981 345.976 13.1945 345.962 13.181C345.493 12.9326 344.817 12.9049 344.403 12.9875C343.796 13.0981 342.761 13.2639 342.002 14.5887C341.257 15.9136 342.458 15.9274 342.582 15.9689C342.72 16.0241 342.941 16.0929 342.927 16.4796C342.899 16.8662 343.023 17.0868 343.161 17.3352C343.327 17.556 343.589 17.7354 343.589 17.7354C343.589 17.7354 343.782 17.2938 344.003 17.1972C344.224 17.0732 344.486 17.2939 344.61 17.4321C344.996 17.929 344.831 17.0041 345.107 16.9076C345.507 16.7833 345.659 17.3769 345.88 17.2663C346.28 17.087 346.059 16.8109 346.349 16.7005C346.652 16.6176 346.832 16.8663 346.956 16.7834C347.094 16.6867 347.08 15.8313 346.818 15.4862C346.528 15.1272 346.1 14.5199 345.19 14.5199C344.293 14.5199 344.003 14.3958 344.044 14.2162C344.086 14.0369 344.265 13.9125 344.486 13.9954C344.831 14.1194 344.872 14.0918 345.424 14.1194C346.224 14.1336 346.045 14.4784 346.707 14.7682C347.204 14.9751 347.853 14.63 348.653 14.7682C349.467 14.9064 350.143 15.0581 350.888 15.0166C352.296 14.9751 353.855 14.3544 354.158 14.3129C354.476 14.2576 354.641 14.2991 354.641 14.2024C354.641 14.1194 353.275 13.9125 353.358 13.5813C353.468 13.2641 354.117 13.5263 355.013 13.7333C355.91 13.9265 357.828 14.092 358.573 14.0508C359.374 14.037 360.739 14.396 361.857 14.1338C362.423 13.9956 362.961 13.6504 363.016 13.2642C363.085 12.8773 362.574 12.5876 362.464 12.5046ZM354.765 7.77077C354.986 7.72931 355.372 7.82588 355.276 8.07432C355.193 8.32291 355.152 8.28129 354.972 8.32291C354.793 8.36404 354.42 8.4055 354.324 8.23983C354.241 8.07432 354.517 7.82588 354.765 7.77077ZM349.15 1.40811C349.288 1.47721 349.301 1.67052 349.288 1.79474C349.246 1.90513 349.177 2.01553 349.108 2.01553C348.998 2.01553 348.998 1.86367 348.957 1.71182C348.915 1.5876 348.998 1.32535 349.15 1.40811ZM347.88 1.79457C348.17 1.86351 348.06 2.12593 348.005 2.42948C347.963 2.63645 347.784 2.69173 347.756 2.73302C347.659 2.91252 347.632 2.12593 347.632 2.12593C347.632 2.12593 347.715 1.75311 347.88 1.79457ZM346.473 2.01553C346.583 2.00171 346.777 2.42964 346.666 2.80229C346.542 3.16112 346.39 3.16112 346.39 3.16112C346.39 3.16112 346.349 2.76083 346.307 2.71937C346.266 2.65027 346.183 2.08447 346.473 2.01553ZM345.203 2.2225C345.466 2.12593 345.535 2.71937 345.411 3.02308C345.3 3.34045 345.3 3.53376 345.107 3.40938C344.872 3.29899 345.066 2.91268 344.996 2.80229C344.914 2.60881 344.983 2.3329 345.203 2.2225ZM343.796 2.55386C344.127 2.5124 344.086 3.03674 344.003 3.32679C343.907 3.58888 343.838 3.7131 343.7 3.6718C343.548 3.61652 343.741 3.27135 343.658 3.11966C343.548 2.98162 343.617 2.56751 343.796 2.55386ZM342.347 2.81594C342.541 2.85724 342.679 3.14713 342.582 3.54742C342.499 3.96153 342.375 4.0581 342.265 4.0581C342.154 4.0581 342.306 3.40938 342.209 3.40938C342.127 3.40938 342.113 2.77448 342.347 2.81594ZM340.926 3.29899C341.051 3.29899 341.326 3.5336 341.188 3.96153C341.051 4.40311 341.051 4.36182 340.926 4.40311C340.788 4.43075 340.885 4.14086 340.802 3.97535C340.706 3.83715 340.581 3.28517 340.926 3.29899ZM339.643 3.75456C339.892 3.74074 339.988 4.26524 339.933 4.48587C339.892 4.70666 339.809 4.9829 339.657 4.94144C339.519 4.91396 339.684 4.51367 339.56 4.51367C339.464 4.51351 339.271 3.76838 339.643 3.75456ZM338.829 5.25881C338.664 5.56252 338.677 5.56252 338.567 5.56252C338.457 5.56252 338.526 5.12093 338.402 5.12093C338.291 5.12093 338.195 4.47221 338.539 4.44457C338.912 4.43075 338.926 5.03801 338.829 5.25881ZM338.277 3.18859C338.36 3.18859 338.567 3.32663 338.374 3.5336C338.195 3.74057 338.181 3.87861 338.015 3.79585C337.85 3.74074 338.015 3.20241 338.277 3.18859ZM333.586 7.54998C333.696 7.54998 333.834 7.82588 333.821 7.93644C333.793 8.0192 333.779 8.15724 333.614 8.1987C333.462 8.23983 333.407 7.99172 333.407 7.95026C333.393 7.89515 333.352 7.52234 333.586 7.54998ZM333.752 9.35777C333.669 9.35777 333.572 9.35777 333.503 9.30282C333.462 9.23372 333.186 8.95781 333.393 8.68158C333.407 8.64028 333.752 8.87489 333.821 9.02675C333.862 9.13698 333.862 9.35777 333.752 9.35777ZM334.041 7.05295C334 7.12188 333.89 7.16334 333.821 7.12188C333.71 7.05295 333.71 6.83215 333.752 6.79086C333.779 6.77704 333.793 6.44569 334.014 6.48698C334.124 6.5008 334 6.77687 334.014 6.80451C334.041 6.84614 334.097 6.99783 334.041 7.05295ZM343.23 8.46078C343.244 8.36421 343.396 8.28145 343.548 8.32291C343.741 8.33657 343.962 8.50224 343.921 8.62646C343.907 8.75068 343.7 8.84725 343.493 8.75068C343.313 8.66776 343.189 8.585 343.23 8.46078ZM343.506 9.35777C343.631 9.34412 343.962 9.31664 343.934 9.49597C343.921 9.66148 343.838 9.70295 343.575 9.74441C343.313 9.78554 343.148 9.62019 343.148 9.53743C343.162 9.3994 343.369 9.38558 343.506 9.35777ZM342.817 7.46722C342.968 7.46722 343.106 7.59127 343.065 7.68785C343.024 7.78459 343.01 7.90864 342.734 7.85352C342.637 7.81206 342.513 7.67403 342.513 7.59127C342.513 7.42576 342.679 7.43958 342.817 7.46722ZM341.326 7.81206C341.354 7.67403 341.616 7.64655 341.74 7.70167C341.878 7.77077 341.961 7.95026 341.878 8.03302C341.782 8.10212 341.685 8.07448 341.52 8.03302C341.354 7.99156 341.313 7.9501 341.326 7.81206ZM341.147 8.44713C341.354 8.44713 341.602 8.59882 341.492 8.70922C341.409 8.79197 341.326 8.84725 341.106 8.84725C340.885 8.84725 340.802 8.7645 340.802 8.64028C340.802 8.52989 340.94 8.41949 341.147 8.44713ZM340.788 9.35777C341.023 9.31664 341.188 9.45451 341.175 9.57873C341.175 9.70295 340.968 9.81334 340.83 9.81334C340.664 9.81334 340.43 9.77188 340.402 9.57873C340.375 9.41322 340.664 9.38558 340.788 9.35777ZM340.154 10.4621C340.112 10.3378 340.402 10.2826 340.54 10.2549C340.664 10.2411 340.926 10.2964 340.885 10.4206C340.844 10.5172 340.761 10.6414 340.54 10.6414C340.319 10.6277 340.195 10.5586 340.154 10.4621ZM340.499 11.2348C340.457 11.4143 340.292 11.4418 340.168 11.4556C340.029 11.4833 339.809 11.4556 339.809 11.3178C339.809 11.1659 340.002 11.0555 340.112 11.014C340.333 10.9729 340.54 11.0968 340.499 11.2348ZM339.892 7.85352C339.974 7.86734 340.236 7.93628 340.25 8.0605C340.25 8.15707 340.319 8.29511 340.029 8.29511C339.767 8.29511 339.657 8.25365 339.602 8.11561C339.519 7.9501 339.809 7.82588 339.892 7.85352ZM339.85 8.83343C340.126 8.88871 340.168 8.88871 340.195 9.01276C340.209 9.13698 340.002 9.21974 339.767 9.2612C339.519 9.30266 339.381 9.19226 339.312 9.06804C339.271 8.95781 339.574 8.79197 339.85 8.83343ZM339.381 9.9652C339.519 9.95138 339.684 10.0065 339.684 10.1585C339.657 10.2826 339.574 10.3378 339.436 10.3931C339.312 10.4621 339.036 10.3517 338.995 10.2551C338.953 10.1585 339.229 9.99284 339.381 9.9652ZM339.133 11.1106C339.133 11.2348 338.884 11.3314 338.76 11.359C338.663 11.3729 338.581 11.4556 338.498 11.3729C338.401 11.2901 338.415 11.2072 338.484 11.1521C338.525 11.0968 338.788 10.9727 338.843 10.9451C338.953 10.9036 339.146 11.014 339.133 11.1106ZM338.567 8.17089C338.788 8.17089 338.884 8.29511 338.926 8.4055C338.953 8.50208 338.926 8.5572 338.871 8.59866C338.829 8.64012 338.581 8.6263 338.443 8.54354C338.25 8.44713 338.319 8.17089 338.567 8.17089ZM337.463 5.12093C337.767 5.09329 337.822 5.5074 337.753 5.88005C337.643 6.23871 337.601 6.23871 337.463 6.19758C337.339 6.15612 337.463 5.94899 337.38 5.85241C337.284 5.76965 337.118 5.13459 337.463 5.12093ZM337.242 3.57506C337.518 3.53376 337.422 3.87877 337.367 3.97535C337.284 4.09957 337.38 4.2789 337.201 4.26508C337.008 4.2376 337.035 4.00282 337.008 3.87861C336.994 3.74074 337.077 3.58872 337.242 3.57506ZM336.263 4.81722C336.318 4.73447 336.359 4.52749 336.539 4.51367C336.663 4.48603 336.622 4.83104 336.608 4.99672C336.608 5.16223 336.649 5.36937 336.428 5.28661C336.194 5.20369 336.194 4.9138 336.263 4.81722ZM335.407 4.85852C335.449 4.85852 335.449 4.83088 335.449 4.83088C335.449 4.83088 335.642 4.51351 335.835 4.61009C335.918 4.62391 335.711 5.02403 335.683 5.09329C335.642 5.20369 335.504 5.28645 335.38 5.17605C335.256 5.05183 335.366 4.85852 335.407 4.85852ZM334.828 5.58999C334.938 5.63145 334.828 5.99028 334.786 6.15579C334.773 6.32147 334.649 6.40423 334.524 6.36277C334.4 6.34911 334.469 6.05905 334.428 6.05905C334.4 6.03174 334.566 5.5487 334.828 5.58999ZM334.428 8.33673C334.511 8.36421 334.524 8.52989 334.524 8.55736C334.524 8.62646 334.607 8.66776 334.649 8.79197C334.676 8.88871 334.607 8.98529 334.511 9.01276C334.4 9.01276 334.304 8.80579 334.304 8.80579C334.304 8.83343 334.221 8.32291 334.428 8.33673ZM334.773 10.0341C334.69 10.0894 334.593 10.1307 334.469 10.1169C334.345 10.0756 334.207 9.86862 334.318 9.74441C334.428 9.64783 334.593 9.73059 334.676 9.78554C334.759 9.85497 334.856 9.9652 334.773 10.0341ZM334.814 7.70167C334.649 7.67403 334.717 7.35666 334.69 7.35666C334.69 7.35666 334.856 6.79102 335.021 6.8876C335.145 6.97036 335.076 7.343 335.062 7.52234C335.035 7.68785 334.952 7.74329 334.814 7.70167ZM335.117 8.75068C335.062 8.72304 334.993 8.36404 335.242 8.33657C335.338 8.33657 335.504 8.52972 335.504 8.64012C335.49 8.76433 335.531 8.93001 335.297 8.91602C335.076 8.88871 335.159 8.7645 335.117 8.75068ZM335.711 10.5173C335.628 10.5173 335.462 10.5037 335.366 10.3517C335.283 10.2413 335.256 10.0481 335.366 9.99284C335.449 9.95138 335.669 10.0894 335.766 10.2826C335.876 10.4621 335.766 10.5173 335.711 10.5173ZM336.001 9.82716C335.89 9.81351 335.766 9.77188 335.669 9.64783C335.573 9.53743 335.573 9.30282 335.725 9.27518C335.959 9.23372 336.097 9.44086 336.18 9.62019C336.235 9.81334 336.07 9.82716 336.001 9.82716ZM336.221 8.84725C336.111 8.84725 336.056 8.80579 336.001 8.72304C335.918 8.66776 335.89 8.41949 336.111 8.41949C336.221 8.41949 336.387 8.50224 336.401 8.62646C336.428 8.7645 336.318 8.83343 336.221 8.84725ZM336.428 6.05922C336.58 6.05922 336.856 6.22489 336.773 6.70794C336.663 7.17716 336.608 7.01165 336.511 7.03913C336.428 7.08059 336.484 6.77704 336.428 6.70794C336.318 6.58372 336.056 6.05922 336.428 6.05922ZM336.704 10.6001C336.608 10.5586 336.484 10.5035 336.47 10.3517C336.428 10.2136 336.58 10.1723 336.704 10.2C336.856 10.2136 336.967 10.3378 336.967 10.4346C336.967 10.5586 336.787 10.6277 336.704 10.6001ZM336.967 9.64783C336.897 9.66149 336.856 9.70295 336.704 9.66149C336.566 9.60637 336.277 9.30282 336.539 9.13698C336.622 9.06804 336.939 9.1508 337.008 9.38541C337.118 9.57873 337.049 9.60637 336.967 9.64783ZM336.994 8.70922C336.953 8.66776 337.035 8.44713 337.256 8.50224C337.463 8.5437 337.518 8.68158 337.505 8.80579C337.463 8.93001 337.325 8.93001 337.215 8.91619C337.118 8.88871 337.049 8.75068 336.994 8.70922ZM337.822 11.1106C337.753 11.1521 337.601 11.1935 337.394 11.1659C337.215 11.1521 337.173 11.0968 337.242 10.9866C337.325 10.8898 337.38 10.8623 337.546 10.8071C337.712 10.7381 337.905 10.8207 337.946 10.8898C337.987 10.9451 337.905 11.0968 337.822 11.1106ZM338.098 10.2135C337.987 10.2826 337.753 10.2135 337.684 10.048C337.629 9.86862 337.725 9.827 337.808 9.78554C337.905 9.77172 338.139 9.88228 338.181 10.0341C338.195 10.1307 338.195 10.1585 338.098 10.2135ZM338.319 9.41322C338.222 9.41322 337.863 9.35777 337.932 9.17844C337.974 8.98529 338.181 8.98529 338.291 9.01276C338.36 9.01276 338.65 9.10934 338.581 9.27502C338.539 9.45451 338.415 9.3994 338.319 9.41322ZM341.492 12.6703C341.492 12.7667 341.437 12.8358 341.354 12.8358C341.258 12.8358 340.982 12.7667 340.844 12.8773C340.706 12.9737 340.623 13.1534 340.637 13.2777C340.664 13.3741 340.664 13.5262 340.595 13.5673C340.54 13.6226 340.278 13.5262 340.168 13.5397C340.071 13.5397 339.726 13.6226 339.643 13.8022C339.547 13.9678 339.616 14.0918 339.56 14.1336C339.505 14.2024 339.422 14.23 339.34 14.23C339.257 14.2576 338.884 14.2024 338.829 14.2576C338.746 14.3129 338.539 14.5614 338.484 14.4784C338.415 14.3958 338.319 14.437 338.498 14.1336C338.581 13.9954 338.801 13.8437 338.829 13.8437C338.843 13.8437 339.119 13.871 339.174 13.8299C339.229 13.7746 339.395 13.4432 339.464 13.3741C339.74 13.1534 339.726 13.2363 339.809 13.1945C339.892 13.181 340.168 13.2363 340.195 13.181C340.237 13.0981 340.402 12.7944 340.54 12.6703C340.72 12.5045 341.009 12.4768 341.051 12.4492C341.064 12.4081 341.133 12.2975 341.175 12.2146C341.23 12.1318 341.478 11.9249 341.644 11.9663C341.727 11.9938 341.437 12.3804 341.437 12.463C341.409 12.5461 341.492 12.5599 341.492 12.6703ZM341.699 11.4973C341.492 11.5387 341.271 11.5249 341.257 11.4145C341.23 11.3316 341.299 11.2074 341.437 11.1522C341.561 11.097 341.685 11.1384 341.782 11.1384C341.864 11.1384 342.071 11.1384 342.044 11.2074C342.03 11.2763 341.906 11.4558 341.699 11.4973ZM341.989 10.5586C341.754 10.5863 341.534 10.5173 341.561 10.4208C341.602 10.3104 341.74 10.2136 341.947 10.2136C342.154 10.2 342.292 10.2551 342.292 10.3517C342.292 10.4346 342.209 10.545 341.989 10.5586ZM342.458 9.44086C342.417 9.60637 342.334 9.64783 342.182 9.66149C342.03 9.66149 341.727 9.62019 341.727 9.38558C341.727 9.27518 342.044 9.2199 342.113 9.2199C342.182 9.19226 342.472 9.27518 342.458 9.44086ZM342.679 8.55736C342.651 8.68158 342.472 8.79197 342.334 8.75068C342.182 8.70922 341.989 8.68158 342.003 8.5437C342.003 8.46078 342.127 8.33673 342.347 8.36421C342.582 8.36421 342.692 8.46078 342.679 8.55736ZM343.41 11.2348C343.355 11.2901 343.286 11.4418 343.12 11.4833C342.968 11.4971 342.775 11.566 342.692 11.3729C342.651 11.2763 342.72 11.1935 342.844 11.1106C342.941 11.0555 343.272 11.0555 343.272 11.0555C343.272 11.0555 343.313 10.9451 343.396 11.014C343.479 11.0693 343.479 11.1659 343.41 11.2348ZM343.796 10.5035C343.658 10.5035 343.327 10.5172 343.313 10.3517C343.272 10.2827 343.493 10.2 343.63 10.1585C343.796 10.1171 343.906 10.1171 343.962 10.1309C344.017 10.1585 344.169 10.2136 344.169 10.2827C344.169 10.3517 343.921 10.4759 343.796 10.5035ZM343.976 7.74329C343.921 7.60509 343.907 7.48088 343.962 7.42576C344.058 7.35666 344.39 7.48088 344.445 7.63273C344.528 7.77077 344.528 7.93644 344.39 7.9779C344.252 7.99156 344.017 7.86751 343.976 7.74329ZM344.472 8.5437C344.445 8.41949 344.693 8.32291 344.859 8.33673C344.996 8.36421 345.245 8.50224 345.203 8.64028C345.149 8.79197 345.121 8.83343 344.996 8.83343C344.872 8.83343 344.486 8.75068 344.472 8.5437ZM344.596 9.52345C344.569 9.41322 344.817 9.35777 344.914 9.35777C344.996 9.35777 345.369 9.41322 345.259 9.56491C345.19 9.70295 345.038 9.77188 344.914 9.77188C344.817 9.77188 344.638 9.62019 344.596 9.52345ZM345.342 10.6829C345.203 10.7794 345.107 10.7794 344.941 10.7794C344.79 10.7794 344.762 10.6829 344.762 10.5586C344.762 10.4621 344.914 10.3931 344.983 10.3793C345.066 10.3517 345.162 10.3793 345.245 10.3517C345.3 10.3378 345.3 10.3378 345.383 10.3104C345.452 10.2966 345.493 10.2827 345.507 10.3931C345.535 10.5035 345.493 10.6001 345.342 10.6829ZM345.617 7.89515C345.548 7.93644 345.548 7.9779 345.41 7.95026C345.245 7.93644 345.162 7.68801 345.121 7.67403C345.065 7.64655 344.941 7.50852 344.996 7.43958C345.065 7.3843 345.369 7.3843 345.507 7.50852C345.673 7.64655 345.673 7.85352 345.617 7.89515ZM345.921 8.46078C345.962 8.41949 346.059 8.36421 346.183 8.36421C346.307 8.36421 346.473 8.44713 346.528 8.52989C346.57 8.62646 346.57 8.70922 346.487 8.79197C346.431 8.84725 346.059 8.75068 346.004 8.68158C345.921 8.59882 345.893 8.52988 345.921 8.46078ZM346.018 9.70295C345.976 9.74441 345.962 9.60637 346.018 9.53743C346.1 9.48215 346.28 9.38558 346.39 9.38558C346.487 9.38558 346.652 9.41322 346.625 9.49597C346.611 9.57873 346.583 9.7857 346.363 9.7857C346.142 9.81334 346.059 9.68913 346.018 9.70295ZM346.445 10.7243C346.266 10.7381 346.142 10.7105 346.114 10.5586C346.1 10.4208 346.238 10.3793 346.266 10.3793C346.28 10.3793 346.431 10.3517 346.473 10.3378C346.57 10.3378 346.735 10.2136 346.818 10.3378C346.859 10.4208 346.625 10.6829 346.445 10.7243ZM347.039 7.93644C347.011 7.99172 346.956 8.15724 346.749 8.10212C346.542 8.03302 346.445 7.93644 346.39 7.85369C346.349 7.77093 346.197 7.64672 346.321 7.5225C346.39 7.46738 346.707 7.59144 346.859 7.70183C346.983 7.82588 347.052 7.85352 347.039 7.93644ZM347.177 8.52989C347.218 8.44713 347.384 8.40567 347.508 8.40567C347.632 8.41949 347.798 8.46078 347.825 8.59882C347.853 8.72304 347.825 8.7645 347.784 8.83343C347.715 8.88871 347.466 8.80579 347.37 8.7645C347.259 8.72304 347.135 8.585 347.177 8.52989ZM347.204 9.48215C347.204 9.38558 347.342 9.3994 347.411 9.38558C347.439 9.35794 347.48 9.31664 347.591 9.30282C347.673 9.27518 347.853 9.27518 347.853 9.35777C347.88 9.41322 347.853 9.53743 347.632 9.60637C347.384 9.68913 347.218 9.57873 347.204 9.48215ZM348.005 10.3931C348.005 10.3931 347.825 10.5586 347.784 10.6277C347.715 10.669 347.604 10.7794 347.439 10.6416C347.342 10.545 347.439 10.3793 347.508 10.3378C347.563 10.2827 347.977 10.0343 348.06 10.1585C348.129 10.2826 348.005 10.3931 348.005 10.3931ZM348.252 7.9501C348.17 8.07432 348.045 8.0605 347.894 8.03286C347.756 8.01904 347.508 7.85352 347.521 7.68785C347.549 7.54998 347.797 7.59127 347.935 7.64655C348.087 7.70167 348.349 7.82588 348.252 7.9501ZM349.895 9.85497C349.812 9.85497 349.605 9.64783 349.936 9.60637C350.06 9.57873 350.074 9.66148 350.074 9.7857C350.074 9.88244 349.964 9.85497 349.895 9.85497ZM350.074 8.88871C349.936 8.84725 349.881 8.79197 349.964 8.68158C350.06 8.59882 350.102 8.62646 350.226 8.66776C350.322 8.70922 350.35 8.79197 350.322 8.87489C350.309 8.97163 350.226 8.93017 350.074 8.88871ZM350.86 11.8699C350.667 11.8284 350.488 11.5938 350.391 11.4558C350.308 11.2903 350.281 10.9866 350.35 10.8487C350.405 10.683 350.488 10.6692 350.571 10.7245C350.667 10.7796 350.612 11.1939 350.667 11.2075C350.736 11.249 350.778 11.539 350.957 11.5803C351.012 11.5803 351.081 11.7184 351.081 11.7184C351.081 11.7184 351.012 11.9112 350.86 11.8699Z" fill="#33A457"/>
<path fill-rule="evenodd" clip-rule="evenodd" d="M347.721 24.429C349.158 24.429 350.322 23.1563 350.322 21.5859C350.322 20.0158 349.158 18.743 347.721 18.743C346.285 18.743 345.121 20.0158 345.121 21.5859C345.121 23.1563 346.285 24.429 347.721 24.429ZM347.721 23.1614C347.028 23.1614 346.657 22.456 346.657 21.5859C346.657 20.7157 346.987 20.0104 347.721 20.0104C348.455 20.0104 348.786 20.7157 348.786 21.5859C348.786 22.456 348.415 23.1614 347.721 23.1614ZM336.29 24.2976H336.955C337.044 24.2984 337.13 24.2693 337.2 24.2149C337.27 24.1606 337.319 24.0841 337.34 23.9981L337.483 23.4328C337.505 23.3432 337.583 23.2831 337.675 23.2831H338.921C339.013 23.2831 339.09 23.3432 339.113 23.4328L339.256 23.9981C339.277 24.0841 339.326 24.1605 339.396 24.2149C339.465 24.2693 339.552 24.2984 339.64 24.2976H340.305C340.367 24.2976 340.428 24.2831 340.483 24.2553C340.538 24.2276 340.586 24.1873 340.623 24.1377C340.66 24.0882 340.685 24.0307 340.695 23.9698C340.706 23.9089 340.702 23.8464 340.685 23.7872L339.289 19.1211C339.265 19.0389 339.215 18.9667 339.147 18.9157C339.078 18.8646 338.995 18.8374 338.909 18.8383H337.686C337.508 18.8383 337.358 18.9502 337.307 19.1211L335.911 23.7872C335.893 23.8464 335.889 23.9089 335.9 23.9698C335.911 24.0306 335.936 24.0882 335.972 24.1377C336.009 24.1873 336.057 24.2276 336.113 24.2554C336.168 24.2831 336.229 24.2976 336.29 24.2976ZM338.674 22.1736H337.921C337.907 22.1733 337.893 22.17 337.88 22.1637C337.868 22.1573 337.856 22.1483 337.848 22.1371C337.839 22.1259 337.833 22.113 337.83 22.0991C337.827 22.0853 337.827 22.071 337.83 22.0572L338.256 20.3743C338.266 20.3358 338.329 20.3358 338.339 20.3743L338.765 22.0572C338.768 22.071 338.768 22.0853 338.765 22.0991C338.762 22.1129 338.756 22.1259 338.747 22.137C338.739 22.1482 338.728 22.1573 338.715 22.1636C338.702 22.1699 338.689 22.1733 338.674 22.1736ZM340.684 21.5862C340.684 23.1563 341.848 24.429 343.285 24.429C343.97 24.429 344.594 24.1391 345.058 23.6651C345.14 23.5819 345.138 23.447 345.059 23.3608L344.537 22.7904C344.432 22.6767 344.272 22.7094 344.161 22.8163C343.906 23.0612 343.705 23.1615 343.285 23.1615C342.55 23.1615 342.22 22.4562 342.22 21.586V21.5857C342.22 20.7155 342.55 20.0102 343.285 20.0102C343.705 20.0102 343.906 20.1104 344.161 20.3554C344.272 20.4623 344.432 20.4952 344.537 20.3814L345.059 19.811C345.138 19.7253 345.14 19.5899 345.058 19.5066C344.594 19.0326 343.97 18.7427 343.285 18.7427C341.848 18.7427 340.684 20.0155 340.684 21.5855V21.5862ZM353.215 22.7375C353.215 23.064 352.958 23.242 352.61 23.242C352.17 23.242 351.885 22.9791 351.621 22.7092C351.482 22.5666 351.248 22.5714 351.101 22.7058L350.774 23.0034C350.647 23.1197 350.55 23.3149 350.659 23.4488C351.012 23.8854 351.539 24.3813 352.809 24.3813C353.936 24.3813 354.64 23.5954 354.64 22.7482C354.64 22.0571 354.348 21.5999 353.523 21.1778L352.668 20.772C352.305 20.6752 352.15 20.5438 352.15 20.3064C352.15 20.0541 352.327 19.8998 352.616 19.8998C352.957 19.8998 353.244 20.1112 353.503 20.3189C353.654 20.4406 353.878 20.412 354.01 20.269L354.351 19.8992C354.47 19.7707 354.514 19.557 354.388 19.4349C353.977 19.0351 353.361 18.735 352.52 18.735C351.328 18.735 350.626 19.4737 350.626 20.3715C350.626 21.1283 350.994 21.5215 351.793 21.886L352.775 22.306C353.086 22.4024 353.215 22.5222 353.215 22.7375ZM362.127 20.9227H361.158C361.132 20.9227 361.106 20.9176 361.082 20.9076C361.058 20.8977 361.036 20.8831 361.018 20.8647C360.999 20.8462 360.985 20.8244 360.975 20.8003C360.965 20.7762 360.96 20.7505 360.96 20.7244V20.3273C360.96 20.2177 361.048 20.129 361.158 20.129H362.586C362.638 20.129 362.689 20.1188 362.738 20.0989C362.786 20.0789 362.829 20.0497 362.866 20.0129C362.903 19.9761 362.932 19.9324 362.952 19.8843C362.972 19.8361 362.982 19.7846 362.982 19.7325V19.2351C362.982 19.1831 362.972 19.1315 362.952 19.0834C362.932 19.0353 362.903 18.9915 362.866 18.9547C362.829 18.9179 362.786 18.8887 362.738 18.8688C362.689 18.8489 362.638 18.8386 362.586 18.8386H359.85C359.798 18.8386 359.747 18.8489 359.699 18.8688C359.65 18.8888 359.607 18.918 359.57 18.9548C359.533 18.9916 359.504 19.0353 359.484 19.0834C359.464 19.1315 359.454 19.1831 359.454 19.2351V23.9012C359.454 24.0063 359.496 24.1071 359.57 24.1815C359.644 24.2558 359.745 24.2976 359.85 24.2977H362.586C362.691 24.2977 362.792 24.256 362.866 24.1816C362.941 24.1072 362.982 24.0064 362.982 23.9012V23.4035C362.982 23.2984 362.941 23.1975 362.866 23.1232C362.792 23.0488 362.691 23.007 362.586 23.007H361.158C361.132 23.0071 361.106 23.0019 361.082 22.992C361.058 22.982 361.036 22.9674 361.018 22.949C360.999 22.9306 360.985 22.9087 360.975 22.8847C360.965 22.8606 360.96 22.8348 360.96 22.8088V22.4116C360.96 22.3024 361.048 22.2134 361.158 22.2134H362.127C362.179 22.2134 362.231 22.2031 362.279 22.1832C362.327 22.1633 362.371 22.1341 362.407 22.0973C362.444 22.0605 362.473 22.0167 362.493 21.9686C362.513 21.9205 362.523 21.8689 362.523 21.8169V21.3195C362.523 21.2674 362.513 21.2158 362.493 21.1677C362.473 21.1195 362.444 21.0758 362.407 21.0389C362.371 21.0021 362.327 20.9728 362.279 20.9529C362.231 20.9329 362.179 20.9227 362.127 20.9227ZM356.556 24.2976H357.269C357.488 24.2976 357.665 24.1199 357.665 23.9011V20.3271C357.665 20.2175 357.754 20.1288 357.863 20.1288H358.664C358.769 20.1288 358.87 20.0871 358.944 20.0127C359.019 19.9383 359.061 19.8375 359.061 19.7323V19.235C359.061 19.1298 359.019 19.029 358.944 18.9546C358.87 18.8802 358.769 18.8385 358.664 18.8385H355.16C355.108 18.8385 355.057 18.8487 355.009 18.8686C354.961 18.8885 354.917 18.9177 354.88 18.9546C354.843 18.9914 354.814 19.0351 354.794 19.0832C354.774 19.1313 354.764 19.1829 354.764 19.235V19.7323C354.764 19.7844 354.774 19.836 354.794 19.8841C354.814 19.9322 354.843 19.9759 354.88 20.0128C354.917 20.0496 354.961 20.0788 355.009 20.0987C355.057 20.1186 355.108 20.1289 355.16 20.1288H355.961C356.07 20.1288 356.159 20.2175 356.159 20.3271V23.9011C356.159 24.0062 356.201 24.107 356.275 24.1813C356.35 24.2557 356.451 24.2975 356.556 24.2976ZM335.225 23.0036H334.16C334.107 23.0036 334.057 22.9827 334.02 22.9455C333.983 22.9083 333.962 22.8579 333.962 22.8053V19.235C333.962 19.1298 333.92 19.029 333.846 18.9547C333.771 18.8803 333.671 18.8385 333.565 18.8385H332.852C332.747 18.8385 332.646 18.8803 332.572 18.9547C332.498 19.029 332.456 19.1298 332.456 19.235V23.9007C332.456 24.1199 332.634 24.2972 332.853 24.2969L334.912 24.2949L335.225 24.2943C335.331 24.2942 335.431 24.2524 335.505 24.1781C335.58 24.1038 335.621 24.0031 335.621 23.8981V23.4001C335.621 23.348 335.611 23.2965 335.591 23.2484C335.571 23.2003 335.542 23.1565 335.505 23.1197C335.469 23.0829 335.425 23.0537 335.377 23.0338C335.329 23.0138 335.277 23.0036 335.225 23.0036Z" fill="#33A457"/>
</svg>
