<svg width="118" height="22" viewBox="0 0 118 22" fill="none" xmlns="http://www.w3.org/2000/svg">
<g clip-path="url(#clip0_446_830)">
<rect width="22" height="22" rx="4" fill="white"/>
<path d="M9.1665 11.9167C9.56017 12.443 10.0624 12.8785 10.6392 13.1936C11.2159 13.5087 11.8537 13.6961 12.5093 13.743C13.1648 13.79 13.8228 13.6954 14.4386 13.4657C15.0543 13.236 15.6135 12.8765 16.0782 12.4117L18.8282 9.66172C19.6631 8.79729 20.125 7.63953 20.1146 6.43779C20.1042 5.23606 19.6221 4.0865 18.7723 3.23671C17.9226 2.38693 16.773 1.9049 15.5713 1.89446C14.3695 1.88402 13.2118 2.34599 12.3473 3.18088L10.7707 4.74838" stroke="#A8A8A8" stroke-width="2" stroke-linecap="round" stroke-linejoin="round"/>
<path d="M12.8335 10.0834C12.4399 9.55709 11.9376 9.12163 11.3608 8.80652C10.7841 8.4914 10.1463 8.30402 9.49075 8.25707C8.83521 8.21012 8.17723 8.30471 7.56145 8.53441C6.94567 8.76411 6.3865 9.12356 5.92185 9.58838L3.17185 12.3384C2.33696 13.2028 1.87498 14.3606 1.88543 15.5623C1.89587 16.764 2.37789 17.9136 3.22768 18.7634C4.07747 19.6132 5.22703 20.0952 6.42876 20.1056C7.6305 20.1161 8.78826 19.6541 9.65268 18.8192L11.2202 17.2517" stroke="#A8A8A8" stroke-width="2" stroke-linecap="round" stroke-linejoin="round"/>
</g>
<rect x="32" width="22" height="22" rx="4" fill="white"/>
<path d="M49.4167 2.75H36.5833C35.5708 2.75 34.75 3.57081 34.75 4.58333V17.4167C34.75 18.4292 35.5708 19.25 36.5833 19.25H49.4167C50.4292 19.25 51.25 18.4292 51.25 17.4167V4.58333C51.25 3.57081 50.4292 2.75 49.4167 2.75Z" stroke="#A8A8A8" stroke-width="2" stroke-linecap="round" stroke-linejoin="round"/>
<path d="M39.7915 9.16663C40.5509 9.16663 41.1665 8.55102 41.1665 7.79163C41.1665 7.03223 40.5509 6.41663 39.7915 6.41663C39.0321 6.41663 38.4165 7.03223 38.4165 7.79163C38.4165 8.55102 39.0321 9.16663 39.7915 9.16663Z" stroke="#A8A8A8" stroke-width="2" stroke-linecap="round" stroke-linejoin="round"/>
<path d="M51.2502 13.75L46.6668 9.16663L36.5835 19.25" stroke="#A8A8A8" stroke-width="2" stroke-linecap="round" stroke-linejoin="round"/>
<g clip-path="url(#clip1_446_830)">
<rect x="64" width="22" height="22" rx="4" fill="white"/>
<path d="M75.0002 20.1667C80.0628 20.1667 84.1668 16.0627 84.1668 11C84.1668 5.93743 80.0628 1.83337 75.0002 1.83337C69.9376 1.83337 65.8335 5.93743 65.8335 11C65.8335 16.0627 69.9376 20.1667 75.0002 20.1667Z" stroke="#A8A8A8" stroke-width="2" stroke-linecap="round" stroke-linejoin="round"/>
<path d="M73.1665 7.33337L78.6665 11L73.1665 14.6667V7.33337Z" stroke="#A8A8A8" stroke-width="2" stroke-linecap="round" stroke-linejoin="round"/>
</g>
<rect x="96" width="22" height="22" rx="4" fill="white"/>
<path d="M113.188 3.20929C113.579 3.20929 113.966 3.28635 114.328 3.43607C114.689 3.58578 115.018 3.80523 115.294 4.08187C115.571 4.35851 115.79 4.68693 115.94 5.04838C116.09 5.40983 116.167 5.79723 116.167 6.18846V15.8162C116.167 16.2074 116.09 16.5948 115.94 16.9563C115.79 17.3177 115.571 17.6462 115.294 17.9228C115.018 18.1994 114.689 18.4189 114.328 18.5686C113.966 18.7183 113.579 18.7954 113.188 18.7954H100.813C100.023 18.7954 99.2648 18.4815 98.7061 17.9228C98.1474 17.3641 97.8335 16.6063 97.8335 15.8162V6.18754C97.8335 5.39742 98.1474 4.63965 98.7061 4.08095C99.2648 3.52225 100.023 3.20837 100.813 3.20837H113.188V3.20929ZM103.347 8.13271C101.856 8.13271 100.823 9.42521 100.823 10.9955C100.823 12.5657 101.857 13.861 103.347 13.861C104.16 13.861 104.908 13.4695 105.282 12.7481L105.353 12.5996L105.374 12.5355L105.39 12.4667L105.398 12.3906V10.9973L105.391 10.912C105.373 10.7923 105.318 10.6812 105.233 10.5949C105.148 10.5086 105.038 10.4515 104.918 10.4317L104.825 10.4244H103.906L103.822 10.4299C103.702 10.448 103.591 10.5034 103.505 10.5884C103.419 10.6734 103.362 10.7834 103.342 10.9029L103.333 10.9973L103.34 11.0816C103.377 11.3273 103.569 11.5216 103.813 11.562L103.906 11.5702H104.251V12.2421L104.246 12.2559C104.072 12.5492 103.74 12.7142 103.347 12.7142C102.553 12.7142 101.969 11.9827 101.969 10.9955C101.969 10.0091 102.552 9.27854 103.347 9.27854C103.733 9.27854 103.952 9.32162 104.227 9.45271C104.364 9.51442 104.519 9.52036 104.659 9.46927C104.8 9.41817 104.915 9.31409 104.98 9.17928C105.045 9.04447 105.054 8.88961 105.006 8.74783C104.959 8.60605 104.857 8.48858 104.724 8.42054C104.281 8.20787 103.894 8.13271 103.347 8.13271ZM107.577 8.24454C107.439 8.24458 107.307 8.29393 107.203 8.38361C107.099 8.47328 107.03 8.59732 107.01 8.73312L107.004 8.81746V13.1835L107.01 13.2679C107.031 13.4035 107.099 13.5272 107.203 13.6167C107.307 13.7061 107.44 13.7553 107.577 13.7553C107.714 13.7553 107.846 13.7061 107.95 13.6167C108.054 13.5272 108.123 13.4035 108.143 13.2679L108.15 13.1835V8.81746L108.143 8.73312C108.123 8.59732 108.055 8.47328 107.951 8.38361C107.847 8.29393 107.714 8.24458 107.577 8.24454ZM112.154 8.25096L110.323 8.24454C110.186 8.24404 110.053 8.29281 109.949 8.38197C109.844 8.47113 109.776 8.59476 109.755 8.73037L109.748 8.81562V13.168L109.754 13.2532C109.79 13.4989 109.983 13.6932 110.227 13.7335L110.321 13.7409L110.406 13.7354C110.651 13.6987 110.846 13.5062 110.886 13.2624L110.894 13.168L110.893 12.1459H111.923L112.007 12.1404C112.253 12.1037 112.447 11.9112 112.488 11.6674L112.496 11.5739L112.489 11.4895C112.471 11.3696 112.416 11.2584 112.331 11.1719C112.246 11.0854 112.136 11.0281 112.016 11.0083L111.923 11.001H110.893V9.39129L112.149 9.39679L112.234 9.39129C112.371 9.37205 112.495 9.30435 112.586 9.20061C112.676 9.09686 112.727 8.96399 112.727 8.82632C112.728 8.68864 112.679 8.55537 112.589 8.4509C112.499 8.34642 112.375 8.27772 112.239 8.25737L112.154 8.25096L110.323 8.24454L112.154 8.25096Z" fill="#A8A8A8"/>
<defs>
<clipPath id="clip0_446_830">
<rect width="22" height="22" rx="4" fill="white"/>
</clipPath>
<clipPath id="clip1_446_830">
<rect x="64" width="22" height="22" rx="4" fill="white"/>
</clipPath>
</defs>
</svg>
