<svg width="82" height="14" viewBox="0 0 82 14" fill="none" xmlns="http://www.w3.org/2000/svg">
<path d="M18.7585 11V2.27273H22.2017C22.8608 2.27273 23.4233 2.39062 23.8892 2.62642C24.358 2.85937 24.7145 3.19034 24.9588 3.61932C25.206 4.04545 25.3295 4.54687 25.3295 5.12358C25.3295 5.70312 25.2045 6.2017 24.9545 6.61932C24.7045 7.03409 24.3423 7.35227 23.8679 7.57386C23.3963 7.79545 22.8253 7.90625 22.1548 7.90625H19.8494V6.4233H21.8565C22.2088 6.4233 22.5014 6.375 22.7344 6.27841C22.9673 6.18182 23.1406 6.03693 23.2543 5.84375C23.3707 5.65057 23.429 5.41051 23.429 5.12358C23.429 4.83381 23.3707 4.58949 23.2543 4.39062C23.1406 4.19176 22.9659 4.04119 22.7301 3.93892C22.4972 3.83381 22.2031 3.78125 21.848 3.78125H20.6037V11H18.7585ZM23.4716 7.02841L25.6406 11H23.6037L21.4815 7.02841H23.4716ZM29.4769 11.1278C28.8036 11.1278 28.2241 10.9915 27.7383 10.7188C27.2553 10.4432 26.8832 10.054 26.6218 9.55114C26.3604 9.04545 26.2298 8.44744 26.2298 7.7571C26.2298 7.08381 26.3604 6.4929 26.6218 5.98438C26.8832 5.47585 27.2511 5.07955 27.7255 4.79545C28.2028 4.51136 28.7624 4.36932 29.4045 4.36932C29.8363 4.36932 30.2383 4.43892 30.6104 4.57812C30.9854 4.71449 31.3121 4.92045 31.5906 5.19602C31.8718 5.47159 32.0906 5.81818 32.2468 6.2358C32.4031 6.65057 32.4812 7.13636 32.4812 7.69318V8.19176H26.9542V7.06676H30.7724C30.7724 6.8054 30.7156 6.57386 30.6019 6.37216C30.4883 6.17045 30.3306 6.01278 30.1289 5.89915C29.93 5.78267 29.6985 5.72443 29.4343 5.72443C29.1587 5.72443 28.9144 5.78835 28.7013 5.91619C28.4911 6.04119 28.3263 6.21023 28.207 6.4233C28.0877 6.63352 28.0266 6.8679 28.0238 7.12642V8.19602C28.0238 8.51989 28.0835 8.79972 28.2028 9.03551C28.3249 9.27131 28.4968 9.45312 28.7184 9.58097C28.94 9.70881 29.2028 9.77273 29.5067 9.77273C29.7085 9.77273 29.8931 9.74432 30.0607 9.6875C30.2283 9.63068 30.3718 9.54545 30.4911 9.43182C30.6104 9.31818 30.7013 9.17898 30.7638 9.0142L32.4428 9.125C32.3576 9.52841 32.1829 9.88068 31.9187 10.1818C31.6573 10.4801 31.3192 10.7131 30.9045 10.8807C30.4925 11.0455 30.0167 11.1278 29.4769 11.1278ZM39.1119 6.32102L37.4499 6.4233C37.4215 6.28125 37.3604 6.15341 37.2667 6.03977C37.1729 5.9233 37.0494 5.83097 36.896 5.76278C36.7454 5.69176 36.565 5.65625 36.3548 5.65625C36.0735 5.65625 35.8363 5.71591 35.6431 5.83523C35.4499 5.9517 35.3533 6.10795 35.3533 6.30398C35.3533 6.46023 35.4158 6.59233 35.5408 6.70028C35.6658 6.80824 35.8803 6.89489 36.1843 6.96023L37.369 7.19886C38.0053 7.32955 38.4798 7.53977 38.7923 7.82955C39.1048 8.11932 39.261 8.5 39.261 8.97159C39.261 9.40057 39.1346 9.77699 38.8817 10.1009C38.6317 10.4247 38.288 10.6776 37.8505 10.8594C37.4158 11.0384 36.9144 11.1278 36.3462 11.1278C35.4798 11.1278 34.7894 10.9474 34.2752 10.5866C33.7638 10.223 33.4641 9.72869 33.3761 9.10369L35.1616 9.00994C35.2156 9.27415 35.3462 9.47585 35.5536 9.61506C35.761 9.75142 36.0266 9.8196 36.3505 9.8196C36.6687 9.8196 36.9244 9.75852 37.1175 9.63636C37.3136 9.51136 37.413 9.35085 37.4158 9.15483C37.413 8.99006 37.3434 8.85511 37.207 8.75C37.0707 8.64205 36.8604 8.55966 36.5763 8.50284L35.4428 8.27699C34.8036 8.14915 34.3278 7.92756 34.0153 7.61222C33.7056 7.29687 33.5508 6.89489 33.5508 6.40625C33.5508 5.9858 33.6644 5.62358 33.8917 5.3196C34.1218 5.01562 34.4442 4.78125 34.859 4.61648C35.2766 4.4517 35.7653 4.36932 36.3249 4.36932C37.1516 4.36932 37.8022 4.54403 38.2766 4.89347C38.7539 5.2429 39.0323 5.71875 39.1119 6.32102ZM40.4041 13.4545V4.45455H42.1939V5.55398H42.2749C42.3544 5.37784 42.4695 5.19886 42.62 5.01705C42.7734 4.83239 42.9723 4.67898 43.2166 4.55682C43.4638 4.43182 43.7706 4.36932 44.1371 4.36932C44.6143 4.36932 45.0547 4.49432 45.4581 4.74432C45.8615 4.99148 46.1839 5.36506 46.4254 5.86506C46.6669 6.36222 46.7876 6.9858 46.7876 7.7358C46.7876 8.46591 46.6697 9.08239 46.4339 9.58523C46.201 10.0852 45.8828 10.4645 45.4794 10.723C45.0788 10.9787 44.63 11.1065 44.1328 11.1065C43.7805 11.1065 43.4808 11.0483 43.2337 10.9318C42.9893 10.8153 42.7891 10.669 42.6328 10.4929C42.4766 10.3139 42.3572 10.1335 42.2749 9.9517H42.2195V13.4545H40.4041ZM42.1811 7.72727C42.1811 8.11648 42.2351 8.45597 42.343 8.74574C42.451 9.03551 42.6072 9.26136 42.8118 9.4233C43.0163 9.58239 43.2649 9.66193 43.5575 9.66193C43.853 9.66193 44.103 9.58097 44.3075 9.41903C44.5121 9.25426 44.6669 9.02699 44.772 8.73722C44.88 8.4446 44.9339 8.10795 44.9339 7.72727C44.9339 7.34943 44.8814 7.01705 44.7763 6.73011C44.6712 6.44318 44.5163 6.21875 44.3118 6.05682C44.1072 5.89489 43.8558 5.81392 43.5575 5.81392C43.2621 5.81392 43.0121 5.89205 42.8075 6.0483C42.6058 6.20455 42.451 6.42614 42.343 6.71307C42.2351 7 42.1811 7.33807 42.1811 7.72727ZM50.9553 11.1278C50.2933 11.1278 49.7209 10.9872 49.2379 10.706C48.7578 10.4219 48.3871 10.027 48.1257 9.52131C47.8643 9.01278 47.7337 8.4233 47.7337 7.75284C47.7337 7.0767 47.8643 6.4858 48.1257 5.98011C48.3871 5.47159 48.7578 5.0767 49.2379 4.79545C49.7209 4.51136 50.2933 4.36932 50.9553 4.36932C51.6172 4.36932 52.1882 4.51136 52.6683 4.79545C53.1513 5.0767 53.5234 5.47159 53.7848 5.98011C54.0462 6.4858 54.1768 7.0767 54.1768 7.75284C54.1768 8.4233 54.0462 9.01278 53.7848 9.52131C53.5234 10.027 53.1513 10.4219 52.6683 10.706C52.1882 10.9872 51.6172 11.1278 50.9553 11.1278ZM50.9638 9.72159C51.2649 9.72159 51.5163 9.63636 51.718 9.46591C51.9197 9.29261 52.0717 9.05682 52.174 8.75852C52.2791 8.46023 52.3317 8.12074 52.3317 7.74006C52.3317 7.35938 52.2791 7.01989 52.174 6.72159C52.0717 6.4233 51.9197 6.1875 51.718 6.0142C51.5163 5.84091 51.2649 5.75426 50.9638 5.75426C50.6598 5.75426 50.4041 5.84091 50.1967 6.0142C49.9922 6.1875 49.8374 6.4233 49.7322 6.72159C49.63 7.01989 49.5788 7.35938 49.5788 7.74006C49.5788 8.12074 49.63 8.46023 49.7322 8.75852C49.8374 9.05682 49.9922 9.29261 50.1967 9.46591C50.4041 9.63636 50.6598 9.72159 50.9638 9.72159ZM57.1726 7.21591V11H55.3572V4.45455H57.0874V5.60938H57.1641C57.3089 5.22869 57.5518 4.92756 57.8928 4.70597C58.2337 4.48153 58.647 4.36932 59.1328 4.36932C59.5874 4.36932 59.9837 4.46875 60.3217 4.66761C60.6598 4.86648 60.9226 5.15057 61.1101 5.51989C61.2976 5.88636 61.3913 6.32386 61.3913 6.83239V11H59.576V7.15625C59.5788 6.75568 59.4766 6.44318 59.2692 6.21875C59.0618 5.99148 58.7763 5.87784 58.4126 5.87784C58.1683 5.87784 57.9524 5.9304 57.7649 6.03551C57.5803 6.14062 57.4354 6.29403 57.3303 6.49574C57.228 6.6946 57.1754 6.93466 57.1726 7.21591ZM65.234 11.1065C64.7369 11.1065 64.2866 10.9787 63.8832 10.723C63.4826 10.4645 63.1644 10.0852 62.9286 9.58523C62.6957 9.08239 62.5792 8.46591 62.5792 7.7358C62.5792 6.9858 62.6999 6.36222 62.9414 5.86506C63.1829 5.36506 63.5039 4.99148 63.9045 4.74432C64.3079 4.49432 64.7496 4.36932 65.2298 4.36932C65.5962 4.36932 65.9016 4.43182 66.146 4.55682C66.3931 4.67898 66.592 4.83239 66.7425 5.01705C66.896 5.19886 67.0124 5.37784 67.092 5.55398H67.1474V2.27273H68.9585V11H67.1687V9.9517H67.092C67.0067 10.1335 66.886 10.3139 66.7298 10.4929C66.5763 10.669 66.3761 10.8153 66.1289 10.9318C65.8846 11.0483 65.5863 11.1065 65.234 11.1065ZM65.8093 9.66193C66.1019 9.66193 66.3491 9.58239 66.5508 9.4233C66.7553 9.26136 66.9116 9.03551 67.0195 8.74574C67.1303 8.45597 67.1857 8.11648 67.1857 7.72727C67.1857 7.33807 67.1317 7 67.0238 6.71307C66.9158 6.42614 66.7596 6.20455 66.555 6.0483C66.3505 5.89205 66.1019 5.81392 65.8093 5.81392C65.511 5.81392 65.2596 5.89489 65.055 6.05682C64.8505 6.21875 64.6957 6.44318 64.5906 6.73011C64.4854 7.01705 64.4329 7.34943 64.4329 7.72727C64.4329 8.10795 64.4854 8.4446 64.5906 8.73722C64.6985 9.02699 64.8533 9.25426 65.055 9.41903C65.2596 9.58097 65.511 9.66193 65.8093 9.66193ZM73.4339 11.1278C72.7607 11.1278 72.1811 10.9915 71.6953 10.7188C71.2124 10.4432 70.8402 10.054 70.5788 9.55114C70.3175 9.04545 70.1868 8.44744 70.1868 7.7571C70.1868 7.08381 70.3175 6.4929 70.5788 5.98438C70.8402 5.47585 71.2081 5.07955 71.6825 4.79545C72.1598 4.51136 72.7195 4.36932 73.3615 4.36932C73.7933 4.36932 74.1953 4.43892 74.5675 4.57812C74.9425 4.71449 75.2692 4.92045 75.5476 5.19602C75.8288 5.47159 76.0476 5.81818 76.2038 6.2358C76.3601 6.65057 76.4382 7.13636 76.4382 7.69318V8.19176H70.9112V7.06676H74.7294C74.7294 6.8054 74.6726 6.57386 74.5589 6.37216C74.4453 6.17045 74.2876 6.01278 74.0859 5.89915C73.8871 5.78267 73.6555 5.72443 73.3913 5.72443C73.1158 5.72443 72.8714 5.78835 72.6584 5.91619C72.4482 6.04119 72.2834 6.21023 72.1641 6.4233C72.0447 6.63352 71.9837 6.8679 71.9808 7.12642V8.19602C71.9808 8.51989 72.0405 8.79972 72.1598 9.03551C72.282 9.27131 72.4538 9.45312 72.6754 9.58097C72.897 9.70881 73.1598 9.77273 73.4638 9.77273C73.6655 9.77273 73.8501 9.74432 74.0178 9.6875C74.1854 9.63068 74.3288 9.54545 74.4482 9.43182C74.5675 9.31818 74.6584 9.17898 74.7209 9.0142L76.3999 9.125C76.3146 9.52841 76.1399 9.88068 75.8757 10.1818C75.6143 10.4801 75.2763 10.7131 74.8615 10.8807C74.4496 11.0455 73.9737 11.1278 73.4339 11.1278ZM77.6229 11V4.45455H79.3828V5.59659H79.451C79.5703 5.19034 79.7706 4.88352 80.0518 4.67614C80.3331 4.46591 80.657 4.3608 81.0234 4.3608C81.1143 4.3608 81.2124 4.36648 81.3175 4.37784C81.4226 4.3892 81.5149 4.40483 81.5945 4.42472V6.03551C81.5092 6.00994 81.3913 5.98722 81.2408 5.96733C81.0902 5.94744 80.9524 5.9375 80.8274 5.9375C80.5604 5.9375 80.3217 5.99574 80.1115 6.11222C79.9041 6.22585 79.7393 6.38494 79.6172 6.58949C79.4979 6.79403 79.4382 7.02983 79.4382 7.29688V11H77.6229Z" fill="#191919"/>
<path d="M5.19688 0.408691V3.84112C8.31464 3.84121 14 3.87542 14 13.5913C13.3554 7.09416 10.3943 7.0533 5.19688 7.05323V10.8016L0 5.60476L5.19688 0.408691Z" fill="black"/>
</svg>
