<svg width="54" height="38" viewBox="0 0 54 38" fill="none" xmlns="http://www.w3.org/2000/svg">
<path d="M31.1228 12.6667C31.1228 10.1471 30.0563 7.73075 28.1579 5.94915C26.2594 4.16755 23.6846 3.16666 20.9999 3.16666C18.3151 3.16666 15.7403 4.16755 13.8418 5.94915C11.9434 7.73075 10.8769 10.1471 10.8769 12.6667C10.8769 23.75 5.81543 26.9167 5.81543 26.9167H36.1843C36.1843 26.9167 31.1228 23.75 31.1228 12.6667Z" stroke="black" stroke-width="4" stroke-linecap="round" stroke-linejoin="round"/>
<path d="M23.4631 33.25C23.1664 33.7299 22.7407 34.1282 22.2284 34.4051C21.7162 34.682 21.1354 34.8277 20.5443 34.8277C19.9531 34.8277 19.3724 34.682 18.8601 34.4051C18.3479 34.1282 17.9221 33.7299 17.6255 33.25" stroke="black" stroke-width="4" stroke-linecap="round" stroke-linejoin="round"/>
<g clip-path="url(#clip0_0_1)">
<path d="M46 23C48.1217 23 50.1566 22.1571 51.6569 20.6569C53.1571 19.1566 54 17.1217 54 15C54 12.8783 53.1571 10.8434 51.6569 9.34315C50.1566 7.84285 48.1217 7 46 7C43.8783 7 41.8434 7.84285 40.3431 9.34315C38.8429 10.8434 38 12.8783 38 15C38 17.1217 38.8429 19.1566 40.3431 20.6569C41.8434 22.1571 43.8783 23 46 23ZM46.93 13.588L45.93 18.293C45.86 18.633 45.959 18.826 46.234 18.826C46.428 18.826 46.721 18.756 46.92 18.58L46.832 18.996C46.545 19.342 45.912 19.594 45.367 19.594C44.664 19.594 44.365 19.172 44.559 18.275L45.297 14.807C45.361 14.514 45.303 14.408 45.01 14.337L44.559 14.256L44.641 13.875L46.931 13.588H46.93ZM46 12.5C45.7348 12.5 45.4804 12.3946 45.2929 12.2071C45.1054 12.0196 45 11.7652 45 11.5C45 11.2348 45.1054 10.9804 45.2929 10.7929C45.4804 10.6054 45.7348 10.5 46 10.5C46.2652 10.5 46.5196 10.6054 46.7071 10.7929C46.8946 10.9804 47 11.2348 47 11.5C47 11.7652 46.8946 12.0196 46.7071 12.2071C46.5196 12.3946 46.2652 12.5 46 12.5Z" fill="black"/>
</g>
<defs>
<clipPath id="clip0_0_1">
<rect width="16" height="16" fill="white" transform="translate(38 7)"/>
</clipPath>
</defs>
</svg>
