<svg width="16" height="16" viewBox="0 0 16 16" fill="none" xmlns="http://www.w3.org/2000/svg">
<path d="M8.24672 1.50393C8.26533 1.68693 8.2105 1.86984 8.09428 2.01242C7.97806 2.15501 7.80997 2.2456 7.62697 2.26428C6.49591 2.38191 5.42133 2.81759 4.52771 3.52085C3.63409 4.22411 2.95801 5.16617 2.5778 6.23788C2.19759 7.30959 2.1288 8.4671 2.3794 9.5763C2.63001 10.6855 3.18976 11.701 3.99379 12.5051C4.79783 13.3093 5.81325 13.8692 6.92242 14.1199C8.03158 14.3707 9.1891 14.3021 10.2609 13.922C11.3326 13.542 12.2748 12.866 12.9782 11.9725C13.6816 11.079 14.1174 10.0044 14.2352 8.8734C14.2432 8.78175 14.2693 8.6926 14.3121 8.61115C14.3548 8.52969 14.4133 8.45755 14.4842 8.39893C14.5552 8.34031 14.637 8.29638 14.725 8.26969C14.8131 8.243 14.9056 8.23409 14.9971 8.24347C15.0886 8.25286 15.1773 8.28035 15.2581 8.32435C15.3389 8.36835 15.4102 8.42799 15.4677 8.49978C15.5252 8.57157 15.5679 8.65409 15.5932 8.74253C15.6186 8.83097 15.6261 8.92356 15.6153 9.01493C15.4708 10.407 14.9347 11.7297 14.0693 12.8296C13.2039 13.9295 12.0444 14.7617 10.7254 15.2296C9.4064 15.6976 7.98177 15.7822 6.61662 15.4737C5.25148 15.1651 4.00173 14.476 3.01219 13.4862C2.02265 12.4965 1.33385 11.2466 1.0256 9.88136C0.717348 8.51615 0.802276 7.09153 1.27054 5.77261C1.7388 4.45369 2.57123 3.29447 3.67135 2.42928C4.77147 1.56409 6.09424 1.02836 7.48637 0.884177C7.66938 0.865567 7.85228 0.9204 7.99487 1.03662C8.13746 1.15284 8.22805 1.32093 8.24672 1.50393ZM9.19022 1.44288C9.21141 1.35416 9.24988 1.27049 9.30343 1.19666C9.35698 1.12282 9.42457 1.06028 9.50233 1.01259C9.58008 0.964908 9.66647 0.933025 9.75656 0.918768C9.84665 0.90451 9.93867 0.908158 10.0273 0.929502C10.377 1.01275 10.7183 1.1219 11.0476 1.25325C11.2138 1.32455 11.3456 1.45794 11.415 1.625C11.4843 1.79206 11.4856 1.97958 11.4186 2.1476C11.3517 2.31562 11.2218 2.45086 11.0566 2.52449C10.8914 2.59812 10.704 2.60432 10.5342 2.54178C10.2639 2.43469 9.98634 2.3469 9.7036 2.27908C9.52479 2.23608 9.37038 2.12385 9.27429 1.96705C9.17819 1.81025 9.14737 1.62171 9.19022 1.44288ZM15.2462 5.4509C15.1781 5.27991 15.0449 5.14297 14.8759 5.07019C14.7068 4.99742 14.5158 4.99479 14.3448 5.06286C14.1738 5.13094 14.0369 5.26416 13.9641 5.43321C13.8913 5.60225 13.8887 5.79328 13.9567 5.96428C14.0631 6.23253 14.1519 6.51003 14.2204 6.79493C14.2633 6.97389 14.3756 7.12847 14.5325 7.22466C14.6102 7.27229 14.6965 7.30415 14.7865 7.31842C14.8765 7.33269 14.9684 7.3291 15.057 7.30784C15.1457 7.28658 15.2292 7.24808 15.3029 7.19453C15.3767 7.14098 15.4391 7.07343 15.4868 6.99574C15.5344 6.91804 15.5663 6.83173 15.5805 6.74173C15.5948 6.65172 15.5912 6.55979 15.5699 6.47118C15.4866 6.12376 15.3785 5.78279 15.2462 5.4509ZM12.2177 2.6315C12.3386 2.49279 12.5096 2.40776 12.6931 2.39509C12.8766 2.38243 13.0577 2.44318 13.1964 2.56398C13.4804 2.81095 13.7458 3.0792 13.99 3.36595C14.1093 3.50616 14.1679 3.68798 14.1531 3.87143C14.1383 4.05487 14.0512 4.22491 13.911 4.34414C13.7708 4.46337 13.5889 4.52202 13.4055 4.50718C13.222 4.49235 13.052 4.40526 12.9328 4.26505C12.7336 4.03087 12.5172 3.81196 12.2853 3.61015C12.1466 3.48932 12.0615 3.31833 12.0489 3.13481C12.0362 2.95128 12.097 2.77024 12.2177 2.6315ZM8.2495 4.3187C8.2495 4.13471 8.17641 3.95825 8.0463 3.82815C7.9162 3.69804 7.73974 3.62495 7.55575 3.62495C7.37176 3.62495 7.1953 3.69804 7.06519 3.82815C6.93509 3.95825 6.862 4.13471 6.862 4.3187V8.9437C6.862 9.32758 7.1728 9.63745 7.55575 9.63745H10.3307C10.5147 9.63745 10.6912 9.56436 10.8213 9.43426C10.9514 9.30415 11.0245 9.1277 11.0245 8.9437C11.0245 8.75971 10.9514 8.58325 10.8213 8.45315C10.6912 8.32304 10.5147 8.24995 10.3307 8.24995H8.2495V4.3187Z" fill="black"/>
</svg>
