<svg width="14" height="14" viewBox="0 0 14 14" fill="none" xmlns="http://www.w3.org/2000/svg">
<path d="M6.9987 12.3335C4.0587 12.3335 1.66536 9.94016 1.66536 7.00016C1.66536 4.06016 4.0587 1.66683 6.9987 1.66683C9.9387 1.66683 12.332 4.06016 12.332 7.00016C12.332 9.94016 9.9387 12.3335 6.9987 12.3335ZM6.9987 0.333496C3.31203 0.333496 0.332031 3.3135 0.332031 7.00016C0.332031 10.6868 3.31203 13.6668 6.9987 13.6668C10.6854 13.6668 13.6654 10.6868 13.6654 7.00016C13.6654 3.3135 10.6854 0.333496 6.9987 0.333496ZM8.72536 4.3335L6.9987 6.06016L5.27203 4.3335L4.33203 5.2735L6.0587 7.00016L4.33203 8.72683L5.27203 9.66683L6.9987 7.94016L8.72536 9.66683L9.66536 8.72683L7.9387 7.00016L9.66536 5.2735L8.72536 4.3335Z" fill="white"/>
</svg>
