<svg width="16" height="12" viewBox="0 0 16 12" fill="none" xmlns="http://www.w3.org/2000/svg">
<path d="M0.421875 12V8.625C0.421875 7.66667 0.609375 6.6875 0.984375 5.6875C1.35938 4.6875 1.85417 3.74479 2.46875 2.85937C3.08333 1.97396 3.75 1.23437 4.46875 0.640625L7.40625 2.375C6.82292 3.29167 6.34375 4.25 5.96875 5.25C5.60417 6.25 5.42188 7.36458 5.42188 8.59375V12H0.421875ZM8.3125 12V8.625C8.3125 7.66667 8.5 6.6875 8.875 5.6875C9.25 4.6875 9.74479 3.74479 10.3594 2.85937C10.974 1.97396 11.6406 1.23437 12.3594 0.640625L15.2969 2.375C14.7135 3.29167 14.2344 4.25 13.8594 5.25C13.4948 6.25 13.3125 7.36458 13.3125 8.59375V12H8.3125Z" fill="#E4B408"/>
</svg>
