<svg width="26" height="26" viewBox="0 0 26 26" fill="none" xmlns="http://www.w3.org/2000/svg">
<g clip-path="url(#clip0_720_410)">
<path d="M7.44843 10.6985C6.5896 10.6985 5.89574 11.3924 5.89574 12.2512C5.89574 13.11 6.5896 13.8039 7.44843 13.8039C8.30725 13.8039 9.00111 13.11 9.00111 12.2512C9.00111 11.3924 8.30725 10.6985 7.44843 10.6985ZM12.8828 10.6985C12.024 10.6985 11.3301 11.3924 11.3301 12.2512C11.3301 13.11 12.024 13.8039 12.8828 13.8039C13.7416 13.8039 14.4355 13.11 14.4355 12.2512C14.4355 11.3924 13.7416 10.6985 12.8828 10.6985ZM18.3172 10.6985C17.4584 10.6985 16.7645 11.3924 16.7645 12.2512C16.7645 13.11 17.4584 13.8039 18.3172 13.8039C19.176 13.8039 19.8699 13.11 19.8699 12.2512C19.8699 11.3924 19.176 10.6985 18.3172 10.6985ZM12.8828 2.15875C6.0219 2.15875 0.46135 6.67609 0.46135 12.2512C0.46135 14.5608 1.42693 16.6763 3.02813 18.3794C2.30516 20.2912 0.801 21.9118 0.776739 21.9312C0.456498 22.2709 0.36916 22.7658 0.553541 23.1928C0.737922 23.6198 1.16006 23.8963 1.62586 23.8963C4.60993 23.8963 6.96321 22.6493 8.37519 21.6498C9.77745 22.0913 11.2913 22.3436 12.8828 22.3436C19.7437 22.3436 25.3043 17.8263 25.3043 12.2512C25.3043 6.67609 19.7437 2.15875 12.8828 2.15875ZM12.8828 20.0146C11.5873 20.0146 10.3063 19.8157 9.07874 19.4275L7.97731 19.0782L7.03114 19.7477C6.33729 20.2378 5.38627 20.7861 4.24116 21.1549C4.59537 20.5678 4.93987 19.9079 5.20674 19.2043L5.72107 17.8409L4.72153 16.7831C3.84329 15.8466 2.79038 14.2988 2.79038 12.2512C2.79038 7.97161 7.31742 4.48778 12.8828 4.48778C18.4482 4.48778 22.9753 7.97161 22.9753 12.2512C22.9753 16.5308 18.4482 20.0146 12.8828 20.0146Z" fill="#222222"/>
</g>
<defs>
<clipPath id="clip0_720_410">
<rect width="24.8429" height="24.8429" fill="white" transform="translate(0.461304 0.606079)"/>
</clipPath>
</defs>
</svg>
