<svg width="35" height="34" viewBox="0 0 35 34" fill="none" xmlns="http://www.w3.org/2000/svg">
<rect width="34" height="34" transform="translate(0.5)" fill="black"/>
<path d="M12.8333 23.6667C12.4667 23.6667 12.1527 23.5363 11.8913 23.2754C11.6304 23.014 11.5 22.7 11.5 22.3334V13H12.8333V22.3334H20.1667V23.6667H12.8333ZM15.5 21C15.1333 21 14.8196 20.8696 14.5587 20.6087C14.2973 20.3474 14.1667 20.0334 14.1667 19.6667V11.6667C14.1667 11.3 14.2973 10.986 14.5587 10.7247C14.8196 10.4638 15.1333 10.3334 15.5 10.3334H21.5C21.8667 10.3334 22.1807 10.4638 22.442 10.7247C22.7029 10.986 22.8333 11.3 22.8333 11.6667V19.6667C22.8333 20.0334 22.7029 20.3474 22.442 20.6087C22.1807 20.8696 21.8667 21 21.5 21H15.5ZM15.5 19.6667H21.5V11.6667H15.5V19.6667ZM15.5 19.6667V11.6667V19.6667Z" fill="white"/>
</svg>
