<svg width="14" height="14" viewBox="0 0 14 14" fill="none" xmlns="http://www.w3.org/2000/svg">
<path d="M8.68937 7L13.89 1.79906C14.0366 1.6525 14.0366 1.415 13.89 1.26875C12.865 0.24375 11.2028 0.24375 10.1778 1.26875L6.56812 4.87875L5.79125 4.10187C5.92594 3.76062 6 3.38906 6 3C6 1.34312 4.65688 0 3 0C1.34312 0 0 1.34312 0 3C0 4.65688 1.34312 6 3 6C3.14188 6 3.28094 5.99 3.4175 5.97094L4.44656 7L3.4175 8.02906C3.28094 8.01 3.14156 8 3 8C1.34312 8 0 9.34313 0 11C0 12.6569 1.34312 14 3 14C4.65688 14 6 12.6569 6 11C6 10.6109 5.92594 10.2394 5.79125 9.89812L6.56812 9.12125L10.1778 12.7312C11.2028 13.7562 12.865 13.7562 13.89 12.7312C14.0366 12.585 14.0366 12.3475 13.89 12.2009L8.68937 7ZM3 4C2.44875 4 2 3.55125 2 3C2 2.44875 2.44875 2 3 2C3.55125 2 4 2.44875 4 3C4 3.55125 3.55125 4 3 4ZM3 12C2.44875 12 2 11.5513 2 11C2 10.4487 2.44875 10 3 10C3.55125 10 4 10.4487 4 11C4 11.5513 3.55125 12 3 12Z" fill="#232323"/>
</svg>
