<svg width="16" height="16" viewBox="0 0 16 16" fill="none" xmlns="http://www.w3.org/2000/svg">
<path d="M14.995 8.24997L15.846 6.77922C15.9482 6.60226 15.9761 6.39194 15.9233 6.19448C15.8705 5.99703 15.7415 5.82861 15.5646 5.72626L14.0923 4.87526V3.17942C14.0923 2.97499 14.0111 2.77892 13.8665 2.63436C13.722 2.4898 13.5259 2.40859 13.3215 2.40859H11.6264L10.7762 0.93707C10.6735 0.760484 10.5054 0.631438 10.3083 0.577861C10.2105 0.551357 10.1085 0.544523 10.008 0.557755C9.9076 0.570987 9.8108 0.604022 9.72323 0.654945L8.25094 1.50594L6.77865 0.654174C6.6016 0.551959 6.3912 0.52426 6.19374 0.577168C5.99627 0.630077 5.82791 0.759259 5.72569 0.936299L4.87469 2.40859H3.17962C2.97519 2.40859 2.77912 2.4898 2.63456 2.63436C2.49 2.77892 2.40879 2.97499 2.40879 3.17942V4.87449L0.936499 5.72549C0.848649 5.77602 0.771649 5.84341 0.709924 5.92379C0.648198 6.00417 0.602964 6.09596 0.57682 6.19388C0.550675 6.29179 0.544136 6.39391 0.557577 6.49436C0.571019 6.59481 0.604176 6.69162 0.655145 6.77922L1.50614 8.24997L0.655145 9.72071C0.553386 9.89783 0.525777 10.108 0.578338 10.3054C0.630898 10.5028 0.759365 10.6714 0.935728 10.7744L2.40802 11.6254V13.3205C2.40802 13.5249 2.48923 13.721 2.63379 13.8656C2.77835 14.0101 2.97442 14.0913 3.17885 14.0913H4.87469L5.72569 15.5636C5.79393 15.6803 5.89137 15.7772 6.00841 15.8448C6.12546 15.9123 6.25808 15.9483 6.39323 15.949C6.52735 15.949 6.66071 15.9136 6.77942 15.845L8.25017 14.994L9.72246 15.845C9.89946 15.9471 10.1097 15.9748 10.3071 15.922C10.5045 15.8693 10.6729 15.7404 10.7754 15.5636L11.6256 14.0913H13.3207C13.5251 14.0913 13.7212 14.0101 13.8658 13.8656C14.0103 13.721 14.0915 13.5249 14.0915 13.3205V11.6254L15.5638 10.7744C15.6515 10.7238 15.7284 10.6563 15.79 10.5759C15.8516 10.4955 15.8968 10.4038 15.9229 10.3059C15.949 10.208 15.9556 10.106 15.9423 10.0056C15.9289 9.90516 15.896 9.80837 15.8452 9.72071L14.995 8.24997ZM6.32308 4.38809C6.62984 4.38819 6.924 4.51015 7.14083 4.72713C7.35767 4.94412 7.47943 5.23835 7.47933 5.54511C7.47923 5.85187 7.35727 6.14602 7.14029 6.36286C6.92331 6.5797 6.62907 6.70146 6.32231 6.70136C6.01555 6.70126 5.7214 6.5793 5.50456 6.36232C5.28772 6.14533 5.16596 5.8511 5.16606 5.54434C5.16616 5.23758 5.28812 4.94343 5.5051 4.72659C5.72209 4.50975 6.01632 4.38799 6.32308 4.38809ZM6.55433 11.7881L5.321 10.8639L9.946 4.69719L11.1793 5.62142L6.55433 11.7881ZM10.1772 12.0964C10.0254 12.0964 9.87496 12.0664 9.73465 12.0082C9.59434 11.9501 9.46686 11.8648 9.3595 11.7574C9.25213 11.6499 9.16698 11.5224 9.1089 11.3821C9.05082 11.2417 9.02095 11.0913 9.021 10.9394C9.02105 10.7875 9.05102 10.6371 9.10919 10.4968C9.16736 10.3565 9.2526 10.229 9.36004 10.1217C9.46748 10.0143 9.59502 9.92913 9.73536 9.87105C9.87571 9.81297 10.0261 9.7831 10.178 9.78315C10.4848 9.78325 10.7789 9.90521 10.9958 10.1222C11.2126 10.3392 11.3344 10.6334 11.3343 10.9402C11.3342 11.2469 11.2122 11.5411 10.9952 11.7579C10.7782 11.9748 10.484 12.0965 10.1772 12.0964Z" fill="black"/>
</svg>
