<svg width="22" height="24" viewBox="0 0 22 24" fill="none" xmlns="http://www.w3.org/2000/svg">
<path d="M20.0549 7.814C16.5119 1.404 6.11794 0 6.11794 0C6.11794 0 10.9159 5.34 4.78394 9.567C0.907938 12.233 -0.626062 15.697 1.03394 19.481C2.30394 22.381 4.99394 23.557 7.89394 24C7.14894 22.566 6.96194 20.495 7.51294 18.372C7.56666 18.1577 7.6287 17.9455 7.69894 17.736C8.51194 18.994 9.84694 19.682 11.1489 19.365C12.9319 18.941 13.9779 16.783 13.4909 14.566C13.3795 14.0852 13.199 13.623 12.9549 13.194C13.0249 13.211 13.0949 13.218 13.1669 13.241C15.3919 13.876 16.4679 17.203 15.5699 20.675C15.3042 21.727 14.8557 22.7242 14.2449 23.621C18.0649 22.391 20.6049 19.31 21.3049 16.565C22.0409 13.709 21.4819 10.38 20.0549 7.814Z" fill="black"/>
</svg>
