<svg width="11" height="14" viewBox="0 0 11 14" fill="none" xmlns="http://www.w3.org/2000/svg">
<path d="M5.5 14C8.39975 14 10.75 12.25 10.75 9.1875C10.75 7.875 10.3125 5.6875 8.5625 3.9375C8.78125 5.25 7.46875 5.6875 7.46875 5.6875C8.125 3.5 6.375 0.4375 3.75 0C4.06238 1.75 4.1875 3.5 2 5.25C0.90625 6.125 0.25 7.63788 0.25 9.1875C0.25 12.25 2.60025 14 5.5 14ZM5.5 13.125C4.05013 13.125 2.875 12.25 2.875 10.7188C2.875 10.0625 3.09375 8.96875 3.96875 8.09375C3.85938 8.75 4.625 9.1875 4.625 9.1875C4.29688 8.09375 5.0625 6.34375 6.375 6.125C6.21838 7 6.15625 7.875 7.25 8.75C7.79688 9.1875 8.125 9.9435 8.125 10.7188C8.125 12.25 6.94987 13.125 5.5 13.125Z" fill="#FF5253"/>
</svg>
