<svg width="8" height="10" viewBox="0 0 8 10" fill="none" xmlns="http://www.w3.org/2000/svg">
<path d="M7.14551 4.58202C6.95592 4.15532 6.68032 3.77233 6.33594 3.45702L6.05176 3.19628C6.04211 3.18767 6.0305 3.18156 6.01793 3.17848C6.00537 3.17541 5.99225 3.17546 5.97972 3.17865C5.96718 3.18183 5.95562 3.18804 5.94605 3.19673C5.93647 3.20542 5.92918 3.21633 5.9248 3.2285L5.79785 3.59276C5.71875 3.82128 5.57324 4.05468 5.36719 4.28417C5.35352 4.29882 5.33789 4.30272 5.32715 4.3037C5.31641 4.30468 5.2998 4.30272 5.28516 4.28905C5.27148 4.27733 5.26465 4.25975 5.26562 4.24218C5.30176 3.65429 5.12598 2.9912 4.74121 2.26952C4.42285 1.66991 3.98047 1.20214 3.42773 0.875965L3.02441 0.63866C2.97168 0.60741 2.9043 0.648426 2.90723 0.709949L2.92871 1.1787C2.94336 1.49901 2.90625 1.78221 2.81836 2.01757C2.71094 2.30565 2.55664 2.57323 2.35938 2.81346C2.22209 2.98042 2.0665 3.13143 1.89551 3.26366C1.4837 3.58023 1.14884 3.98586 0.916016 4.45018C0.683764 4.91856 0.562783 5.43423 0.5625 5.95702C0.5625 6.41796 0.65332 6.86425 0.833008 7.28514C1.00651 7.69038 1.25689 8.05817 1.57031 8.36815C1.88672 8.68065 2.25391 8.92675 2.66309 9.09764C3.08691 9.27538 3.53613 9.36522 4 9.36522C4.46387 9.36522 4.91309 9.27538 5.33691 9.09862C5.74509 8.92872 6.11626 8.68095 6.42969 8.36913C6.74609 8.05663 6.99414 7.69139 7.16699 7.28612C7.34641 6.86637 7.43845 6.41448 7.4375 5.958C7.4375 5.48143 7.33984 5.01854 7.14551 4.58202Z" fill="white"/>
</svg>
