<svg width="24" height="24" viewBox="0 0 24 24" fill="none" xmlns="http://www.w3.org/2000/svg">
<circle cx="12" cy="12" r="12" fill="#FFE9E9"/>
<path d="M12 19C14.8997 19 17.25 17.25 17.25 14.1875C17.25 12.875 16.8125 10.6875 15.0625 8.9375C15.2812 10.25 13.9688 10.6875 13.9688 10.6875C14.625 8.5 12.875 5.4375 10.25 5C10.5624 6.75 10.6875 8.5 8.5 10.25C7.40625 11.125 6.75 12.6379 6.75 14.1875C6.75 17.25 9.10025 19 12 19ZM12 18.125C10.5501 18.125 9.375 17.25 9.375 15.7188C9.375 15.0625 9.59375 13.9688 10.4688 13.0938C10.3594 13.75 11.125 14.1875 11.125 14.1875C10.7969 13.0938 11.5625 11.3438 12.875 11.125C12.7184 12 12.6562 12.875 13.75 13.75C14.2969 14.1875 14.625 14.9435 14.625 15.7188C14.625 17.25 13.4499 18.125 12 18.125Z" fill="#FF5253"/>
</svg>
