<svg width="20" height="21" viewBox="0 0 20 21" fill="none" xmlns="http://www.w3.org/2000/svg">
<path d="M9.99966 12.05L7.63133 14.3834C7.09466 14.92 6.67466 15.585 6.54633 16.3317C6.19633 18.4784 7.87633 20.3334 9.99966 20.3334C12.123 20.3334 13.803 18.4784 13.453 16.3434C13.3247 15.5967 12.9163 14.92 12.368 14.395L9.99966 12.05Z" fill="#C2C2C2"/>
<path d="M14.1537 4.64164C12.777 6.35664 10.0003 5.3883 10.0003 3.1833V1.3983C10.0003 0.46497 8.96199 -0.0950302 8.19199 0.418303C5.47366 2.2383 0.666992 6.2983 0.666992 12.1666C0.666992 15.5733 2.48699 18.5483 5.20533 20.17C4.76994 19.5533 4.46208 18.8559 4.2998 18.1186C4.13753 17.3814 4.12411 16.6191 4.26033 15.8766C4.48199 14.6633 5.13533 13.5666 6.02199 12.7033L9.18366 9.5883C9.63866 9.14497 10.362 9.14497 10.817 9.5883L14.002 12.7266C14.8653 13.5783 15.5187 14.6516 15.7287 15.8533C16.0203 17.44 15.647 18.9333 14.8303 20.1233C17.0353 18.7816 18.6687 16.5533 19.1587 13.94C19.8703 10.125 18.2137 6.5083 15.402 4.48997C15.017 4.1983 14.4687 4.25664 14.1537 4.64164V4.64164Z" fill="#C2C2C2"/>
</svg>
