<svg width="20" height="16" viewBox="0 0 20 16" fill="none" xmlns="http://www.w3.org/2000/svg">
<path d="M16.1877 0.209291C16.5789 0.209291 16.9663 0.286349 17.3277 0.436066C17.6892 0.585783 18.0176 0.805227 18.2943 1.08187C18.5709 1.35851 18.7903 1.68693 18.9401 2.04838C19.0898 2.40983 19.1668 2.79723 19.1668 3.18846V12.8162C19.1668 13.2074 19.0898 13.5948 18.9401 13.9563C18.7903 14.3177 18.5709 14.6462 18.2943 14.9228C18.0176 15.1994 17.6892 15.4189 17.3277 15.5686C16.9663 15.7183 16.5789 15.7954 16.1877 15.7954H3.81266C3.02254 15.7954 2.26478 15.4815 1.70607 14.9228C1.14737 14.3641 0.833496 13.6063 0.833496 12.8162V3.18754C0.833496 2.39742 1.14737 1.63965 1.70607 1.08095C2.26478 0.52225 3.02254 0.208374 3.81266 0.208374H16.1877V0.209291ZM6.34725 5.13271C4.85583 5.13271 3.82275 6.42521 3.82275 7.99546C3.82275 9.56571 4.85675 10.861 6.34725 10.861C7.16033 10.861 7.90833 10.4695 8.28233 9.74812L8.35291 9.59962L8.374 9.53546L8.3905 9.46671L8.39783 9.39062V7.99729L8.39141 7.91204C8.37347 7.79226 8.31802 7.68124 8.23304 7.59494C8.14805 7.50864 8.03791 7.45149 7.91841 7.43171L7.82491 7.42437H6.90641L6.82208 7.42987C6.70235 7.44795 6.59141 7.50344 6.50513 7.5884C6.41886 7.67336 6.36167 7.78344 6.34175 7.90287L6.3335 7.99729L6.33991 8.08162C6.37658 8.32729 6.56908 8.52162 6.81291 8.56196L6.90641 8.57021H7.25108V9.24212L7.24558 9.25587C7.07233 9.54921 6.73958 9.71421 6.34725 9.71421C5.55341 9.71421 4.96858 8.98271 4.96858 7.99546C4.96858 7.00912 5.5525 6.27854 6.34725 6.27854C6.73316 6.27854 6.95225 6.32162 7.22725 6.45271C7.36355 6.51442 7.51858 6.52036 7.6592 6.46927C7.79983 6.41817 7.91488 6.31409 7.97978 6.17928C8.04467 6.04447 8.05425 5.88961 8.00647 5.74783C7.95869 5.60605 7.85733 5.48858 7.72408 5.42054C7.28133 5.20787 6.8945 5.13271 6.34725 5.13271ZM10.5767 5.24454C10.4394 5.24458 10.3067 5.29393 10.2027 5.38361C10.0988 5.47328 10.0305 5.59732 10.0102 5.73312L10.0038 5.81746V10.1835L10.0102 10.2679C10.0307 10.4035 10.0991 10.5272 10.2031 10.6167C10.307 10.7061 10.4396 10.7553 10.5767 10.7553C10.7139 10.7553 10.8465 10.7061 10.9504 10.6167C11.0544 10.5272 11.1228 10.4035 11.1432 10.2679L11.1497 10.1835V5.81746L11.1432 5.73312C11.123 5.59732 11.0547 5.47328 10.9507 5.38361C10.8468 5.29393 10.714 5.24458 10.5767 5.24454ZM15.1537 5.25096L13.3231 5.24454C13.1859 5.24404 13.053 5.29281 12.9487 5.38197C12.8444 5.47113 12.7756 5.59476 12.7547 5.73037L12.7483 5.81562V10.168L12.7538 10.2532C12.7905 10.4989 12.983 10.6932 13.2268 10.7335L13.3212 10.7409L13.4056 10.7354C13.6512 10.6987 13.8456 10.5062 13.8859 10.2624L13.8942 10.168L13.8932 9.14587H14.9227L15.007 9.14037C15.2527 9.10371 15.447 8.91121 15.4882 8.66737L15.4956 8.57387L15.4892 8.48954C15.4714 8.36959 15.416 8.25837 15.331 8.17189C15.246 8.08541 15.1358 8.02813 15.0162 8.00829L14.9227 8.00096H13.8932V6.39129L15.1491 6.39679L15.2343 6.39129C15.3707 6.37205 15.4955 6.30435 15.586 6.20061C15.6765 6.09686 15.7266 5.96399 15.7272 5.82632C15.7277 5.68864 15.6787 5.55537 15.589 5.4509C15.4994 5.34642 15.3751 5.27772 15.2389 5.25737L15.1537 5.25096L13.3231 5.24454L15.1537 5.25096Z" fill="#A8A8A8"/>
</svg>
