<svg width="12" height="12" viewBox="0 0 12 12" fill="none" xmlns="http://www.w3.org/2000/svg">
<path d="M1.72266 1.80236L3.39917 3.48216C3.73432 3.13402 4.13565 2.85665 4.5795 2.66642C5.02336 2.47618 5.50074 2.37694 5.98349 2.37453C6.46624 2.37212 6.94458 2.46661 7.3903 2.65241C7.83602 2.83821 8.24009 3.11156 8.57868 3.45634L10.2536 1.77576C9.6949 1.21094 9.02964 0.76308 8.29656 0.458229C7.56349 0.153379 6.77723 -0.00237523 5.98353 2.7378e-05C5.18983 0.00242998 4.40452 0.162941 3.6733 0.472224C2.94208 0.781507 2.27953 1.23339 1.7242 1.80158L1.72266 1.80236Z" fill="#F0432C"/>
<path d="M1.74452 10.2326L3.41948 8.55432C3.08443 8.21603 2.81927 7.81485 2.63919 7.37374C2.45912 6.93263 2.36765 6.46026 2.37005 5.98368C2.37244 5.5071 2.46864 5.03567 2.65314 4.5964C2.83764 4.15712 3.10682 3.75864 3.44525 3.42375L1.76925 1.7442C1.21078 2.29967 0.767068 2.96 0.463489 3.68742C0.15991 4.41485 0.00242097 5.1951 2.76935e-05 5.98355C-0.00236558 6.77201 0.150384 7.5532 0.449541 8.28246C0.748698 9.01172 1.1884 9.67474 1.74349 10.2336L1.74452 10.2326Z" fill="#FFBF00"/>
<path d="M7.18555 7.18805V7.21279H7.21028L7.18555 7.18805Z" fill="#24AA49"/>
<path d="M5.98797 12C6.77594 12.001 7.5563 11.8457 8.28406 11.543C9.01182 11.2404 9.67258 10.7963 10.2282 10.2365L8.55196 8.55646C8.21597 8.89511 7.81647 9.16385 7.37645 9.34724C6.93642 9.53063 6.46455 9.62504 5.98797 9.62504C5.5114 9.62504 5.03953 9.53063 4.5995 9.34724C4.15948 9.16385 3.75998 8.89511 3.42399 8.55646L1.74902 10.2347C2.30436 10.7947 2.96484 11.239 3.69237 11.5419C4.41991 11.8449 5.2001 12.0006 5.98797 12Z" fill="#24AA49"/>
<path d="M11.8849 4.82526L7.20996 4.83171V7.21277H9.42195C9.23885 7.72779 8.94209 8.19476 8.5538 8.57887L10.2301 10.2587C10.9319 9.56013 11.4503 8.69841 11.739 7.75037C12.0278 6.80232 12.0779 5.79742 11.8849 4.82526Z" fill="#3384FC"/>
</svg>
