<svg width="24" height="24" viewBox="0 0 24 24" fill="none" xmlns="http://www.w3.org/2000/svg">
<path d="M19 13.9999V16.9999H22V18.9999H18.999L19 21.9999H17L16.999 18.9999H14V16.9999H17V13.9999H19ZM20.243 4.75694C21.3261 5.84008 21.9539 7.29643 21.9978 8.82754C22.0417 10.3586 21.4983 11.8486 20.479 12.9919L19.059 11.5739C20.39 10.0499 20.32 7.65994 18.827 6.16994C18.1043 5.44873 17.1331 5.03114 16.1124 5.0027C15.0918 4.97425 14.0989 5.3371 13.337 6.01694L12.002 7.21494L10.666 6.01794C9.90409 5.33661 8.91015 4.97291 7.8884 5.00155C6.86664 5.03019 5.89464 5.44899 5.17205 6.17194C4.4563 6.88764 4.03851 7.84808 4.00288 8.85964C3.96725 9.8712 4.31643 10.8587 4.98005 11.6229L13.412 20.0689L12 21.4849L3.52005 12.9929C2.4993 11.8489 1.95525 10.3575 1.99958 8.82492C2.04391 7.29235 2.67327 5.83489 3.75844 4.75177C4.84361 3.66865 6.30225 3.04205 7.83491 3.00061C9.36756 2.95917 10.8579 3.50604 12 4.52894C13.1426 3.50614 14.6335 2.95981 16.1664 3.00221C17.6993 3.04462 19.1578 3.67254 20.242 4.75694H20.243Z" fill="black"/>
</svg>
