<svg width="26" height="24" viewBox="0 0 26 24" fill="none" xmlns="http://www.w3.org/2000/svg">
<path d="M13.0002 23.6667C11.5419 23.6667 10.1761 23.3898 8.90286 22.836C7.62886 22.2815 6.52053 21.5325 5.57786 20.589C4.63442 19.6464 3.88542 18.538 3.33086 17.264C2.77708 15.9908 2.5002 14.625 2.5002 13.1667C2.5002 11.7084 2.77708 10.3422 3.33086 9.0682C3.88542 7.79498 4.63442 6.68664 5.57786 5.7432C6.52053 4.80053 7.62886 4.05231 8.90286 3.49853C10.1761 2.94398 11.5419 2.6667 13.0002 2.6667C14.4585 2.6667 15.8247 2.94398 17.0987 3.49853C18.3719 4.05231 19.4803 4.80053 20.4237 5.7432C21.3664 6.68664 22.115 7.79498 22.6695 9.0682C23.2233 10.3422 23.5002 11.7084 23.5002 13.1667C23.5002 14.625 23.2233 15.9908 22.6695 17.264C22.115 18.538 21.3664 19.6464 20.4237 20.589C19.4803 21.5325 18.3719 22.2815 17.0987 22.836C15.8247 23.3898 14.4585 23.6667 13.0002 23.6667ZM16.2669 18.0667L17.9002 16.4334L14.1669 12.7V7.33337H11.8335V13.6334L16.2669 18.0667ZM5.53353 0.741699L7.16686 2.37503L2.20853 7.33337L0.575195 5.70003L5.53353 0.741699ZM20.4669 0.741699L25.4252 5.70003L23.7919 7.33337L18.8335 2.37503L20.4669 0.741699Z" fill="#E93D3D"/>
</svg>
