<svg width="34" height="34" viewBox="0 0 34 34" fill="none" xmlns="http://www.w3.org/2000/svg">
<path d="M28.6876 4H22.3126C22.0308 4 21.7606 4.11194 21.5613 4.3112C21.362 4.51046 21.2501 4.78071 21.2501 5.0625C21.2501 5.34429 21.362 5.61454 21.5613 5.8138C21.7606 6.01306 22.0308 6.125 22.3126 6.125H26.1243L20.5329 11.7164C18.4225 9.99103 15.7297 9.14279 13.0114 9.34714C10.2931 9.55148 7.75733 10.7928 5.92859 12.8143C4.09984 14.8358 3.11802 17.4829 3.18619 20.208C3.25436 22.9331 4.36732 25.5277 6.29486 27.4552C8.22239 29.3828 10.817 30.4957 13.5421 30.5639C16.2672 30.6321 18.9143 29.6503 20.9358 27.8215C22.9573 25.9928 24.1986 23.457 24.403 20.7387C24.6073 18.0204 23.7591 15.3276 22.0337 13.2172L27.6251 7.62578V11.4375C27.6251 11.7193 27.737 11.9895 27.9363 12.1888C28.1356 12.3881 28.4058 12.5 28.6876 12.5C28.9694 12.5 29.2396 12.3881 29.4389 12.1888C29.6382 11.9895 29.7501 11.7193 29.7501 11.4375V5.0625C29.7501 4.78071 29.6382 4.51046 29.4389 4.3112C29.2396 4.11194 28.9694 4 28.6876 4ZM19.829 25.9539C18.6396 27.141 17.125 27.9488 15.4766 28.2754C13.8283 28.602 12.1201 28.4327 10.5679 27.7889C9.01569 27.145 7.68918 26.0555 6.75594 24.6581C5.82269 23.2606 5.32461 21.6179 5.32461 19.9375C5.32461 18.2571 5.82269 16.6144 6.75594 15.2169C7.68918 13.8195 9.01569 12.73 10.5679 12.0861C12.1201 11.4423 13.8283 11.273 15.4766 11.5996C17.125 11.9262 18.6396 12.734 19.829 13.9211C21.417 15.5208 22.3082 17.6834 22.3082 19.9375C22.3082 22.1916 21.417 24.3542 19.829 25.9539Z" fill="white"/>
<path d="M14 21.5C14 21.9126 13.8361 22.3082 13.5444 22.6C13.2527 22.8917 12.857 23.0556 12.4444 23.0556H1.55556C1.143 23.0556 0.747335 22.8917 0.455612 22.6C0.163888 22.3082 0 21.9126 0 21.5V14.5C0 14.0875 0.163888 13.6918 0.455612 13.4001C0.747335 13.1083 1.143 12.9445 1.55556 12.9445H12.4444C12.857 12.9445 13.2527 13.1083 13.5444 13.4001C13.8361 13.6918 14 14.0875 14 14.5V21.5Z" fill="#C60A1D"/>
<path d="M0 15.6666H14V20.3333H0V15.6666Z" fill="#FFC400"/>
<path d="M3.5 17.6111V18.7778C3.5 19.0872 3.62292 19.3839 3.84171 19.6027C4.0605 19.8215 4.35725 19.9444 4.66667 19.9444C4.97609 19.9444 5.27283 19.8215 5.49162 19.6027C5.71042 19.3839 5.83333 19.0872 5.83333 18.7778V17.6111H3.5Z" fill="#EA596E"/>
<path d="M4.66675 17.2222H5.83341V18.3888H4.66675V17.2222Z" fill="#F4A2B2"/>
<path d="M3.5 17.2222H4.66667V18.3888H3.5V17.2222Z" fill="#DD2E44"/>
<path d="M4.66667 17.2222C5.311 17.2222 5.83333 16.961 5.83333 16.6389C5.83333 16.3167 5.311 16.0555 4.66667 16.0555C4.02233 16.0555 3.5 16.3167 3.5 16.6389C3.5 16.961 4.02233 17.2222 4.66667 17.2222Z" fill="#EA596E"/>
<path d="M4.66667 16.6389C5.311 16.6389 5.83333 16.5083 5.83333 16.3472C5.83333 16.1861 5.311 16.0555 4.66667 16.0555C4.02233 16.0555 3.5 16.1861 3.5 16.3472C3.5 16.5083 4.02233 16.6389 4.66667 16.6389Z" fill="#FFAC33"/>
<path d="M2.72217 17.2222H3.11106V19.9444H2.72217V17.2222ZM6.22217 17.2222H6.61106V19.9444H6.22217V17.2222Z" fill="#99AAB5"/>
<path d="M2.33325 19.5556H3.49992V19.9445H2.33325V19.5556ZM5.83325 19.5556H6.99992V19.9445H5.83325V19.5556ZM2.72214 16.8334H3.11103V17.2223H2.72214V16.8334ZM6.22214 16.8334H6.61103V17.2223H6.22214V16.8334Z" fill="#66757F"/>
</svg>
