<svg width="20" height="20" viewBox="0 0 20 20" fill="none" xmlns="http://www.w3.org/2000/svg">
<path d="M16.4167 1.75H3.58333C2.57081 1.75 1.75 2.57081 1.75 3.58333V16.4167C1.75 17.4292 2.57081 18.25 3.58333 18.25H16.4167C17.4292 18.25 18.25 17.4292 18.25 16.4167V3.58333C18.25 2.57081 17.4292 1.75 16.4167 1.75Z" stroke="#A8A8A8" stroke-width="2" stroke-linecap="round" stroke-linejoin="round"/>
<path d="M6.7915 8.16663C7.5509 8.16663 8.1665 7.55102 8.1665 6.79163C8.1665 6.03223 7.5509 5.41663 6.7915 5.41663C6.03211 5.41663 5.4165 6.03223 5.4165 6.79163C5.4165 7.55102 6.03211 8.16663 6.7915 8.16663Z" stroke="#A8A8A8" stroke-width="2" stroke-linecap="round" stroke-linejoin="round"/>
<path d="M18.2502 12.75L13.6668 8.16663L3.5835 18.25" stroke="#A8A8A8" stroke-width="2" stroke-linecap="round" stroke-linejoin="round"/>
</svg>
