<svg width="120" height="28" viewBox="0 0 120 28" fill="none" xmlns="http://www.w3.org/2000/svg">
<rect x="0.5" y="0.5" width="119" height="27" rx="13.5" fill="white" stroke="#989898"/>
<path d="M23.8608 19V10.2727H25.4418V17.6747H29.2855V19H23.8608ZM33.4872 19.1278C32.831 19.1278 32.2642 18.9915 31.7869 18.7188C31.3125 18.4432 30.9474 18.054 30.6918 17.5511C30.4361 17.0455 30.3082 16.4503 30.3082 15.7656C30.3082 15.0923 30.4361 14.5014 30.6918 13.9929C30.9503 13.4815 31.3111 13.0838 31.7741 12.7997C32.2372 12.5128 32.7812 12.3693 33.4062 12.3693C33.8097 12.3693 34.1903 12.4347 34.5483 12.5653C34.9091 12.6932 35.2273 12.892 35.5028 13.1619C35.7813 13.4318 36 13.7756 36.1591 14.1932C36.3182 14.608 36.3977 15.1023 36.3977 15.6761V16.1491H31.0327V15.1094H34.919C34.9162 14.8139 34.8523 14.5511 34.7273 14.321C34.6023 14.0881 34.4276 13.9048 34.2031 13.7713C33.9815 13.6378 33.723 13.571 33.4276 13.571C33.1122 13.571 32.8352 13.6477 32.5966 13.8011C32.358 13.9517 32.1719 14.1506 32.0384 14.3977C31.9077 14.642 31.8409 14.9105 31.8381 15.2031V16.1108C31.8381 16.4915 31.9077 16.8182 32.0469 17.0909C32.1861 17.3608 32.3807 17.5682 32.6307 17.7131C32.8807 17.8551 33.1733 17.9261 33.5085 17.9261C33.733 17.9261 33.9361 17.8949 34.1179 17.8324C34.2997 17.767 34.4574 17.6719 34.5909 17.5469C34.7244 17.4219 34.8253 17.267 34.8935 17.0824L36.3338 17.2443C36.2429 17.625 36.0696 17.9574 35.8139 18.2415C35.5611 18.5227 35.2372 18.7415 34.8423 18.8977C34.4474 19.0511 33.9957 19.1278 33.4872 19.1278ZM40.6005 19.1278C39.9442 19.1278 39.3775 18.9915 38.9002 18.7188C38.4258 18.4432 38.0607 18.054 37.805 17.5511C37.5494 17.0455 37.4215 16.4503 37.4215 15.7656C37.4215 15.0923 37.5494 14.5014 37.805 13.9929C38.0636 13.4815 38.4244 13.0838 38.8874 12.7997C39.3505 12.5128 39.8945 12.3693 40.5195 12.3693C40.9229 12.3693 41.3036 12.4347 41.6616 12.5653C42.0224 12.6932 42.3406 12.892 42.6161 13.1619C42.8945 13.4318 43.1133 13.7756 43.2724 14.1932C43.4315 14.608 43.511 15.1023 43.511 15.6761V16.1491H38.146V15.1094H42.0323C42.0295 14.8139 41.9656 14.5511 41.8406 14.321C41.7156 14.0881 41.5408 13.9048 41.3164 13.7713C41.0948 13.6378 40.8363 13.571 40.5408 13.571C40.2255 13.571 39.9485 13.6477 39.7099 13.8011C39.4712 13.9517 39.2852 14.1506 39.1516 14.3977C39.021 14.642 38.9542 14.9105 38.9513 15.2031V16.1108C38.9513 16.4915 39.021 16.8182 39.1602 17.0909C39.2994 17.3608 39.494 17.5682 39.744 17.7131C39.994 17.8551 40.2866 17.9261 40.6218 17.9261C40.8462 17.9261 41.0494 17.8949 41.2312 17.8324C41.413 17.767 41.5707 17.6719 41.7042 17.5469C41.8377 17.4219 41.9386 17.267 42.0067 17.0824L43.4471 17.2443C43.3562 17.625 43.1829 17.9574 42.9272 18.2415C42.6744 18.5227 42.3505 18.7415 41.9556 18.8977C41.5607 19.0511 41.109 19.1278 40.6005 19.1278ZM44.8161 19V12.4545H46.3118V13.5455H46.38C46.4993 13.1676 46.7038 12.8764 46.9936 12.6719C47.2862 12.4645 47.62 12.3608 47.995 12.3608C48.0803 12.3608 48.1754 12.3651 48.2805 12.3736C48.3885 12.3793 48.478 12.3892 48.549 12.4034V13.8224C48.4837 13.7997 48.38 13.7798 48.2379 13.7628C48.0987 13.7429 47.9638 13.733 47.8331 13.733C47.5518 13.733 47.299 13.794 47.0746 13.9162C46.853 14.0355 46.6783 14.2017 46.5504 14.4148C46.4226 14.6278 46.3587 14.8736 46.3587 15.152V19H44.8161ZM52.5504 19V12.4545H54.0249V13.5668H54.1016C54.2379 13.1918 54.4638 12.8991 54.7791 12.6889C55.0945 12.4759 55.4709 12.3693 55.9084 12.3693C56.3516 12.3693 56.7251 12.4773 57.0291 12.6932C57.3359 12.9062 57.5518 13.1974 57.6768 13.5668H57.745C57.8899 13.2031 58.1342 12.9134 58.478 12.6974C58.8246 12.4787 59.2351 12.3693 59.7095 12.3693C60.3118 12.3693 60.8033 12.5597 61.1839 12.9403C61.5646 13.321 61.755 13.8764 61.755 14.6065V19H60.2081V14.8452C60.2081 14.4389 60.1001 14.142 59.8842 13.9545C59.6683 13.7642 59.4041 13.669 59.0916 13.669C58.7195 13.669 58.4283 13.7855 58.218 14.0185C58.0107 14.2486 57.907 14.5483 57.907 14.9176V19H56.3942V14.7812C56.3942 14.4432 56.2919 14.1733 56.0874 13.9716C55.8857 13.7699 55.6214 13.669 55.2947 13.669C55.0732 13.669 54.8714 13.7259 54.6896 13.8395C54.5078 13.9503 54.3629 14.108 54.255 14.3125C54.147 14.5142 54.093 14.75 54.093 15.0199V19H52.5504ZM65.2035 19.1321C64.7887 19.1321 64.4151 19.0582 64.0827 18.9105C63.7532 18.7599 63.4918 18.5384 63.2987 18.2457C63.1083 17.9531 63.0131 17.5923 63.0131 17.1634C63.0131 16.794 63.0813 16.4886 63.2177 16.2472C63.354 16.0057 63.5401 15.8125 63.7759 15.6676C64.0117 15.5227 64.2773 15.4134 64.5728 15.3395C64.8711 15.2628 65.1793 15.2074 65.4975 15.1733C65.881 15.1335 66.1921 15.098 66.4308 15.0668C66.6694 15.0327 66.8427 14.9815 66.9506 14.9134C67.0614 14.8423 67.1168 14.733 67.1168 14.5852V14.5597C67.1168 14.2386 67.0217 13.9901 66.8313 13.8139C66.641 13.6378 66.3668 13.5497 66.0089 13.5497C65.631 13.5497 65.3313 13.6321 65.1097 13.7969C64.891 13.9616 64.7433 14.1562 64.6665 14.3807L63.2262 14.1761C63.3398 13.7784 63.5273 13.446 63.7887 13.179C64.0501 12.9091 64.3697 12.7074 64.7475 12.5739C65.1254 12.4375 65.543 12.3693 66.0004 12.3693C66.3157 12.3693 66.6296 12.4062 66.9421 12.4801C67.2546 12.554 67.5401 12.6761 67.7987 12.8466C68.0572 13.0142 68.2646 13.2429 68.4208 13.5327C68.5799 13.8224 68.6594 14.1847 68.6594 14.6193V19H67.1765V18.1009H67.1254C67.0316 18.2827 66.8995 18.4531 66.729 18.6122C66.5614 18.7685 66.3498 18.8949 66.0941 18.9915C65.8413 19.0852 65.5444 19.1321 65.2035 19.1321ZM65.604 17.9986C65.9137 17.9986 66.1822 17.9375 66.4094 17.8153C66.6367 17.6903 66.8114 17.5256 66.9336 17.321C67.0586 17.1165 67.1211 16.8935 67.1211 16.652V15.8807C67.0728 15.9205 66.9904 15.9574 66.8739 15.9915C66.7603 16.0256 66.6325 16.0554 66.4904 16.081C66.3484 16.1065 66.2077 16.1293 66.0685 16.1491C65.9293 16.169 65.8086 16.1861 65.7063 16.2003C65.4762 16.2315 65.2702 16.2827 65.0884 16.3537C64.9066 16.4247 64.7631 16.5241 64.658 16.652C64.5529 16.777 64.5004 16.9389 64.5004 17.1378C64.5004 17.4219 64.604 17.6364 64.8114 17.7812C65.0188 17.9261 65.283 17.9986 65.604 17.9986ZM65.4762 11.5938L66.4308 9.64631H67.9393L66.631 11.5938H65.4762ZM75.3839 14.1847L73.9776 14.3381C73.9379 14.196 73.8683 14.0625 73.7688 13.9375C73.6722 13.8125 73.5415 13.7116 73.3768 13.6349C73.212 13.5582 73.0103 13.5199 72.7717 13.5199C72.4506 13.5199 72.1808 13.5895 71.962 13.7287C71.7461 13.8679 71.6396 14.0483 71.6424 14.2699C71.6396 14.4602 71.7092 14.6151 71.8512 14.7344C71.9961 14.8537 72.2347 14.9517 72.5671 15.0284L73.6836 15.267C74.3029 15.4006 74.7631 15.6122 75.0643 15.902C75.3683 16.1918 75.5217 16.571 75.5245 17.0398C75.5217 17.4517 75.4009 17.8153 75.1623 18.1307C74.9265 18.4432 74.5984 18.6875 74.1779 18.8636C73.7575 19.0398 73.2745 19.1278 72.729 19.1278C71.9279 19.1278 71.283 18.9602 70.7944 18.625C70.3058 18.2869 70.0146 17.8168 69.9208 17.2145L71.4251 17.0696C71.4933 17.3651 71.6381 17.5881 71.8597 17.7386C72.0813 17.8892 72.3697 17.9645 72.7248 17.9645C73.0913 17.9645 73.3853 17.8892 73.6069 17.7386C73.8313 17.5881 73.9435 17.402 73.9435 17.1804C73.9435 16.9929 73.8711 16.8381 73.7262 16.7159C73.5842 16.5937 73.3626 16.5 73.0614 16.4347L71.945 16.2003C71.3171 16.0696 70.8526 15.8494 70.5515 15.5398C70.2504 15.2273 70.1012 14.8324 70.104 14.3551C70.1012 13.9517 70.2106 13.6023 70.4322 13.3068C70.6566 13.0085 70.9677 12.7784 71.3654 12.6165C71.766 12.4517 72.2276 12.3693 72.7504 12.3693C73.5174 12.3693 74.1211 12.5327 74.5614 12.8594C75.0046 13.1861 75.2788 13.6278 75.3839 14.1847Z" fill="black"/>
<path d="M84.5 12.75L89 17.25L93.5 12.75" stroke="#989898" stroke-width="1.5" stroke-linecap="round" stroke-linejoin="round"/>
</svg>
