<svg width="136" height="28"   viewBox="0 0 136 28" fill="none" xmlns="http://www.w3.org/2000/svg">
<rect x="0.5" y="0.5" width="135" height="27" rx="13.5" fill="white" stroke="#989898"/>
<path d="M23.8608 19V10.2727H25.4418V17.6747H29.2855V19H23.8608ZM33.4872 19.1278C32.831 19.1278 32.2642 18.9915 31.7869 18.7188C31.3125 18.4432 30.9474 18.054 30.6918 17.5511C30.4361 17.0455 30.3082 16.4503 30.3082 15.7656C30.3082 15.0923 30.4361 14.5014 30.6918 13.9929C30.9503 13.4815 31.3111 13.0838 31.7741 12.7997C32.2372 12.5128 32.7812 12.3693 33.4062 12.3693C33.8097 12.3693 34.1903 12.4347 34.5483 12.5653C34.9091 12.6932 35.2273 12.892 35.5028 13.1619C35.7813 13.4318 36 13.7756 36.1591 14.1932C36.3182 14.608 36.3977 15.1023 36.3977 15.6761V16.1491H31.0327V15.1094H34.919C34.9162 14.8139 34.8523 14.5511 34.7273 14.321C34.6023 14.0881 34.4276 13.9048 34.2031 13.7713C33.9815 13.6378 33.723 13.571 33.4276 13.571C33.1122 13.571 32.8352 13.6477 32.5966 13.8011C32.358 13.9517 32.1719 14.1506 32.0384 14.3977C31.9077 14.642 31.8409 14.9105 31.8381 15.2031V16.1108C31.8381 16.4915 31.9077 16.8182 32.0469 17.0909C32.1861 17.3608 32.3807 17.5682 32.6307 17.7131C32.8807 17.8551 33.1733 17.9261 33.5085 17.9261C33.733 17.9261 33.9361 17.8949 34.1179 17.8324C34.2997 17.767 34.4574 17.6719 34.5909 17.5469C34.7244 17.4219 34.8253 17.267 34.8935 17.0824L36.3338 17.2443C36.2429 17.625 36.0696 17.9574 35.8139 18.2415C35.5611 18.5227 35.2372 18.7415 34.8423 18.8977C34.4474 19.0511 33.9957 19.1278 33.4872 19.1278ZM40.6005 19.1278C39.9442 19.1278 39.3775 18.9915 38.9002 18.7188C38.4258 18.4432 38.0607 18.054 37.805 17.5511C37.5494 17.0455 37.4215 16.4503 37.4215 15.7656C37.4215 15.0923 37.5494 14.5014 37.805 13.9929C38.0636 13.4815 38.4244 13.0838 38.8874 12.7997C39.3505 12.5128 39.8945 12.3693 40.5195 12.3693C40.9229 12.3693 41.3036 12.4347 41.6616 12.5653C42.0224 12.6932 42.3406 12.892 42.6161 13.1619C42.8945 13.4318 43.1133 13.7756 43.2724 14.1932C43.4315 14.608 43.511 15.1023 43.511 15.6761V16.1491H38.146V15.1094H42.0323C42.0295 14.8139 41.9656 14.5511 41.8406 14.321C41.7156 14.0881 41.5408 13.9048 41.3164 13.7713C41.0948 13.6378 40.8363 13.571 40.5408 13.571C40.2255 13.571 39.9485 13.6477 39.7099 13.8011C39.4712 13.9517 39.2852 14.1506 39.1516 14.3977C39.021 14.642 38.9542 14.9105 38.9513 15.2031V16.1108C38.9513 16.4915 39.021 16.8182 39.1602 17.0909C39.2994 17.3608 39.494 17.5682 39.744 17.7131C39.994 17.8551 40.2866 17.9261 40.6218 17.9261C40.8462 17.9261 41.0494 17.8949 41.2312 17.8324C41.413 17.767 41.5707 17.6719 41.7042 17.5469C41.8377 17.4219 41.9386 17.267 42.0067 17.0824L43.4471 17.2443C43.3562 17.625 43.1829 17.9574 42.9272 18.2415C42.6744 18.5227 42.3505 18.7415 41.9556 18.8977C41.5607 19.0511 41.109 19.1278 40.6005 19.1278ZM44.8161 19V12.4545H46.3118V13.5455H46.38C46.4993 13.1676 46.7038 12.8764 46.9936 12.6719C47.2862 12.4645 47.62 12.3608 47.995 12.3608C48.0803 12.3608 48.1754 12.3651 48.2805 12.3736C48.3885 12.3793 48.478 12.3892 48.549 12.4034V13.8224C48.4837 13.7997 48.38 13.7798 48.2379 13.7628C48.0987 13.7429 47.9638 13.733 47.8331 13.733C47.5518 13.733 47.299 13.794 47.0746 13.9162C46.853 14.0355 46.6783 14.2017 46.5504 14.4148C46.4226 14.6278 46.3587 14.8736 46.3587 15.152V19H44.8161ZM52.5504 19V12.4545H54.0249V13.5668H54.1016C54.2379 13.1918 54.4638 12.8991 54.7791 12.6889C55.0945 12.4759 55.4709 12.3693 55.9084 12.3693C56.3516 12.3693 56.7251 12.4773 57.0291 12.6932C57.3359 12.9062 57.5518 13.1974 57.6768 13.5668H57.745C57.8899 13.2031 58.1342 12.9134 58.478 12.6974C58.8246 12.4787 59.2351 12.3693 59.7095 12.3693C60.3118 12.3693 60.8033 12.5597 61.1839 12.9403C61.5646 13.321 61.755 13.8764 61.755 14.6065V19H60.2081V14.8452C60.2081 14.4389 60.1001 14.142 59.8842 13.9545C59.6683 13.7642 59.4041 13.669 59.0916 13.669C58.7195 13.669 58.4283 13.7855 58.218 14.0185C58.0107 14.2486 57.907 14.5483 57.907 14.9176V19H56.3942V14.7812C56.3942 14.4432 56.2919 14.1733 56.0874 13.9716C55.8857 13.7699 55.6214 13.669 55.2947 13.669C55.0732 13.669 54.8714 13.7259 54.6896 13.8395C54.5078 13.9503 54.3629 14.108 54.255 14.3125C54.147 14.5142 54.093 14.75 54.093 15.0199V19H52.5504ZM66.2177 19.1278C65.5614 19.1278 64.9947 18.9915 64.5174 18.7188C64.043 18.4432 63.6779 18.054 63.4222 17.5511C63.1665 17.0455 63.0387 16.4503 63.0387 15.7656C63.0387 15.0923 63.1665 14.5014 63.4222 13.9929C63.6808 13.4815 64.0415 13.0838 64.5046 12.7997C64.9677 12.5128 65.5117 12.3693 66.1367 12.3693C66.5401 12.3693 66.9208 12.4347 67.2788 12.5653C67.6396 12.6932 67.9577 12.892 68.2333 13.1619C68.5117 13.4318 68.7305 13.7756 68.8896 14.1932C69.0487 14.608 69.1282 15.1023 69.1282 15.6761V16.1491H63.7631V15.1094H67.6495C67.6467 14.8139 67.5827 14.5511 67.4577 14.321C67.3327 14.0881 67.158 13.9048 66.9336 13.7713C66.712 13.6378 66.4535 13.571 66.158 13.571C65.8427 13.571 65.5657 13.6477 65.3271 13.8011C65.0884 13.9517 64.9023 14.1506 64.7688 14.3977C64.6381 14.642 64.5714 14.9105 64.5685 15.2031V16.1108C64.5685 16.4915 64.6381 16.8182 64.7773 17.0909C64.9165 17.3608 65.1112 17.5682 65.3612 17.7131C65.6112 17.8551 65.9038 17.9261 66.239 17.9261C66.4634 17.9261 66.6665 17.8949 66.8484 17.8324C67.0302 17.767 67.1879 17.6719 67.3214 17.5469C67.4549 17.4219 67.5558 17.267 67.6239 17.0824L69.0643 17.2443C68.9734 17.625 68.8001 17.9574 68.5444 18.2415C68.2915 18.5227 67.9677 18.7415 67.5728 18.8977C67.1779 19.0511 66.7262 19.1278 66.2177 19.1278ZM71.9759 15.1648V19H70.4332V12.4545H71.9077V13.5668H71.9844C72.1349 13.2003 72.375 12.9091 72.7045 12.6932C73.0369 12.4773 73.4474 12.3693 73.9361 12.3693C74.3878 12.3693 74.7813 12.4659 75.1165 12.6591C75.4545 12.8523 75.7159 13.1321 75.9006 13.4986C76.0881 13.8651 76.1804 14.3097 76.1776 14.8324V19H74.6349V15.071C74.6349 14.6335 74.5213 14.2912 74.294 14.044C74.0696 13.7969 73.7585 13.6733 73.3608 13.6733C73.0909 13.6733 72.8509 13.733 72.6406 13.8523C72.4332 13.9687 72.2699 14.1378 72.1506 14.3594C72.0341 14.581 71.9759 14.8494 71.9759 15.1648ZM80.6009 19.1278C79.9616 19.1278 79.4077 18.9872 78.9389 18.706C78.4702 18.4247 78.1065 18.0312 77.848 17.5256C77.5923 17.0199 77.4645 16.429 77.4645 15.7528C77.4645 15.0767 77.5923 14.4844 77.848 13.9759C78.1065 13.4673 78.4702 13.0724 78.9389 12.7912C79.4077 12.5099 79.9616 12.3693 80.6009 12.3693C81.2401 12.3693 81.794 12.5099 82.2628 12.7912C82.7315 13.0724 83.0938 13.4673 83.3494 13.9759C83.608 14.4844 83.7372 15.0767 83.7372 15.7528C83.7372 16.429 83.608 17.0199 83.3494 17.5256C83.0938 18.0312 82.7315 18.4247 82.2628 18.706C81.794 18.9872 81.2401 19.1278 80.6009 19.1278ZM80.6094 17.892C80.956 17.892 81.2457 17.7969 81.4787 17.6065C81.7116 17.4134 81.8849 17.1548 81.9986 16.831C82.1151 16.5071 82.1733 16.1463 82.1733 15.7486C82.1733 15.348 82.1151 14.9858 81.9986 14.6619C81.8849 14.3352 81.7116 14.0753 81.4787 13.8821C81.2457 13.6889 80.956 13.5923 80.6094 13.5923C80.2543 13.5923 79.9588 13.6889 79.723 13.8821C79.4901 14.0753 79.3153 14.3352 79.1989 14.6619C79.0852 14.9858 79.0284 15.348 79.0284 15.7486C79.0284 16.1463 79.0852 16.5071 79.1989 16.831C79.3153 17.1548 79.4901 17.4134 79.723 17.6065C79.9588 17.7969 80.2543 17.892 80.6094 17.892ZM90.2198 14.1847L88.8136 14.3381C88.7738 14.196 88.7042 14.0625 88.6048 13.9375C88.5082 13.8125 88.3775 13.7116 88.2127 13.6349C88.0479 13.5582 87.8462 13.5199 87.6076 13.5199C87.2866 13.5199 87.0167 13.5895 86.7979 13.7287C86.582 13.8679 86.4755 14.0483 86.4783 14.2699C86.4755 14.4602 86.5451 14.6151 86.6871 14.7344C86.832 14.8537 87.0707 14.9517 87.4031 15.0284L88.5195 15.267C89.1388 15.4006 89.5991 15.6122 89.9002 15.902C90.2042 16.1918 90.3576 16.571 90.3604 17.0398C90.3576 17.4517 90.2369 17.8153 89.9982 18.1307C89.7624 18.4432 89.4343 18.6875 89.0138 18.8636C88.5934 19.0398 88.1104 19.1278 87.565 19.1278C86.7638 19.1278 86.119 18.9602 85.6303 18.625C85.1417 18.2869 84.8505 17.8168 84.7567 17.2145L86.261 17.0696C86.3292 17.3651 86.4741 17.5881 86.6957 17.7386C86.9173 17.8892 87.2056 17.9645 87.5607 17.9645C87.9272 17.9645 88.2212 17.8892 88.4428 17.7386C88.6673 17.5881 88.7795 17.402 88.7795 17.1804C88.7795 16.9929 88.707 16.8381 88.5621 16.7159C88.4201 16.5937 88.1985 16.5 87.8974 16.4347L86.7809 16.2003C86.1531 16.0696 85.6886 15.8494 85.3874 15.5398C85.0863 15.2273 84.9371 14.8324 84.94 14.3551C84.9371 13.9517 85.0465 13.6023 85.2681 13.3068C85.4925 13.0085 85.8036 12.7784 86.2013 12.6165C86.6019 12.4517 87.0636 12.3693 87.5863 12.3693C88.3533 12.3693 88.957 12.5327 89.3974 12.8594C89.8406 13.1861 90.1147 13.6278 90.2198 14.1847Z" fill="black"/>
<path d="M99.5 12.75L104 17.25L108.5 12.75" stroke="#989898" stroke-width="1.5" stroke-linecap="round" stroke-linejoin="round"/>
</svg>
