<svg width="80" height="74" viewBox="0 0 80 74" fill="none" xmlns="http://www.w3.org/2000/svg">
<path d="M27.29 74C24.7298 73.9957 22.2155 73.3126 19.9982 72.0188C17.7808 70.7251 15.9381 68.8659 14.654 66.627L1.94722 44.3741C0.671415 42.1309 0 39.5886 0 37.0011C0 34.4136 0.671415 31.8714 1.94722 29.6282L14.6562 7.37743C15.9396 5.13805 17.7817 3.27821 19.9987 1.98365C22.2156 0.689084 24.7297 0.00509936 27.29 0H52.7078C55.2681 0.00380486 57.7826 0.686739 60 1.98056C62.2174 3.27438 64.06 5.13378 65.3438 7.37297L78.0528 29.6237C79.3286 31.8669 80 34.4091 80 36.9967C80 39.5842 79.3286 42.1264 78.0528 44.3696L65.3438 66.6203C64.06 68.8595 62.2174 70.7189 60 72.0127C57.7826 73.3066 55.2681 73.9895 52.7078 73.9933L27.29 74Z" fill="#E2E2E2"/>
<circle cx="40" cy="37" r="29" fill="#EAEAEA"/>
<path d="M40.0004 19.1221C32.5518 19.1221 25.9404 28.8061 25.9404 40.1675C25.9404 49.6646 32.4598 54.8807 40.0004 54.8807C47.5411 54.8807 54.0604 49.6646 54.0604 40.1675C54.0604 28.8061 47.449 19.1221 40.0004 19.1221Z" fill="white"/>
</svg>
