<svg width="80" height="74" viewBox="0 0 80 74" fill="none" xmlns="http://www.w3.org/2000/svg">
<path d="M27.29 74C24.7298 73.9957 22.2155 73.3126 19.9982 72.0188C17.7808 70.7251 15.9381 68.8659 14.654 66.627L1.94722 44.3741C0.671415 42.1309 0 39.5886 0 37.0011C0 34.4136 0.671415 31.8714 1.94722 29.6282L14.6562 7.37743C15.9396 5.13805 17.7817 3.27821 19.9987 1.98365C22.2156 0.689084 24.7297 0.00509936 27.29 0H52.7078C55.2681 0.00380486 57.7826 0.686739 60 1.98056C62.2174 3.27438 64.06 5.13378 65.3438 7.37297L78.0528 29.6237C79.3286 31.8669 80 34.4091 80 36.9967C80 39.5842 79.3286 42.1264 78.0528 44.3696L65.3438 66.6203C64.06 68.8595 62.2174 70.7189 60 72.0127C57.7826 73.3066 55.2681 73.9895 52.7078 73.9933L27.29 74Z" fill="#06C898"/>
<circle cx="40" cy="37" r="29" fill="#A5EBDA"/>
<g clip-path="url(#clip0_0_1)">
<path d="M40 28.1111L33.7778 21H24L36.4444 36.1111L46.6853 31.8889L40 28.1111Z" fill="#55EEAE"/>
<path d="M46.2222 21L40 28.1111L44.7911 34.6107L45.8818 33.2871L56 21H46.2222Z" fill="#3BC382"/>
<path d="M44.6751 35.2453C44.7462 35.0525 44.7916 34.8471 44.7916 34.6293C44.7916 34.1578 44.6043 33.7057 44.2709 33.3723C43.9375 33.0389 43.4853 32.8516 43.0138 32.8516H37.0876C36.6161 32.8516 36.1639 33.0389 35.8305 33.3723C35.4971 33.7057 35.3098 34.1578 35.3098 34.6293C35.3098 34.8471 35.3542 35.0525 35.4262 35.2453C32.5302 36.8685 30.5693 39.9627 30.5693 43.5182C30.5693 48.7547 34.8138 53 40.0511 53C45.2876 53 49.5329 48.7547 49.5329 43.5182C49.532 39.9627 47.572 36.8685 44.6751 35.2453Z" fill="#FFAC33"/>
<path d="M40.0515 50.6294C43.9789 50.6294 47.1627 47.4457 47.1627 43.5183C47.1627 39.591 43.9789 36.4072 40.0515 36.4072C36.1242 36.4072 32.9404 39.591 32.9404 43.5183C32.9404 47.4457 36.1242 50.6294 40.0515 50.6294Z" fill="#FFD983"/>
<path d="M42.9139 48.2303C42.7845 48.23 42.6583 48.1893 42.5531 48.1139L40.0002 46.2836L37.4482 48.1139C37.3424 48.1898 37.2154 48.2306 37.0852 48.2303C36.955 48.23 36.8282 48.1886 36.7228 48.1122C36.6175 48.0357 36.5388 47.928 36.4981 47.8043C36.4575 47.6806 36.4568 47.5473 36.4962 47.4232L37.4482 44.3512L34.9193 42.569C34.8147 42.4916 34.7371 42.3833 34.6975 42.2594C34.6578 42.1355 34.6581 42.0023 34.6983 41.8786C34.7385 41.7549 34.8166 41.6469 34.9215 41.57C35.0263 41.4931 35.1528 41.451 35.2828 41.4499L38.4153 41.4454L39.4126 38.4499C39.4534 38.326 39.5323 38.2182 39.6379 38.1418C39.7436 38.0653 39.8707 38.0242 40.0011 38.0242C40.1315 38.0242 40.2585 38.0653 40.3642 38.1418C40.4699 38.2182 40.5487 38.326 40.5895 38.4499L41.5699 41.4454L44.7184 41.4499C44.8487 41.4505 44.9756 41.4922 45.0808 41.569C45.1861 41.6459 45.2645 41.754 45.3047 41.878C45.345 42.002 45.3452 42.1355 45.3052 42.2595C45.2652 42.3836 45.1871 42.4919 45.0819 42.569L42.5522 44.3512L43.5042 47.4232C43.5341 47.516 43.5415 47.6146 43.526 47.7109C43.5105 47.8072 43.4724 47.8985 43.4148 47.9772C43.3572 48.0559 43.2818 48.1199 43.1948 48.1639C43.1077 48.2079 43.0115 48.2307 42.9139 48.2303Z" fill="#FFAC33"/>
</g>
<defs>
<clipPath id="clip0_0_1">
<rect width="32" height="32" fill="white" transform="translate(24 21)"/>
</clipPath>
</defs>
</svg>
