<svg width="32" height="32" viewBox="0 0 32 32" fill="none" xmlns="http://www.w3.org/2000/svg">
<rect width="32" height="32" rx="16" fill="white"/>
<path d="M17.4666 20.6984H14.5491C13.9566 20.6984 13.4691 21.1784 13.4766 21.7709V24.6884C13.4766 25.2809 13.9566 25.7609 14.5491 25.7609H14.7351C14.8616 25.9863 15.0458 26.174 15.2688 26.3046C15.4919 26.4352 15.7457 26.5041 16.0041 26.5041C16.2626 26.5041 16.5164 26.4352 16.7395 26.3046C16.9625 26.174 17.1467 25.9863 17.2731 25.7609H17.4666C18.0591 25.7609 18.5391 25.2809 18.5391 24.6884V21.7709C18.5391 21.1784 18.0591 20.6984 17.4666 20.6984Z" fill="#9B9B9B"/>
<path d="M17.8493 21.3433C18.0293 21.3433 18.1718 21.2083 18.1868 21.0358C18.2393 20.3908 18.5168 18.8233 20.0318 17.1434C20.7547 16.5741 21.3485 15.8579 21.7738 15.0421C22.1992 14.2263 22.4465 13.3294 22.4993 12.4108C22.5143 12.2308 22.5218 12.1108 22.5218 12.0358V11.9608C22.4768 8.37585 19.5743 5.49585 15.9968 5.49585C14.2799 5.49576 12.6323 6.17315 11.412 7.38085C10.1916 8.58856 9.49713 10.229 9.47935 11.9458C9.47935 11.9458 9.47185 12.1258 9.50185 12.4258C9.62185 14.3308 10.5518 16.0183 11.9693 17.1358C13.4843 18.8233 13.7843 20.3908 13.8368 21.0358C13.8518 21.2083 13.9943 21.3433 14.1743 21.3433H17.8493Z" fill="#FCD53F"/>
<path d="M16.0041 12.0209C17.2191 12.0209 18.2091 13.0034 18.2241 14.2184V14.2784C18.2241 14.3009 18.2241 14.3309 18.2166 14.3759C18.1791 15.0059 17.8716 15.5984 17.3766 15.9884L17.3241 16.0259L17.2791 16.0709C16.4541 16.9859 16.2816 19.3109 16.2516 20.5859H15.7641C15.7266 19.3109 15.5466 16.9859 14.7216 16.0709L14.6766 16.0259L14.6241 15.9884C14.3764 15.7925 14.1733 15.5459 14.0284 15.2653C13.8836 14.9846 13.8003 14.6763 13.7841 14.3609C13.7841 14.3309 13.7766 14.3084 13.7766 14.2934V14.2259C13.7991 13.0109 14.7966 12.0209 16.0041 12.0209ZM16.0041 11.2709C15.3869 11.2711 14.7852 11.4636 14.2824 11.8216C13.7797 12.1795 13.401 12.6853 13.1989 13.2684C12.9968 13.8515 12.9814 14.4832 13.1548 15.0755C13.3283 15.6678 13.6819 16.1913 14.1666 16.5734C15.0666 17.5784 15.0216 21.3434 15.0216 21.3434H17.0016C17.0016 21.3434 16.9416 17.5784 17.8491 16.5809C18.4941 16.0709 18.9216 15.2984 18.9741 14.4209C18.9816 14.3384 18.9816 14.2859 18.9816 14.2484V14.2184C18.9735 13.434 18.6562 12.6844 18.0987 12.1325C17.5413 11.5807 16.7885 11.271 16.0041 11.2709Z" fill="#FFB02E"/>
<path d="M18.6042 22.7848C18.6533 22.7769 18.7003 22.7594 18.7425 22.7332C18.7847 22.707 18.8213 22.6727 18.8501 22.6323C18.879 22.5918 18.8995 22.546 18.9105 22.4976C18.9215 22.4491 18.9228 22.399 18.9142 22.35C18.9057 22.3011 18.8875 22.2543 18.8607 22.2125C18.834 22.1706 18.7991 22.1345 18.7583 22.1062C18.7174 22.078 18.6714 22.0581 18.6228 22.0477C18.5742 22.0374 18.524 22.0368 18.4752 22.0461L13.4202 22.9311C13.3717 22.9395 13.3252 22.9575 13.2836 22.9839C13.242 23.0103 13.206 23.0446 13.1776 23.085C13.1493 23.1253 13.1292 23.1708 13.1184 23.2189C13.1077 23.267 13.1065 23.3168 13.115 23.3653C13.1234 23.4139 13.1414 23.4603 13.1678 23.5019C13.1942 23.5435 13.2285 23.5795 13.2689 23.6079C13.3092 23.6362 13.3547 23.6563 13.4028 23.6671C13.4509 23.6779 13.5007 23.679 13.5492 23.6706L18.6042 22.7848ZM18.5667 24.3973C18.6608 24.3763 18.7432 24.3199 18.7968 24.2397C18.8504 24.1595 18.871 24.0617 18.8544 23.9667C18.8378 23.8718 18.7853 23.7868 18.7077 23.7295C18.6301 23.6723 18.5334 23.6471 18.4377 23.6593L13.4502 24.5368C13.4001 24.5434 13.3518 24.5602 13.3082 24.5859C13.2647 24.6117 13.2268 24.646 13.1969 24.6868C13.167 24.7276 13.1457 24.7741 13.1342 24.8233C13.1227 24.8726 13.1213 24.9237 13.13 24.9735C13.1388 25.0233 13.1575 25.0709 13.1851 25.1133C13.2128 25.1557 13.2487 25.192 13.2907 25.2202C13.3327 25.2483 13.38 25.2677 13.4297 25.2771C13.4795 25.2865 13.5306 25.2857 13.58 25.2748L18.5667 24.3973Z" fill="#D3D3D3"/>
<path d="M14.5722 8.07589C13.7397 9.51589 14.1597 11.3159 15.5097 12.0884C16.8597 12.8609 18.6222 12.3284 19.4547 10.8884C20.2872 9.44839 19.8672 7.64839 18.5172 6.87589C17.1672 6.10339 15.4047 6.63589 14.5722 8.07589Z" fill="#FFF478"/>
</svg>
