<svg width="12" height="12" viewBox="0 0 12 12" fill="none" xmlns="http://www.w3.org/2000/svg">
<path d="M11.1119 6.29668C11.3416 5.99317 11.4688 5.62129 11.4688 5.23438C11.4688 4.62051 11.1256 4.03946 10.5732 3.71543C10.431 3.63203 10.2691 3.58813 10.1043 3.58829H6.82578L6.90781 1.90801C6.92695 1.50196 6.7834 1.11641 6.50449 0.822465C6.36762 0.677581 6.20248 0.562307 6.0193 0.483765C5.83611 0.405223 5.63877 0.365083 5.43945 0.365824C4.72852 0.365824 4.09961 0.84434 3.91094 1.5293L2.73652 5.78125H0.96875C0.726758 5.78125 0.53125 5.97676 0.53125 6.21875V11.1953C0.53125 11.4373 0.726758 11.6328 0.96875 11.6328H9.18965C9.31543 11.6328 9.43848 11.6082 9.55195 11.559C10.2027 11.2814 10.6225 10.6457 10.6225 9.94024C10.6225 9.76797 10.5979 9.59844 10.5486 9.43438C10.7783 9.13086 10.9055 8.75899 10.9055 8.37207C10.9055 8.19981 10.8809 8.03028 10.8316 7.86621C11.0613 7.5627 11.1885 7.19082 11.1885 6.80391C11.1857 6.63164 11.1611 6.46075 11.1119 6.29668ZM1.51562 10.6484V6.76563H2.62305V10.6484H1.51562ZM10.2164 5.82227L9.91699 6.08204L10.107 6.4293C10.1696 6.54369 10.2021 6.67214 10.2014 6.80254C10.2014 7.02813 10.1029 7.24278 9.9334 7.39043L9.63398 7.6502L9.82402 7.99746C9.88663 8.11186 9.9191 8.2403 9.91836 8.37071C9.91836 8.59629 9.81992 8.81094 9.65039 8.9586L9.35098 9.21836L9.54102 9.56563C9.60362 9.68002 9.63609 9.80847 9.63535 9.93887C9.63535 10.2451 9.45488 10.5213 9.17598 10.6471H3.49805V6.72188L4.8584 1.79317C4.89348 1.66684 4.96878 1.55539 5.07289 1.4757C5.177 1.39602 5.30425 1.35244 5.43535 1.35157C5.53926 1.35157 5.6418 1.38164 5.72383 1.44317C5.85918 1.54434 5.93164 1.69746 5.92344 1.86016L5.79219 4.57266H10.0906C10.334 4.72168 10.4844 4.97325 10.4844 5.23438C10.4844 5.45996 10.3859 5.67325 10.2164 5.82227Z" fill="black"/>
</svg>
