<svg width="9" height="11" viewBox="0 0 9 11" fill="none" xmlns="http://www.w3.org/2000/svg">
<path d="M8.62665 5.79028C8.86724 5.49392 9.00028 5.13071 9.00028 4.75335C9.00028 4.15356 8.64044 3.58655 8.06275 3.27027C7.91385 3.18862 7.74426 3.14619 7.57123 3.14619H4.13889L4.22506 1.50561C4.24505 1.10897 4.09477 0.732893 3.80248 0.445534C3.65909 0.304104 3.48606 0.191603 3.29441 0.115103C3.10277 0.0379594 2.89596 -0.0012551 2.68777 3.06227e-05C1.94326 3.06227e-05 1.28492 0.466748 1.08707 1.13597L0.492147 3.14619H1.02296C1.19599 3.14619 1.36557 3.18862 1.51447 3.27027C1.51723 3.27155 1.5193 3.27284 1.52206 3.27477L2.07906 1.39311C2.1156 1.27032 2.19488 1.16104 2.3038 1.08325C2.41272 1.00547 2.54576 0.963037 2.68295 0.962394C2.79187 0.962394 2.89941 0.991323 2.98558 1.05175C3.1269 1.15011 3.20273 1.2999 3.19446 1.45868L3.05658 4.10727H7.55744C7.81182 4.25256 7.96969 4.49813 7.96969 4.75335C7.96969 4.97321 7.86628 5.18149 7.68911 5.32742L7.37545 5.58071L7.57399 5.92014C7.64017 6.03136 7.67395 6.15671 7.67326 6.284C7.67326 6.5045 7.56985 6.71407 7.39269 6.85808L7.07903 7.11201L7.27825 7.45079C7.34374 7.56265 7.37752 7.68801 7.37683 7.8153C7.37683 8.0358 7.27343 8.24537 7.09626 8.38937L6.7826 8.6433L6.98183 8.98209C7.04732 9.09395 7.08109 9.21931 7.0804 9.34659C7.0804 9.64552 6.89152 9.91488 6.59992 10.0377H1.41038C1.22632 10.4305 0.886463 10.7525 0.445269 10.928C0.326009 10.9762 0.197098 11 0.0654297 11H6.61371C6.74537 11 6.87428 10.9762 6.99354 10.928C7.67464 10.6574 8.11376 10.0364 8.11376 9.34788C8.11376 9.17945 8.08826 9.01423 8.03655 8.85416C8.27714 8.5578 8.41019 8.19458 8.41019 7.81658C8.41019 7.64879 8.38468 7.48294 8.33298 7.32286C8.57357 7.0265 8.70662 6.66329 8.70662 6.28529C8.70386 6.1175 8.67766 5.95036 8.62665 5.79028Z" fill="#AEAEAE"/>
</svg>
