<svg width="24" height="24" viewBox="0 0 24 24" fill="none" xmlns="http://www.w3.org/2000/svg">
<circle cx="12" cy="12" r="12" fill="#0E5C9F"/>
<path d="M18.4173 10.8335C18.4173 10.5241 18.2944 10.2273 18.0756 10.0085C17.8568 9.78975 17.5601 9.66683 17.2507 9.66683H13.564L14.124 7.001C14.1357 6.94266 14.1415 6.8785 14.1415 6.81433C14.1415 6.57516 14.0423 6.3535 13.8848 6.196L13.2665 5.5835L9.42815 9.42183C9.21232 9.63766 9.08398 9.92933 9.08398 10.2502V16.0835C9.08398 16.3929 9.2069 16.6897 9.42569 16.9085C9.64449 17.1272 9.94123 17.2502 10.2507 17.2502H15.5007C15.9848 17.2502 16.399 16.9585 16.574 16.5385L18.3357 12.426C18.3882 12.2918 18.4173 12.1518 18.4173 12.0002V10.8335ZM5.58398 17.2502H7.91732V10.2502H5.58398V17.2502Z" fill="white"/>
</svg>
