<svg width="12" height="12" viewBox="0 0 12 12" fill="none" xmlns="http://www.w3.org/2000/svg">
<path d="M11.1119 6.29665C11.3416 5.99314 11.4688 5.62126 11.4688 5.23435C11.4688 4.62048 11.1256 4.03943 10.5732 3.7154C10.431 3.632 10.2691 3.5881 10.1043 3.58825H6.82578L6.90781 1.90798C6.92695 1.50193 6.7834 1.11638 6.50449 0.822434C6.36762 0.677551 6.20248 0.562276 6.0193 0.483735C5.83611 0.405193 5.63877 0.365052 5.43945 0.365794C4.72852 0.365794 4.09961 0.844309 3.91094 1.52927L2.73652 5.78122H0.96875C0.726758 5.78122 0.53125 5.97673 0.53125 6.21872V11.1953C0.53125 11.4373 0.726758 11.6328 0.96875 11.6328H9.18965C9.31543 11.6328 9.43848 11.6082 9.55195 11.559C10.2027 11.2814 10.6225 10.6457 10.6225 9.94021C10.6225 9.76794 10.5979 9.59841 10.5486 9.43435C10.7783 9.13083 10.9055 8.75896 10.9055 8.37204C10.9055 8.19978 10.8809 8.03025 10.8316 7.86618C11.0613 7.56267 11.1885 7.19079 11.1885 6.80388C11.1857 6.63161 11.1611 6.46072 11.1119 6.29665V6.29665ZM1.51562 10.6484V6.7656H2.62305V10.6484H1.51562ZM10.2164 5.82224L9.91699 6.082L10.107 6.42927C10.1696 6.54366 10.2021 6.67211 10.2014 6.80251C10.2014 7.0281 10.1029 7.24275 9.9334 7.3904L9.63398 7.65017L9.82402 7.99743C9.88663 8.11183 9.9191 8.24027 9.91836 8.37068C9.91836 8.59626 9.81992 8.81091 9.65039 8.95857L9.35098 9.21833L9.54102 9.5656C9.60362 9.67999 9.63609 9.80844 9.63535 9.93884C9.63535 10.2451 9.45488 10.5213 9.17598 10.647H3.49805V6.72185L4.8584 1.79314C4.89348 1.66681 4.96878 1.55536 5.07289 1.47567C5.177 1.39598 5.30425 1.3524 5.43535 1.35154C5.53926 1.35154 5.6418 1.38161 5.72383 1.44314C5.85918 1.54431 5.93164 1.69743 5.92344 1.86013L5.79219 4.57263H10.0906C10.334 4.72165 10.4844 4.97322 10.4844 5.23435C10.4844 5.45993 10.3859 5.67322 10.2164 5.82224Z" fill="#AEAEAE"/>
</svg>
