<svg width="16" height="16" viewBox="0 0 16 16" fill="none" xmlns="http://www.w3.org/2000/svg">
<path fill-rule="evenodd" clip-rule="evenodd" d="M6.1595 14.1875C6.1595 14.3367 6.21876 14.4798 6.32425 14.5852C6.42974 14.6907 6.57282 14.75 6.722 14.75H14.1875C14.6351 14.75 15.0643 14.5722 15.3807 14.2557C15.6972 13.9393 15.875 13.5101 15.875 13.0625V1.8125C15.875 1.36495 15.6972 0.935725 15.3807 0.619257C15.0643 0.30279 14.6351 0.125 14.1875 0.125H2.9375C2.48995 0.125 2.06072 0.30279 1.74426 0.619257C1.42779 0.935725 1.25 1.36495 1.25 1.8125V9.278C1.25 9.42718 1.30926 9.57026 1.41475 9.67575C1.52024 9.78124 1.66332 9.8405 1.8125 9.8405C1.96168 9.8405 2.10476 9.78124 2.21025 9.67575C2.31574 9.57026 2.375 9.42718 2.375 9.278V1.8125C2.375 1.66332 2.43426 1.52024 2.53975 1.41475C2.64524 1.30926 2.78832 1.25 2.9375 1.25H14.1875C14.3367 1.25 14.4798 1.30926 14.5852 1.41475C14.6907 1.52024 14.75 1.66332 14.75 1.8125V13.0625C14.75 13.2117 14.6907 13.3548 14.5852 13.4602C14.4798 13.5657 14.3367 13.625 14.1875 13.625H6.722C6.57282 13.625 6.42974 13.6843 6.32425 13.7898C6.21876 13.8952 6.1595 14.0383 6.1595 14.1875Z" fill="white"/>
<path fill-rule="evenodd" clip-rule="evenodd" d="M11.375 5.1875C11.375 5.03832 11.3157 4.89524 11.2102 4.78975C11.1047 4.68426 10.9617 4.625 10.8125 4.625H5.18748C5.03829 4.625 4.89522 4.68426 4.78973 4.78975C4.68424 4.89524 4.62498 5.03832 4.62498 5.1875C4.62498 5.33668 4.68424 5.47976 4.78973 5.58525C4.89522 5.69074 5.03829 5.75 5.18748 5.75H9.4546L0.289228 14.9142C0.183606 15.0199 0.124268 15.1631 0.124268 15.3125C0.124268 15.4619 0.183606 15.6051 0.289228 15.7108C0.394851 15.8164 0.538105 15.8757 0.687478 15.8757C0.836851 15.8757 0.980106 15.8164 1.08573 15.7108L10.25 6.54537V10.8125C10.25 10.9617 10.3092 11.1048 10.4147 11.2102C10.5202 11.3157 10.6633 11.375 10.8125 11.375C10.9617 11.375 11.1047 11.3157 11.2102 11.2102C11.3157 11.1048 11.375 10.9617 11.375 10.8125V5.1875Z" fill="white"/>
</svg>
