<svg width="15" height="17" viewBox="0 0 15 17" fill="none" xmlns="http://www.w3.org/2000/svg">
<path d="M11.875 6.16671H13.4167C13.6211 6.16671 13.8172 6.24792 13.9617 6.39248C14.1063 6.53704 14.1875 6.7331 14.1875 6.93754V16.1875C14.1875 16.392 14.1063 16.588 13.9617 16.7326C13.8172 16.8772 13.6211 16.9584 13.4167 16.9584H1.08333C0.878896 16.9584 0.682831 16.8772 0.538272 16.7326C0.393713 16.588 0.3125 16.392 0.3125 16.1875V6.93754C0.3125 6.7331 0.393713 6.53704 0.538272 6.39248C0.682831 6.24792 0.878896 6.16671 1.08333 6.16671H2.625V5.39587C2.625 4.16925 3.11228 2.99286 3.97963 2.12551C4.84699 1.25815 6.02337 0.770874 7.25 0.770874C8.47663 0.770874 9.65301 1.25815 10.5204 2.12551C11.3877 2.99286 11.875 4.16925 11.875 5.39587V6.16671ZM1.85417 7.70837V15.4167H12.6458V7.70837H1.85417ZM6.47917 10.7917H8.02083V12.3334H6.47917V10.7917ZM3.39583 10.7917H4.9375V12.3334H3.39583V10.7917ZM9.5625 10.7917H11.1042V12.3334H9.5625V10.7917ZM10.3333 6.16671V5.39587C10.3333 4.57812 10.0085 3.79386 9.43025 3.21563C8.85201 2.63739 8.06775 2.31254 7.25 2.31254C6.43225 2.31254 5.64799 2.63739 5.06975 3.21563C4.49152 3.79386 4.16667 4.57812 4.16667 5.39587V6.16671H10.3333Z" fill="black"/>
</svg>
