<?xml version="1.0" encoding="utf-8"?>
<!-- Generator: Adobe Illustrator 24.2.0, SVG Export Plug-In . SVG Version: 6.00 Build 0)  -->
<svg version="1.1" id="Capa_1" xmlns="http://www.w3.org/2000/svg" xmlns:xlink="http://www.w3.org/1999/xlink" x="0px" y="0px"
	 viewBox="0 0 220 36" style="enable-background:new 0 0 220 36;" xml:space="preserve">
<style type="text/css">
	.st0{fill:#f7f7f7;}
</style>
<path class="st0" d="M26.4,34.6c3.8,0,7-3.1,7-7s-3.1-7-7-7s-7,3.1-7,7S22.6,34.6,26.4,34.6z M26.4,23.6c2.2,0,4,1.8,4,4s-1.8,4-4,4
	c-2.2,0-4-1.8-4-4S24.3,23.6,26.4,23.6z"/>
<path class="st0" d="M30.6,5.7c-0.6-0.6-1.6-0.6-2.2,0l-11,11l-3.1-3.1c0.8-1.2,1.2-2.6,1.1-4.1c-0.2-3.8-3.3-6.6-7-6.6
	c-3.8,0-6.9,3.1-6.9,7c0,1.2,0.3,2.4,0.9,3.4c0.4,0.7,1.4,0.8,1.9,0.3l0.5-0.5c0.3-0.3,0.4-0.9,0.2-1.3c-0.3-0.6-0.5-1.4-0.5-2.1
	c0.1-2,1.7-3.6,3.7-3.7c2.3-0.2,4.2,1.7,4.2,4c0,0.6-0.1,1.1-0.3,1.6c-0.2,0.5-0.6,1-1,1.4c-0.6,0.5-0.6,1.4,0,1.9l1.1,1.1l3.1,3.1
	L3.1,31c-0.6,0.6-0.6,1.6,0,2.2c0.6,0.6,1.6,0.6,2.2,0L30.6,7.9C31.2,7.3,31.2,6.3,30.6,5.7z"/>
</svg>