<svg width="17" height="14" viewBox="0 0 17 14" fill="none" xmlns="http://www.w3.org/2000/svg">
<path d="M9.02018 11.6458C9.02018 9.09429 11.0937 7.02075 13.6452 7.02075C14.4931 7.02075 15.2793 7.252 15.9577 7.64513V1.62492C15.9577 1.21604 15.7953 0.823914 15.5061 0.534796C15.217 0.245677 14.8249 0.083252 14.416 0.083252H2.08268C1.22706 0.083252 0.541016 0.769294 0.541016 1.62492V10.8749C0.541016 11.2838 0.703441 11.6759 0.992559 11.965C1.28168 12.2542 1.67381 12.4166 2.08268 12.4166H9.08956C9.05102 12.1622 9.02018 11.9078 9.02018 11.6458ZM2.08268 3.16659V1.62492L8.24935 5.47908L14.416 1.62492V3.16659L8.24935 7.02075L2.08268 3.16659ZM14.416 13.9583V12.4166H11.3327V10.8749H14.416V9.33325L16.7285 11.6458L14.416 13.9583Z" fill="black"/>
</svg>
