<svg width="19" height="19" viewBox="0 0 19 19" fill="none" xmlns="http://www.w3.org/2000/svg">
<path d="M6.92233 6.26538L6.91017 2.09184C6.90497 1.85828 6.71158 1.71924 6.47802 1.71375L6.18144 1.71348C5.94759 1.70828 5.76259 1.91176 5.76751 2.14503L5.78369 4.9498L0.973115 0.185187C0.747357 -0.0405703 0.381404 -0.0405703 0.155646 0.185187C-0.0701113 0.410945 -0.0701113 0.776898 0.155646 1.00266L4.94541 5.74704L2.21579 5.75426C1.98223 5.74908 1.76572 5.91036 1.73017 6.18556L1.73075 6.48214C1.73653 6.71599 1.92964 6.90938 2.1629 6.91458L6.30923 6.89639C6.31385 6.89666 6.31674 6.89837 6.32079 6.89837L6.53209 6.90331C6.64859 6.90649 6.75381 6.86081 6.82838 6.78506C6.90441 6.71021 6.93158 6.6053 6.92927 6.48821L6.90645 6.27662C6.90672 6.27257 6.92235 6.26939 6.92235 6.26536L6.92233 6.26538ZM11.6699 6.78506C11.7445 6.86051 11.8497 6.90654 11.9662 6.90336L12.1775 6.89843C12.1815 6.89843 12.1844 6.89698 12.189 6.8964L16.3353 6.91462C16.5689 6.90941 16.762 6.71603 16.7675 6.48216L16.7681 6.18558C16.7325 5.91011 16.516 5.7491 16.2824 5.7543L13.5528 5.74707L18.3426 1.00269C18.5684 0.776934 18.5684 0.410981 18.3426 0.185224C18.1169 -0.0405342 17.7509 -0.0405342 17.5251 0.185224L12.7149 4.94955L12.7308 2.14507C12.7362 1.9115 12.5509 1.70829 12.3171 1.7135L12.0205 1.71379C11.7864 1.71928 11.5933 1.85832 11.5884 2.09188L11.5762 6.26536C11.5762 6.26939 11.5921 6.27228 11.5921 6.27664L11.5693 6.48821C11.5667 6.60559 11.5938 6.71023 11.6699 6.78508V6.78506ZM6.82867 11.6966C6.75381 11.6212 6.64888 11.5755 6.53238 11.5784L6.32106 11.5836C6.31703 11.5836 6.31414 11.5853 6.3095 11.5856L2.1629 11.5674C1.92935 11.5729 1.73624 11.766 1.73075 11.9995L1.73019 12.2964C1.76572 12.5713 1.98225 12.7329 2.21581 12.7274L4.9483 12.7346L0.155646 17.4972C-0.0701113 17.723 -0.0701113 18.0889 0.155646 18.3147C0.381422 18.5404 0.747357 18.5404 0.973115 18.3147L5.78369 13.5347L5.76751 16.3545C5.7623 16.5884 5.94759 16.7916 6.18144 16.7864L6.47802 16.7858C6.71187 16.78 6.90526 16.6413 6.91017 16.4077L6.92233 12.2343C6.92233 12.2302 6.90643 12.2276 6.90643 12.2233L6.92927 11.9938C6.93185 11.8764 6.90471 11.7718 6.82867 11.6966ZM13.5502 12.7349L16.2827 12.7277C16.5163 12.7331 16.7328 12.5716 16.7684 12.2967L16.7678 11.9998C16.762 11.7659 16.5689 11.5728 16.3356 11.5676H12.1893C12.1847 11.5673 12.1818 11.5656 12.1777 11.5656L11.9303 11.5607C11.8138 11.5575 11.7083 11.6393 11.634 11.7151C11.558 11.7899 11.5308 11.8946 11.5331 12.0119L11.5559 12.2232C11.5559 12.2276 11.54 12.2302 11.54 12.2342L11.5522 16.4077C11.5574 16.6413 11.7505 16.78 11.9844 16.7858L12.2991 16.7864C12.533 16.7916 12.718 16.5881 12.7128 16.3545L12.6969 13.5628L17.5254 18.3147C17.7512 18.5404 18.1171 18.5404 18.3429 18.3147C18.5686 18.0889 18.5686 17.7229 18.3429 17.4972L13.5502 12.7349Z" fill="black"/>
</svg>
