<svg width="59" height="22" viewBox="0 0 59 22" fill="none" xmlns="http://www.w3.org/2000/svg">
<rect width="58.6667" height="22" fill="#65EDB5"/>
<path d="M19.7152 7.72727V15H18.3871L15.223 10.4226H15.1697V15H13.6321V7.72727H14.9815L18.1207 12.3011H18.1847V7.72727H19.7152ZM24.4551 12.6776V9.54545H25.9679V15H24.5154V14.0092H24.4586C24.3355 14.3288 24.1307 14.5857 23.8443 14.7798C23.5602 14.974 23.2134 15.071 22.8038 15.071C22.4392 15.071 22.1184 14.9882 21.8414 14.8224C21.5645 14.6567 21.3478 14.4212 21.1916 14.1158C21.0377 13.8104 20.9596 13.4446 20.9572 13.0185V9.54545H22.47V12.7486C22.4724 13.0705 22.5588 13.325 22.7292 13.5121C22.8997 13.6991 23.1281 13.7926 23.4146 13.7926C23.5969 13.7926 23.7673 13.7512 23.926 13.6683C24.0846 13.5831 24.2124 13.4576 24.3095 13.2919C24.4089 13.1262 24.4574 12.9214 24.4551 12.6776ZM29.6637 15.1065C29.1026 15.1065 28.6197 14.9929 28.2148 14.7656C27.8124 14.536 27.5022 14.2116 27.2844 13.7926C27.0666 13.3712 26.9577 12.8729 26.9577 12.2976C26.9577 11.7365 27.0666 11.2441 27.2844 10.8203C27.5022 10.3965 27.8088 10.0663 28.2042 9.82955C28.6019 9.5928 29.0683 9.47443 29.6033 9.47443C29.9632 9.47443 30.2982 9.53243 30.6083 9.64844C30.9208 9.76207 31.1931 9.93371 31.4251 10.1634C31.6594 10.393 31.8417 10.6818 31.9719 11.0298C32.1022 11.3755 32.1673 11.7803 32.1673 12.2443V12.6598H27.5614V11.7223H30.7433C30.7433 11.5045 30.6959 11.3116 30.6012 11.1435C30.5065 10.9754 30.3751 10.844 30.207 10.7493C30.0413 10.6522 29.8484 10.6037 29.6282 10.6037C29.3986 10.6037 29.195 10.657 29.0174 10.7635C28.8422 10.8677 28.7049 11.0085 28.6055 11.1861C28.506 11.3613 28.4551 11.5566 28.4528 11.772V12.6634C28.4528 12.9332 28.5025 13.1664 28.6019 13.3629C28.7037 13.5594 28.8469 13.7109 29.0316 13.8175C29.2163 13.924 29.4353 13.9773 29.6886 13.9773C29.8567 13.9773 30.0105 13.9536 30.1502 13.9062C30.2899 13.8589 30.4094 13.7879 30.5089 13.6932C30.6083 13.5985 30.6841 13.4825 30.7362 13.3452L32.1353 13.4375C32.0643 13.7737 31.9187 14.0672 31.6985 14.3182C31.4807 14.5668 31.199 14.7609 30.8533 14.9006C30.5101 15.0379 30.1135 15.1065 29.6637 15.1065ZM38.0932 9.54545L36.1863 15H34.4817L32.5748 9.54545H34.1728L35.3056 13.4482H35.3624L36.4917 9.54545H38.0932ZM41.1561 15.1065C40.6045 15.1065 40.1274 14.9893 39.725 14.755C39.3249 14.5182 39.0159 14.1892 38.7981 13.7678C38.5803 13.344 38.4714 12.8527 38.4714 12.294C38.4714 11.7306 38.5803 11.2382 38.7981 10.8168C39.0159 10.393 39.3249 10.0639 39.725 9.82955C40.1274 9.5928 40.6045 9.47443 41.1561 9.47443C41.7077 9.47443 42.1835 9.5928 42.5836 9.82955C42.9861 10.0639 43.2962 10.393 43.514 10.8168C43.7318 11.2382 43.8407 11.7306 43.8407 12.294C43.8407 12.8527 43.7318 13.344 43.514 13.7678C43.2962 14.1892 42.9861 14.5182 42.5836 14.755C42.1835 14.9893 41.7077 15.1065 41.1561 15.1065ZM41.1632 13.9347C41.4141 13.9347 41.6236 13.8636 41.7917 13.7216C41.9598 13.5772 42.0865 13.3807 42.1717 13.1321C42.2593 12.8835 42.3031 12.6006 42.3031 12.2834C42.3031 11.9661 42.2593 11.6832 42.1717 11.4347C42.0865 11.1861 41.9598 10.9896 41.7917 10.8452C41.6236 10.7008 41.4141 10.6286 41.1632 10.6286C40.9099 10.6286 40.6968 10.7008 40.524 10.8452C40.3535 10.9896 40.2245 11.1861 40.1369 11.4347C40.0517 11.6832 40.0091 11.9661 40.0091 12.2834C40.0091 12.6006 40.0517 12.8835 40.1369 13.1321C40.2245 13.3807 40.3535 13.5772 40.524 13.7216C40.6968 13.8636 40.9099 13.9347 41.1632 13.9347Z" fill="black"/>
</svg>
