<svg width="41" height="41" viewBox="0 0 41 41" fill="none" xmlns="http://www.w3.org/2000/svg">
<path d="M14.2457 24.0994C13.7438 24.0994 13.2964 24.0071 12.9034 23.8224C12.5128 23.6378 12.2027 23.3833 11.973 23.0589C11.7434 22.7346 11.6238 22.3629 11.6143 21.9439H13.1058C13.1224 22.2256 13.2408 22.4541 13.4609 22.6293C13.6811 22.8045 13.9427 22.892 14.2457 22.892C14.4872 22.892 14.7003 22.8388 14.8849 22.7322C15.072 22.6233 15.2176 22.473 15.3217 22.2812C15.4283 22.0871 15.4815 21.8646 15.4815 21.6136C15.4815 21.358 15.4271 21.133 15.3182 20.9389C15.2116 20.7448 15.0637 20.5933 14.8743 20.4844C14.6849 20.3755 14.4683 20.3198 14.2244 20.3175C14.0114 20.3175 13.8042 20.3613 13.603 20.4489C13.4041 20.5365 13.2491 20.656 13.1378 20.8075L11.7706 20.5625L12.1151 16.7273H16.5611V17.9844H13.3828L13.1946 19.8061H13.2372C13.3651 19.6262 13.558 19.477 13.8161 19.3587C14.0741 19.2403 14.3629 19.1811 14.6825 19.1811C15.1205 19.1811 15.5111 19.2841 15.8544 19.4901C16.1977 19.696 16.4688 19.9789 16.6676 20.3388C16.8665 20.6963 16.9647 21.1082 16.9624 21.5746C16.9647 22.0646 16.8511 22.5002 16.6214 22.8814C16.3942 23.2602 16.0758 23.5585 15.6662 23.7763C15.259 23.9917 14.7855 24.0994 14.2457 24.0994ZM20.723 24.0994C20.1927 24.0994 19.7204 24.0083 19.3061 23.826C18.8942 23.6413 18.5687 23.388 18.3295 23.0661C18.0928 22.7417 17.9709 22.3677 17.9638 21.9439H19.5121C19.5215 22.1214 19.5795 22.2777 19.6861 22.4126C19.795 22.5452 19.9394 22.6482 20.1193 22.7216C20.2992 22.795 20.5017 22.8317 20.7266 22.8317C20.9609 22.8317 21.1681 22.7902 21.348 22.7074C21.5279 22.6245 21.6688 22.5097 21.7706 22.3629C21.8724 22.2161 21.9233 22.0469 21.9233 21.8551C21.9233 21.661 21.8688 21.4893 21.7599 21.3402C21.6534 21.1887 21.4995 21.0703 21.2983 20.9851C21.0994 20.8999 20.8627 20.8572 20.5881 20.8572H19.9098V19.728H20.5881C20.8201 19.728 21.0249 19.6877 21.2024 19.6072C21.3823 19.5268 21.522 19.4155 21.6214 19.2734C21.7209 19.129 21.7706 18.9609 21.7706 18.7692C21.7706 18.5869 21.7268 18.4271 21.6392 18.2898C21.554 18.1501 21.4332 18.0412 21.277 17.9631C21.1231 17.8849 20.9432 17.8459 20.7372 17.8459C20.5289 17.8459 20.3383 17.8838 20.1655 17.9595C19.9927 18.0329 19.8542 18.1383 19.75 18.2756C19.6458 18.4129 19.5902 18.5739 19.5831 18.7585H18.1094C18.1165 18.3395 18.236 17.9702 18.468 17.6506C18.7 17.331 19.0125 17.0812 19.4055 16.9013C19.8009 16.719 20.2472 16.6278 20.7443 16.6278C21.2462 16.6278 21.6854 16.719 22.0618 16.9013C22.4382 17.0836 22.7306 17.3298 22.9389 17.6399C23.1496 17.9477 23.2538 18.2933 23.2514 18.6768C23.2538 19.084 23.1271 19.4238 22.8714 19.696C22.6181 19.9683 22.2879 20.1411 21.8807 20.2145V20.2713C22.4157 20.34 22.8229 20.5258 23.1023 20.8288C23.384 21.1295 23.5237 21.5059 23.5213 21.9581C23.5237 22.3724 23.4041 22.7405 23.1626 23.0625C22.9235 23.3845 22.5933 23.6378 22.1719 23.8224C21.7505 24.0071 21.2675 24.0994 20.723 24.0994ZM29.1792 20.1009L27.7942 20.1861C27.7705 20.0677 27.7196 19.9612 27.6415 19.8665C27.5634 19.7694 27.4604 19.6925 27.3326 19.6357C27.2071 19.5765 27.0568 19.5469 26.8816 19.5469C26.6472 19.5469 26.4495 19.5966 26.2885 19.696C26.1275 19.7931 26.0471 19.9233 26.0471 20.0866C26.0471 20.2169 26.0991 20.3269 26.2033 20.4169C26.3075 20.5069 26.4862 20.5791 26.7395 20.6335L27.7267 20.8324C28.257 20.9413 28.6524 21.1165 28.9128 21.358C29.1732 21.5994 29.3034 21.9167 29.3034 22.3097C29.3034 22.6671 29.1981 22.9808 28.9874 23.2507C28.7791 23.5206 28.4926 23.7313 28.128 23.8828C27.7658 24.032 27.348 24.1065 26.8745 24.1065C26.1524 24.1065 25.5771 23.9562 25.1486 23.6555C24.7225 23.3525 24.4727 22.9406 24.3993 22.4197L25.8873 22.3416C25.9322 22.5618 26.0411 22.7299 26.214 22.8459C26.3868 22.9595 26.6081 23.0163 26.878 23.0163C27.1432 23.0163 27.3562 22.9654 27.5172 22.8636C27.6806 22.7595 27.7634 22.6257 27.7658 22.4624C27.7634 22.325 27.7054 22.2126 27.5918 22.125C27.4782 22.035 27.303 21.9664 27.0662 21.919L26.1216 21.7308C25.589 21.6243 25.1924 21.4396 24.932 21.1768C24.6739 20.9141 24.5449 20.5791 24.5449 20.1719C24.5449 19.8215 24.6396 19.5196 24.829 19.2663C25.0208 19.013 25.2895 18.8177 25.6351 18.6804C25.9831 18.5431 26.3903 18.4744 26.8567 18.4744C27.5456 18.4744 28.0878 18.62 28.4831 18.9112C28.8809 19.2024 29.1129 19.599 29.1792 20.1009Z" fill="white"/>
<circle opacity="0.8" cx="20.5" cy="20.5" r="18.5" stroke="white" stroke-width="4"/>
<path d="M39 20.5C39 23.9529 38.0336 27.337 36.2102 30.2692C34.3868 33.2015 31.7792 35.5649 28.6823 37.0921C25.5855 38.6193 22.123 39.2494 18.6867 38.9109C15.2504 38.5725 11.9773 37.2791 9.23792 35.177C6.4985 33.075 4.40205 30.2483 3.18575 27.0166C1.96944 23.785 1.68184 20.2774 2.35548 16.8908C3.02912 13.5042 4.63711 10.3737 6.99752 7.85353C9.35793 5.33334 12.3766 3.52405 15.7119 2.63036" stroke="url(#paint0_linear_1_497)" stroke-width="4" stroke-linecap="round" stroke-linejoin="round"/>
<defs>
<linearGradient id="paint0_linear_1_497" x1="2.00002" y1="15" x2="39" y2="39" gradientUnits="userSpaceOnUse">
<stop stop-color="#F19100"/>
<stop offset="1" stop-color="#D94416"/>
</linearGradient>
</defs>
</svg>
