<svg width="41" height="41" viewBox="0 0 41 41" fill="none" xmlns="http://www.w3.org/2000/svg">
<path d="M14.7536 16.7273V24H13.2159V18.1868H13.1733L11.5078 19.2308V17.8672L13.3082 16.7273H14.7536ZM19.3336 24.1598C18.7228 24.1574 18.1973 24.0071 17.7569 23.7088C17.319 23.4105 16.9816 22.9785 16.7449 22.4126C16.5105 21.8468 16.3945 21.1662 16.3968 20.3707C16.3968 19.5777 16.514 18.9018 16.7484 18.343C16.9851 17.7843 17.3225 17.3594 17.7605 17.0682C18.2008 16.7746 18.7252 16.6278 19.3336 16.6278C19.9421 16.6278 20.4653 16.7746 20.9032 17.0682C21.3436 17.3617 21.6821 17.7879 21.9189 18.3466C22.1556 18.9029 22.2728 19.5777 22.2704 20.3707C22.2704 21.1686 22.152 21.8504 21.9153 22.4162C21.6809 22.982 21.3448 23.4141 20.9068 23.7124C20.4688 24.0107 19.9444 24.1598 19.3336 24.1598ZM19.3336 22.8849C19.7503 22.8849 20.0829 22.6754 20.3315 22.2564C20.5801 21.8374 20.7032 21.2088 20.7008 20.3707C20.7008 19.8191 20.644 19.3598 20.5304 18.9929C20.4191 18.6259 20.2605 18.3501 20.0545 18.1655C19.8509 17.9808 19.6106 17.8885 19.3336 17.8885C18.9193 17.8885 18.5879 18.0956 18.3393 18.5099C18.0907 18.9242 17.9653 19.5445 17.9629 20.3707C17.9629 20.9295 18.0185 21.3958 18.1298 21.7699C18.2434 22.1416 18.4032 22.4209 18.6092 22.608C18.8152 22.7926 19.0566 22.8849 19.3336 22.8849ZM24.8938 20.8466V24H23.381V16.7273H24.8512V19.5078H24.9151C25.0382 19.1858 25.2371 18.9337 25.5117 18.7514C25.7863 18.5668 26.1308 18.4744 26.5451 18.4744C26.9239 18.4744 27.2541 18.5573 27.5359 18.723C27.82 18.8864 28.0401 19.1219 28.1964 19.4297C28.355 19.7351 28.4331 20.1009 28.4308 20.527V24H26.918V20.7969C26.9203 20.4607 26.8351 20.1991 26.6623 20.0121C26.4918 19.825 26.2527 19.7315 25.945 19.7315C25.739 19.7315 25.5567 19.7753 25.3981 19.8629C25.2418 19.9505 25.1187 20.0784 25.0288 20.2464C24.9412 20.4122 24.8962 20.6122 24.8938 20.8466Z" fill="white"/>
<circle opacity="0.8" cx="20.5" cy="20.5" r="18.5" stroke="white" stroke-width="4"/>
<path d="M39 20.5C39 23.9529 38.0336 27.337 36.2102 30.2692C34.3868 33.2015 31.7792 35.5649 28.6823 37.0921C25.5855 38.6193 22.123 39.2494 18.6867 38.9109C15.2504 38.5725 11.9773 37.2791 9.23792 35.177C6.4985 33.075 4.40205 30.2483 3.18575 27.0166C1.96944 23.785 1.68184 20.2774 2.35548 16.8908C3.02912 13.5042 4.63711 10.3737 6.99752 7.85353C9.35793 5.33334 12.3766 3.52405 15.7119 2.63036" stroke="url(#paint0_linear_1_492)" stroke-width="4" stroke-linecap="round" stroke-linejoin="round"/>
<defs>
<linearGradient id="paint0_linear_1_492" x1="2.00002" y1="15" x2="39" y2="39" gradientUnits="userSpaceOnUse">
<stop stop-color="#F19100"/>
<stop offset="1" stop-color="#D94416"/>
</linearGradient>
</defs>
</svg>
