<svg width="41" height="41" viewBox="0 0 41 41" fill="none" xmlns="http://www.w3.org/2000/svg">
<path d="M17.2777 24.0994C16.7474 24.0994 16.2751 24.0083 15.8608 23.826C15.4489 23.6413 15.1233 23.388 14.8842 23.0661C14.6475 22.7417 14.5256 22.3677 14.5185 21.9439H16.0668C16.0762 22.1214 16.1342 22.2777 16.2408 22.4126C16.3497 22.5452 16.4941 22.6482 16.674 22.7216C16.8539 22.795 17.0563 22.8317 17.2812 22.8317C17.5156 22.8317 17.7228 22.7902 17.9027 22.7074C18.0826 22.6245 18.2235 22.5097 18.3253 22.3629C18.4271 22.2161 18.478 22.0469 18.478 21.8551C18.478 21.661 18.4235 21.4893 18.3146 21.3402C18.2081 21.1887 18.0542 21.0703 17.853 20.9851C17.6541 20.8999 17.4174 20.8572 17.1428 20.8572H16.4645V19.728H17.1428C17.3748 19.728 17.5795 19.6877 17.7571 19.6072C17.937 19.5268 18.0767 19.4155 18.1761 19.2734C18.2756 19.129 18.3253 18.9609 18.3253 18.7692C18.3253 18.5869 18.2815 18.4271 18.1939 18.2898C18.1087 18.1501 17.9879 18.0412 17.8317 17.9631C17.6778 17.8849 17.4979 17.8459 17.2919 17.8459C17.0836 17.8459 16.893 17.8838 16.7202 17.9595C16.5473 18.0329 16.4089 18.1383 16.3047 18.2756C16.2005 18.4129 16.1449 18.5739 16.1378 18.7585H14.6641C14.6712 18.3395 14.7907 17.9702 15.0227 17.6506C15.2547 17.331 15.5672 17.0812 15.9602 16.9013C16.3556 16.719 16.8018 16.6278 17.299 16.6278C17.8009 16.6278 18.2401 16.719 18.6165 16.9013C18.9929 17.0836 19.2853 17.3298 19.4936 17.6399C19.7043 17.9477 19.8085 18.2933 19.8061 18.6768C19.8085 19.084 19.6818 19.4238 19.4261 19.696C19.1728 19.9683 18.8426 20.1411 18.4354 20.2145V20.2713C18.9704 20.34 19.3776 20.5258 19.657 20.8288C19.9387 21.1295 20.0784 21.5059 20.076 21.9581C20.0784 22.3724 19.9588 22.7405 19.7173 23.0625C19.4782 23.3845 19.148 23.6378 18.7266 23.8224C18.3052 24.0071 17.8222 24.0994 17.2777 24.0994ZM23.2054 24.0888C22.7911 24.0888 22.4159 23.9822 22.0797 23.7692C21.7459 23.5537 21.4808 23.2377 21.2843 22.821C21.0901 22.402 20.9931 21.8883 20.9931 21.2798C20.9931 20.6548 21.0937 20.1352 21.2949 19.7209C21.4962 19.3042 21.7637 18.9929 22.0975 18.7869C22.4337 18.5786 22.8018 18.4744 23.2019 18.4744C23.5073 18.4744 23.7618 18.5265 23.9654 18.6307C24.1713 18.7325 24.3371 18.8603 24.4625 19.0142C24.5904 19.1657 24.6874 19.3149 24.7537 19.4616H24.7999V16.7273H26.3091V24H24.8176V23.1264H24.7537C24.6827 23.2779 24.5821 23.4283 24.4519 23.5774C24.324 23.7242 24.1571 23.8461 23.9512 23.9432C23.7476 24.0402 23.499 24.0888 23.2054 24.0888ZM23.6848 22.8849C23.9287 22.8849 24.1346 22.8187 24.3027 22.6861C24.4732 22.5511 24.6034 22.3629 24.6934 22.1214C24.7857 21.88 24.8319 21.5971 24.8319 21.2727C24.8319 20.9484 24.7869 20.6667 24.6969 20.4276C24.6069 20.1884 24.4767 20.0038 24.3063 19.8736C24.1358 19.7434 23.9287 19.6783 23.6848 19.6783C23.4363 19.6783 23.2267 19.7457 23.0563 19.8807C22.8858 20.0156 22.7568 20.2027 22.6692 20.4418C22.5816 20.6809 22.5378 20.9579 22.5378 21.2727C22.5378 21.59 22.5816 21.8705 22.6692 22.1143C22.7592 22.3558 22.8882 22.5452 23.0563 22.6825C23.2267 22.8175 23.4363 22.8849 23.6848 22.8849Z" fill="white"/>
<circle opacity="0.8" cx="20.5" cy="20.5" r="18.5" stroke="white" stroke-width="4"/>
<path d="M39 20.5C39 23.9529 38.0336 27.337 36.2102 30.2692C34.3868 33.2015 31.7792 35.5649 28.6823 37.0921C25.5855 38.6193 22.123 39.2494 18.6867 38.9109C15.2504 38.5725 11.9773 37.2791 9.23792 35.177C6.4985 33.075 4.40205 30.2483 3.18575 27.0166C1.96944 23.785 1.68184 20.2774 2.35548 16.8908C3.02912 13.5042 4.63711 10.3737 6.99752 7.85353C9.35793 5.33334 12.3766 3.52405 15.7119 2.63036" stroke="url(#paint0_linear_1_487)" stroke-width="4" stroke-linecap="round" stroke-linejoin="round"/>
<defs>
<linearGradient id="paint0_linear_1_487" x1="2.00002" y1="15" x2="39" y2="39" gradientUnits="userSpaceOnUse">
<stop stop-color="#F19100"/>
<stop offset="1" stop-color="#D94416"/>
</linearGradient>
</defs>
</svg>
