<svg width="24" height="24" viewBox="0 0 24 24" fill="none" xmlns="http://www.w3.org/2000/svg">
<path d="M5 11C5 7.13401 8.13401 4 12 4V4C15.866 4 19 7.13401 19 11V14.6754C19 14.8904 19.0347 15.104 19.1026 15.3079L19.5613 16.6838C19.7771 17.3313 19.2951 18 18.6126 18H5.38743C4.70487 18 4.2229 17.3313 4.43874 16.6838L4.89737 15.3079C4.96534 15.104 5 14.8904 5 14.6754V11Z" stroke="black" stroke-width="1.7" stroke-linejoin="round"/>
<path d="M8.12598 18C8.57002 19.7252 10.1361 21 12 21C13.8638 21 15.4299 19.7252 15.8739 18" stroke="black" stroke-width="1.7"/>
</svg>
