<svg version="1.0" xmlns="http://www.w3.org/2000/svg"
 width="80.000000pt" height="70.000000pt" viewBox="0 0 80.000000 70.000000"
 preserveAspectRatio="xMidYMid meet">

<g transform="translate(0.000000,70.000000) scale(0.100000,-0.100000)"
fill="#000000" stroke="none">
<path d="M0 350 l0 -350 400 0 400 0 0 350 0 350 -400 0 -400 0 0 -350z m583
215 c7 -17 -301 -380 -323 -380 -32 0 -17 34 49 110 63 74 68 82 55 100 -8 10
-14 37 -14 60 0 46 -13 65 -46 65 -29 0 -46 -23 -42 -57 4 -37 -27 -45 -43
-10 -9 19 -8 32 6 60 43 90 165 64 165 -35 0 -78 11 -76 90 16 72 85 93 100
103 71z m-10 -257 c24 -25 28 -36 23 -61 -10 -48 -43 -77 -87 -77 -101 0 -127
132 -34 171 31 13 67 1 98 -33z"/>
<path d="M448 289 c-10 -5 -18 -15 -18 -21 0 -9 3 -9 12 0 18 18 27 15 21 -7
-5 -20 20 -51 42 -51 35 0 58 53 33 78 -15 15 -66 15 -90 1z"/>
</g>
</svg>