<svg width="12" height="12" viewBox="0 0 12 12" fill="none" xmlns="http://www.w3.org/2000/svg">
<path d="M9.06183 4.38242C9.12882 4.47375 9.15891 4.58698 9.14609 4.69951C9.13327 4.81204 9.07849 4.91561 8.99268 4.98953C8.90687 5.06345 8.79634 5.10229 8.68315 5.09831C8.56995 5.09432 8.46243 5.0478 8.38203 4.96802L6.00003 2.58602L3.61803 4.96802L3.56763 5.01182C3.4763 5.07881 3.36307 5.1089 3.25054 5.09608C3.13801 5.08327 3.03445 5.02849 2.96052 4.94267C2.8866 4.85686 2.84776 4.74633 2.85175 4.63314C2.85573 4.51995 2.90225 4.41242 2.98203 4.33202L5.68203 1.63202L5.73243 1.58822C5.81911 1.52419 5.92589 1.4934 6.03336 1.50144C6.14082 1.50948 6.24184 1.55581 6.31803 1.63202L9.01803 4.33202L9.06183 4.38242ZM2.93823 7.61762C2.87124 7.5263 2.84115 7.41307 2.85397 7.30053C2.86678 7.188 2.92157 7.08444 3.00738 7.01052C3.09319 6.9366 3.20372 6.89775 3.31691 6.90174C3.4301 6.90573 3.53763 6.95225 3.61803 7.03202L6.00003 9.41402L8.38203 7.03202L8.43243 6.98822C8.52375 6.92123 8.63698 6.89114 8.74952 6.90396C8.86205 6.91678 8.96561 6.97156 9.03953 7.05737C9.11345 7.14318 9.1523 7.25372 9.14831 7.36691C9.14433 7.4801 9.0978 7.58762 9.01803 7.66802L6.31803 10.368L6.26763 10.4118C6.18095 10.4759 6.07417 10.5066 5.9667 10.4986C5.85923 10.4906 5.75822 10.4442 5.68203 10.368L2.98203 7.66802L2.93823 7.61762Z" fill="#898989"/>
</svg>
