<svg width="64" height="64" viewBox="0 0 64 64" fill="none" xmlns="http://www.w3.org/2000/svg">
<rect x="0.5" y="0.5" width="63" height="63" rx="7.5" fill="#FAFAFA"/>
<g clip-path="url(#clip0_310_3258)">
<path d="M43.1455 16.0634C41.4038 14.0782 38.2553 13.2271 34.2274 13.2271H22.5374C22.1389 13.2271 21.7534 13.3692 21.4504 13.628C21.1473 13.8868 20.9465 14.2452 20.884 14.6388L16.0165 45.5097C15.9198 46.1184 16.3912 46.6697 17.0082 46.6697H24.2252L26.0377 35.1733L25.9814 35.5333C26.1105 34.7207 26.8055 34.1213 27.6285 34.1213H31.058C37.7953 34.1213 43.0707 31.3848 44.6117 23.4687C44.6574 23.2346 44.697 23.0067 44.7313 22.7841C44.5368 22.6811 44.5368 22.6811 44.7313 22.7841C45.1902 19.8582 44.7282 17.8666 43.1455 16.0634Z" fill="#27346A"/>
<path d="M28.7992 21.7301C28.9965 21.6361 29.2123 21.5874 29.4308 21.5876H38.5955C39.6808 21.5876 40.693 21.6582 41.618 21.8071C41.8769 21.8483 42.1344 21.8976 42.3902 21.9548C42.7527 22.0348 43.1111 22.1327 43.4639 22.2482C43.9187 22.4001 44.3422 22.5769 44.7314 22.7841C45.1902 19.8571 44.7282 17.8666 43.1455 16.0634C41.4028 14.0782 38.2553 13.2271 34.2274 13.2271H22.5364C21.7133 13.2271 21.013 13.8263 20.884 14.6388L16.0165 45.5085C15.9198 46.1183 16.3912 46.6688 17.0072 46.6688H24.2252L27.9855 22.8226C28.0225 22.5882 28.1159 22.3663 28.2576 22.176C28.3993 21.9856 28.5852 21.8326 28.7992 21.7301Z" fill="#27346A"/>
<path d="M44.6128 23.4686C43.0718 31.3836 37.7965 34.1212 31.0591 34.1212H27.6286C26.8056 34.1212 26.1105 34.7206 25.9826 35.5332L23.7278 49.8276C23.6435 50.3603 24.0555 50.8431 24.5945 50.8431H30.6783C31.0268 50.843 31.3638 50.7185 31.6287 50.4922C31.8937 50.2658 32.0692 49.9523 32.1236 49.6081L32.1829 49.2981L33.3295 42.0311L33.4034 41.6294C33.4578 41.2852 33.6333 40.9718 33.8982 40.7454C34.1632 40.519 34.5002 40.3946 34.8486 40.3944H35.7591C41.6525 40.3944 46.2671 38.0002 47.6156 31.0757C48.1785 28.1819 47.8873 25.7659 46.3983 24.0689C45.9466 23.5549 45.3858 23.1304 44.7324 22.7839C44.697 23.0077 44.6586 23.2344 44.6128 23.4686Z" fill="#2790C3"/>
<path d="M43.1185 22.141C42.8783 22.0709 42.6357 22.0088 42.3913 21.9548C42.1354 21.8985 41.8779 21.8496 41.6192 21.808C40.6932 21.6582 39.6817 21.5874 38.5954 21.5874H29.4318C29.2131 21.5869 28.9971 21.636 28.8002 21.731C28.586 21.8333 28.3999 21.9862 28.2581 22.1766C28.1163 22.3669 28.0231 22.589 27.9864 22.8235L26.0387 35.1733L25.9824 35.5333C26.1105 34.7207 26.8055 34.1213 27.6287 34.1213H31.0592C37.7964 34.1213 43.0717 31.3848 44.6127 23.4687C44.6585 23.2345 44.697 23.0077 44.7324 22.784C44.3422 22.578 43.9198 22.4 43.4649 22.2492C43.3501 22.2111 43.2347 22.1751 43.1187 22.141" fill="#1F264F"/>
</g>
<rect x="0.5" y="0.5" width="63" height="63" rx="7.5" stroke="#E7E7E7"/>
<defs>
<clipPath id="clip0_310_3258">
<rect width="32" height="37.75" fill="white" transform="translate(16 13.125)"/>
</clipPath>
</defs>
</svg>
