<svg width="24" height="24" viewBox="0 0 24 24" fill="none" xmlns="http://www.w3.org/2000/svg">
<g clip-path="url(#clip0_75_301)">
<rect width="24" height="24" fill="white"/>
<path d="M5.26951 14.5394L4.33301 18.5812C4.3007 18.729 4.30181 18.8821 4.33625 19.0293C4.37069 19.1766 4.43759 19.3143 4.53207 19.4324C4.62655 19.5505 4.74622 19.646 4.88233 19.7119C5.01844 19.7779 5.16757 19.8125 5.3188 19.8135C5.38927 19.8206 5.46028 19.8206 5.53075 19.8135L9.59716 18.877L17.4047 11.099L13.0475 6.75165L5.26951 14.5394Z" fill="#514D4D"/>
<path d="M19.8596 7.20512L16.9515 4.29701C16.7603 4.10679 16.5016 4 16.2318 4C15.9621 4 15.7034 4.10679 15.5122 4.29701L13.8955 5.91372L18.2478 10.266L19.8645 8.64931C19.9591 8.55422 20.0341 8.4414 20.085 8.31732C20.136 8.19324 20.162 8.06033 20.1615 7.92619C20.1611 7.79205 20.1342 7.65932 20.0823 7.53559C20.0305 7.41186 19.9548 7.29956 19.8596 7.20512Z" fill="#514D4D"/>
</g>
<rect x="0.25" y="0.25" width="23.5" height="23.5" stroke="#CFCFCF" stroke-width="0.5"/>
<defs>
<clipPath id="clip0_75_301">
<rect width="24" height="24" fill="white"/>
</clipPath>
</defs>
</svg>