<svg width="24" height="24" viewBox="0 0 24 24" fill="none" xmlns="http://www.w3.org/2000/svg">
<path d="M22.875 15.75L13.875 9L15.675 7.65C15.8142 7.54471 15.9272 7.40872 16.0053 7.25263C16.0833 7.09653 16.1243 6.92452 16.125 6.75C16.125 5.65598 15.6904 4.60677 14.9168 3.83318C14.1432 3.0596 13.094 2.625 12 2.625C10.906 2.625 9.85677 3.0596 9.08318 3.83318C8.3096 4.60677 7.875 5.65598 7.875 6.75C7.875 7.04837 7.99353 7.33452 8.2045 7.5455C8.41548 7.75647 8.70163 7.875 9 7.875C9.29837 7.875 9.58452 7.75647 9.7955 7.5455C10.0065 7.33452 10.125 7.04837 10.125 6.75C10.1294 6.30024 10.2954 5.86705 10.5926 5.52946C10.8898 5.19187 11.2985 4.97236 11.744 4.91098C12.1896 4.8496 12.6424 4.95044 13.0198 5.1951C13.3972 5.43976 13.6741 5.81194 13.8 6.24375L11.3438 8.08125L11.3062 8.11875L1.125 15.75C0.810176 15.9861 0.577625 16.3153 0.460287 16.6909C0.342949 17.0666 0.346774 17.4696 0.471219 17.8429C0.595664 18.2163 0.83442 18.541 1.15367 18.7711C1.47292 19.0012 1.85647 19.125 2.25 19.125H21.75C22.1435 19.125 22.5271 19.0012 22.8463 18.7711C23.1656 18.541 23.4043 18.2163 23.5288 17.8429C23.6532 17.4696 23.6571 17.0666 23.5397 16.6909C23.4224 16.3153 23.1898 15.9861 22.875 15.75ZM3.375 16.875L12 10.4062L20.625 16.875H3.375Z" fill="white"/>
</svg>
