<svg width="11" height="11" viewBox="0 0 11 11" fill="none" xmlns="http://www.w3.org/2000/svg">
<g clip-path="url(#clip0_720_418)">
<circle cx="5.57357" cy="5.11471" r="2.84151" fill="white"/>
<path fill-rule="evenodd" clip-rule="evenodd" d="M5.71572 0.568359C3.12639 0.568359 1.02722 2.66753 1.02722 5.25686C1.02722 7.84618 3.12639 9.94535 5.71572 9.94535C8.30505 9.94535 10.4042 7.84618 10.4042 5.25686C10.4042 2.66753 8.30505 0.568359 5.71572 0.568359ZM6.14194 6.96176C6.14194 7.07481 6.09704 7.18322 6.01711 7.26315C5.93717 7.34308 5.82876 7.38799 5.71572 7.38799C5.60267 7.38799 5.49426 7.34308 5.41433 7.26315C5.3344 7.18322 5.28949 7.07481 5.28949 6.96176V5.68308H4.01081C3.89777 5.68308 3.78936 5.63818 3.70942 5.55824C3.62949 5.47831 3.58458 5.3699 3.58458 5.25686C3.58458 5.14381 3.62949 5.0354 3.70942 4.95547C3.78936 4.87553 3.89777 4.83063 4.01081 4.83063H5.28949V3.55195C5.28949 3.43891 5.3344 3.33049 5.41433 3.25056C5.49426 3.17063 5.60267 3.12572 5.71572 3.12572C5.82876 3.12572 5.93717 3.17063 6.01711 3.25056C6.09704 3.33049 6.14194 3.43891 6.14194 3.55195V4.83063H7.42062C7.53367 4.83063 7.64208 4.87553 7.72201 4.95547C7.80195 5.0354 7.84685 5.14381 7.84685 5.25686C7.84685 5.3699 7.80195 5.47831 7.72201 5.55824C7.64208 5.63818 7.53367 5.68308 7.42062 5.68308H6.14194V6.96176Z" fill="#EE1462"/>
</g>
<defs>
<clipPath id="clip0_720_418">
<rect width="10.2294" height="10.2294" fill="white" transform="translate(0.458862)"/>
</clipPath>
</defs>
</svg>
