<svg width="24" height="24" viewBox="0 0 24 24" fill="none" xmlns="http://www.w3.org/2000/svg">
<path d="M20.8663 23.2L11.9997 14.3334L9.25801 17.075C9.41356 17.3667 9.52051 17.6778 9.57884 18.0084C9.63717 18.3389 9.66634 18.6695 9.66634 19C9.66634 20.2834 9.2094 21.382 8.29551 22.2959C7.38162 23.2098 6.28301 23.6667 4.99967 23.6667C3.71634 23.6667 2.61773 23.2098 1.70384 22.2959C0.789952 21.382 0.333008 20.2834 0.333008 19C0.333008 17.7167 0.789952 16.6181 1.70384 15.7042C2.61773 14.7903 3.71634 14.3334 4.99967 14.3334C5.33023 14.3334 5.66079 14.3625 5.99134 14.4209C6.3219 14.4792 6.63301 14.5861 6.92467 14.7417L9.66634 12L6.92467 9.25837C6.63301 9.41392 6.3219 9.52087 5.99134 9.5792C5.66079 9.63753 5.33023 9.6667 4.99967 9.6667C3.71634 9.6667 2.61773 9.20975 1.70384 8.29587C0.789952 7.38198 0.333008 6.28337 0.333008 5.00003C0.333008 3.7167 0.789952 2.61809 1.70384 1.7042C2.61773 0.79031 3.71634 0.333366 4.99967 0.333366C6.28301 0.333366 7.38162 0.79031 8.29551 1.7042C9.2094 2.61809 9.66634 3.7167 9.66634 5.00003C9.66634 5.33059 9.63717 5.66114 9.57884 5.9917C9.52051 6.32225 9.41356 6.63337 9.25801 6.92503L23.1997 20.8667C23.5302 21.1973 23.6955 21.5861 23.6955 22.0334C23.6955 22.4806 23.5302 22.8695 23.1997 23.2C22.8691 23.5306 22.4802 23.6959 22.033 23.6959C21.5858 23.6959 21.1969 23.5306 20.8663 23.2ZM15.4997 10.8334L13.1663 8.50003L20.8663 0.800033C21.1969 0.469477 21.5858 0.304199 22.033 0.304199C22.4802 0.304199 22.8691 0.469477 23.1997 0.800033C23.5302 1.13059 23.6955 1.51948 23.6955 1.9667C23.6955 2.41392 23.5302 2.80281 23.1997 3.13337L15.4997 10.8334ZM4.99967 7.33337C5.64134 7.33337 6.19045 7.1047 6.64701 6.64737C7.10434 6.19081 7.33301 5.6417 7.33301 5.00003C7.33301 4.35837 7.10434 3.80925 6.64701 3.3527C6.19045 2.89537 5.64134 2.6667 4.99967 2.6667C4.35801 2.6667 3.8089 2.89537 3.35234 3.3527C2.89501 3.80925 2.66634 4.35837 2.66634 5.00003C2.66634 5.6417 2.89501 6.19081 3.35234 6.64737C3.8089 7.1047 4.35801 7.33337 4.99967 7.33337ZM11.9997 12.5834C12.1747 12.5834 12.3158 12.5301 12.4232 12.4235C12.5297 12.3162 12.583 12.175 12.583 12C12.583 11.825 12.5297 11.6839 12.4232 11.5765C12.3158 11.47 12.1747 11.4167 11.9997 11.4167C11.8247 11.4167 11.6835 11.47 11.5762 11.5765C11.4696 11.6839 11.4163 11.825 11.4163 12C11.4163 12.175 11.4696 12.3162 11.5762 12.4235C11.6835 12.5301 11.8247 12.5834 11.9997 12.5834ZM4.99967 21.3334C5.64134 21.3334 6.19045 21.1051 6.64701 20.6485C7.10434 20.1912 7.33301 19.6417 7.33301 19C7.33301 18.3584 7.10434 17.8089 6.64701 17.3515C6.19045 16.895 5.64134 16.6667 4.99967 16.6667C4.35801 16.6667 3.8089 16.895 3.35234 17.3515C2.89501 17.8089 2.66634 18.3584 2.66634 19C2.66634 19.6417 2.89501 20.1912 3.35234 20.6485C3.8089 21.1051 4.35801 21.3334 4.99967 21.3334Z" fill="black"/>
</svg>
