<svg width="20" height="28" viewBox="0 0 20 28" fill="none" xmlns="http://www.w3.org/2000/svg">
<path d="M13.5006 21.35C12.9756 21.35 12.6256 21.175 12.1006 21L10.0006 20.125L7.90059 21C7.55059 21.175 7.02559 21.35 6.50059 21.35C6.15059 21.35 5.97559 21.35 5.62559 21.175L4.75059 28L10.0006 24.5L15.2506 28L14.2006 21.175C14.0256 21.35 13.6756 21.35 13.5006 21.35ZM18.5756 10.325C18.4006 9.975 18.4006 9.45 18.5756 9.1L19.6256 7C19.9756 6.3 19.6256 5.425 18.7506 5.075L16.4756 4.2C16.1256 4.025 15.7756 3.675 15.6006 3.325L14.7256 1.05C14.5506 0.35 14.0256 0 13.5006 0C13.3256 0 12.9756 0 12.8006 0.175L10.5256 1.225H10.0006C9.82559 1.225 9.65059 1.225 9.47559 1.05L7.20059 0.175C7.02559 0 6.67559 0 6.50059 0C5.97559 0 5.45059 0.35 5.10059 0.875L4.22559 3.325C4.22559 3.675 3.87559 4.025 3.52559 4.2L1.07559 5.075C0.375588 5.25 0.0255879 6.125 0.375588 7L1.42559 9.275C1.60059 9.625 1.60059 10.15 1.42559 10.5L0.375588 12.6C0.0255879 13.3 0.375588 14.175 1.25059 14.525L3.52559 15.4C3.87559 15.575 4.22559 15.925 4.40059 16.275L5.27559 18.55C5.45059 19.25 5.97559 19.6 6.50059 19.6C6.67559 19.6 6.85059 19.6 7.02559 19.425L9.30059 18.375C9.47559 18.375 9.65059 18.2 9.82559 18.2C10.0006 18.2 10.1756 18.2 10.3506 18.375L12.6256 19.425C12.8006 19.6 12.9756 19.6 13.1506 19.6C13.6756 19.6 14.2006 19.25 14.5506 18.725L15.4256 16.45C15.6006 16.1 15.9506 15.75 16.3006 15.575L18.5756 14.7C19.2756 14.35 19.8006 13.475 19.4506 12.775L18.5756 10.325ZM10.0006 16.8C6.15059 16.8 3.00059 13.65 3.00059 9.8C3.00059 5.95 6.15059 2.8 10.0006 2.8C13.8506 2.8 17.0006 5.95 17.0006 9.8C17.0006 13.65 13.8506 16.8 10.0006 16.8Z" fill="#3168BC"/>
<path d="M15.25 9.80005C15.25 11.1924 14.6969 12.5278 13.7123 13.5124C12.7277 14.4969 11.3924 15.05 10 15.05C8.60761 15.05 7.27226 14.4969 6.28769 13.5124C5.30312 12.5278 4.75 11.1924 4.75 9.80005C4.75 8.40766 5.30312 7.0723 6.28769 6.08774C7.27226 5.10317 8.60761 4.55005 10 4.55005C11.3924 4.55005 12.7277 5.10317 13.7123 6.08774C14.6969 7.0723 15.25 8.40766 15.25 9.80005Z" fill="#3168BC"/>
</svg>
