<svg width="14" height="14" viewBox="0 0 14 14" fill="none" xmlns="http://www.w3.org/2000/svg">
<path d="M1.8949 1.38647L12.4299 6.42497C12.5364 6.47582 12.6263 6.55577 12.6892 6.65558C12.7522 6.75539 12.7856 6.87097 12.7856 6.98897C12.7856 7.10697 12.7522 7.22256 12.6892 7.32237C12.6263 7.42218 12.5364 7.50213 12.4299 7.55297L1.8949 12.5915C1.7869 12.6432 1.66632 12.6628 1.54749 12.648C1.42867 12.6331 1.3166 12.5845 1.22464 12.5078C1.13267 12.4311 1.06467 12.3296 1.02873 12.2154C0.992787 12.1012 0.990418 11.979 1.0219 11.8635L2.0759 7.99947C2.0888 7.95212 2.11536 7.90961 2.15226 7.87724C2.18916 7.84488 2.23477 7.82409 2.2834 7.81747L7.3884 7.12397C7.40974 7.12094 7.42993 7.11244 7.44702 7.0993C7.4641 7.08615 7.4775 7.06882 7.4859 7.04897L7.4949 7.01797C7.49885 6.99006 7.49324 6.96163 7.47899 6.9373C7.46474 6.91298 7.44268 6.89418 7.4164 6.88397L7.3889 6.87647L2.2889 6.18297C2.24036 6.17626 2.19486 6.15544 2.15805 6.12308C2.12125 6.09072 2.09477 6.04826 2.0819 6.00097L1.0219 2.11497C0.99029 1.9994 0.992563 1.87719 1.02845 1.76287C1.06434 1.64856 1.13232 1.54697 1.22432 1.47021C1.31631 1.39344 1.42843 1.34474 1.54732 1.32989C1.66621 1.31504 1.78686 1.33469 1.8949 1.38647Z" fill="white"/>
</svg>
