<svg width="20" height="22" viewBox="0 0 20 22" fill="none" xmlns="http://www.w3.org/2000/svg">
<path d="M10.0001 7.14293C9.49354 7.14293 8.99197 7.24269 8.524 7.43653C8.05603 7.63037 7.63082 7.91449 7.27265 8.27266C6.91448 8.63083 6.63037 9.05603 6.43653 9.524C6.24269 9.99197 6.14292 10.4935 6.14292 11.0001C6.14292 11.5066 6.24269 12.0082 6.43653 12.4761C6.63037 12.9441 6.91448 13.3693 7.27265 13.7275C7.63082 14.0856 8.05603 14.3698 8.524 14.5636C8.99197 14.7574 9.49354 14.8572 10.0001 14.8572C11.023 14.8572 12.0041 14.4508 12.7275 13.7275C13.4508 13.0041 13.8572 12.023 13.8572 11.0001C13.8572 9.97709 13.4508 8.99601 12.7275 8.27266C12.0041 7.5493 11.023 7.14293 10.0001 7.14293ZM7.42864 11.0001C7.42864 10.6624 7.49515 10.328 7.62437 10.016C7.7536 9.70405 7.94301 9.42057 8.18179 9.18179C8.42057 8.94302 8.70404 8.7536 9.01602 8.62438C9.328 8.49515 9.66238 8.42864 10.0001 8.42864C10.3377 8.42864 10.6721 8.49515 10.9841 8.62438C11.2961 8.7536 11.5796 8.94302 11.8183 9.18179C12.0571 9.42057 12.2465 9.70405 12.3758 10.016C12.505 10.328 12.5715 10.6624 12.5715 11.0001C12.5715 11.6821 12.3006 12.3361 11.8183 12.8183C11.3361 13.3006 10.682 13.5715 10.0001 13.5715C9.31808 13.5715 8.66403 13.3006 8.18179 12.8183C7.69955 12.3361 7.42864 11.6821 7.42864 11.0001ZM16.6086 18.1958L15.1275 17.5452C14.9167 17.4536 14.6874 17.4126 14.4579 17.4254C14.2284 17.4382 14.0051 17.5045 13.8058 17.6189C13.4055 17.8504 13.1501 18.2592 13.0995 18.7195L12.9212 20.3309C12.9032 20.4929 12.8357 20.6453 12.7279 20.7674C12.62 20.8895 12.4771 20.9754 12.3186 21.0132C10.7937 21.3767 9.2047 21.3767 7.67978 21.0132C7.52147 20.9752 7.37873 20.8893 7.27105 20.7672C7.16336 20.6451 7.09597 20.4927 7.07806 20.3309L6.89978 18.7221C6.87418 18.4957 6.79587 18.2784 6.67113 18.0877C6.54639 17.897 6.37869 17.7382 6.18149 17.6241C5.9845 17.5101 5.76348 17.4441 5.53628 17.4313C5.30907 17.4185 5.08204 17.4593 4.87349 17.5504L3.39235 18.2009C3.24262 18.2667 3.07615 18.2843 2.91598 18.2513C2.7558 18.2183 2.60986 18.1363 2.49835 18.0166C1.43229 16.8742 0.638996 15.5051 0.178064 14.0121C0.129598 13.8551 0.131115 13.687 0.182407 13.531C0.233698 13.375 0.332226 13.2388 0.46435 13.1412L1.77321 12.1744C1.95747 12.039 2.10728 11.8621 2.21055 11.6581C2.31381 11.4541 2.36761 11.2287 2.36761 11.0001C2.36761 10.7714 2.31381 10.546 2.21055 10.342C2.10728 10.138 1.95747 9.96116 1.77321 9.82578L0.46435 8.8615C0.332055 8.76388 0.233417 8.62752 0.182119 8.47132C0.13082 8.31512 0.129403 8.14683 0.178064 7.98978C0.63995 6.49807 1.43382 5.13041 2.50006 3.9895C2.61168 3.87002 2.75767 3.78818 2.91783 3.75532C3.078 3.72245 3.24442 3.74019 3.39406 3.80607L4.86835 4.45493C5.07812 4.54521 5.30611 4.58514 5.53408 4.57151C5.76205 4.55788 5.98366 4.49108 6.18119 4.37645C6.37871 4.26182 6.54665 4.10254 6.67158 3.91136C6.79651 3.72019 6.87496 3.50242 6.90064 3.2755L7.08064 1.66578C7.09876 1.50203 7.16756 1.34802 7.27742 1.22524C7.38729 1.10247 7.53275 1.01706 7.69349 0.980927C8.44864 0.812927 9.21921 0.723784 10.0112 0.714355C10.7843 0.722927 11.5541 0.812927 12.3084 0.980927C12.4693 1.01699 12.6149 1.10249 12.7248 1.22546C12.8347 1.34842 12.9034 1.50269 12.9212 1.66664L13.1004 3.27636C13.139 3.63334 13.308 3.96351 13.575 4.20361C13.8419 4.4437 14.1881 4.57684 14.5472 4.5775C14.7469 4.5775 14.9449 4.5355 15.1301 4.45407L16.6044 3.80521C16.754 3.73933 16.9204 3.7216 17.0806 3.75446C17.2407 3.78732 17.3867 3.86916 17.4984 3.98864C18.5643 5.1296 19.3579 6.49727 19.8195 7.98893C19.868 8.14576 19.8667 8.31382 19.8155 8.46983C19.7644 8.62585 19.666 8.76212 19.5341 8.85978L18.2269 9.82578C17.8541 10.1001 17.6286 10.5364 17.6286 11.0001C17.6286 11.4629 17.8541 11.8992 18.2278 12.1744L19.5358 13.1395C19.8066 13.3401 19.9215 13.6898 19.8221 14.0112C19.3605 15.5027 18.5673 16.8703 17.5018 18.0115C17.3903 18.1311 17.2443 18.2131 17.0842 18.2461C16.924 18.2792 16.7584 18.2616 16.6086 18.1958ZM11.9398 18.0261C12.1443 17.3855 12.5796 16.8439 13.1612 16.5064C13.5353 16.2908 13.9548 16.166 14.3859 16.142C14.8171 16.1181 15.2478 16.1956 15.6435 16.3684L16.7955 16.8741C17.5355 16.0173 18.1082 15.0294 18.4841 13.9615L17.4649 13.2098C17.1179 12.955 16.8357 12.6215 16.6408 12.2377C16.4459 11.8539 16.3439 11.4297 16.3429 10.9992C16.3429 10.1189 16.7689 9.30207 17.4632 8.79121L17.4649 8.79035L18.4823 8.03864C18.1062 6.97097 17.5332 5.98332 16.7929 5.12693L15.6503 5.62921L15.6486 5.63007C15.3006 5.78436 14.9261 5.86321 14.5464 5.86321C13.8711 5.8622 13.2199 5.61229 12.7174 5.16129C12.2148 4.71028 11.8962 4.08985 11.8223 3.41864V3.41693L11.6826 2.1655C11.1312 2.0628 10.572 2.00746 10.0112 2.00007C9.44326 2.00721 8.87694 2.06256 8.31835 2.1655L8.17864 3.41778C8.13059 3.84512 7.98295 4.25523 7.74759 4.61514C7.51222 4.97504 7.1957 5.27471 6.82347 5.49005C6.45123 5.70539 6.03367 5.83039 5.60434 5.855C5.17501 5.87962 4.7459 5.80316 4.35149 5.63178L3.20635 5.12778C2.46606 5.98415 1.893 6.97181 1.51692 8.0395L2.53692 8.79121C2.88317 9.0462 3.16463 9.37899 3.35862 9.76275C3.5526 10.1465 3.65367 10.5705 3.65367 11.0005C3.65367 11.4305 3.5526 11.8545 3.35862 12.2382C3.16463 12.622 2.88317 12.9548 2.53692 13.2098L1.51692 13.9624C1.89229 15.0317 2.46507 16.0212 3.20549 16.8792L4.35835 16.3735C4.75151 16.2014 5.17962 16.1241 5.60813 16.148C6.03664 16.1718 6.45355 16.296 6.82521 16.5106C7.19671 16.7253 7.51269 17.024 7.74774 17.3829C7.9828 17.7418 8.13039 18.1509 8.17864 18.5772V18.5815L8.31749 19.8364C9.42921 20.0549 10.5718 20.0549 11.6835 19.8364L11.8223 18.5789C11.8429 18.3904 11.8815 18.2044 11.9398 18.0261Z" fill="black"/>
</svg>
