<svg width="14" height="14" viewBox="0 0 14 14" fill="none" xmlns="http://www.w3.org/2000/svg">
<g clip-path="url(#clip0_1_1738)">
<path d="M7 8.75C7.9665 8.75 8.75 7.9665 8.75 7C8.75 6.0335 7.9665 5.25 7 5.25C6.0335 5.25 5.25 6.0335 5.25 7C5.25 7.9665 6.0335 8.75 7 8.75Z" stroke="black" stroke-width="1.5" stroke-linecap="round" stroke-linejoin="round"/>
<path d="M11.3167 8.75C11.2391 8.92594 11.2159 9.12111 11.2502 9.31034C11.2845 9.49957 11.3747 9.67419 11.5092 9.81166L11.5442 9.84666C11.6527 9.95502 11.7387 10.0837 11.7974 10.2253C11.8562 10.3669 11.8864 10.5188 11.8864 10.6721C11.8864 10.8254 11.8562 10.9772 11.7974 11.1188C11.7387 11.2605 11.6527 11.3891 11.5442 11.4975C11.4359 11.606 11.3072 11.692 11.1656 11.7507C11.0239 11.8094 10.8721 11.8397 10.7188 11.8397C10.5655 11.8397 10.4137 11.8094 10.272 11.7507C10.1304 11.692 10.0017 11.606 9.89337 11.4975L9.85837 11.4625C9.72089 11.328 9.54628 11.2378 9.35705 11.2035C9.16782 11.1692 8.97265 11.1923 8.79671 11.27C8.62417 11.3439 8.47703 11.4667 8.37339 11.6232C8.26974 11.7797 8.21412 11.9631 8.21337 12.1508V12.25C8.21337 12.5594 8.09046 12.8562 7.87166 13.075C7.65287 13.2937 7.35613 13.4167 7.04671 13.4167C6.73729 13.4167 6.44054 13.2937 6.22175 13.075C6.00296 12.8562 5.88004 12.5594 5.88004 12.25V12.1975C5.87552 12.0044 5.81303 11.8172 5.70067 11.6601C5.58832 11.503 5.4313 11.3833 5.25004 11.3167C5.0741 11.239 4.87893 11.2159 4.6897 11.2502C4.50047 11.2845 4.32585 11.3747 4.18837 11.5092L4.15337 11.5442C4.04502 11.6526 3.91635 11.7387 3.77472 11.7974C3.63309 11.8561 3.48128 11.8863 3.32796 11.8863C3.17464 11.8863 3.02282 11.8561 2.88119 11.7974C2.73956 11.7387 2.61089 11.6526 2.50254 11.5442C2.39407 11.4358 2.30802 11.3071 2.2493 11.1655C2.19059 11.0239 2.16037 10.8721 2.16037 10.7187C2.16037 10.5654 2.19059 10.4136 2.2493 10.272C2.30802 10.1304 2.39407 10.0017 2.50254 9.89333L2.53754 9.85833C2.67202 9.72085 2.76223 9.54624 2.79654 9.35701C2.83085 9.16778 2.80769 8.97261 2.73004 8.79667C2.6561 8.62413 2.53331 8.47699 2.37681 8.37334C2.22031 8.2697 2.03692 8.21408 1.84921 8.21333H1.75004C1.44062 8.21333 1.14388 8.09042 0.925083 7.87162C0.70629 7.65283 0.583374 7.35608 0.583374 7.04667C0.583374 6.73725 0.70629 6.4405 0.925083 6.22171C1.14388 6.00292 1.44062 5.88 1.75004 5.88H1.80254C1.99562 5.87548 2.18288 5.81298 2.33997 5.70063C2.49705 5.58828 2.61671 5.43126 2.68337 5.25C2.76102 5.07406 2.78419 4.87889 2.74988 4.68966C2.71557 4.50042 2.62535 4.32581 2.49087 4.18833L2.45587 4.15333C2.3474 4.04498 2.26135 3.91631 2.20264 3.77468C2.14393 3.63305 2.11371 3.48123 2.11371 3.32792C2.11371 3.1746 2.14393 3.02278 2.20264 2.88115C2.26135 2.73952 2.3474 2.61085 2.45587 2.5025C2.56423 2.39403 2.6929 2.30797 2.83453 2.24926C2.97616 2.19055 3.12797 2.16033 3.28129 2.16033C3.43461 2.16033 3.58642 2.19055 3.72805 2.24926C3.86969 2.30797 3.99836 2.39403 4.10671 2.5025L4.14171 2.5375C4.27919 2.67198 4.4538 2.76219 4.64303 2.7965C4.83226 2.83081 5.02743 2.80765 5.20337 2.73H5.25004C5.42257 2.65605 5.56972 2.53327 5.67336 2.37677C5.77701 2.22027 5.83263 2.03687 5.83337 1.84917V1.75C5.83337 1.44058 5.95629 1.14383 6.17508 0.925041C6.39388 0.706248 6.69062 0.583332 7.00004 0.583332C7.30946 0.583332 7.60621 0.706248 7.825 0.925041C8.04379 1.14383 8.16671 1.44058 8.16671 1.75V1.8025C8.16746 1.99021 8.22308 2.1736 8.32672 2.3301C8.43036 2.48661 8.57751 2.60939 8.75004 2.68333C8.92598 2.76098 9.12115 2.78415 9.31038 2.74983C9.49961 2.71552 9.67423 2.62531 9.81171 2.49083L9.84671 2.45583C9.95506 2.34736 10.0837 2.26131 10.2254 2.2026C10.367 2.14388 10.5188 2.11366 10.6721 2.11366C10.8254 2.11366 10.9773 2.14388 11.1189 2.2026C11.2605 2.26131 11.3892 2.34736 11.4975 2.45583C11.606 2.56418 11.6921 2.69285 11.7508 2.83448C11.8095 2.97612 11.8397 3.12793 11.8397 3.28125C11.8397 3.43457 11.8095 3.58638 11.7508 3.72801C11.6921 3.86964 11.606 3.99831 11.4975 4.10667L11.4625 4.14167C11.3281 4.27914 11.2378 4.45376 11.2035 4.64299C11.1692 4.83222 11.1924 5.02739 11.27 5.20333V5.25C11.344 5.42253 11.4668 5.56968 11.6233 5.67332C11.7798 5.77696 11.9632 5.83258 12.1509 5.83333H12.25C12.5595 5.83333 12.8562 5.95625 13.075 6.17504C13.2938 6.39383 13.4167 6.69058 13.4167 7C13.4167 7.30942 13.2938 7.60616 13.075 7.82496C12.8562 8.04375 12.5595 8.16667 12.25 8.16667H12.1975C12.0098 8.16741 11.8264 8.22303 11.6699 8.32668C11.5134 8.43032 11.3907 8.57747 11.3167 8.75V8.75Z" stroke="black" stroke-width="1.5" stroke-linecap="round" stroke-linejoin="round"/>
</g>
<defs>
<clipPath id="clip0_1_1738">
<rect width="14" height="14" fill="white"/>
</clipPath>
</defs>
</svg>
