<svg width="12" height="12" viewBox="0 0 12 12" fill="none" xmlns="http://www.w3.org/2000/svg">
<path d="M4.83333 0.75V1.91667H1.91667V10.0833H10.0833V7.16667H11.25V10.6667C11.25 10.8214 11.1885 10.9697 11.0791 11.0791C10.9697 11.1885 10.8214 11.25 10.6667 11.25H1.33333C1.17862 11.25 1.03025 11.1885 0.920854 11.0791C0.811458 10.9697 0.75 10.8214 0.75 10.6667V1.33333C0.75 1.17862 0.811458 1.03025 0.920854 0.920854C1.03025 0.811458 1.17862 0.75 1.33333 0.75H4.83333ZM9.2585 1.91667H6.58333V0.75H11.25V5.41667H10.0833V2.7415L6 6.82483L5.17517 6L9.2585 1.91667Z" fill="#202020"/>
</svg>
