<svg width="73" height="18" viewBox="0 0 73 18" fill="none" xmlns="http://www.w3.org/2000/svg">
<path d="M6.17045 7.32102L4.50852 7.4233C4.48011 7.28125 4.41903 7.15341 4.32528 7.03977C4.23153 6.9233 4.10795 6.83097 3.95455 6.76278C3.80398 6.69176 3.62358 6.65625 3.41335 6.65625C3.1321 6.65625 2.89489 6.71591 2.7017 6.83523C2.50852 6.9517 2.41193 7.10795 2.41193 7.30398C2.41193 7.46023 2.47443 7.59233 2.59943 7.70028C2.72443 7.80824 2.93892 7.89489 3.2429 7.96023L4.42756 8.19886C5.06392 8.32955 5.53835 8.53977 5.85085 8.82955C6.16335 9.11932 6.3196 9.5 6.3196 9.97159C6.3196 10.4006 6.19318 10.777 5.94034 11.1009C5.69034 11.4247 5.34659 11.6776 4.90909 11.8594C4.47443 12.0384 3.97301 12.1278 3.40483 12.1278C2.53835 12.1278 1.84801 11.9474 1.33381 11.5866C0.822443 11.223 0.522727 10.7287 0.434659 10.1037L2.22017 10.0099C2.27415 10.2741 2.40483 10.4759 2.61222 10.6151C2.8196 10.7514 3.08523 10.8196 3.40909 10.8196C3.72727 10.8196 3.98295 10.7585 4.17614 10.6364C4.37216 10.5114 4.47159 10.3509 4.47443 10.1548C4.47159 9.99006 4.40199 9.85511 4.26562 9.75C4.12926 9.64205 3.91903 9.55966 3.63494 9.50284L2.50142 9.27699C1.86222 9.14915 1.38636 8.92756 1.07386 8.61222C0.764205 8.29687 0.609375 7.89489 0.609375 7.40625C0.609375 6.9858 0.723011 6.62358 0.950284 6.3196C1.1804 6.01562 1.50284 5.78125 1.91761 5.61648C2.33523 5.4517 2.82386 5.36932 3.38352 5.36932C4.21023 5.36932 4.8608 5.54403 5.33523 5.89347C5.8125 6.2429 6.09091 6.71875 6.17045 7.32102ZM7.46271 12V5.45455H9.27805V12H7.46271ZM8.37464 4.6108C8.10476 4.6108 7.87322 4.52131 7.68004 4.34233C7.4897 4.16051 7.39453 3.94318 7.39453 3.69034C7.39453 3.44034 7.4897 3.22585 7.68004 3.04688C7.87322 2.86506 8.10476 2.77415 8.37464 2.77415C8.64453 2.77415 8.87464 2.86506 9.06499 3.04688C9.25817 3.22585 9.35476 3.44034 9.35476 3.69034C9.35476 3.94318 9.25817 4.16051 9.06499 4.34233C8.87464 4.52131 8.64453 4.6108 8.37464 4.6108ZM13.6811 14.5909C13.093 14.5909 12.5888 14.5099 12.1683 14.348C11.7507 14.1889 11.4183 13.9716 11.1712 13.696C10.924 13.4205 10.7635 13.1108 10.6896 12.767L12.3686 12.5412C12.4197 12.6719 12.5007 12.794 12.6115 12.9077C12.7223 13.0213 12.8686 13.1122 13.0504 13.1804C13.2351 13.2514 13.4595 13.2869 13.7237 13.2869C14.1186 13.2869 14.4439 13.1903 14.6996 12.9972C14.9581 12.8068 15.0874 12.4872 15.0874 12.0384V10.8409H15.0107C14.9311 11.0227 14.8118 11.1946 14.6527 11.3565C14.4936 11.5185 14.2891 11.6506 14.0391 11.7528C13.7891 11.8551 13.4908 11.9062 13.1442 11.9062C12.6527 11.9062 12.2053 11.7926 11.8018 11.5653C11.4013 11.3352 11.0817 10.9844 10.843 10.5128C10.6072 10.0384 10.4893 9.43892 10.4893 8.71449C10.4893 7.97301 10.6101 7.35369 10.8516 6.85653C11.093 6.35937 11.4141 5.98722 11.8146 5.74006C12.218 5.4929 12.6598 5.36932 13.1399 5.36932C13.5064 5.36932 13.8132 5.43182 14.0604 5.55682C14.3075 5.67898 14.5064 5.83239 14.657 6.01705C14.8104 6.19886 14.9283 6.37784 15.0107 6.55398H15.0788V5.45455H16.8814V12.0639C16.8814 12.6207 16.745 13.0866 16.4723 13.4616C16.1996 13.8366 15.8217 14.1179 15.3388 14.3054C14.8587 14.4957 14.3061 14.5909 13.6811 14.5909ZM13.7195 10.5426C14.0121 10.5426 14.2592 10.4702 14.4609 10.3253C14.6655 10.1776 14.8217 9.96733 14.9297 9.6946C15.0405 9.41903 15.0959 9.08949 15.0959 8.70597C15.0959 8.32244 15.0419 7.99006 14.9339 7.70881C14.826 7.42472 14.6697 7.20455 14.4652 7.0483C14.2607 6.89205 14.0121 6.81392 13.7195 6.81392C13.4212 6.81392 13.1697 6.89489 12.9652 7.05682C12.7607 7.21591 12.6058 7.4375 12.5007 7.72159C12.3956 8.00568 12.343 8.33381 12.343 8.70597C12.343 9.08381 12.3956 9.41051 12.5007 9.68608C12.6087 9.95881 12.7635 10.1705 12.9652 10.321C13.1697 10.4687 13.4212 10.5426 13.7195 10.5426ZM22.5234 9.21307V5.45455H24.3388V12H22.5959V10.8111H22.5277C22.38 11.1946 22.1342 11.5028 21.7905 11.7358C21.4496 11.9687 21.0334 12.0852 20.5419 12.0852C20.1044 12.0852 19.7195 11.9858 19.3871 11.7869C19.0547 11.5881 18.7947 11.3054 18.6072 10.9389C18.4226 10.5724 18.3288 10.1335 18.326 9.62216V5.45455H20.1413V9.2983C20.1442 9.68466 20.2479 9.99006 20.4524 10.2145C20.657 10.4389 20.9311 10.5511 21.2749 10.5511C21.4936 10.5511 21.6982 10.5014 21.8885 10.402C22.0788 10.2997 22.2322 10.1491 22.3487 9.95028C22.468 9.75142 22.5263 9.50568 22.5234 9.21307ZM25.7908 12V5.45455H27.6062V12H25.7908ZM26.7028 4.6108C26.4329 4.6108 26.2013 4.52131 26.0082 4.34233C25.8178 4.16051 25.7227 3.94318 25.7227 3.69034C25.7227 3.44034 25.8178 3.22585 26.0082 3.04688C26.2013 2.86506 26.4329 2.77415 26.7028 2.77415C26.9727 2.77415 27.2028 2.86506 27.3931 3.04688C27.5863 3.22585 27.6829 3.44034 27.6829 3.69034C27.6829 3.94318 27.5863 4.16051 27.3931 4.34233C27.2028 4.52131 26.9727 4.6108 26.7028 4.6108ZM32.0433 12.1278C31.37 12.1278 30.7905 11.9915 30.3047 11.7188C29.8217 11.4432 29.4496 11.054 29.1882 10.5511C28.9268 10.0455 28.7962 9.44744 28.7962 8.7571C28.7962 8.08381 28.9268 7.4929 29.1882 6.98438C29.4496 6.47585 29.8175 6.07955 30.2919 5.79545C30.7692 5.51136 31.3288 5.36932 31.9709 5.36932C32.4027 5.36932 32.8047 5.43892 33.1768 5.57812C33.5518 5.71449 33.8786 5.92045 34.157 6.19602C34.4382 6.47159 34.657 6.81818 34.8132 7.2358C34.9695 7.65057 35.0476 8.13636 35.0476 8.69318V9.19176H29.5206V8.06676H33.3388C33.3388 7.8054 33.282 7.57386 33.1683 7.37216C33.0547 7.17045 32.897 7.01278 32.6953 6.89915C32.4964 6.78267 32.2649 6.72443 32.0007 6.72443C31.7251 6.72443 31.4808 6.78835 31.2678 6.91619C31.0575 7.04119 30.8928 7.21023 30.7734 7.4233C30.6541 7.63352 30.593 7.8679 30.5902 8.12642V9.19602C30.5902 9.51989 30.6499 9.79972 30.7692 10.0355C30.8913 10.2713 31.0632 10.4531 31.2848 10.581C31.5064 10.7088 31.7692 10.7727 32.0732 10.7727C32.2749 10.7727 32.4595 10.7443 32.6271 10.6875C32.7947 10.6307 32.9382 10.5455 33.0575 10.4318C33.1768 10.3182 33.2678 10.179 33.3303 10.0142L35.0092 10.125C34.924 10.5284 34.7493 10.8807 34.4851 11.1818C34.2237 11.4801 33.8857 11.7131 33.4709 11.8807C33.0589 12.0455 32.5831 12.1278 32.0433 12.1278ZM38.0476 8.21591V12H36.2322V5.45455H37.9624V6.60938H38.0391C38.1839 6.22869 38.4268 5.92756 38.7678 5.70597C39.1087 5.48153 39.522 5.36932 40.0078 5.36932C40.4624 5.36932 40.8587 5.46875 41.1967 5.66761C41.5348 5.86648 41.7976 6.15057 41.9851 6.51989C42.1726 6.88636 42.2663 7.32386 42.2663 7.83239V12H40.451V8.15625C40.4538 7.75568 40.3516 7.44318 40.1442 7.21875C39.9368 6.99148 39.6513 6.87784 39.2876 6.87784C39.0433 6.87784 38.8274 6.9304 38.6399 7.03551C38.4553 7.14062 38.3104 7.29403 38.2053 7.49574C38.103 7.6946 38.0504 7.93466 38.0476 8.21591ZM47.1786 5.45455V6.81818H43.2369V5.45455H47.1786ZM44.1317 3.88636H45.9471V9.98864C45.9471 10.1562 45.9727 10.2869 46.0238 10.3807C46.0749 10.4716 46.146 10.5355 46.2369 10.5724C46.3306 10.6094 46.4386 10.6278 46.5607 10.6278C46.646 10.6278 46.7312 10.6207 46.8164 10.6065C46.9016 10.5895 46.967 10.5767 47.0124 10.5682L47.2979 11.919C47.207 11.9474 47.0792 11.9801 46.9144 12.017C46.7496 12.0568 46.5494 12.081 46.3136 12.0895C45.8761 12.1065 45.4925 12.0483 45.163 11.9148C44.8363 11.7812 44.582 11.5739 44.4002 11.2926C44.2184 11.0114 44.1289 10.6562 44.1317 10.2273V3.88636ZM51.2738 12.1278C50.6005 12.1278 50.021 11.9915 49.5352 11.7188C49.0522 11.4432 48.68 11.054 48.4187 10.5511C48.1573 10.0455 48.0266 9.44744 48.0266 8.7571C48.0266 8.08381 48.1573 7.4929 48.4187 6.98438C48.68 6.47585 49.0479 6.07955 49.5224 5.79545C49.9996 5.51136 50.5593 5.36932 51.2013 5.36932C51.6332 5.36932 52.0352 5.43892 52.4073 5.57812C52.7823 5.71449 53.109 5.92045 53.3874 6.19602C53.6687 6.47159 53.8874 6.81818 54.0437 7.2358C54.1999 7.65057 54.2781 8.13636 54.2781 8.69318V9.19176H48.7511V8.06676H52.5692C52.5692 7.8054 52.5124 7.57386 52.3988 7.37216C52.2852 7.17045 52.1275 7.01278 51.9258 6.89915C51.7269 6.78267 51.4954 6.72443 51.2312 6.72443C50.9556 6.72443 50.7113 6.78835 50.4982 6.91619C50.288 7.04119 50.1232 7.21023 50.0039 7.4233C49.8846 7.63352 49.8235 7.8679 49.8207 8.12642V9.19602C49.8207 9.51989 49.8803 9.79972 49.9996 10.0355C50.1218 10.2713 50.2937 10.4531 50.5153 10.581C50.7369 10.7088 50.9996 10.7727 51.3036 10.7727C51.5053 10.7727 51.69 10.7443 51.8576 10.6875C52.0252 10.6307 52.1687 10.5455 52.288 10.4318C52.4073 10.3182 52.4982 10.179 52.5607 10.0142L54.2397 10.125C54.1545 10.5284 53.9798 10.8807 53.7156 11.1818C53.4542 11.4801 53.1161 11.7131 52.7013 11.8807C52.2894 12.0455 51.8136 12.1278 51.2738 12.1278Z" fill="#E4B408"/>
<path d="M61.75 13.5L66.25 9L61.75 4.5" stroke="#E4B408" stroke-width="2" stroke-linecap="round" stroke-linejoin="round"/>
</svg>
