<svg width="19" height="18" viewBox="0 0 19 18" fill="none" xmlns="http://www.w3.org/2000/svg">
<path d="M9.5 17C13.9183 17 17.5 13.4183 17.5 9C17.5 4.58172 13.9183 1 9.5 1C5.08172 1 1.5 4.58172 1.5 9C1.5 13.4183 5.08172 17 9.5 17Z" stroke="#16CE69" stroke-width="1.5" stroke-linecap="round" stroke-linejoin="round"/>
<path d="M7 7.5C7.55228 7.5 8 7.05228 8 6.5C8 5.94772 7.55228 5.5 7 5.5C6.44772 5.5 6 5.94772 6 6.5C6 7.05228 6.44772 7.5 7 7.5Z" fill="#16CE69"/>
<path d="M12 7.5C12.5523 7.5 13 7.05228 13 6.5C13 5.94772 12.5523 5.5 12 5.5C11.4477 5.5 11 5.94772 11 6.5C11 7.05228 11.4477 7.5 12 7.5Z" fill="#16CE69"/>
<path d="M6.5 10C7.103 11.333 8.103 12 9.5 12C10.897 12 11.897 11.333 12.5 10" stroke="#16CE69" stroke-width="1.5" stroke-linecap="round" stroke-linejoin="round"/>
</svg>
