<svg width="16" height="16" viewBox="0 0 16 16" fill="none" xmlns="http://www.w3.org/2000/svg">
<path d="M15.5029 7.92621L8.56539 0.988709C8.28789 0.711209 7.90247 0.541626 7.47852 0.541626H2.08268C1.23477 0.541626 0.541016 1.23538 0.541016 2.08329V7.47913C0.541016 7.90308 0.710599 8.2885 0.995807 8.57371L7.93331 15.5112C8.21081 15.7887 8.59622 15.9583 9.02018 15.9583C9.44414 15.9583 9.82956 15.7887 10.1071 15.5035L15.5029 10.1077C15.7881 9.83017 15.9577 9.44475 15.9577 9.02079C15.9577 8.59684 15.7804 8.20371 15.5029 7.92621ZM9.02018 14.4243L2.08268 7.47913V2.08329H7.47852V2.07558L14.416 9.01308L9.02018 14.4243Z" fill="black"/>
</svg>
