<svg width="42" height="42" viewBox="0 0 42 42" fill="none" xmlns="http://www.w3.org/2000/svg">
<path d="M15.7502 19.95C16.3071 19.95 16.8413 19.7287 17.2351 19.3349C17.6289 18.941 17.8502 18.4069 17.8502 17.85C17.8502 17.293 17.6289 16.7589 17.2351 16.365C16.8413 15.9712 16.3071 15.75 15.7502 15.75C15.1932 15.75 14.6591 15.9712 14.2653 16.365C13.8714 16.7589 13.6502 17.293 13.6502 17.85C13.6502 18.4069 13.8714 18.941 14.2653 19.3349C14.6591 19.7287 15.1932 19.95 15.7502 19.95ZM28.3502 17.85C28.3502 18.4069 28.1289 18.941 27.7351 19.3349C27.3413 19.7287 26.8071 19.95 26.2502 19.95C25.6932 19.95 25.1591 19.7287 24.7653 19.3349C24.3714 18.941 24.1502 18.4069 24.1502 17.85C24.1502 17.293 24.3714 16.7589 24.7653 16.365C25.1591 15.9712 25.6932 15.75 26.2502 15.75C26.8071 15.75 27.3413 15.9712 27.7351 16.365C28.1289 16.7589 28.3502 17.293 28.3502 17.85ZM28.4804 28.1189C28.2641 28.2918 27.9883 28.3723 27.713 28.3428C27.4377 28.3133 27.1852 28.1762 27.0104 27.9614L27.0041 27.9552C26.9131 27.8544 26.8171 27.7584 26.7164 27.6674C26.389 27.3727 26.0322 27.1124 25.6517 26.8905C24.6836 26.3235 23.159 25.725 21.0044 25.725C18.8498 25.725 17.3231 26.3214 16.3508 26.8925C15.9697 27.1146 15.6122 27.3749 15.284 27.6695C15.1826 27.7605 15.0859 27.8565 14.9942 27.9572L14.9879 27.9636C14.901 28.0707 14.7939 28.1597 14.6726 28.2254C14.5514 28.2911 14.4184 28.3324 14.2812 28.3467C14.144 28.361 14.0053 28.3482 13.8731 28.3089C13.7409 28.2697 13.6177 28.2048 13.5105 28.1179C13.4034 28.031 13.3144 27.9239 13.2487 27.8027C13.1829 27.6814 13.1417 27.5484 13.1274 27.4112C13.1131 27.274 13.1259 27.1353 13.1652 27.0031C13.2044 26.8709 13.2693 26.7477 13.3562 26.6406L14.1752 27.2999L13.3562 26.6427V26.6406L13.3604 26.6385L13.3646 26.6342L13.3751 26.6217L13.4045 26.5839L13.5074 26.4704C13.5914 26.3801 13.7132 26.2563 13.8728 26.1135C14.192 25.8237 14.6603 25.4499 15.2882 25.0824C16.5482 24.3411 18.4382 23.625 21.0044 23.625C23.5685 23.625 25.4564 24.339 26.7164 25.0824C27.3464 25.452 27.8126 25.8237 28.1297 26.1114C28.2936 26.261 28.4492 26.4194 28.5959 26.5859L28.6274 26.6217L28.6379 26.6342L28.6421 26.6406C28.6421 26.6406 28.6442 26.6448 27.8252 27.2999L28.6442 26.6447C28.8177 26.8621 28.8978 27.1393 28.8671 27.4157C28.8364 27.6921 28.6973 27.945 28.4804 28.1189ZM21.0002 4.19995C16.5446 4.19995 12.2714 5.96995 9.1208 9.12056C5.97019 12.2712 4.2002 16.5443 4.2002 21C4.2002 25.4556 5.97019 29.7287 9.1208 32.8793C12.2714 36.03 16.5446 37.7999 21.0002 37.7999C25.4558 37.7999 29.729 36.03 32.8796 32.8793C36.0302 29.7287 37.8002 25.4556 37.8002 21C37.8002 16.5443 36.0302 12.2712 32.8796 9.12056C29.729 5.96995 25.4558 4.19995 21.0002 4.19995ZM6.3002 21C6.3002 19.0695 6.68042 17.158 7.41917 15.3745C8.15791 13.591 9.2407 11.9705 10.6057 10.6055C11.9707 9.24046 13.5913 8.15767 15.3747 7.41892C17.1582 6.68018 19.0698 6.29995 21.0002 6.29995C22.9306 6.29995 24.8422 6.68018 26.6256 7.41892C28.4091 8.15767 30.0296 9.24046 31.3947 10.6055C32.7597 11.9705 33.8425 13.591 34.5812 15.3745C35.32 17.158 35.7002 19.0695 35.7002 21C35.7002 24.8986 34.1514 28.6376 31.3947 31.3944C28.6379 34.1512 24.8989 35.6999 21.0002 35.6999C17.1015 35.6999 13.3625 34.1512 10.6057 31.3944C7.84894 28.6376 6.3002 24.8986 6.3002 21Z" fill="white"/>
</svg>
