<svg width="78" height="24" viewBox="0 0 78 24" fill="none" xmlns="http://www.w3.org/2000/svg">
<path d="M8.94318 9.18182L10.6705 14.0795H10.7386L12.4659 9.18182H13.2045L11.0682 15H10.3409L8.20455 9.18182H8.94318ZM15.4432 15.0909C15.0227 15.0909 14.66 14.9981 14.3551 14.8125C14.0521 14.625 13.8182 14.3636 13.6534 14.0284C13.4905 13.6913 13.4091 13.2992 13.4091 12.8523C13.4091 12.4053 13.4905 12.0114 13.6534 11.6705C13.8182 11.3277 14.0473 11.0606 14.3409 10.8693C14.6364 10.6761 14.9811 10.5795 15.375 10.5795C15.6023 10.5795 15.8267 10.6174 16.0483 10.6932C16.2699 10.7689 16.4716 10.892 16.6534 11.0625C16.8352 11.2311 16.9801 11.4545 17.0881 11.733C17.196 12.0114 17.25 12.3542 17.25 12.7614V13.0455H13.8864V12.4659H16.5682C16.5682 12.2197 16.5189 12 16.4205 11.8068C16.3239 11.6136 16.1856 11.4612 16.0057 11.3494C15.8277 11.2377 15.6174 11.1818 15.375 11.1818C15.108 11.1818 14.8769 11.2481 14.6818 11.3807C14.4886 11.5114 14.34 11.6818 14.2358 11.892C14.1316 12.1023 14.0795 12.3277 14.0795 12.5682V12.9545C14.0795 13.2841 14.1364 13.5634 14.25 13.7926C14.3655 14.0199 14.5256 14.1932 14.7301 14.3125C14.9347 14.4299 15.1723 14.4886 15.4432 14.4886C15.6193 14.4886 15.7784 14.464 15.9205 14.4148C16.0644 14.3636 16.1884 14.2879 16.2926 14.1875C16.3968 14.0852 16.4773 13.9583 16.5341 13.8068L17.1818 13.9886C17.1136 14.2083 16.9991 14.4015 16.8381 14.5682C16.6771 14.733 16.4782 14.8617 16.2415 14.9545C16.0047 15.0455 15.7386 15.0909 15.4432 15.0909ZM18.2699 15V10.6364H18.9176V11.2955H18.9631C19.0426 11.0795 19.1866 10.9044 19.3949 10.7699C19.6032 10.6354 19.8381 10.5682 20.0994 10.5682C20.1487 10.5682 20.2102 10.5691 20.2841 10.571C20.358 10.5729 20.4138 10.5758 20.4517 10.5795V11.2614C20.429 11.2557 20.3769 11.2472 20.2955 11.2358C20.2159 11.2225 20.1316 11.2159 20.0426 11.2159C19.8305 11.2159 19.6411 11.2604 19.4744 11.3494C19.3097 11.4366 19.179 11.5578 19.0824 11.7131C18.9877 11.8665 18.9403 12.0417 18.9403 12.2386V15H18.2699ZM25.3942 10.6364V11.2045H23.1328V10.6364H25.3942ZM23.7919 9.59091H24.4624V13.75C24.4624 13.9394 24.4898 14.0814 24.5447 14.1761C24.6016 14.2689 24.6735 14.3314 24.7607 14.3636C24.8497 14.3939 24.9434 14.4091 25.0419 14.4091C25.1158 14.4091 25.1764 14.4053 25.2237 14.3977C25.2711 14.3883 25.3089 14.3807 25.3374 14.375L25.4737 14.9773C25.4283 14.9943 25.3648 15.0114 25.2834 15.0284C25.2019 15.0473 25.0987 15.0568 24.9737 15.0568C24.7843 15.0568 24.5987 15.0161 24.4169 14.9347C24.237 14.8532 24.0874 14.7292 23.968 14.5625C23.8506 14.3958 23.7919 14.1856 23.7919 13.9318V9.59091ZM29.1527 13.2159V10.6364H29.8232V15H29.1527V14.2614H29.1072C29.005 14.483 28.8459 14.6714 28.63 14.8267C28.4141 14.9801 28.1413 15.0568 27.8118 15.0568C27.5391 15.0568 27.2966 14.9972 27.0845 14.8778C26.8724 14.7566 26.7057 14.5748 26.5845 14.3324C26.4633 14.0881 26.4027 13.7803 26.4027 13.4091V10.6364H27.0732V13.3636C27.0732 13.6818 27.1622 13.9356 27.3402 14.125C27.5201 14.3144 27.7493 14.4091 28.0277 14.4091C28.1944 14.4091 28.3639 14.3665 28.5362 14.2812C28.7105 14.196 28.8563 14.0653 28.9737 13.8892C29.093 13.7131 29.1527 13.4886 29.1527 13.2159ZM32.9489 10.6364V11.2045H30.6875V10.6364H32.9489ZM31.3466 9.59091H32.017V13.75C32.017 13.9394 32.0445 14.0814 32.0994 14.1761C32.1563 14.2689 32.2282 14.3314 32.3153 14.3636C32.4044 14.3939 32.4981 14.4091 32.5966 14.4091C32.6705 14.4091 32.7311 14.4053 32.7784 14.3977C32.8258 14.3883 32.8636 14.3807 32.892 14.375L33.0284 14.9773C32.983 14.9943 32.9195 15.0114 32.8381 15.0284C32.7566 15.0473 32.6534 15.0568 32.5284 15.0568C32.339 15.0568 32.1534 15.0161 31.9716 14.9347C31.7917 14.8532 31.642 14.7292 31.5227 14.5625C31.4053 14.3958 31.3466 14.1856 31.3466 13.9318V9.59091ZM35.6832 15.0909C35.2893 15.0909 34.9437 14.9972 34.6463 14.8097C34.3509 14.6222 34.1198 14.3598 33.9531 14.0227C33.7884 13.6856 33.706 13.2917 33.706 12.8409C33.706 12.3864 33.7884 11.9896 33.9531 11.6506C34.1198 11.3116 34.3509 11.0483 34.6463 10.8608C34.9437 10.6733 35.2893 10.5795 35.6832 10.5795C36.0772 10.5795 36.4219 10.6733 36.7173 10.8608C37.0147 11.0483 37.2457 11.3116 37.4105 11.6506C37.5772 11.9896 37.6605 12.3864 37.6605 12.8409C37.6605 13.2917 37.5772 13.6856 37.4105 14.0227C37.2457 14.3598 37.0147 14.6222 36.7173 14.8097C36.4219 14.9972 36.0772 15.0909 35.6832 15.0909ZM35.6832 14.4886C35.9825 14.4886 36.2287 14.4119 36.4219 14.2585C36.6151 14.1051 36.758 13.9034 36.8509 13.6534C36.9437 13.4034 36.9901 13.1326 36.9901 12.8409C36.9901 12.5492 36.9437 12.2775 36.8509 12.0256C36.758 11.7737 36.6151 11.5701 36.4219 11.4148C36.2287 11.2595 35.9825 11.1818 35.6832 11.1818C35.384 11.1818 35.1378 11.2595 34.9446 11.4148C34.7514 11.5701 34.6084 11.7737 34.5156 12.0256C34.4228 12.2775 34.3764 12.5492 34.3764 12.8409C34.3764 13.1326 34.4228 13.4034 34.5156 13.6534C34.6084 13.9034 34.7514 14.1051 34.9446 14.2585C35.1378 14.4119 35.384 14.4886 35.6832 14.4886ZM38.6839 15V10.6364H39.3317V11.2955H39.3771C39.4567 11.0795 39.6006 10.9044 39.8089 10.7699C40.0173 10.6354 40.2521 10.5682 40.5135 10.5682C40.5627 10.5682 40.6243 10.5691 40.6982 10.571C40.772 10.5729 40.8279 10.5758 40.8658 10.5795V11.2614C40.843 11.2557 40.791 11.2472 40.7095 11.2358C40.63 11.2225 40.5457 11.2159 40.4567 11.2159C40.2446 11.2159 40.0552 11.2604 39.8885 11.3494C39.7237 11.4366 39.593 11.5578 39.4964 11.7131C39.4018 11.8665 39.3544 12.0417 39.3544 12.2386V15H38.6839ZM41.6605 15V10.6364H42.331V15H41.6605ZM42.0014 9.90909C41.8707 9.90909 41.758 9.86458 41.6634 9.77557C41.5705 9.68655 41.5241 9.57955 41.5241 9.45455C41.5241 9.32955 41.5705 9.22254 41.6634 9.13352C41.758 9.04451 41.8707 9 42.0014 9C42.1321 9 42.2438 9.04451 42.3366 9.13352C42.4313 9.22254 42.4787 9.32955 42.4787 9.45455C42.4787 9.57955 42.4313 9.68655 42.3366 9.77557C42.2438 9.86458 42.1321 9.90909 42.0014 9.90909ZM44.843 15.1023C44.5665 15.1023 44.3156 15.0502 44.0902 14.946C43.8648 14.84 43.6858 14.6875 43.5533 14.4886C43.4207 14.2879 43.3544 14.0455 43.3544 13.7614C43.3544 13.5114 43.4036 13.3087 43.5021 13.1534C43.6006 12.9962 43.7322 12.8731 43.897 12.7841C44.0618 12.6951 44.2436 12.6288 44.4425 12.5852C44.6432 12.5398 44.8449 12.5038 45.0476 12.4773C45.3127 12.4432 45.5277 12.4176 45.6925 12.4006C45.8591 12.3816 45.9804 12.3504 46.0561 12.3068C46.1338 12.2633 46.1726 12.1875 46.1726 12.0795V12.0568C46.1726 11.7765 46.0959 11.5587 45.9425 11.4034C45.791 11.2481 45.5608 11.1705 45.2521 11.1705C44.9321 11.1705 44.6811 11.2405 44.4993 11.3807C44.3175 11.5208 44.1896 11.6705 44.1158 11.8295L43.4794 11.6023C43.593 11.3371 43.7446 11.1307 43.9339 10.983C44.1252 10.8333 44.3336 10.7292 44.5589 10.6705C44.7862 10.6098 45.0097 10.5795 45.2294 10.5795C45.3696 10.5795 45.5305 10.5966 45.7124 10.6307C45.8961 10.6629 46.0732 10.7301 46.2436 10.8324C46.416 10.9347 46.5589 11.089 46.6726 11.2955C46.7862 11.5019 46.843 11.7784 46.843 12.125V15H46.1726V14.4091H46.1385C46.093 14.5038 46.0173 14.6051 45.9112 14.7131C45.8052 14.821 45.6641 14.9129 45.4879 14.9886C45.3118 15.0644 45.0968 15.1023 44.843 15.1023ZM44.9453 14.5C45.2105 14.5 45.4339 14.4479 45.6158 14.3438C45.7995 14.2396 45.9377 14.1051 46.0305 13.9403C46.1252 13.7756 46.1726 13.6023 46.1726 13.4205V12.8068C46.1442 12.8409 46.0817 12.8722 45.9851 12.9006C45.8904 12.9271 45.7805 12.9508 45.6555 12.9716C45.5324 12.9905 45.4122 13.0076 45.2947 13.0227C45.1792 13.036 45.0855 13.0473 45.0135 13.0568C44.8393 13.0795 44.6764 13.1165 44.5249 13.1676C44.3752 13.2169 44.254 13.2917 44.1612 13.392C44.0703 13.4905 44.0249 13.625 44.0249 13.7955C44.0249 14.0284 44.111 14.2045 44.2834 14.3239C44.4576 14.4413 44.6783 14.5 44.9453 14.5ZM48.7372 9.18182V15H48.0668V9.18182H48.7372Z" fill="#ADADAD"/>
<path d="M62 5.625C60.7391 5.625 59.5066 5.99889 58.4582 6.69938C57.4099 7.39988 56.5928 8.39551 56.1103 9.56039C55.6278 10.7253 55.5015 12.0071 55.7475 13.2437C55.9935 14.4803 56.6006 15.6162 57.4922 16.5078C58.3838 17.3994 59.5197 18.0065 60.7563 18.2525C61.9929 18.4985 63.2747 18.3722 64.4396 17.8897C65.6045 17.4072 66.6001 16.5901 67.3006 15.5418C68.0011 14.4934 68.375 13.2609 68.375 12C68.3717 10.3103 67.699 8.69067 66.5042 7.49584C65.3093 6.30101 63.6897 5.6283 62 5.625ZM62 17.625C60.8875 17.625 59.7999 17.2951 58.8749 16.677C57.9499 16.0589 57.2289 15.1804 56.8032 14.1526C56.3774 13.1248 56.266 11.9938 56.4831 10.9026C56.7001 9.81147 57.2359 8.80919 58.0225 8.02252C58.8092 7.23585 59.8115 6.70012 60.9026 6.48308C61.9938 6.26604 63.1248 6.37743 64.1526 6.80318C65.1804 7.22892 66.0589 7.94989 66.677 8.87492C67.2951 9.79994 67.625 10.8875 67.625 12C67.6233 13.4913 67.0302 14.9211 65.9757 15.9756C64.9211 17.0302 63.4913 17.6233 62 17.625ZM64.2063 11.6875L61.2063 9.6875C61.1498 9.6503 61.0843 9.62907 61.0167 9.62606C60.9491 9.62305 60.882 9.63837 60.8224 9.6704C60.7629 9.70242 60.7131 9.74997 60.6783 9.80799C60.6435 9.86602 60.6251 9.93236 60.625 10V14C60.6251 14.0682 60.6437 14.135 60.679 14.1934C60.7142 14.2518 60.7647 14.2994 60.825 14.3312C60.8842 14.3632 60.951 14.3783 61.0182 14.375C61.0854 14.3717 61.1505 14.3501 61.2063 14.3125L64.2063 12.3125C64.2578 12.2783 64.3001 12.2319 64.3294 12.1773C64.3586 12.1228 64.374 12.0619 64.374 12C64.374 11.9381 64.3586 11.8772 64.3294 11.8227C64.3001 11.7681 64.2578 11.7217 64.2063 11.6875ZM61.375 13.3V10.7L63.325 12L61.375 13.3Z" fill="#ADADAD"/>
<rect x="0.5" y="0.5" width="77" height="23" rx="3.5" stroke="#EEEEEE"/>
</svg>
