<svg width="12" height="12" viewBox="0 0 12 12" fill="none" xmlns="http://www.w3.org/2000/svg">
<path d="M11.1119 5.70335C11.3416 6.00686 11.4688 6.37874 11.4688 6.76565C11.4688 7.37952 11.1256 7.96057 10.5732 8.2846C10.431 8.368 10.2691 8.4119 10.1043 8.41175H6.82578L6.90781 10.092C6.92695 10.4981 6.7834 10.8836 6.50449 11.1776C6.36762 11.3224 6.20248 11.4377 6.0193 11.5163C5.83611 11.5948 5.63877 11.6349 5.43945 11.6342C4.72852 11.6342 4.09961 11.1557 3.91094 10.4707L2.73652 6.21878H0.96875C0.726758 6.21878 0.53125 6.02327 0.53125 5.78128V0.804714C0.53125 0.562722 0.726758 0.367214 0.96875 0.367214H9.18965C9.31543 0.367214 9.43848 0.391824 9.55195 0.441043C10.2027 0.718582 10.6225 1.35432 10.6225 2.05979C10.6225 2.23206 10.5979 2.40159 10.5486 2.56565C10.7783 2.86917 10.9055 3.24104 10.9055 3.62796C10.9055 3.80022 10.8809 3.96975 10.8316 4.13382C11.0613 4.43733 11.1885 4.80921 11.1885 5.19612C11.1857 5.36839 11.1611 5.53928 11.1119 5.70335ZM1.51562 1.35159V5.2344H2.62305V1.35159H1.51562ZM10.2164 6.17776L9.91699 5.918L10.107 5.57073C10.1696 5.45634 10.2021 5.32789 10.2014 5.19749C10.2014 4.9719 10.1029 4.75725 9.9334 4.6096L9.63398 4.34983L9.82402 4.00257C9.88663 3.88817 9.9191 3.75973 9.91836 3.62932C9.91836 3.40374 9.81992 3.18909 9.65039 3.04143L9.35098 2.78167L9.54102 2.4344C9.60362 2.32001 9.63609 2.19156 9.63535 2.06116C9.63535 1.75491 9.45488 1.47874 9.17598 1.35296H3.49805V5.27815L4.8584 10.2069C4.89348 10.3332 4.96878 10.4446 5.07289 10.5243C5.177 10.604 5.30425 10.6476 5.43535 10.6485C5.53926 10.6485 5.6418 10.6184 5.72383 10.5569C5.85918 10.4557 5.93164 10.3026 5.92344 10.1399L5.79219 7.42737H10.0906C10.334 7.27835 10.4844 7.02678 10.4844 6.76565C10.4844 6.54007 10.3859 6.32678 10.2164 6.17776Z" fill="black"/>
</svg>
