<svg width="10" height="10" viewBox="0 0 10 10" fill="none" xmlns="http://www.w3.org/2000/svg">
<path d="M6.2067 5L9.92143 1.28504C10.0261 1.18036 10.0261 1.01071 9.92143 0.90625C9.18929 0.174107 8.00201 0.174107 7.26987 0.90625L4.69152 3.48482L4.13661 2.92991C4.23281 2.68616 4.28571 2.42076 4.28571 2.14286C4.28571 0.959375 3.32634 0 2.14286 0C0.959375 0 0 0.959375 0 2.14286C0 3.32634 0.959375 4.28571 2.14286 4.28571C2.2442 4.28571 2.34353 4.27857 2.44107 4.26496L3.17612 5L2.44107 5.73504C2.34353 5.72143 2.24397 5.71429 2.14286 5.71429C0.959375 5.71429 0 6.67366 0 7.85714C0 9.04063 0.959375 10 2.14286 10C3.32634 10 4.28571 9.04063 4.28571 7.85714C4.28571 7.57924 4.23281 7.31384 4.13661 7.07009L4.69152 6.51518L7.26987 9.09375C8.00201 9.82589 9.18929 9.82589 9.92143 9.09375C10.0261 8.98929 10.0261 8.81964 9.92143 8.71496L6.2067 5ZM2.14286 2.85714C1.74911 2.85714 1.42857 2.53661 1.42857 2.14286C1.42857 1.74911 1.74911 1.42857 2.14286 1.42857C2.53661 1.42857 2.85714 1.74911 2.85714 2.14286C2.85714 2.53661 2.53661 2.85714 2.14286 2.85714ZM2.14286 8.57143C1.74911 8.57143 1.42857 8.25089 1.42857 7.85714C1.42857 7.46339 1.74911 7.14286 2.14286 7.14286C2.53661 7.14286 2.85714 7.46339 2.85714 7.85714C2.85714 8.25089 2.53661 8.57143 2.14286 8.57143Z" fill="#464646"/>
</svg>
