<?xml version="1.0" encoding="UTF-8" standalone="no"?>
<!-- Uploaded to: SVG Repo, www.svgrepo.com, Generator: SVG Repo Mixer Tools -->

<svg
   width="800px"
   height="800px"
   viewBox="0 0 24 24"
   fill="none"
   version="1.1"
   id="svg735"
   sodipodi:docname="view-feed.svg"
   inkscape:version="1.2.2 (732a01da63, 2022-12-09)"
   xmlns:inkscape="http://www.inkscape.org/namespaces/inkscape"
   xmlns:sodipodi="http://sodipodi.sourceforge.net/DTD/sodipodi-0.dtd"
   xmlns="http://www.w3.org/2000/svg"
   xmlns:svg="http://www.w3.org/2000/svg">
  <defs
     id="defs739" />
  <sodipodi:namedview
     id="namedview737"
     pagecolor="#505050"
     bordercolor="#ffffff"
     borderopacity="1"
     inkscape:showpageshadow="0"
     inkscape:pageopacity="0"
     inkscape:pagecheckerboard="1"
     inkscape:deskcolor="#505050"
     showgrid="false"
     inkscape:zoom="1.09625"
     inkscape:cx="399.5439"
     inkscape:cy="400.9122"
     inkscape:window-width="1920"
     inkscape:window-height="1058"
     inkscape:window-x="-8"
     inkscape:window-y="-8"
     inkscape:window-maximized="1"
     inkscape:current-layer="svg735" />
  <path
     d="M20.188 10.9343C20.5762 11.4056 20.7703 11.6412 20.7703 12C20.7703 12.3588 20.5762 12.5944 20.188 13.0657C18.7679 14.7899 15.6357 18 12 18C8.36427 18 5.23206 14.7899 3.81197 13.0657C3.42381 12.5944 3.22973 12.3588 3.22973 12C3.22973 11.6412 3.42381 11.4056 3.81197 10.9343C5.23206 9.21014 8.36427 6 12 6C15.6357 6 18.7679 9.21014 20.188 10.9343Z"
     stroke="#33363F"
     stroke-width="2"
     id="path733" />
  <path
     style="fill:#ffffff;stroke-width:0.912201"
     d="M 374.00228,631.64611 C 300.51834,622.68086 229.07545,584.63476 157.06479,516.11852 135.49218,495.59275 106.59471,463.69727 91.530825,443.78563 c -22.332795,-29.51977 -22.332795,-58.05149 0,-87.57126 15.063885,-19.91164 43.961355,-51.80712 65.533965,-72.33289 73.02117,-69.47772 146.33142,-108.16025 219.11168,-115.61542 13.76636,-1.41014 46.88054,-0.65159 59.32974,1.35908 62.98794,10.17317 122.42038,40.20752 184.33415,93.15377 29.92743,25.59278 76.8208,75.68988 92.60152,98.92803 17.03286,25.08199 17.03286,51.50413 0,76.58612 -12.58678,18.53488 -49.83666,59.7707 -75.2697,83.32399 -67.34782,62.37017 -132.53321,97.53999 -201.59635,108.76837 -10.72033,1.74293 -50.8811,2.5652 -61.57355,1.26069 z m 45.15393,-65.66558 C 491.75139,557.69312 573.20813,503.97356 645.8851,416.45608 659.883,399.59984 659.35226,400.55041 656.75486,396.98757 645.20416,381.14355 611.2385,343.99381 592.67015,326.89526 524.6476,264.25715 460.62158,233.08224 400,233.08224 c -74.7522,0 -159.9335,50.56869 -238.14349,141.37614 -10.92886,12.6892 -20.4654,24.62092 -20.4654,25.60545 0,0.43652 2.74107,4.19253 6.09128,8.34668 51.59833,63.98039 111.62161,114.03487 165.76155,138.23152 23.17062,10.3556 48.63809,17.52627 69.88035,19.67567 7.25495,0.73409 28.37958,0.53642 36.03192,-0.33717 z"
     id="path741"
     transform="scale(0.03)" />
  <path
     style="fill:#ffffff;stroke-width:0.912201"
     d="m 381.29989,565.43762 c -17.30206,-2.1671 -38.34081,-7.4715 -54.27594,-13.68433 -8.70146,-3.39254 -34.91532,-16.12602 -41.04904,-19.93973 -2.00684,-1.24777 -4.26453,-2.5491 -5.0171,-2.89186 -0.75256,-0.34276 -2.63852,-1.57702 -4.191,-2.7428 -1.5525,-1.16578 -3.12921,-2.11961 -3.50381,-2.11961 -0.55442,0 -9.10231,-5.6316 -12.8238,-8.44869 -0.50496,-0.38224 -6.51833,-4.90226 -13.36307,-10.04448 -6.84472,-5.14222 -14.82871,-11.39732 -17.74219,-13.90022 -2.91348,-2.50291 -7.14161,-6.13703 -9.39585,-8.07583 -11.28676,-9.70742 -38.41048,-36.60398 -47.98826,-47.58636 -3.01026,-3.45173 -6.29419,-7.1423 -7.29761,-8.20127 -1.00342,-1.05898 -3.46636,-3.94584 -5.4732,-6.41526 -2.00684,-2.46941 -4.26454,-5.12398 -5.0171,-5.89905 -0.75257,-0.77506 -2.45124,-2.83239 -3.77482,-4.57182 -1.32358,-1.73943 -3.47815,-4.39408 -4.78794,-5.89921 -1.30978,-1.50513 -2.38193,-3.69217 -2.38254,-4.8601 -9.5e-4,-1.81489 7.52665,-11.95238 17.03794,-22.94517 1.09325,-1.26354 2.86827,-3.32357 3.94447,-4.57785 19.82513,-23.10537 49.29101,-51.57165 72.80115,-70.33144 6.36598,-5.0797 12.50123,-10.01049 13.6339,-10.95732 1.13266,-0.94683 2.29083,-1.7215 2.5737,-1.7215 0.28288,0 1.0865,-0.51312 1.78581,-1.14025 2.98278,-2.67492 4.0444,-3.42076 4.86909,-3.42076 0.48107,0 1.01151,-0.33177 1.17875,-0.73727 0.76084,-1.8448 27.6417,-18.16907 40.63906,-24.67939 28.24858,-14.14957 52.69832,-21.80097 80.5316,-25.20186 5.20013,-0.6354 30.13862,-0.62107 35.57582,0.0204 3.82344,0.45111 21.89656,3.54771 25.99772,4.45439 13.33816,2.94877 35.77551,11.42769 53.52133,20.22533 10.00135,4.95825 10.33521,5.14428 23.11201,12.8785 0.99875,0.60458 3.86837,2.29834 6.37693,3.76391 2.50855,1.46557 7.02394,4.48256 10.0342,6.70442 3.01026,2.22186 9.37286,6.8907 14.13911,10.3752 7.91929,5.78962 28.2334,22.33471 32.53521,26.49871 0.98273,0.95126 6.82768,6.4502 12.98878,12.21987 18.2801,17.11873 45.73034,47.4293 58.87174,65.00619 l 2.56644,3.43265 -5.3625,7.00563 c -5.81172,7.5925 -5.71189,7.47495 -22.30757,26.2659 -12.72794,14.41158 -37.84095,39.58269 -49.30957,49.42366 -4.19849,3.60262 -9.00418,7.7767 -10.67932,9.27574 -1.67514,1.49904 -4.30572,3.68257 -5.84571,4.85229 -1.54001,1.16972 -3.24811,2.56545 -3.7958,3.10162 -2.39773,2.34734 -19.31109,14.41722 -30.18621,21.54179 -26.47288,17.34306 -51.16692,29.13801 -77.05952,36.80699 -18.22849,5.399 -28.95496,6.95147 -50.19248,7.26448 -10.28506,0.15159 -20.13683,0.0957 -21.89281,-0.12427 z m 28.33428,-32.24713 c 18.43217,-1.52773 34.56768,-5.89753 49.56933,-13.42427 37.96826,-19.04975 63.72543,-53.11545 72.30308,-95.626 2.4792,-12.28681 2.26652,-37.80792 -0.41862,-50.23286 -5.97167,-27.63281 -17.17109,-48.39676 -36.64142,-67.93394 -28.19334,-28.29015 -65.56178,-42.27008 -104.53681,-39.10833 -34.00098,2.75824 -63.21977,16.6547 -86.71405,41.24123 -17.58086,18.39818 -28.31575,38.95906 -34.26602,65.63075 -2.98703,13.38916 -2.97783,38.73365 0.0191,52.57077 7.94199,36.66918 28.92652,67.10081 59.9822,86.9858 16.56695,10.60784 39.95938,18.27955 60.57874,19.86723 4.76625,0.36699 8.87116,0.72047 9.12201,0.78551 0.25086,0.065 5.20197,-0.27511 11.00247,-0.75589 z"
     id="path743"
     transform="scale(0.03)" />
  <path
     style="fill:#ffffff;stroke-width:0.912201"
     d="m 390.85043,465.69221 c -25.32852,-3.55239 -46.40396,-21.74092 -54.45074,-46.9921 -2.78756,-8.7475 -3.17045,-23.74565 -0.85332,-33.42558 7.3258,-30.60389 33.09705,-51.23506 63.99753,-51.23319 11.66294,7e-4 19.72973,1.81073 29.64652,6.65209 16.38953,8.00133 28.65402,22.47218 34.41522,40.60646 2.50314,7.87903 3.11248,23.63425 1.25243,32.38312 -1.78215,8.38248 -7.04241,19.51357 -12.85019,27.19195 -13.45483,17.78844 -38.57954,27.98386 -61.15745,24.81725 z"
     id="path745"
     transform="scale(0.03)" />
  <path
     style="fill:#ffffff;stroke-width:0.03"
     id="path747"
     d="M 5.4406836,9.7456362 C 5.3653116,9.8487048 5.2727382,9.9355371 5.1760071,10.017992 5.0754048,10.101047 4.967097,10.173711 4.860741,10.249041 c -0.1016328,0.07503 -0.1868844,0.170008 -0.2733645,0.261552 -0.098354,0.106799 -0.1816368,0.225956 -0.2677389,0.342506 -0.076161,0.11292 -0.159936,0.220509 -0.2367849,0.332903 -0.078388,0.115628 -0.149391,0.236024 -0.2135355,0.360076 -0.065931,0.114151 -0.092878,0.23985 -0.108504,0.369113 -0.00889,0.115209 -0.00472,0.173784 0.089222,0.246867 0.5129589,0.369857 0.6682644,0.411945 1.0986807,0.571816 0.083531,0.03025 0.168042,0.05989 0.2486583,0.09751 0.2709348,0.151671 0.364122,0.204015 -0.6957729,-0.399117 -0.018047,-0.01027 0.035665,0.02131 0.052891,0.0329 0.047075,0.03168 0.091959,0.06735 0.1376889,0.100949 0.059482,0.04656 0.1174197,0.09572 0.1668702,0.153 0.033218,0.05159 -0.043817,0.07945 -0.078786,0.09979 -0.014527,0.0067 -0.046627,0.0278 -0.066614,0.01576 -0.0105,-0.0063 -0.031478,-0.03621 -0.020677,-0.03041 0.2554731,0.137081 0.5033001,0.288065 0.7582254,0.426162 0.014635,0.0079 -0.02592,-0.02141 -0.035796,-0.03481 -0.012047,-0.01634 -0.0195,-0.03561 -0.02925,-0.05342 C 5.3365071,13.022563 5.2959447,12.900662 5.2207695,12.794116 4.9840512,12.518329 4.557444,12.369885 4.2842697,12.220338 c -0.02849,-0.0156 -0.054821,-0.0053 -0.083268,9e-5 -0.048753,0.02959 -0.069671,0.07257 -0.090268,0.122982 0,0 0.8079234,0.446604 0.8079234,0.446604 v 0 c 0.00389,-0.01781 0.00581,-0.03629 0.02767,-0.02414 0.2863998,0.115608 0.6086838,0.351535 -0.691074,-0.409248 -0.012751,-0.0075 0.02719,0.01169 0.04011,0.01886 0.038492,0.02135 0.047356,0.03127 0.081806,0.05946 0.022048,0.02303 0.056456,0.05705 0.074162,0.08352 0.049222,0.07359 0.070098,0.162392 0.1032291,0.243276 0.00754,0.02075 0.015202,0.04147 0.02263,0.06227 0.00717,0.02009 0.00324,0.04884 0.021179,0.06038 0.4050645,0.260537 0.6065862,0.636473 0.9555078,0.433544 0.078175,-0.05102 0.1469556,-0.112227 0.1454067,-0.213069 -0.00282,-0.01249 -0.00378,-0.02555 -0.00845,-0.03747 -0.02674,-0.06829 -0.097938,-0.110281 -0.1467588,-0.16045 -0.044943,-0.03732 -0.093171,-0.06907 -0.1389492,-0.105295 C 5.1240378,12.579221 4.8069657,12.400496 4.4761359,12.261616 4.3929519,12.229349 4.3098585,12.196925 4.2252321,12.16858 3.8870865,12.047729 3.3307686,11.750084 4.7085228,12.4934 4.6267008,12.45761 4.5694125,12.44416 4.5721245,12.339292 c 0.010432,-0.119341 0.031179,-0.235325 0.090019,-0.34164 0.059681,-0.122831 0.1331574,-0.237272 0.2116644,-0.348882 0.071574,-0.113751 0.1556781,-0.219146 0.2296902,-0.331336 0.083663,-0.113605 0.1677252,-0.227412 0.2628861,-0.331782 0.084424,-0.08696 0.1692801,-0.17428 0.2680452,-0.245313 0.1064697,-0.07845 0.2149164,-0.154512 0.3153216,-0.240765 0.098892,-0.08773 0.1949145,-0.178129 0.2829408,-0.276919 0,0 -0.7920084,-0.4770191 -0.7920082,-0.4770188 z" />
  <path
     style="fill:#ffffff;stroke-width:0.03"
     id="path749"
     d="m 4.7652435,13.027546 c 0.047555,0.106954 0.104118,0.208291 0.1781997,0.299059 0.0459,0.049 0.098771,0.09157 0.1572144,0.124632 0.1119624,0.0841 0.2251962,0.166693 0.3372159,0.250854 0.3016371,0.217401 0.1372851,0.101606 0.8805165,0.51002 0.027212,0.01495 0.094966,0.01035 0.1260324,0.0033 0.00605,-0.0032 0.012102,-0.0063 0.018153,-0.0095 0,0 -0.764229,-0.529409 -0.764229,-0.529409 v 0 c -0.00259,-0.0012 -0.00518,-0.0023 -0.00777,-0.0035 -0.018935,-0.0048 -0.039032,-0.0095 -0.057016,-0.01701 -0.01139,-0.0048 -0.043901,-0.02264 -0.033242,-0.01639 0.3520977,0.206363 1.0168824,0.59073 0.6841791,0.398333 C 6.1750146,13.958861 6.0702204,13.87374 5.9592216,13.796862 5.9131068,13.745805 5.8442295,13.723469 5.7925389,13.678451 5.7066348,13.608435 5.643468,13.516408 5.6052999,13.41222 c 0,0 -0.8400564,-0.384674 -0.8400564,-0.384674 z" />
  <path
     style="fill:#ffffff;stroke-width:0.03"
     id="path751"
     d="m 7.0814652,13.466986 c -0.08152,-0.06013 -0.1638462,-0.119593 -0.2411973,-0.185061 -0.042523,-0.03693 -0.081056,-0.0781 -0.1172055,-0.121212 -0.00716,-0.0085 -0.01094,-0.02136 -0.021106,-0.02591 -0.2768658,-0.123997 -0.5577492,-0.238821 -0.8366241,-0.358231 0.00515,0.01505 0.00772,0.03125 0.015453,0.04515 0.039932,0.07179 0.1393362,0.145783 0.2026461,0.197487 0.062727,0.05014 0.126204,0.09933 0.1899213,0.1482 -0.1159749,-0.07134 -0.012723,-0.03099 -0.1386042,-0.01571 -0.01571,0.0019 -0.03116,-0.0058 -0.046382,-0.01014 -0.0083,-0.0024 -0.019295,-0.01712 -0.023933,-0.0098 -0.042781,0.0671 -0.069874,0.143009 -0.1061289,0.21385 -0.039703,0.07758 -0.081153,0.154253 -0.1217295,0.231379 -0.1659543,0.299329 -0.3409959,0.593463 -0.5113308,0.890293 -0.1914462,0.367178 0.3318483,0.358765 0.7562892,0.617512 0.036624,0.02233 0.00295,-0.02335 0.025154,0.01171 -0.2587842,-0.162577 -0.5175681,-0.325153 -0.7763523,-0.487729 -0.00515,0.01997 -0.03286,0.09199 -0.018465,0.101049 0.7622574,0.47964 0.5239494,0.513262 0.8771808,0.448407 0.1234578,-0.02242 0.2225982,-0.101119 0.3233535,-0.170212 0.055112,-0.0269 0.1094274,-0.06412 0.1690731,-0.08113 0.030414,-0.0087 0.061991,-0.01267 0.092674,-0.02034 0.094722,-0.01803 0.1888134,-0.03863 0.2847183,-0.04961 0.061477,-0.0058 0.148092,-0.0091 0.1818018,-0.07095 0.00764,-0.01403 0.011399,-0.02985 0.017098,-0.04477 2.7e-4,-0.015 0.00652,-0.03114 7.74e-4,-0.045 -0.00342,-0.0082 -0.066743,-0.04736 -0.068471,-0.04843 -0.040235,-0.02511 -0.08016,-0.04905 -0.118743,-0.07668 -0.2791323,-0.199832 -0.2428809,-0.17573 -0.8587362,-0.48211 -0.030512,-0.01518 -0.092779,0.09651 -0.098556,0.117132 -0.00505,0.01802 -0.00501,0.0371 -0.00751,0.05565 0.0021,0.102179 0.068969,0.162096 0.1459827,0.217146 0.034952,0.02073 0.076832,0.03275 0.093912,0.07331 0.00324,0.0077 -5.97e-4,0.02951 0.00597,0.02435 0.011747,-0.0092 0.010814,-0.02787 0.01622,-0.0418 1.3436496,0.688838 0.9289425,0.648293 0.77235,0.365862 -0.021921,-0.03954 -0.03977,-0.08121 -0.060829,-0.121215 -0.042076,-0.07993 -0.033407,-0.06241 -0.085309,-0.14193 C 6.9345892,14.542873 6.859475,14.439349 6.7746185,14.390568 5.9314994,13.905882 6.2164013,13.76383 5.8840571,13.954609 c -0.013171,0.02619 -0.033376,0.0499 -0.039511,0.07857 -0.033376,0.155938 0.1081686,0.30973 0.2140227,0.401656 0.034233,0.02973 0.07261,0.05432 0.1089147,0.08148 0.3928164,0.26919 0.6968325,0.454066 1.1086026,0.579275 0.02714,0.0083 0.1625259,0.04564 0.194136,0.05735 0.024123,0.0089 0.04685,0.02126 0.070275,0.03189 -0.243901,-0.13804 -0.4878019,-0.27603 -0.7317025,-0.414021 0.015325,0.01043 0.03238,0.01868 0.045974,0.03128 0.014196,0.01316 0.026412,0.02864 0.0365,0.04516 0.030755,0.05036 0.040885,0.110578 0.053093,0.167187 0.089306,0.360799 0.2774748,0.261852 0.836748,0.558615 0.00639,0.0034 0.067292,-0.04717 0.072062,-0.05024 0.00614,-0.0039 0.013445,-0.0057 0.020167,-0.0085 -0.068011,0.328564 0.00705,0.01446 -0.7886424,-0.435593 -0.00741,-0.0042 0.00293,0.01685 0.00298,0.02536 1.2e-4,0.02433 -0.00739,0.04832 -0.00715,0.07265 2.1e-4,0.02111 0.00366,0.04207 0.00549,0.0631 0.012065,0.02379 0.019823,0.05032 0.036195,0.07138 0.019441,0.02501 0.042454,0.04838 0.06959,0.06473 0.2837598,0.170937 0.5718081,0.33475 0.8611962,0.495975 0.043191,0.02406 0.1315029,0.04506 0.1784271,0.0608 0.025811,0.0087 0.050987,0.0191 0.07648,0.02865 0.3145566,0.200193 -0.081215,-0.0532 -0.6555045,-0.368661 -0.019971,-0.01097 0.035911,0.02811 0.052868,0.04333 0.048213,0.04328 0.090545,0.09288 0.1336299,0.141085 0.35361,0.386768 0.7568961,0.753644 1.0000437,0.339924 0.00417,-0.01527 0.011963,-0.02999 0.012517,-0.04581 7.2e-4,-0.02059 0.00885,-0.05051 -0.00877,-0.06117 C 8.569193,15.84464 8.2850399,15.696912 7.9984838,15.555316 c -0.00941,-0.0047 -0.1552599,0.02114 -0.1749282,0.02382 -0.3098433,-0.09318 -0.1849797,-0.05934 0.6860082,0.385451 0.023718,0.01211 -0.04102,-0.03434 -0.058429,-0.05449 -0.057639,-0.06673 -0.094464,-0.149203 -0.1313343,-0.228162 -0.00768,-0.02095 -0.015367,-0.0419 -0.02305,-0.06284 -8.64e-4,-0.0062 -3.78e-4,-0.02455 -0.00259,-0.01867 -0.1310946,0.348627 0.3502122,0.211692 -0.7672848,-0.328331 -0.033107,-0.016 0.047366,0.05643 0.06793,0.08691 0.029148,0.04321 0.053967,0.08918 0.08095,0.133771 0.074713,0.136944 0.1408632,0.278253 0.2108865,0.417574 0.014757,0.02936 0.029251,0.05888 0.045285,0.08756 0.010117,0.0181 0.01536,0.04194 0.033106,0.05266 0.2709255,0.163705 0.5512524,0.311322 0.8268786,0.466983 0.047213,-0.0074 0.1111794,-0.135739 0.1445532,-0.128532 0.00841,0.0018 0.055575,0.05074 0.060565,0.0557 -0.2467818,-0.140359 -0.4934016,-0.281005 -0.7403454,-0.421079 -0.015489,-0.0088 0.030514,0.01837 0.045972,0.02721 0.275403,0.157504 0.545955,0.323867 0.8266047,0.471819 0.036216,0.01909 0.1108257,-0.06926 0.1299162,-0.09012 0.037394,-0.03156 0.054161,-0.08242 0.089545,-0.115387 0.00358,-0.0033 0.014158,-0.0091 0.01408,-0.0042 -3e-4,0.0185 0.00161,0.0619 -0.014867,0.05348 C 9.0824436,16.230811 8.83443,16.063392 8.5776771,15.911866 c 0.017999,-0.02467 0.00914,0.04944 0.016592,0.03786 0.00818,-0.01271 0.00863,-0.02897 0.012945,-0.04345 0.2642523,0.13913 0.5252805,0.284563 0.7927566,0.41739 0.014136,0.007 -0.021425,-0.02371 -0.028457,-0.03785 -0.012128,-0.02437 -0.018977,-0.05103 -0.028466,-0.07654 C 9.3022839,16.072759 9.2590107,15.937525 9.2023302,15.806789 8.4820329,15.375565 8.3304477,15.080062 8.325294,15.671756 c 0.00539,0.07983 -2.4e-4,0.04066 0.016645,0.117542 0,0 0.8333685,0.385922 0.8333685,0.385922 v 0 c -0.034471,-0.05184 -0.021899,-0.02234 -0.034066,-0.08997 -0.00389,-0.07022 -0.00509,-0.05139 2.7e-4,-0.123341 0.0013,-0.01746 0.00315,-0.03488 0.00503,-0.05229 0.0011,-0.01021 0.013264,-0.02631 0.00392,-0.03057 -0.00909,-0.0041 -0.00844,0.0292 -0.017247,0.02449 -0.2661648,-0.142392 -0.5226927,-0.302107 -0.7840389,-0.453161 0.0093,0.0044 0.020394,0.0061 0.027889,0.01307 0.076109,0.07125 0.1098861,0.260868 0.1441905,0.356944 0.0061,0.02622 0.013105,0.05224 0.018288,0.07866 0.00406,0.02067 -0.00845,0.05131 0.0094,0.06248 0.2715921,0.169878 0.7302609,0.696822 0.8698887,0.408508 0.00713,-0.01472 0.00285,-0.06504 0.00227,-0.07857 -0.4076952,-0.258723 -0.5744103,-0.715326 -0.8444103,-0.469179 -0.039805,0.03629 -0.056054,0.09417 -0.1005132,0.12675 -0.00903,0.0064 -0.0166,0.01569 -0.027086,0.01928 -0.013913,0.0048 -0.052213,-0.02704 -0.039474,-0.01969 0.2498112,0.144011 0.4983153,0.290285 0.7483038,0.433989 0.015719,0.009 -0.030277,-0.01996 -0.045415,-0.02994 -0.2786789,-0.159006 -0.5573591,-0.318008 -0.8360396,-0.47701 -0.059413,-0.0057 -0.062313,-0.01518 -0.1165803,0.01673 -0.015472,0.0091 -0.06966,0.07412 -0.083646,0.07498 -0.00626,3.84e-4 -0.010642,-0.0067 -0.015963,-0.01 0.2494371,0.148947 0.4988745,0.297894 0.7483116,0.446841 -0.017198,-0.01323 -0.037481,-0.02321 -0.051595,-0.03969 -0.022773,-0.02659 -0.039845,-0.05765 -0.057605,-0.08782 C 8.6195018,16.140996 8.5552455,15.996479 8.485536,15.855533 8.463618,15.810693 8.442315,15.765543 8.419781,15.721004 8.403718,15.689254 8.399106,15.646834 8.36976,15.626714 8.0939205,15.437598 7.6422186,14.90177 7.4678418,15.187155 c -0.013696,0.02242 0.02512,0.110571 0.027308,0.116748 0.1791402,0.431795 0.4825764,0.836035 1.0761807,0.805193 0.030737,-0.003 0.078202,-0.009 0.1094235,-0.0073 0.0172,8.94e-4 0.065817,0.01634 0.051151,0.0073 -0.057469,-0.03539 -0.9814965,-0.38556 -0.7036011,-0.46084 0.00442,-0.0012 0.0071,0.0058 0.010652,0.0087 -0.011137,0.02205 -0.029297,0.05907 -0.05868,0.06193 -0.00716,6.99e-4 -0.025737,-0.01277 -0.019538,-0.0091 0.8261124,0.485041 1.0067199,0.599966 0.7230363,0.420444 -0.046937,-0.04759 -0.089304,-0.09847 -0.1343925,-0.147771 -0.016275,-0.0178 -0.029166,-0.0399 -0.049658,-0.05261 C 7.7571505,15.4692 7.9524865,15.556431 7.5910729,15.402049 7.5458679,15.386689 7.4771818,15.364159 7.4338,15.345899 c -0.028979,-0.0122 -0.112356,-0.0562 -0.085468,-0.03991 0.2271093,0.137659 0.458211,0.268626 0.686547,0.40424 0.023795,0.01413 -0.049274,-0.02533 -0.072882,-0.03977 -0.016463,-0.01007 -0.031414,-0.02243 -0.047121,-0.03364 -0.00605,-0.01032 -0.015953,-0.01919 -0.018145,-0.03095 -5.01e-4,-0.0027 0.010832,-0.07424 0.011246,-0.07663 0.00226,-0.01306 0.018265,-0.03144 0.00742,-0.03908 -0.7692618,-0.541724 -0.550764,-0.712293 -0.8164935,-0.485264 -0.00754,0.0044 -0.025977,0.01891 -0.037774,0.01282 -0.00544,-0.0028 -0.014825,-0.01879 -0.00954,-0.01569 0.2571222,0.150549 0.5114721,0.305784 0.7669233,0.459151 0.00868,0.0052 -0.019517,-0.0074 -0.02658,-0.01467 -0.00944,-0.0097 -0.014242,-0.02301 -0.021363,-0.03451 -0.021146,-0.08513 -0.029439,-0.17964 -0.070282,-0.25855 -0.1569813,-0.303287 -0.9567735,-0.261619 -0.8762661,-0.530841 -0.085158,-0.02756 -0.1719,-0.04991 -0.256785,-0.07829 -0.2971698,-0.09934 -0.7754991,-0.383147 0.4318848,0.297788 -0.037642,-0.02257 -0.077312,-0.04205 -0.1129281,-0.0677 -0.099267,-0.07147 -0.2071881,-0.177292 -0.2424138,-0.297721 0.2614659,0.163045 0.019076,0.01164 -0.7191876,-0.419675 -0.019711,-0.01152 0.039972,0.02216 0.059018,0.03475 0.068101,0.045 0.1261734,0.101331 0.1783584,0.163882 0.046666,0.06117 0.084573,0.120598 0.1180773,0.189927 0.00884,0.01829 0.017751,0.03659 0.025397,0.05541 0.00673,0.01658 0.00237,0.04143 0.01769,0.05067 0.2717286,0.163911 0.5549001,0.308057 0.8323503,0.462086 0.00893,-0.01652 0.021695,-0.03148 0.026797,-0.04955 0.0032,-0.01134 -0.00177,-0.02351 -0.00286,-0.03524 -0.00526,-0.05647 -0.010988,-0.110416 -0.066058,-0.139543 -0.063602,-0.02884 -0.1452831,-0.07136 -0.1860045,-0.128731 -0.00272,-0.0096 -0.012314,-0.0282 -0.00358,-0.03951 0.0064,-0.0083 0.022398,0.01475 0.019378,0.01304 -1.0575021,-0.599301 -1.0085469,-0.572374 -0.7281171,-0.420349 0.051627,0.03531 0.098997,0.07357 0.154248,0.103574 0.00896,0.0049 0.017198,0.01566 0.027251,0.01393 0.012065,-0.0021 0.018819,-0.01567 0.028229,-0.0235 0.00792,-0.008 0.033671,-0.02608 0.022474,-0.02513 -0.00742,6.3e-4 -0.014044,0.0051 -0.021288,0.0068 -0.039103,0.0094 -0.079497,0.0103 -0.1190112,0.01719 -0.096796,0.01641 -0.1932765,0.0357 -0.2886345,0.05902 -0.1006668,0.02617 -0.1928979,0.06949 -0.278046,0.129891 -0.089288,0.06262 -0.1820625,0.126721 -0.296226,0.121123 -0.012449,-0.0029 -0.04833,-0.01523 -0.037347,-0.0087 0.017327,0.01032 0.9904086,0.328738 0.7280484,0.481021 -0.00476,0.0028 0.00125,-0.01098 0.00274,-0.01628 0.092995,-0.330978 0.7453629,0.487784 -0.7571964,-0.556433 -0.021063,1.2e-4 -0.012372,0.0037 -0.026829,-0.0086 0.2557467,0.161127 0.5114934,0.322253 0.7672401,0.483379 0.00441,0.0028 -0.011202,-0.0029 -0.013788,-0.0074 -0.00369,-0.0065 -0.00419,-0.01476 -0.00305,-0.0221 0.00237,-0.01527 0.0089,-0.02958 0.013357,-0.04437 0.1291617,-0.315668 0.2868255,-0.618728 0.4596687,-0.912639 0.084389,-0.132253 0.125031,-0.221767 0.2327874,-0.322685 0.00619,-0.0058 0.016514,-0.0039 0.02468,-0.0061 0.020095,-0.0056 0.040789,-0.0095 0.060091,-0.01745 0.086844,-0.03557 0.1485567,-0.12468 0.239031,-0.148762 -0.066975,-0.04937 -0.1339098,-0.09881 -0.199902,-0.149488 -0.044783,-0.03465 -0.089915,-0.06901 -0.1331427,-0.105614 -0.024864,-0.02105 -0.047303,-0.04507 -0.073545,-0.06438 -0.00782,-0.0058 -0.017034,-0.0093 -0.02555,-0.01399 C 6.4184901,13.041452 6.137916,12.901954 5.852823,12.772162 c -0.010661,-0.0049 0.014527,0.01838 0.021797,0.02757 0.036732,0.04641 0.073861,0.09266 0.115407,0.134916 0.072409,0.07005 0.1520094,0.130044 0.2321763,0.190962 0,0 0.8592561,0.341379 0.8592561,0.341379 z" />
  <path
     style="fill:#ffffff;stroke-width:0.03"
     id="path753"
     d="m 9.1387464,15.883393 c -0.00219,0.130799 -0.024449,0.26076 -0.051523,0.388512 -0.00497,0.01746 -0.00995,0.03492 -0.014923,0.05239 0,0 0.804633,0.438234 0.804633,0.438234 v 0 c 0.00546,-0.01953 0.010911,-0.03907 0.016367,-0.05861 0.027793,-0.132835 0.040554,-0.268106 0.069435,-0.400681 0,0 -0.8239893,-0.419844 -0.8239893,-0.419844 z" />
  <circle
     id="path755"
     style="fill:#ffffff;stroke:#000000;stroke-width:0.03"
     cx="9.9064989"
     cy="16.529078"
     r="0.00085088826" />
  <path
     style="fill:#ffffff;stroke-width:0.03"
     id="path757"
     d="m 9.8199963,16.312949 c -0.014408,0.06309 -0.025714,0.126823 -0.037511,0.190432 0,0 0.8059087,0.429212 0.8059087,0.429212 v 0 c 0.01079,-0.05955 0.02069,-0.119607 0.04175,-0.176653 0,0 -0.8101493,-0.442991 -0.8101493,-0.442991 z" />
  <path
     style="fill:#ffffff;stroke-width:0.03"
     id="path759"
     d="m 10.032886,16.112693 c -0.1890847,0.08214 -0.3700156,0.181438 -0.5500285,0.281477 -0.055901,0.03107 -0.1128933,0.06026 -0.167565,0.09344 -0.05167,0.03136 -0.1008201,0.06669 -0.15123,0.10004 -0.1065849,0.0705 -0.2025363,0.153928 -0.2950191,0.241502 0,0 0.7726809,0.472232 0.7726809,0.472232 v 0 c 0.079531,-0.08881 0.1647114,-0.171006 0.2632896,-0.239214 0.2716231,-0.181809 0.5641191,-0.349161 0.8846301,-0.425466 0,0 -0.756758,-0.524015 -0.756758,-0.524015 z" />
  <path
     style="fill:#ffffff;stroke-width:0.03"
     id="path761"
     d="m 10.609388,16.541398 c -0.06067,0.09459 -0.142884,0.170754 -0.226437,0.24456 0,0 0.780182,0.483453 0.780182,0.483453 v 0 c 0.08587,-0.07951 0.164427,-0.165415 0.238663,-0.255878 0,0 -0.792408,-0.472135 -0.792408,-0.472135 z" />
  <path
     style="fill:#ffffff;stroke-width:0.03"
     id="path763"
     d="m 11.816455,16.531593 c -0.22082,0.122614 -0.457437,0.213652 -0.690857,0.308989 -0.03704,0.01559 -0.07407,0.03119 -0.111107,0.04679 0,0 0.747471,0.497264 0.747471,0.497264 v 0 c 0.03535,-0.01612 0.07071,-0.03223 0.10606,-0.04835 0.236521,-0.101294 0.473665,-0.202577 0.715276,-0.29095 0,0 -0.766843,-0.513742 -0.766843,-0.513742 z" />
  <path
     style="fill:#ffffff;stroke-width:0.03"
     id="path765"
     d="m 12.775858,17.265794 c 0.115199,-0.0045 0.230515,-0.0019 0.34577,-0.0023 0.158388,-0.0018 0.316804,2.1e-4 0.475026,-0.0078 0.121746,-0.0057 0.243613,-0.0082 0.363034,-0.03521 0.08357,-0.0189 0.117797,-0.03257 0.19974,-0.05979 0.124663,-0.04196 0.253598,-0.07379 0.374521,-0.126392 0.06517,-0.02835 0.128498,-0.06079 0.193148,-0.09031 0.180751,-0.09251 0.371482,-0.161361 0.558362,-0.239553 0.111758,-0.04832 0.22695,-0.08698 0.339723,-0.132809 0.130835,-0.05185 0.261108,-0.10542 0.387223,-0.168149 0.215181,-0.09672 0.416324,-0.220115 0.615006,-0.3465 0.160856,-0.109631 0.322414,-0.2187 0.467458,-0.348934 0.116113,-0.112278 0.214778,-0.240231 0.311481,-0.369043 0.08411,-0.119598 0.1753,-0.233987 0.260935,-0.352409 0.101126,-0.124634 0.207832,-0.244065 0.305671,-0.371448 0.08142,-0.110993 0.172697,-0.213872 0.26642,-0.314469 0.107438,-0.120699 0.221235,-0.235099 0.338059,-0.346664 0.123019,-0.122708 0.246604,-0.244577 0.37482,-0.361895 0.145621,-0.124466 0.280943,-0.25947 0.410738,-0.400103 0.09546,-0.101753 0.190158,-0.204305 0.277654,-0.313054 0.06731,-0.09637 0.126778,-0.19775 0.187975,-0.298056 0.05936,-0.110442 0.115968,-0.222353 0.169705,-0.335639 0.0411,-0.0984 0.08935,-0.1939 0.125125,-0.294407 0.04415,-0.13715 0.06754,-0.279473 0.09118,-0.42122 0,0 -0.804174,-0.425461 -0.804174,-0.425461 v 0 c -0.01957,0.136547 -0.04691,0.271992 -0.0913,0.402872 -0.03223,0.09851 -0.08124,0.190334 -0.117271,0.287512 -0.05123,0.111243 -0.107661,0.219618 -0.166002,0.327301 -0.05676,0.09808 -0.119077,0.192736 -0.181942,0.286977 -0.08503,0.10725 -0.172854,0.212387 -0.266338,0.312402 -0.127125,0.138391 -0.259122,0.272679 -0.401128,0.395938 -0.13195,0.116353 -0.262228,0.234698 -0.38562,0.360185 -0.11408,0.116116 -0.229027,0.231363 -0.34131,0.34922 -0.09576,0.102795 -0.18815,0.208744 -0.270004,0.323118 -0.09627,0.12883 -0.203059,0.248597 -0.305184,0.372709 -0.08875,0.116048 -0.177386,0.232097 -0.261192,0.351827 -0.09295,0.124118 -0.185588,0.249448 -0.301869,0.353282 -0.141574,0.123551 -0.287721,0.241912 -0.444032,0.34657 -0.199788,0.125451 -0.406379,0.238097 -0.625246,0.327135 -0.126576,0.05795 -0.255335,0.110872 -0.384977,0.161569 -0.114252,0.04276 -0.230498,0.0803 -0.338778,0.137555 -0.183774,0.08291 -0.370807,0.158662 -0.553005,0.245212 -0.181591,0.08318 -0.369006,0.151223 -0.56088,0.206942 -0.08472,0.0237 -0.109235,0.03314 -0.19509,0.04725 -0.117774,0.01936 -0.237755,0.01901 -0.356546,0.02658 -0.160737,0.0029 -0.32148,-6.24e-4 -0.482232,-0.0013 -0.117339,-3.42e-4 -0.23473,0.0022 -0.352019,-0.0023 0,0 0.747364,0.542991 0.747364,0.542991 z" />
  <path
     style="fill:#ffffff;stroke-width:0.03"
     id="path767"
     d="M 6.0723675,10.350972 C 6.2912631,10.20694 6.5250006,10.087024 6.7352832,9.930357 6.8769288,9.8210733 7.0093296,9.7008936 7.1499474,9.5903613 7.2807975,9.4807176 7.4211795,9.385005 7.5624465,9.2895636 7.7363952,9.1634718 7.9134303,9.0421524 8.0864427,8.9147697 8.3048403,8.7456201 8.5240158,8.5787565 8.7559257,8.4283785 8.9637036,8.3065905 9.1728705,8.1870153 9.3867837,8.0762478 9.677121,7.9166235 9.9792468,7.7803962 10.282852,7.6483461 c 0.228727,-0.09687 0.457622,-0.1928925 0.696111,-0.2629611 0.300412,-0.080535 0.610306,-0.106662 0.918685,-0.1359717 0.320048,-0.029936 0.641594,-0.034646 0.962799,-0.036104 0.122279,4.08e-4 0.244636,-9.15e-4 0.366894,0.00226 0.03518,9.15e-4 0.07057,-3.75e-4 0.105491,0.00399 0.108522,0.013548 0.235433,0.049623 0.339059,0.075678 0.385592,0.1021254 0.768211,0.2162157 1.144704,0.3480951 0.17047,0.056093 0.338614,0.1191126 0.504327,0.1876929 0.06744,0.026175 0.0484,0.01647 0.108433,0.048071 0.015,0.0079 0.05938,0.03275 0.04468,0.024304 C 14.170659,7.1545952 14.559116,7.3522502 14.81766,7.537601 c 0.09653,0.077257 0.189145,0.1601034 0.271837,0.2521317 0,0 0.844464,0.3593715 0.844464,0.3593715 v 0 C 15.85704,8.0480751 15.762025,7.9633155 15.667969,7.8785295 15.360182,7.607484 14.98467,7.4145246 14.602954,7.2669144 14.441799,7.2061332 14.280148,7.1470128 14.114892,7.0980099 c -0.37579,-0.119952 -0.754896,-0.228927 -1.13557,-0.3322977 -0.146464,-0.036276 -0.227945,-0.06246 -0.374064,-0.078082 -0.152397,-0.016293 -0.311625,0.012409 -0.464416,0.00443 -0.322719,0.00783 -0.646116,0.012952 -0.967757,0.041733 -0.313596,0.032023 -0.626927,0.072515 -0.933868,0.1462146 C 9.9998904,6.952326 9.7710696,7.0519584 9.5451018,7.1586432 9.241854,7.300026 8.9371902,7.4384088 8.6358537,7.5838644 8.4202488,7.6964133 8.2103754,7.819866 8.0023752,7.9457859 7.7732964,8.102055 7.5556785,8.273901 7.3292298,8.4338871 7.1539311,8.5578729 6.9753213,8.6769201 6.8012007,8.8025889 6.6567807,8.8992972 6.5105211,8.9933064 6.377802,9.106164 6.2426727,9.2195871 6.1132758,9.3395583 5.9755407,9.4498269 5.76858,9.606138 5.544534,9.7425075 5.307183,9.847509 c 0,0 0.7651845,0.503464 0.7651845,0.503463 z" />
  <path
     style="fill:#ffffff;stroke-width:0.03"
     id="path769"
     d="m 14.032557,7.6184598 c 0.109946,0.013066 0.219161,0.035126 0.323649,0.072021 0.04763,0.025547 0.09422,0.052628 0.147032,0.066224 0.01995,0.00513 0.04074,0.00649 0.06068,0.01163 0.05317,0.01371 0.09549,0.032022 0.146884,0.051951 0.164005,0.070164 0.330726,0.133584 0.491733,0.2104521 0.213206,0.095215 0.413897,0.2144472 0.621083,0.3213162 0.05857,0.035412 0.119225,0.067163 0.178573,0.1012074 0.02441,0.014004 0.09713,0.056916 0.07271,0.042919 -1.249045,-0.7160577 -0.85764,-0.5166147 -0.599749,-0.331953 0.104771,0.081556 0.206346,0.166764 0.312468,0.2466504 0.146037,0.1065366 0.283342,0.2242461 0.426563,0.3344814 0.145287,0.1172103 0.25531,0.2710248 0.379289,0.409491 0.156051,0.1714236 0.304618,0.3494097 0.463298,0.5184318 0.117332,0.1224621 0.242948,0.2371602 0.377323,0.3406409 0.284448,0.161693 0.562758,0.334693 0.853342,0.485079 0.03218,0.01666 0.07204,0.0079 0.107995,0.01244 0.04212,0.0053 0.08427,0.01042 0.126226,0.01687 0.137908,0.0212 0.272741,0.05238 0.408022,0.08602 0.22356,0.05591 0.440183,0.133183 0.652677,0.22157 0.280893,0.153714 0.695865,0.381239 -0.610369,-0.351505 -0.01547,-0.0087 0.02871,0.02089 0.04226,0.03234 0.0399,0.03371 0.04513,0.04256 0.07986,0.0819 0.07598,0.09481 0.110657,0.168145 0.132569,0.287421 0.01941,0.146935 0.02453,0.295401 -0.0069,0.440634 -0.06116,0.183104 -0.103689,0.371566 -0.163196,0.555107 -0.287673,0.106195 -0.126152,0.03805 0.716178,0.375314 0.04933,0.01975 -0.07988,-0.07054 -0.114836,-0.110566 -0.04887,-0.05597 -0.09146,-0.117139 -0.13597,-0.176631 -0.100605,-0.134457 -0.224152,-0.308788 -0.321319,-0.444627 -0.308723,-0.423523 -0.62138,-0.848122 -0.981791,-1.22997 -0.07567,-0.08017 -0.156034,-0.155788 -0.23405,-0.233682 C 17.811117,9.8924481 17.623884,9.7384251 17.4377,9.5834745 c -0.03592,-0.029898 -0.07234,-0.059221 -0.107654,-0.089834 -0.01834,-0.015895 -0.02951,-0.044601 -0.05325,-0.049645 -0.01223,-0.0026 -0.0054,0.0244 -0.0081,0.0366 0.03852,0.3555066 0.03479,0.06246 -0.636773,-0.2597667 -0.06281,-0.030138 0.110755,0.08463 0.164025,0.1295274 0.185418,0.1562757 0.354097,0.3303483 0.524319,0.5025969 0.312676,0.3213329 0.60159,0.6643569 0.895041,1.0030099 0.129776,-0.05748 0.05869,0.157185 0.128737,0.17175 0.01564,0.0033 -0.0053,-0.05308 0.0095,-0.04697 0.263231,0.108947 0.508638,0.257628 0.770511,0.369798 0.03799,0.01628 -0.06407,-0.0523 -0.09453,-0.08025 -0.03808,-0.03493 -0.07397,-0.07218 -0.110947,-0.108263 -0.265251,-0.282476 -0.54241,-0.553099 -0.811139,-0.832183 -0.156899,-0.162699 -0.308164,-0.3306752 -0.457275,-0.500495 -0.07842,-0.089314 -0.158207,-0.1755456 -0.222036,-0.2758971 -0.0012,-0.00525 -0.0072,-0.019763 -0.0036,-0.01574 0.0054,0.00608 0.0032,0.017387 0.0095,0.022455 0.0099,0.00786 0.02359,0.00899 0.03542,0.013374 0.01764,0.00653 0.0354,0.012743 0.05302,0.019349 0.110555,0.041458 0.01435,0.00727 0.129935,0.047372 0.135099,0.066588 0.279702,0.1125954 0.412469,0.1838355 -0.252323,-0.1423515 -0.494045,-0.3053913 -0.75697,-0.4270545 -0.02197,-0.010168 -0.0035,0.048704 -0.01066,0.071846 -0.01071,0.034828 -0.02655,0.067944 -0.04241,0.1007481 -0.04493,0.09292 -0.102824,0.1801701 -0.156603,0.2680785 -0.0094,0.023342 -0.02842,0.04486 -0.02822,0.070024 2.7e-4,0.031655 0.0023,0.074187 0.02953,0.090258 0.288516,0.1700105 0.586185,0.3271605 0.895721,0.4549575 0.05157,0.02129 0.111268,-0.0091 0.166591,-0.01636 0.13816,-0.01813 0.254568,-0.0424 0.391366,-0.06849 0.06753,-0.01245 0.210979,-0.04781 0.290086,-0.03492 0.02008,0.0033 0.06988,0.04167 0.05218,0.03164 -1.617287,-0.9169228 -0.623873,-0.6922804 -0.788794,-0.3958423 -0.01266,0.022749 -0.02925,0.043075 -0.04387,0.064612 -0.08442,0.109821 -0.165639,0.211908 -0.173666,0.354621 0.0092,0.151765 -0.08136,0.283632 -0.138263,0.417617 -0.01016,0.02392 -0.01707,0.0491 -0.02561,0.07365 0.04705,0.38735 -0.0053,0.126467 0.875175,0.498486 0.0252,0.01065 0.05172,-0.01784 0.07756,-0.02682 0.06836,-0.02375 0.136579,-0.04739 0.205558,-0.06927 0.06621,-0.01165 0.133884,-0.03011 0.201632,-0.03071 0.06,-5.25e-4 0.115795,0.01822 0.171156,0.0385 0.278399,0.206881 -0.112647,-0.08697 -0.654401,-0.357396 -0.0378,-0.01887 0.06183,0.05766 0.09106,0.08817 0.07926,0.08273 0.151532,0.172997 0.224262,0.261426 0.240852,0.306334 -0.153003,0.08275 0.8801,0.396788 0.03383,0.01028 -0.04031,-0.05809 -0.06023,-0.08731 -0.09455,-0.138686 -0.05989,-0.0861 -0.150505,-0.236106 -0.08026,-0.136759 -0.151228,-0.278612 -0.222797,-0.420011 -0.01737,-0.03431 -0.03415,-0.06893 -0.05196,-0.10301 -0.01137,-0.02176 -0.015,-0.05108 -0.03556,-0.06449 -0.261066,-0.170323 -0.534371,-0.321105 -0.801556,-0.481657 -0.0172,0.03629 -0.04293,0.06967 -0.05161,0.108883 -0.0068,0.03073 0.02332,0.155605 0.02958,0.180166 0.02832,0.111107 0.07301,0.210943 0.122132,0.314108 0.06921,0.139896 0.155182,0.269151 0.267646,0.377944 0.04966,0.04804 0.108097,0.09381 0.161743,0.137438 0.287413,0.225033 0.557458,0.400455 0.926382,0.555144 0.03603,0.01511 0.04696,-0.06654 0.05136,-0.105368 0.0029,-0.02541 -0.01868,-0.04782 -0.0315,-0.06995 -0.02151,-0.03713 -0.04746,-0.0715 -0.07119,-0.107249 -0.240925,-0.342002 -0.470076,-0.692002 -0.72184,-1.026217 C 18.942836,10.380911 18.692363,10.143621 18.433555,9.9167832 18.207799,9.7210458 17.958062,9.5561493 17.703496,9.4008462 17.110265,9.0488973 16.505747,8.7167949 15.899766,8.3875464 15.836526,8.3525583 15.77299,8.3181006 15.710047,8.2825818 15.649021,8.2481451 15.466848,8.1432537 15.527874,8.177688 c 0.192664,0.1087119 0.38218,0.2230983 0.577091,0.3277284 0.05524,0.029655 -0.105397,-0.067952 -0.157669,-0.1025784 C 15.821115,8.3192505 15.77638,8.2870236 15.652833,8.2009497 15.396292,8.0194662 15.153525,7.8197958 14.895658,7.6402068 14.732401,7.5317034 14.814102,7.5849975 14.650582,7.4802852 c 0,0 -0.829346,-0.32214 -0.829346,-0.32214 v 0 c 0.164889,0.1027017 0.08277,0.050321 0.24634,0.1571721 0.264373,0.1754877 0.510067,0.3764757 0.76654,0.5630733 0.156804,0.1106295 0.136132,0.097322 0.297032,0.2056242 0.05286,0.035577 0.104315,0.073393 0.159016,0.1060617 0.424873,0.253746 0.851757,0.5050623 1.286127,0.7424508 0.252495,0.1373931 0.503766,0.2767884 0.754622,0.4171389 0.05231,0.029268 0.208865,0.117726 0.157226,0.087287 -0.202975,-0.1196472 -0.407515,-0.2366211 -0.611272,-0.3549315 0.255021,0.1497759 0.504319,0.3117933 0.732584,0.5004171 0.264287,0.2251209 0.524192,0.4567132 0.746839,0.7243852 0.253001,0.322431 0.482481,0.662582 0.702145,1.008428 0.01892,0.03228 0.03648,0.06539 0.05675,0.09684 0.09414,0.146092 -0.05995,-0.09727 0.09093,-0.0281 1.036439,0.475218 0.9617,0.601443 0.63631,0.356511 -0.08683,-0.06713 -0.179429,-0.130151 -0.256742,-0.208615 -0.07858,-0.07975 -0.137221,-0.175343 -0.192343,-0.271958 -0.03556,-0.06924 -0.06759,-0.126777 -0.09544,-0.199429 -0.02723,-0.07104 -0.03262,-0.104387 -0.04787,-0.17727 -0.0039,-0.01882 0.0068,-0.04993 -0.01124,-0.05656 -0.01726,-0.0063 -0.02692,0.02506 -0.04038,0.03758 -1.758392,-1.0676817 -0.861842,-0.630704 -0.705567,-0.399609 0.02269,0.03356 0.04083,0.06998 0.0604,0.105448 0.0769,0.13936 0.147279,0.282182 0.220974,0.423226 0.07283,0.133236 0.05942,0.112993 0.134828,0.235461 0.01565,0.02541 0.02139,0.06196 0.04792,0.07563 0.284236,0.146464 0.582124,0.264768 0.872497,0.398654 0.0096,0.0044 -0.02186,-0.0034 -0.02995,-0.01017 -0.01971,-0.01649 -0.0341,-0.03845 -0.05114,-0.05768 -0.07545,-0.09042 -0.152928,-0.178997 -0.228717,-0.269141 -0.02635,-0.03134 -0.04498,-0.07136 -0.07915,-0.09392 -0.733285,-0.484023 -0.543821,-0.414096 -0.911356,-0.539878 -0.143853,-0.02406 -0.2631,-0.0042 -0.40245,0.03647 -0.06524,0.02342 -0.130978,0.05039 -0.198548,0.06642 -0.02367,0.0056 -0.09205,-0.0012 -0.07191,0.01241 0.699511,0.473736 1.003569,0.323461 0.672261,0.464972 0.0022,-0.02089 3.06e-4,-0.04266 0.0067,-0.06267 0.01096,-0.03421 0.02976,-0.0654 0.04477,-0.09803 0.04428,-0.09621 0.100298,-0.195299 0.128113,-0.298159 0.0044,-0.01626 0.003,-0.03356 0.0046,-0.05034 -0.0039,-0.02145 -0.0098,-0.04405 -0.0066,-0.0662 0.01357,-0.09514 0.087,-0.166969 0.138927,-0.242449 0.0027,-0.0036 0.113182,-0.148952 0.10168,-0.158572 -0.687721,-0.5751531 -0.566304,-0.5870907 -1.109519,-0.4688121 -0.143608,0.025087 -0.244047,0.047782 -0.390657,0.052515 -0.0569,0.00184 -0.214646,-0.043093 -0.170644,-0.00697 0.204587,0.1679381 0.460075,0.2639921 0.673863,0.4200491 0.02154,0.01573 -0.05616,0.02861 -0.07872,0.01438 -0.01629,-0.01027 0.0079,-0.03769 0.01189,-0.05654 0.07008,-0.128525 0.149096,-0.254036 0.208434,-0.3880617 0.01612,-0.036402 0.07352,-0.084995 0.04356,-0.1112055 C 17.895586,9.5821544 17.610281,9.4321376 17.347972,9.252467 17.20993,9.194077 17.072236,9.1345316 16.93236,9.0807485 c -0.09902,-0.031742 -0.261676,-0.094879 -0.325065,0.033266 -0.01053,0.021295 -0.0064,0.047078 -0.0097,0.070617 0.01497,0.026929 0.02667,0.055955 0.0449,0.080789 0.02165,0.029488 0.191514,0.2129427 0.203294,0.2257971 0.155702,0.1698945 0.310598,0.3405447 0.468851,0.5080791 0.260303,0.2750363 0.523819,0.5468633 0.783928,0.8220573 0.03345,0.03587 0.06685,0.07178 0.100341,0.107598 0.02553,0.0273 0.04413,0.06348 0.07673,0.08176 0.285701,0.160188 0.571517,0.323056 0.873121,0.450809 0.02288,0.0097 0.03277,-0.04424 0.0288,-0.06877 -0.01337,-0.08276 -0.155226,-0.114705 -0.156295,-0.19705 -0.30329,-0.337412 -0.592779,-0.687237 -0.908383,-1.013445 C 17.946562,10.01083 17.781224,9.8381766 17.604983,9.6767658 17.556978,9.6328005 17.51285,9.5832804 17.458095,9.5480772 17.16718,9.361044 16.879289,9.1664088 16.570106,9.0114288 c -0.03743,-0.018761 -0.08124,0.020305 -0.121854,0.030458 -0.0042,0.019481 -0.02105,0.040436 -0.01252,0.058441 0.01327,0.028029 0.04554,0.042159 0.06949,0.06186 0.03996,0.032863 0.08142,0.06385 0.122138,0.095759 0.199916,0.1566516 0.401175,0.3120669 0.587165,0.4854795 0.07935,0.076486 0.161529,0.150144 0.238052,0.2294595 0.359943,0.3730802 0.664028,0.7970822 0.969478,1.2142642 0.09798,0.140266 0.207165,0.295458 0.303435,0.437531 0.03929,0.05799 0.07781,0.116508 0.116363,0.174992 0.02794,0.04239 0.03956,0.10156 0.08313,0.127626 0.282826,0.169206 0.577046,0.32134 0.880856,0.449095 0.0231,0.0097 0.03086,-0.03948 0.04629,-0.05922 0.05324,-0.186815 0.09748,-0.376079 0.168273,-0.557525 0.0075,-0.02693 0.01714,-0.05336 0.02258,-0.08079 0.02538,-0.127855 0.0041,-0.260435 0.0032,-0.389187 -0.01304,-0.139126 -0.02837,-0.21431 -0.110394,-0.330496 -0.02474,-0.0354 -0.04349,-0.06448 -0.07222,-0.0968 -0.256553,-0.288606 -0.6452,-0.431008 -0.994835,-0.587421 -0.211934,-0.08031 -0.427891,-0.149228 -0.648536,-0.20167 -0.123236,-0.02753 -0.149397,-0.03444 -0.275659,-0.05815 -0.03957,-0.0074 -0.22435,-0.038268 -0.266663,-0.048877 -0.281378,-0.070547 -0.744256,-0.4120389 0.603658,0.3828568 -0.141193,-0.0954 -0.268706,-0.20795 -0.389185,-0.328344 C 17.726717,9.8560512 17.574692,9.6793839 17.421647,9.5030388 17.378292,9.4550505 17.319153,9.3908487 17.277608,9.3402162 17.205675,9.2525481 17.142086,9.157176 17.057973,9.0801036 16.911044,8.9764896 16.775898,8.8578282 16.634352,8.747286 16.527702,8.6687037 16.422127,8.5894077 16.323953,8.5002411 16.285788,8.4721731 16.250665,8.439591 16.209942,8.4153822 15.850283,8.2015692 15.490395,7.9872015 15.121962,7.7885775 14.915444,7.6785048 14.710014,7.5665028 14.496786,7.4695893 14.331755,7.3951317 14.164071,7.327044 13.995371,7.2613368 c -0.07086,-0.024197 -0.144249,-0.043089 -0.21373,-0.071065 -0.05025,-0.020231 -0.04657,-0.023602 -0.09709,-0.042503 -0.01786,-0.00668 -0.03623,-0.011876 -0.05435,-0.017814 -0.110431,-0.027594 -0.222329,-0.046424 -0.334182,-0.067133 0,0 0.736542,0.5556387 0.736542,0.5556387 z" />
</svg>
