<svg width="26" height="26" viewBox="0 0 26 26" fill="none" xmlns="http://www.w3.org/2000/svg">
<path d="M22.9167 0.25C23.6681 0.25 24.3888 0.548511 24.9201 1.07986C25.4515 1.61122 25.75 2.33189 25.75 3.08333V22.9167C25.75 23.6681 25.4515 24.3888 24.9201 24.9201C24.3888 25.4515 23.6681 25.75 22.9167 25.75H3.08333C2.33189 25.75 1.61122 25.4515 1.07986 24.9201C0.548511 24.3888 0.25 23.6681 0.25 22.9167V3.08333C0.25 2.33189 0.548511 1.61122 1.07986 1.07986C1.61122 0.548511 2.33189 0.25 3.08333 0.25H22.9167ZM18.0717 20.0833L16.7258 14.3033L21.2025 10.4358L15.295 9.92583L13 4.5L10.705 9.94L4.7975 10.45L9.27417 14.3175L7.92833 20.0833L13 17.0233L18.0717 20.0833Z" fill="black"/>
</svg>
