<svg width="16" height="16" viewBox="0 0 16 16" fill="none" xmlns="http://www.w3.org/2000/svg">
<path d="M14.416 11.3333V2.08329H5.16602V11.3333H14.416ZM15.9577 11.3333C15.9577 12.1812 15.2639 12.875 14.416 12.875H5.16602C4.3181 12.875 3.62435 12.1812 3.62435 11.3333V2.08329C3.62435 1.23538 4.3181 0.541626 5.16602 0.541626H14.416C15.2639 0.541626 15.9577 1.23538 15.9577 2.08329V11.3333ZM11.3327 14.4166V15.9583H2.08268C1.23477 15.9583 0.541016 15.2645 0.541016 14.4166V4.39579H2.08268V14.4166H11.3327ZM9.94518 2.85413C9.25143 2.85413 8.71185 3.00829 8.32643 3.31663C7.94102 3.62496 7.70977 4.08746 7.70977 4.70413H9.17435C9.17435 4.47288 9.25143 4.31871 9.4056 4.16454C9.55977 4.08746 9.71393 4.01038 9.94518 4.01038C10.1764 4.01038 10.4077 4.08746 10.5618 4.24163C10.716 4.39579 10.7931 4.54996 10.7931 4.85829C10.7931 5.08954 10.716 5.32079 10.6389 5.47496C10.5618 5.62913 10.3306 5.78329 10.1764 5.93746C9.79102 6.16871 9.48268 6.39996 9.4056 6.63121C9.09727 6.78538 9.02018 7.09371 9.02018 7.47913H10.5618C10.5618 7.24788 10.5618 7.01663 10.6389 6.93954C10.716 6.78538 10.8702 6.63121 11.0244 6.55413C11.3327 6.39996 11.641 6.16871 11.8723 5.86038C12.1035 5.47496 12.2577 5.16663 12.2577 4.78121C12.2577 4.16454 12.0264 3.70204 11.641 3.39371C11.2556 3.00829 10.6389 2.85413 9.94518 2.85413ZM9.02018 8.24996V9.79163H10.5618V8.24996H9.02018Z" fill="black"/>
</svg>
