<svg width="22" height="22" viewBox="0 0 22 22" fill="none" xmlns="http://www.w3.org/2000/svg">
<path d="M21.0625 0.0625C20.9586 0.0625 20.852 0.0816407 20.7453 0.125391L4.98438 6.4582H0.5C0.259375 6.4582 0.0625 6.66055 0.0625 6.91211V15.0879C0.0625 15.3395 0.259375 15.5418 0.5 15.5418H3.28086C3.17969 15.859 3.125 16.1953 3.125 16.5371C3.125 18.3391 4.59609 19.8047 6.40625 19.8047C7.92109 19.8047 9.19805 18.7766 9.57539 17.3875L20.748 21.8773C20.8547 21.9184 20.9613 21.9402 21.0652 21.9402C21.5273 21.9402 21.9402 21.552 21.9402 21.0324V0.970312C21.9375 0.450781 21.5273 0.0625 21.0625 0.0625ZM6.40625 17.8441C5.68164 17.8441 5.09375 17.259 5.09375 16.5371C5.09375 16.2309 5.20039 15.9383 5.39453 15.7059L7.71602 16.6383C7.66133 17.3109 7.09531 17.8441 6.40625 17.8441ZM19.9688 19.441L5.71719 13.7152L5.36445 13.573H2.03125V8.42695H5.36445L5.71719 8.28477L19.9688 2.55898V19.441Z" fill="black"/>
</svg>
