<svg width="14" height="18" viewBox="0 0 14 18" fill="none" xmlns="http://www.w3.org/2000/svg">
<path d="M0.333984 14.8332V13.1665H2.00065V7.33317C2.00065 6.18039 2.34787 5.15595 3.04232 4.25984C3.73676 3.36428 4.63954 2.77761 5.75065 2.49984V1.9165C5.75065 1.56928 5.87232 1.27428 6.11565 1.0315C6.35843 0.788171 6.65343 0.666504 7.00065 0.666504C7.34787 0.666504 7.64287 0.788171 7.88565 1.0315C8.12898 1.27428 8.25065 1.56928 8.25065 1.9165V2.49984C9.36176 2.77761 10.2645 3.36428 10.959 4.25984C11.6534 5.15595 12.0007 6.18039 12.0007 7.33317V13.1665H13.6673V14.8332H0.333984ZM7.00065 17.3332C6.54232 17.3332 6.1501 17.1701 5.82398 16.844C5.49732 16.5173 5.33398 16.1248 5.33398 15.6665H8.66732C8.66732 16.1248 8.50426 16.5173 8.17815 16.844C7.85148 17.1701 7.45898 17.3332 7.00065 17.3332ZM3.66732 13.1665H10.334V7.33317C10.334 6.4165 10.0076 5.63178 9.35482 4.979C8.70204 4.32623 7.91732 3.99984 7.00065 3.99984C6.08398 3.99984 5.29926 4.32623 4.64648 4.979C3.99371 5.63178 3.66732 6.4165 3.66732 7.33317V13.1665Z" fill="white"/>
</svg>
