<svg width="24" height="23" viewBox="0 0 24 23" fill="none" xmlns="http://www.w3.org/2000/svg">
  <path d="M5.70001 0.849976C5.51198 0.850077 5.32742 0.90067 5.16562 0.996469C5.00383 1.09227 4.87072 1.22976 4.78021 1.39458L0.930213 8.39457C0.828749 8.57921 0.785172 8.79009 0.805146 8.99982C0.82512 9.20955 0.907721 9.40841 1.04221 9.57057L11.1922 21.8206C11.2907 21.9395 11.4143 22.0352 11.554 22.1009C11.6938 22.1666 11.8463 22.2006 12.0007 22.2006C12.1551 22.2006 12.3076 22.1666 12.4474 22.1009C12.5871 22.0352 12.7107 21.9395 12.8092 21.8206L22.9592 9.57057C23.0937 9.40841 23.1763 9.20955 23.1963 8.99982C23.2163 8.79009 23.1727 8.57921 23.0712 8.39457L19.2212 1.39458C19.1306 1.22955 18.9973 1.09192 18.8352 0.996112C18.6731 0.9003 18.4883 0.849826 18.3 0.849976H5.70001ZM3.81841 7.49997L6.32021 2.94998H8.42021L6.82701 7.49997H3.81841ZM6.60161 9.59997L9.30221 16.2472L3.79321 9.59997H6.60161ZM11.9846 17.2734L8.86821 9.59997H15.0086L11.9846 17.2734ZM9.05301 7.49997L10.6448 2.94998H13.3678L15.0436 7.49997H9.05161H9.05301ZM17.2822 7.49997L15.6064 2.94998H17.6784L20.1816 7.49997H17.2822ZM17.2654 9.59997H20.2054L14.5984 16.3676L17.2654 9.59997Z" fill="#F4C90C"/>
</svg>
