<svg width="16" height="20" viewBox="0 0 16 20" fill="none" xmlns="http://www.w3.org/2000/svg">
<path d="M8 18.3334C11.4312 18.3334 14.25 15.6142 14.25 12.1242C14.25 11.2675 14.2063 10.3492 13.7313 8.92169C13.2563 7.49419 13.1608 7.31002 12.6587 6.42835C12.4442 8.2271 11.2962 8.9771 11.0046 9.20127C11.0046 8.96794 10.3104 6.39002 9.2575 4.8471C8.22375 3.33335 6.81792 2.34044 5.99375 1.66669C5.99375 2.94585 5.63417 4.84752 5.11875 5.81669C4.60375 6.78544 4.50708 6.82085 3.86333 7.54169C3.22 8.26252 2.92458 8.48544 2.38625 9.36044C1.84833 10.2354 1.75 11.4009 1.75 12.2575C1.75 15.7475 4.56875 18.3334 8 18.3334Z" stroke="black" stroke-width="2" stroke-linejoin="round"/>
</svg>
