<svg width="30" height="22" viewBox="0 0 30 22" fill="none" xmlns="http://www.w3.org/2000/svg">
<path d="M0.333984 21.6668V17.9335C0.333984 17.1779 0.528651 16.4833 0.917984 15.8495C1.30643 15.2166 1.82287 14.7335 2.46732 14.4002C3.8451 13.7113 5.2451 13.1944 6.66732 12.8495C8.08954 12.5055 9.53398 12.3335 11.0007 12.3335C12.4673 12.3335 13.9118 12.5055 15.334 12.8495C16.7562 13.1944 18.1562 13.7113 19.534 14.4002C20.1784 14.7335 20.6949 15.2166 21.0833 15.8495C21.4727 16.4833 21.6673 17.1779 21.6673 17.9335V21.6668H0.333984ZM24.334 21.6668V17.6668C24.334 16.6891 24.062 15.7499 23.518 14.8495C22.9731 13.9499 22.2007 13.1779 21.2007 12.5335C22.334 12.6668 23.4007 12.8944 24.4007 13.2162C25.4007 13.5388 26.334 13.9335 27.2007 14.4002C28.0007 14.8446 28.6118 15.3388 29.034 15.8828C29.4562 16.4277 29.6673 17.0224 29.6673 17.6668V21.6668H24.334ZM11.0007 11.0002C9.53398 11.0002 8.27843 10.4779 7.23398 9.4335C6.18954 8.38905 5.66732 7.1335 5.66732 5.66683C5.66732 4.20016 6.18954 2.94461 7.23398 1.90016C8.27843 0.855719 9.53398 0.333496 11.0007 0.333496C12.4673 0.333496 13.7229 0.855719 14.7673 1.90016C15.8118 2.94461 16.334 4.20016 16.334 5.66683C16.334 7.1335 15.8118 8.38905 14.7673 9.4335C13.7229 10.4779 12.4673 11.0002 11.0007 11.0002ZM24.334 5.66683C24.334 7.1335 23.8118 8.38905 22.7673 9.4335C21.7229 10.4779 20.4673 11.0002 19.0007 11.0002C18.7562 11.0002 18.4451 10.9726 18.0673 10.9175C17.6895 10.8615 17.3784 10.8002 17.134 10.7335C17.734 10.0224 18.1949 9.2335 18.5167 8.36683C18.8393 7.50016 19.0007 6.60016 19.0007 5.66683C19.0007 4.7335 18.8393 3.8335 18.5167 2.96683C18.1949 2.10016 17.734 1.31127 17.134 0.600163C17.4451 0.489051 17.7562 0.416607 18.0673 0.38283C18.3784 0.349941 18.6895 0.333496 19.0007 0.333496C20.4673 0.333496 21.7229 0.855719 22.7673 1.90016C23.8118 2.94461 24.334 4.20016 24.334 5.66683Z" fill="#171717"/>
</svg>
