<svg width="18" height="18" viewBox="0 0 18 18" fill="none" xmlns="http://www.w3.org/2000/svg">
<path d="M11.3253 0.978726C11.0225 0.668833 10.6608 0.422594 10.2615 0.254476C9.86214 0.0863591 9.43323 -0.000244141 8.99995 -0.000244141C8.56667 -0.000244141 8.13776 0.0863591 7.73843 0.254476C7.33909 0.422594 6.97739 0.668833 6.67457 0.978726L5.97482 1.69648L4.97357 1.6841C4.54017 1.67897 4.11011 1.76055 3.70869 1.92405C3.30728 2.08755 2.9426 2.32966 2.63612 2.63614C2.32963 2.94263 2.08752 3.3073 1.92402 3.70872C1.76053 4.11014 1.67894 4.54019 1.68407 4.9736L1.69532 5.97485L0.979824 6.6746C0.669932 6.97742 0.423692 7.33912 0.255575 7.73845C0.0874577 8.13779 0.000854492 8.5667 0.000854492 8.99998C0.000854492 9.43326 0.0874577 9.86216 0.255575 10.2615C0.423692 10.6608 0.669932 11.0225 0.979824 11.3254L1.69645 12.0251L1.68407 13.0264C1.67894 13.4598 1.76053 13.8898 1.92402 14.2912C2.08752 14.6926 2.32963 15.0573 2.63612 15.3638C2.9426 15.6703 3.30728 15.9124 3.70869 16.0759C4.11011 16.2394 4.54017 16.321 4.97357 16.3159L5.97482 16.3046L6.67457 17.0201C6.97739 17.33 7.33909 17.5762 7.73843 17.7444C8.13776 17.9125 8.56667 17.9991 8.99995 17.9991C9.43323 17.9991 9.86214 17.9125 10.2615 17.7444C10.6608 17.5762 11.0225 17.33 11.3253 17.0201L12.0251 16.3035L13.0263 16.3159C13.4597 16.321 13.8898 16.2394 14.2912 16.0759C14.6926 15.9124 15.0573 15.6703 15.3638 15.3638C15.6703 15.0573 15.9124 14.6926 16.0759 14.2912C16.2394 13.8898 16.321 13.4598 16.3158 13.0264L16.3046 12.0251L17.0201 11.3254C17.33 11.0225 17.5762 10.6608 17.7443 10.2615C17.9124 9.86216 17.999 9.43326 17.999 8.99998C17.999 8.5667 17.9124 8.13779 17.7443 7.73845C17.5762 7.33912 17.33 6.97742 17.0201 6.6746L16.3034 5.97485L16.3158 4.9736C16.321 4.54019 16.2394 4.11014 16.0759 3.70872C15.9124 3.3073 15.6703 2.94263 15.3638 2.63614C15.0573 2.32966 14.6926 2.08755 14.2912 1.92405C13.8898 1.76055 13.4597 1.67897 13.0263 1.6841L12.0251 1.69535L11.3253 0.979851V0.978726ZM11.6482 7.71073L8.2732 11.0857C8.22095 11.1381 8.15887 11.1797 8.09054 11.208C8.0222 11.2364 7.94894 11.251 7.87495 11.251C7.80096 11.251 7.7277 11.2364 7.65936 11.208C7.59102 11.1797 7.52895 11.1381 7.4767 11.0857L5.7892 9.39823C5.7369 9.34593 5.69541 9.28384 5.66711 9.21551C5.63881 9.14718 5.62424 9.07394 5.62424 8.99998C5.62424 8.92601 5.63881 8.85278 5.66711 8.78444C5.69541 8.71611 5.7369 8.65403 5.7892 8.60173C5.8415 8.54943 5.90358 8.50794 5.97192 8.47964C6.04025 8.45133 6.11349 8.43676 6.18745 8.43676C6.26141 8.43676 6.33465 8.45133 6.40298 8.47964C6.47131 8.50794 6.5334 8.54943 6.5857 8.60173L7.87495 9.8921L10.8517 6.91423C10.9573 6.8086 11.1006 6.74927 11.2499 6.74927C11.3993 6.74927 11.5426 6.8086 11.6482 6.91423C11.7538 7.01985 11.8132 7.1631 11.8132 7.31248C11.8132 7.46185 11.7538 7.6051 11.6482 7.71073Z" fill="#009BF5"/>
</svg>
