<svg width="27" height="27" viewBox="0 0 27 27" fill="none" xmlns="http://www.w3.org/2000/svg">
<path d="M25.6876 0H19.3126C19.0308 0 18.7606 0.111942 18.5613 0.311199C18.362 0.510457 18.2501 0.780707 18.2501 1.0625C18.2501 1.34429 18.362 1.61454 18.5613 1.8138C18.7606 2.01306 19.0308 2.125 19.3126 2.125H23.1243L17.5329 7.71641C15.4225 5.99103 12.7297 5.14279 10.0114 5.34713C7.29309 5.55148 4.75733 6.79278 2.92859 8.81429C1.09984 10.8358 0.118015 13.4829 0.186188 16.208C0.254361 18.9331 1.36732 21.5277 3.29486 23.4552C5.22239 25.3828 7.81705 26.4957 10.5421 26.5639C13.2672 26.6321 15.9143 25.6503 17.9358 23.8215C19.9573 21.9928 21.1986 19.457 21.403 16.7387C21.6073 14.0204 20.7591 11.3276 19.0337 9.21719L24.6251 3.62578V7.4375C24.6251 7.71929 24.737 7.98954 24.9363 8.1888C25.1356 8.38806 25.4058 8.5 25.6876 8.5C25.9694 8.5 26.2396 8.38806 26.4389 8.1888C26.6382 7.98954 26.7501 7.71929 26.7501 7.4375V1.0625C26.7501 0.780707 26.6382 0.510457 26.4389 0.311199C26.2396 0.111942 25.9694 0 25.6876 0V0ZM16.829 21.9539C15.6396 23.141 14.125 23.9488 12.4766 24.2754C10.8283 24.602 9.12006 24.4327 7.56788 23.7889C6.01569 23.145 4.68918 22.0555 3.75594 20.6581C2.82269 19.2606 2.32461 17.6179 2.32461 15.9375C2.32461 14.2571 2.82269 12.6144 3.75594 11.2169C4.68918 9.81947 6.01569 8.72999 7.56788 8.08615C9.12006 7.44231 10.8283 7.27299 12.4766 7.59959C14.125 7.92618 15.6396 8.73405 16.829 9.92109C18.417 11.5208 19.3082 13.6834 19.3082 15.9375C19.3082 18.1916 18.417 20.3542 16.829 21.9539V21.9539Z" fill="white"/>
</svg>
